/* XPM */
static char *result[] = {
/* columns rows colors chars-per-pixel */
"48 48 204 2 ",
"   c #41135D",
".  c #431660",
"X  c #491762",
"o  c #451B63",
"O  c #4C1A65",
"+  c #511C67",
"@  c #531C69",
"#  c #5D1F70",
"$  c #621F76",
"%  c #472067",
"&  c #4B246A",
"*  c #4D2A6D",
"=  c #55246D",
"-  c #5B226D",
";  c #522A6E",
":  c #5D2670",
">  c #522E71",
",  c #5E2B73",
"<  c #4F3373",
"1  c #553374",
"2  c #5A3174",
"3  c #5E377A",
"4  c #563C79",
"5  c #5C3D7B",
"6  c #642374",
"7  c #632976",
"8  c #672578",
"9  c #6C247B",
"0  c #652A78",
"q  c #6B2A7D",
"w  c #71257F",
"e  c #613277",
"r  c #63337A",
"t  c #69347E",
"y  c #643C7E",
"u  c #57427D",
"i  c #62417F",
"p  c #6D2D80",
"a  c #752582",
"s  c #752B85",
"d  c #6D3282",
"f  c #673A82",
"g  c #6C3B84",
"h  c #723384",
"j  c #783087",
"k  c #723C87",
"l  c #763389",
"z  c #783389",
"x  c #753B8C",
"c  c #7A3B8D",
"v  c #743F90",
"b  c #7B3F90",
"n  c #664583",
"m  c #6D4185",
"M  c #644B86",
"N  c #694A89",
"B  c #6D4B8B",
"V  c #74448C",
"C  c #79428E",
"Z  c #724B8D",
"A  c #605187",
"S  c #64528A",
"D  c #6B528C",
"F  c #6B5A8F",
"G  c #71538E",
"H  c #754492",
"J  c #7C4392",
"K  c #754C94",
"L  c #7C4B95",
"P  c #774F98",
"I  c #7F4F99",
"U  c #6D5B92",
"Y  c #755592",
"T  c #745D94",
"R  c #7E539A",
"E  c #77599A",
"W  c #7B5D9A",
"Q  c #6A6394",
"!  c #686896",
"~  c #6E6B99",
"^  c #736196",
"/  c #7A639B",
"(  c #746B9B",
")  c #7B6A9E",
"_  c #73719D",
"`  c #7A729F",
"'  c #795FA0",
"]  c #7663A2",
"[  c #7C6BA1",
"{  c #7A6AA5",
"}  c #7D75A3",
"|  c #7679A5",
" . c #7E7CA6",
".. c #7E74AB",
"X. c #814E99",
"o. c #81549B",
"O. c #82629F",
"+. c #845EA1",
"@. c #8564A4",
"#. c #8867A6",
"$. c #856CA6",
"%. c #8869A7",
"&. c #866DA9",
"*. c #896DA9",
"=. c #8373A6",
"-. c #817BA7",
";. c #8475AA",
":. c #8A74AC",
">. c #847CAB",
",. c #8B79AF",
"<. c #8C7DB1",
"1. c #7885AA",
"2. c #7D84AA",
"3. c #7889B1",
"4. c #7C9EC2",
"5. c #8383AC",
"6. c #818BAE",
"7. c #8686B2",
"8. c #8D83B4",
"9. c #868FB3",
"0. c #8C8AB6",
"q. c #8E8BB9",
"w. c #9286B7",
"e. c #918CBA",
"r. c #8593B4",
"t. c #8B93B6",
"y. c #869AB7",
"u. c #8E93BA",
"i. c #869ABA",
"p. c #8C9BBB",
"a. c #9294BC",
"s. c #9994BE",
"d. c #919CBE",
"f. c #8FA4BE",
"g. c #95A3BE",
"h. c #8F9DC2",
"j. c #9596C0",
"k. c #959CC2",
"l. c #9A9DC4",
"z. c #89A9C5",
"x. c #94A4C4",
"c. c #99A4C5",
"v. c #95ACC4",
"b. c #9BACC6",
"n. c #9CA6C8",
"m. c #95ACCA",
"M. c #9CACCA",
"N. c #98B2C7",
"B. c #97B3CB",
"V. c #9CB4CB",
"C. c #9CBACE",
"Z. c #87BAD0",
"A. c #9DB7D1",
"S. c #9DBCD2",
"D. c #A1ACCC",
"F. c #A1B3CE",
"G. c #A1BACE",
"H. c #A5B5D1",
"J. c #A9B6D1",
"K. c #A3BDD3",
"L. c #A9BCD4",
"P. c #95C8D9",
"I. c #92CDDB",
"U. c #A4C4D4",
"Y. c #AAC3D6",
"T. c #A5C9D5",
"R. c #ABCAD7",
"E. c #A5C5D9",
"W. c #ACC5DA",
"Q. c #A6C9D9",
"!. c #ADCCDB",
"~. c #B1C5D9",
"^. c #B3CCDE",
"/. c #ADD3DD",
"(. c #B1D2DE",
"). c #9CD4E1",
"_. c #B3CEE0",
"`. c #A2D5E1",
"'. c #AED6E1",
"]. c #ADDAE2",
"[. c #B4D4E1",
"{. c #BAD5E3",
"}. c #B4DAE4",
"|. c #BADBE6",
" X c #B7DCE8",
".X c #BBDDE9",
"XX c #B7E2E8",
"oX c #BBE3EA",
"OX c #BEEAED",
"+X c #C2DCE7",
"@X c #C3DEEA",
"#X c #C3E3EC",
"$X c #CAE6EE",
"%X c #C3EAEE",
"&X c #CBEAEE",
"*X c #C4ECF1",
"=X c #CBEEF1",
"-X c #D1EEF2",
";X c #D9EEF2",
":X c #D5F1F4",
">X c #DCF3F6",
",X c #E6F7F9",
"<X c #E5F9F9",
"1X c #F9FEFE",
/* pixels */
"a a a a a a a a 9 6 - - - - +         o   o     - : - : : , , e p p p p # # 8 9 a a a a a a a a ",
"a a a a a a a a 9 6 - - - : = O O o   % o o & * = , 7 e e e i i S N x p p # $ $ a a a a a a a a ",
"a a a a a w w 9 9 6 6 6 8 0 7 - & & * & * * ; , e t r t i N F | 3.U B g p # 8 $ a a a a a a a a ",
"a a a a a w 8 6 6 9 9 9 t j t e 2 1 < > > 1 3 y y C k i N Q | z.I.3.U N p p p a a a a a a a a a ",
"a a a a a 9 $ - 6 9 w j c C C m i i u 5 5 y i Z V C V V F 1.z.XX:XP.3.Q l s a a a a a a a a a a ",
"a a a a a w 9 6 9 w j j C K L Z Y G S u u M N Z K L Y G / 3.Z.%X,X).4.( v s a a a a a a a a a a ",
"a a a a a w w 9 w w j k K Y E W } | Q S S D D G T T E R W ..0.S.).h.>.' x s a a a a a a a a a a ",
"a a a a a a a w w w j c Y ^ ( ..D.~.6.Q F F T T T T W W @.&.,.h.m.q.*.o.v s a a a a a a a a a a ",
"a a a a a a a a a s c J T ) =.>.L.^.y._ ~ ^ / / ) O.O.O.#.%.:.8.w.<.%.R c s a a a a a a a a a a ",
"a a a a a a a s s s b I @.$.:.,.w.u.-.` ) ) $.$.;.-.=.%.#.%.*.:.<.,.%.+.b z s a a a a a a a a a ",
"a a a a s l l l z z b +.&.,.<.,.<.,.;.=.=.=.:.,.8.8.,.:.%.%.*.,.,.,.%.' X.z s s a a a a a a a a ",
"a a a s l x v v b b J +.:.<.<.:.;.;.-.-.-.5.8.w.s.s.e.,.:.:.,.,.<.<.:.+.X.z s s a a a a a a a a ",
"a a a l x K ] ' L L X.+.<.w.7.;.=.`  . .7.0.s.l.A.D.j.j.8.,.,.8.8.8.<.$.X.c s s a a a a a a a a ",
"a a s z H &.H.l.' I +.%.8.q.7...-.5.2.6.9.k.n.J.[.W.D.l.e.8.0.u.q.j.<.&.+.X.z s a a a a a a a a ",
"a a s z K ..L.l.] R +.:.q.j.q.7.5.6.6.6.h.m.K._.-X#X!.F.k.a.a.a.j.j.w.:.+.X.b z s a a a a a a a ",
"a a s j v P ..{ R +.+.:.j.j.h.r.6.r.r.f.x.K.'.*X1X<X.XE.M.k.k.k.h.j.j.<.#.X.b v v l s a a a a a ",
"a a s s l x H L L o.#.<.k.c.x.p.p.p.f.f.N.U.^.oX,X-X|.W.F.n.n.M.m.n.j.<.&.+.R ' v v l s a a a a ",
"a a a a s l x c J I #.8.x.N.m.x.f.f.g.g.N.G.Y.(.#X#X^.L.V.M.D.A.D.A.h.j.,.%.{ j...H v s a a a a ",
"a a a a a s s z b I &.e.m.A.A.m.v.v.N.N.G.U.R.^.+X+X^.Y.A.V.H.K.K.A.m.j.<...j.{.n.' v s a a a a ",
"a a a a a a a l b I *.j.A.K.K.G.N.N.C.U.U.Y.R.^.}.}.(.Y.K.K.L.W.E.K.M.k.w.&.&.h.<.P v s a a a a ",
"a a a a a a a j b R :.k.H.U.U.G.U.C.U.U.U.U.R.^.(.}.(.R.U.K.W.!.W.W.H.l.e.*.+.E P v l s a a a a ",
"a a a a a a s j H W 5.x.P.Q.E.K.U.U.U.T.T.T.R./.}.|.[.!.W.W.W.!.!.!.K.M.e.&.R L v l s a a a a a ",
"a a a a a a s l V T 5.x.U.Q.T.U.U.U.U.R.R./.R.(. XXX}.(.!.!.!.!./.!.Y.D.e.$.X.c s a a a a a a a ",
"a a a a 9 9 9 d Z ^ 1.v.U./.R.T.U.U.T.R./.(.(./.XXXX}.(.^.R.(.(./.!.U.M.q.[ Z t p a 8 p p a a a ",
"a a 9 8 $ 6 7 f D ~ 3.b.U./.R.T.R.R./.(./.(./.].XXXXXX(././.^./././.T.N.r.~ B r 7 6 # 6 8 w a a ",
"a a 9 6 6 : r n ! | i.N.T././.R.R.!./.(.}.].}.}.XXoX%X(./.!././././.T.f.3.! u 1 : - - # 6 9 a a ",
"a a 9 8 6 7 g U | z.B.K././././././.(.}.}.}.}..XoXOXoX(.(.(.(.(.]./.T.N.y.~ i e 7 6 6 6 8 w a a ",
"a a a 9 q d K { h.`.'.W.[.}.].(.^.[.[.}..XoX@X+XOX%X#X(.XX(.(./.]./.T.N.t.` F i q 9 9 9 9 w a a ",
"a a a a s x E 4.I.>X>X.X@X.X|._.{.{.|.|..X#X@X#X%X%X#X+X(.(.XX(.]./.T.N.t.} G k s w a a w a a a ",
"a a a a a x ] 4.).<X>XoX#X.X}._.(.{.|. X.X@X@X#XOX%X#X+X#X(.(.XX]./.T.C.u.=.T x s w a a a a a a ",
"a a a a a l P ..x.]. X_.{.|.}._._.{.}.|..X@X#X#XOX%X&X$X+X+XXX}.]./.T.G.d.:.E x j a a a a a w s ",
"a a a a a s H ' 7.B.K.L.}.}.}._.[.[.{.{.|..X+XoX%X=X-X-X&X#X+XXX/./.T.N.s.:.o.c s a a a a a a w ",
"a a a a a s c I &.j.n.L._.[.'._._._.{.{.{.|.|..X*X-X:X,X>X#X#X+X}./.T.V.a.:.R c s a a a a a a a ",
"a a a a a a s b ' &.j.J._._._._.^._.{.[.}.{.|..X=X:X,X1X<X*X#X|././.U.b.a.:.I z s a a a a a a a ",
"a a a a a a a c X.%.e.D.W._._.!.~._._.{._.{.{.{.$X=X:X,X:X#X.X|.(.(.U.D.a.$.I z s a a a a a a a ",
"a a a a a a a z J #.w.n.E.!.^.W.W.W.^._._._.{.{.#X%X$X=X#X{.[.(.(.R.U.b.e.&.L z s w a a a a a a ",
"a a a a a a a j J +.8.c.L.!.!.E.W.W.^.!.^.^.^.(..X#X@X.X{._.(.^.R.R.G.c.0.$.J z a a a a a a a a ",
"a a a a a a s z J o.<.k.A.U.W.L.~.~.^.~.~.^.~.~.}..X{._._.L.Y.Y.U.U.V.d.5.O.J j a a a a a a a a ",
"a a a a a a a j c P &.u.B.K.Y.Y.^.+X^.~.~.W.~.R.[.[._.E.L.J.K.U.K.C.z.t.=.o.c j a a a a a a a a ",
"a a a s a a a s h V / 7.x.V.K.U.+X;X[.~.Y.Y.Y.Y././.W.L.H.D.H.G.C.v.i.5./ L z j a a a a a a a a ",
"a w w a w w w w p t B ` t.c.V.F.^.{.R.J.J.J.J.J.R.R.U.F.D.b.g.g.f.y.1.( Z c j a s a a a a a a a ",
"9 9 w 9 w 9 w 9 8 0 y G O.7.u.u.g.g.b.b.b.D.b.b.G.U.F.v.g.g.f.y.6.| Q M g h w w a a a a a a a a ",
"6 6 6 6 6 6 6 6 6 - 7 r m T / ` 5.5.t.t.a.d.d.t.b.g.f.t.9.5.5._ ! A 4 1 7 7 $ w a a a a a a a a ",
"- - - - - - - - - - - : 7 e i i D ^ ) ` -.-.5.5.9.r.5.` ( F i u < * % O = - $ 9 a a w a a a a a ",
"- - - - - - + + @ - - - - - - - 2 y i S S F F Q ~ ! Q A i i > %         X @ @ # $ $ $ $ $ $ w 9 ",
"- - - - - - +   + @ - - - - = O % & ; > 1 1 4 u u u 4 1 ; = o           X X X @ @ @ @ @ # # 6 $ ",
"- - - - - + +     @ @ - - - +           % % % % % * % %                                   + # - ",
"- - - - - @ X     @ - - - - = O             . .     o                                     + - - "
};
