/* XPM */
static char *result[] = {
/* columns rows colors chars-per-pixel */
"48 48 209 2 ",
"   c #41125D",
".  c #451661",
"X  c #491762",
"o  c #431B63",
"O  c #4C1A65",
"+  c #511C67",
"@  c #531D69",
"#  c #581D6C",
"$  c #5D1E70",
"%  c #621F76",
"&  c #47266A",
"*  c #4C236A",
"=  c #53226B",
"-  c #5B226D",
";  c #5E2571",
":  c #572A71",
">  c #5D2973",
",  c #4B3775",
"<  c #543374",
"1  c #5B3476",
"2  c #5C3878",
"3  c #642374",
"4  c #622C76",
"5  c #682479",
"6  c #6C247B",
"7  c #652C79",
"8  c #6B2B7D",
"9  c #70257E",
"0  c #65357B",
"q  c #6A337E",
"w  c #623B7C",
"e  c #683D7E",
"r  c #4D457D",
"t  c #55407D",
"y  c #5C437F",
"u  c #6E2D80",
"i  c #752582",
"p  c #762A84",
"a  c #782E87",
"s  c #772F88",
"d  c #782F88",
"f  c #6E3382",
"g  c #6C3A83",
"h  c #6F3E89",
"j  c #723284",
"k  c #723A86",
"l  c #77358A",
"z  c #793389",
"x  c #753D8B",
"c  c #7B3B8E",
"v  c #7C3E90",
"b  c #5A4B84",
"n  c #57578A",
"m  c #6D4385",
"M  c #634A84",
"N  c #694A87",
"B  c #644988",
"V  c #6C4C89",
"C  c #704487",
"Z  c #73448B",
"A  c #734F8D",
"S  c #68588E",
"D  c #72548E",
"F  c #7D4492",
"G  c #764891",
"H  c #7B4C94",
"J  c #6E5D91",
"K  c #795595",
"L  c #745897",
"P  c #765D94",
"I  c #7A5B95",
"U  c #7D5599",
"Y  c #7E5C9C",
"T  c #596E98",
"R  c #6C6797",
"E  c #736395",
"W  c #786396",
"Q  c #736897",
"!  c #776699",
"~  c #7A649B",
"^  c #766C9C",
"/  c #7B6C9E",
"(  c #6D709D",
")  c #74709C",
"_  c #7C709E",
"`  c #7F5EA0",
"'  c #5D7FA3",
"]  c #7E66A0",
"[  c #7C6CA2",
"{  c #687EA4",
"}  c #7674A0",
"|  c #7B73A2",
" . c #757CA4",
".. c #7C7AA5",
"X. c #7E7BAA",
"o. c #814694",
"O. c #804A96",
"+. c #814D98",
"@. c #82529B",
"#. c #83599E",
"$. c #80609D",
"%. c #81699E",
"&. c #855DA1",
"*. c #8663A3",
"=. c #8866A6",
"-. c #836AA3",
";. c #8B69A7",
":. c #876EA9",
">. c #8A6EAA",
",. c #8674A5",
"<. c #837DA7",
"1. c #8474A9",
"2. c #8C75AD",
"3. c #857AAA",
"4. c #8E7CB2",
"5. c #907FB3",
"6. c #6E89AB",
"7. c #7D84AA",
"8. c #7E8AAC",
"9. c #6D8FB0",
"0. c #7898B8",
"q. c #6EA4BB",
"w. c #73A9C0",
"e. c #7AB5C8",
"r. c #79C3D0",
"t. c #8285AC",
"y. c #8984AD",
"u. c #828AAE",
"i. c #8C85B2",
"p. c #848DB1",
"a. c #8B8BB3",
"s. c #9284B5",
"d. c #928BB5",
"f. c #948CBA",
"g. c #998EBA",
"h. c #8594B4",
"j. c #8B92B5",
"k. c #8399B7",
"l. c #8D95BB",
"z. c #879BB9",
"x. c #8D9CBB",
"c. c #9093B6",
"v. c #9494BD",
"b. c #9994BE",
"n. c #929CBE",
"m. c #87A2BC",
"M. c #8AA3BD",
"N. c #8AA8BF",
"B. c #92A4BF",
"V. c #9696C0",
"C. c #959CC1",
"Z. c #999DC4",
"A. c #8EA4C1",
"S. c #8DABC2",
"D. c #94A4C3",
"F. c #99A2C6",
"G. c #94ABC5",
"H. c #9AA9C5",
"J. c #9BA5C8",
"K. c #96AAC8",
"L. c #9CABCB",
"P. c #89B1C6",
"I. c #92B1C7",
"U. c #99B1C7",
"Y. c #94B4CA",
"T. c #9CB3CC",
"R. c #95BACD",
"E. c #9DBACD",
"W. c #9FB4D0",
"Q. c #96BFD0",
"!. c #9CBCD2",
"~. c #A1AFCC",
"^. c #A3B3CE",
"/. c #A4B9CC",
"(. c #A1B6D1",
"). c #AAB5D1",
"_. c #A2BCD4",
"`. c #A9BCD5",
"'. c #B1BCD5",
"]. c #86C0CF",
"[. c #8FCED9",
"{. c #9BC4D4",
"}. c #9BC7D7",
"|. c #A3C2D6",
" X c #A7CAD7",
".X c #A4C4D9",
"XX c #ABC5DA",
"oX c #A5CBDC",
"OX c #ABCCDC",
"+X c #B2C7D8",
"@X c #B1CCDD",
"#X c #ACD2DD",
"$X c #B0D3DE",
"%X c #ACD3E1",
"&X c #A7D8E2",
"*X c #B3D4E2",
"=X c #B4DCE5",
"-X c #B9DFE8",
";X c #AAE3E9",
":X c #B9E1E8",
">X c #BFEAEE",
",X c #BEECF0",
"<X c #C5DDE7",
"1X c #CADDE8",
"2X c #C0E6EC",
"3X c #D4E7EE",
"4X c #D8EDF1",
"5X c #D7F2F4",
"6X c #E7F8F9",
/* pixels */
"i i i i i i i i 6 3 $ - - - @ O o o & o   o   X @ - - - - - - - 3 6 9 6 3 - 3 9 9 i i i i i i i ",
"i i i i i i i i 6 3 - - - - = * & , r r , , & O = - - - - - - - 3 5 9 9 3 - 5 % 9 i i i i i i i ",
"i i i i i i 9 6 5 5 3 3 3 3 > 1 2 n ' T b t < : > 7 7 4 ; > 3 3 3 6 6 6 5 3 5 9 i i i i i i i i ",
"i i i i i 9 5 3 5 5 6 5 6 6 q M n { r.q.T S M 0 g j q 0 4 7 8 8 8 3 3 3 6 6 9 9 i i i i i i i i ",
"i i i i i 6 3 % 3 6 i i p p h E 9.].5X=Xw.{ J h Z c k f 0 0 q a 8 3 3 3 6 i i i i i i i i i i i ",
"i i i i i 6 5 3 6 % i i u u Z ^ 0.[.5X:Xe.8.R Z Z Z Z C m k l z p 8 7 6 i i i i i i i i i i i i ",
"i i i i i i 9 6 u i i u u q Z L X.0.[.P. .} P V A D K K K G F c l j u 9 i i i i i i i i i i i i ",
"i i i i i i i 9 i i i u 8 0 m I ] X.0.6.( } E D D D W [ -.#.@.F c c z a i i i i i i i i i i i i ",
"i i i i i i i i i i a p j g Z U *.] } R R [ ~ L ~ / 3.F.f.-.&.H v v c d d i i i i i i i i i i i ",
"i i i i i i i i i a d z l Z H @.@.U P J E [ -.` -.3.C.1X'.4.*.@.O.o.c d d i i i i i i i i i i i ",
"i i i i i i i i i p d z F O.@.#.#.Y I E ~ 1.:.=.>.2.f.).Z.2.*.&.+.+.v c d d i i i i i i i i i i ",
"i i i i i i i i i d z v H @.#.#.Y ~ ~ W [ 3.3.:.2.2.5.s.5.>.&.&.@.&.O.v z d i i i i i i i i i i ",
"i i i i i i i i p d z v O.#.*.~ / / ! ! [ a.4.2.2.4.4.4.4.>.=.*.&.&.+.v z d i i i i i i i i i i ",
"i i i i i i i i d z c o.@.*.-.[ ^ ^ _ ^ | a.i.4.4.4.4.4.2.>.;.=.=.&.&.v v d a i i i i i i i i i ",
"i i i i i i i i p z v o.#.;.1... ._ } } X.l.V.5.5.5.4.4.4.2.>.>.>.>.&.O.v d a i i i i i i i i i ",
"i i i i i i i i d z v +.*.2.4.a.y.t... .X.l.V.f.f.f.s.s.i.4.4.4.5.4.=.@.o.z d i i i i i i i i i ",
"i i i i i i i p d c F +.>.s.c.B.x.j.y.7.u.A.C.f.v.f.f.f.f.f.f.v.V.f.>.&.v c d i i i i i i i i i ",
"i i i i i i i i d v F &.4.v.K._.E.B.j.u.h.S.D.v.V.V.V.l.v.Z.L.T.~.V.4.&.F c d p i i i i i i i i ",
"i i i i i i i p d v O.&.s.F._.:X$XU.B.k.z.G.G.B.Z.Z.C.C.C.U.}.&XOX~.s.*.H v s i i i i i i i i i ",
"i i i i i i i i p v O.;.V._.:X6X5X#XE.M.M.Y.G.B.K.F.C.D.D.W.&X;X&X(.f.;.+.v d i i i i i i i i i ",
"i i i i i i i p d x H -.n.XX2X6X5X$X|.N.N.R.I.B.D.D.H.F.G.T. X%XoXW.f.>.+.v z i i i i i i i i i ",
"i i i i i i i i p C A [ c.^.OX>X-X X/.N.N.R.R.I.I.G.H.K.K.L.L./.(.J.v.>.@.v z p i i i i i i i i ",
"i i i i i i p s k C D %.c.H.!.%X XE.N.N.N.{.I.N.I.U.U.K.K.H.F.G.L.K.f.>.@.c l i i i i i i i i i ",
"i i i i 6 5 u f C S E _ j.H.Y.!./.Y.I.N.Y.{.{.N.Y.Y.U.G.G.D.x.M.A.A.a.-.A g 8 6 u i % 6 9 i i i ",
"i i i 5 % 3 0 g V ( ( } p.A.S.Y.R.P.I.S.P.{.Q.Y.Y.Y.Y.G.N.M.z.z.M.M.u.W N 0 > ; 3 3 3 3 5 i i i ",
"i i 6 3 - ; 4 b ( (.D. .p.z.S.Y.Y.Y.S.S.R.{.{.R.R.R.Y.I.G.N.k.z.N.M.7.R y < = = - - - $ % % i i ",
"i i 6 5 3 3 0 B  .XX~.8.h.A.I.R.Y.T.I.I.R.}.}.!.Q.{._./.U.N.z.m.N.m.8.R b 1 : - 3 3 3 3 5 9 i i ",
"i i i 6 6 u f h L X.4.2.V.G.W.Q.!.!.R.T.!.oXoX}..X.X X X_.U.N.m.N.N.u.R M 0 4 3 6 5 6 6 6 i i i ",
"i i i i i i s l o.&.=.2.V.L._._.!.!._._._.oXOXXXOX&X:X:X#X_.B.N.S.N.8.Q V e 8 6 9 i i i i i i i ",
"i i i i i i i l v +.&.>.V.L._._.!._._.W..XoX%XXX#X:X,X2X$X/.B.B.S.S.8.^ D Z f u i i i i i i i i ",
"i i i i i i i p d o.@.;.V.L.(..X.X_.W.(.`.oXOXOX@X-X2X2X*X_.H.B.S.I.h.| E K Z d i i i i i i i i ",
"i i i i i i i i d o.+.;.V.L._..X.X.X(.W._.oXoXXXXX$X=X*X+X/.H.U.I.I.h.<.| Y F z p i i i i i i u ",
"i i i i i i i i d o.+.;.b.~._.oXoX`.`.(._..X.X.X.XXXXXXX`.~.F.G.U.Y.x.j.Z.4.U x s i i i i i i i ",
"i i i i i i i d d o.@.;.Z.)..X*XOX_.(.~._..X.X_.(.`.`.).^.J.C.J.Y.T.D.H.<X~.[ v s i i i i i i i ",
"i i i i i i i i a v +.;.V.(.*X3X<XXX).~.W..X_.W.(.(.W.~.L.F.V.F.T.E.B.v.^.V.` x s i i i i i i i ",
"i i i i i i i i a z o.=.V.(.@X4X1X`.^.L.L..XW.W.L.L.~.J.F.Z.b.B.L.U.x.3.[ ` G l p i i i i i i i ",
"i i i i i i i i i z c #.f.L..X@XXX(.~.L.L._./.L.L.L.K.J.Z.C.v.n.G.S.j.-.I F x s p i i i i i i i ",
"i i i i i i i i i p z G 2.A.R..X!.~.J.Z.J.(.L.J.J.J.Z.C.V.V.d.c.G.S.t.I x l p p i i i i i i i i ",
"i i i i i i i i i 6 6 k Y a.H.T.T.K.V.V.Z.~.~.F.J.C.C.V.V.f.i.j.x.z._ N u p i i i i i i i i i i ",
"i i i i i i i i 9 6 3 7 f Y i.C.G.C.V.V.V.L.H.b.V.V.V.V.f.s.y.a.p.) M > 5 i i i i i i i i i i i ",
"9 9 9 9 9 9 9 9 6 3 - 3 6 l U 3.p.c.d.d.g.H.B.b.c.y.d.d.g.y.,.<.P b * # % i i i i i i i i i i i ",
"9 9 9 9 9 6 9 6 3 3 - 3 3 6 q D W ,.,.y.d.b.c.d.y.t.<.<.,.%.P e 2 O   O $ % i i i i i i i i i i ",
"3 3 3 3 3 3 3 3 3 - - - ; 3 3 7 e e e $.%.,.,.%.W E E P @.A 0 = X .   X # % % i i i i i i i i i ",
"- - - - - - - - - - - - - - - - - 4 0 e e e e e 2 < 1 w e 1 =         . @ # $ i i i i i i i i i ",
"- - - - - - + - @ = - - - - - @ + + @ + @ @ = =     = = @ +             X @ # $ % % % % $ u % i ",
"$ - - - - # +   + = - - - - @ + X X X X O O             X               . . + X + @ @ O $ $ $ $ ",
"- - - - - = +     @ - - - - @                                                         . X + ; $ ",
"- - - - - @ X     + - - - - -                                                           X + # ; "
};
