/* XPM */
static char *result[] = {
/* columns rows colors chars-per-pixel */
"48 48 208 2 ",
"   c #41135E",
".  c #441761",
"X  c #491762",
"o  c #451C64",
"O  c #4D1B66",
"+  c #511C67",
"@  c #531C69",
"#  c #5D1F70",
"$  c #621F76",
"%  c #482266",
"&  c #472368",
"*  c #4B2A6D",
"=  c #53266D",
"-  c #5B226D",
";  c #4C2F71",
":  c #5D2670",
">  c #552B70",
",  c #5E2A73",
"<  c #4E3373",
"1  c #4F3876",
"2  c #533877",
"3  c #583878",
"4  c #642374",
"5  c #612E75",
"6  c #6C247B",
"7  c #662D7A",
"8  c #6B2B7C",
"9  c #72257F",
"0  c #613177",
"q  c #65347C",
"w  c #69337D",
"e  c #643A7C",
"r  c #55427C",
"t  c #59417E",
"y  c #6F2D81",
"u  c #752582",
"i  c #762B85",
"p  c #782F87",
"a  c #6A3A82",
"s  c #6C3D84",
"d  c #743286",
"f  c #713986",
"g  c #763389",
"h  c #79338A",
"j  c #753B8B",
"k  c #7A3B8D",
"l  c #773F90",
"z  c #7B3E90",
"x  c #574B83",
"c  c #5B4A83",
"v  c #5D5388",
"b  c #5E5B8D",
"n  c #644482",
"m  c #6B4384",
"M  c #6D4D8A",
"N  c #74458D",
"B  c #744B8D",
"V  c #64578C",
"C  c #7C4392",
"Z  c #794794",
"A  c #754C95",
"S  c #7E4A96",
"D  c #6D5792",
"F  c #695B91",
"G  c #745392",
"H  c #795395",
"J  c #745C94",
"K  c #7D549A",
"L  c #7D5C9B",
"P  c #5F6794",
"I  c #656393",
"U  c #676897",
"Y  c #6B6E9A",
"T  c #73649A",
"R  c #79669A",
"E  c #7B649C",
"W  c #746A9B",
"Q  c #6B749D",
"!  c #72719D",
"~  c #7B64A1",
"^  c #7A6BA2",
"/  c #6E7BA3",
"(  c #7376A6",
")  c #7B72A2",
"_  c #737BA3",
"`  c #7F79A6",
"'  c #7E7FA9",
"]  c #804E98",
"[  c #81539B",
"{  c #825C9E",
"}  c #845EA0",
"|  c #8465A3",
" . c #846BA6",
".. c #876DA9",
"X. c #886DA8",
"o. c #8070A4",
"O. c #8674AB",
"+. c #8A75AD",
"@. c #837CAB",
"#. c #897AAF",
"$. c #8B7DB1",
"%. c #6B85A7",
"&. c #7182A7",
"*. c #7484A9",
"=. c #7C83AA",
"-. c #7985A9",
";. c #7B8BAE",
":. c #788BB5",
">. c #6B93B1",
",. c #7C95B7",
"<. c #78A1BA",
"1. c #799EC2",
"2. c #7AC2CF",
"3. c #79C3D6",
"4. c #8383AC",
"5. c #8289AF",
"6. c #8587B5",
"7. c #8D84B5",
"8. c #858EB3",
"9. c #8C89B7",
"0. c #8D8DBA",
"q. c #9182B4",
"w. c #928DBA",
"e. c #8594B5",
"r. c #8992B5",
"t. c #8598B7",
"y. c #8594BB",
"u. c #8C94BA",
"i. c #849DBA",
"p. c #8C9BBC",
"a. c #9293BE",
"s. c #83A3BD",
"d. c #8BA2BE",
"f. c #8F9CC0",
"g. c #9597C1",
"h. c #939CC2",
"j. c #989BC3",
"k. c #8DA4C1",
"l. c #8BACC4",
"z. c #89AFCC",
"x. c #94A3C6",
"c. c #99A2C6",
"v. c #96A7C8",
"b. c #9AA5C8",
"n. c #96ABCA",
"m. c #99ADCB",
"M. c #8EB2C8",
"N. c #89B6C9",
"B. c #93B4CB",
"V. c #9AB4CF",
"C. c #93BBCE",
"Z. c #9AB9CF",
"A. c #9BB5D0",
"S. c #95BDD1",
"D. c #9BBBD3",
"F. c #A0B7D2",
"G. c #88C6D4",
"H. c #96C4D3",
"J. c #9BC3D6",
"K. c #99C9D6",
"L. c #9CC6D9",
"P. c #96CAD8",
"I. c #9DCCDA",
"U. c #86D2DB",
"Y. c #9DD3DD",
"T. c #9CD9DF",
"R. c #A6C4D8",
"E. c #A4C6DA",
"W. c #A3CBDC",
"Q. c #A3D3DE",
"!. c #AAD0DF",
"~. c #B0D0DF",
"^. c #9FD5E1",
"/. c #9EDBE2",
"(. c #A4D5E1",
"). c #AAD5E1",
"_. c #A5DBE3",
"`. c #AADDE6",
"'. c #ABDEE8",
"]. c #B6DAE6",
"[. c #A6E1E7",
"{. c #AAE1E7",
"}. c #ACE2EA",
"|. c #ABE6EA",
" X c #B4E5EB",
".X c #B9E6EC",
"XX c #B5E9EC",
"oX c #BBEBEE",
"OX c #BEF1EF",
"+X c #BDEFF0",
"@X c #BEF1F0",
"#X c #C7E5ED",
"$X c #C1EDEF",
"%X c #D6E9EF",
"&X c #C3EEF0",
"*X c #CEECF1",
"=X c #D1EFF3",
"-X c #C4F2F1",
";X c #CCF3F3",
":X c #D3F6F5",
">X c #DAF5F6",
",X c #D5F8F6",
"<X c #D9F9F7",
"1X c #E6F7F9",
"2X c #E5FBFA",
"3X c #EBFBFB",
"4X c #F4FDFD",
"5X c #F9FEFE",
/* pixels */
"u u u u u u u u 6 4 - : - - + X . o & * r < * ; > 0 5 : : : : - 4 6 9 6 4 - 4 4 u u u u u u u u ",
"u u u u u u u u 6 6 , , : : = O o & < 1 r r r r t e q 0 0 0 5 , 4 6 9 6 4 - 4 6 u u u u u u u u ",
"u u u u u u 6 6 7 a w a w 7 , > > 2 x P %.%.Q J e M e e e e q w 8 8 6 6 4 4 6 6 u u u u u u u u ",
"u u u u u 9 8 7 a N N j j a y e 3 c I >.2.G.<.! R H B B e e N w f w q 6 6 6 9 9 u u u u u u u u ",
"u u u u u 8 7 s G ^ | } ] ] N m M D Y <.3.U.s.5.o.{ [ M G M B ] Z N n a y u u u u u u u u u u u ",
"u u u u u y s D ) y.y.O.| H N B G J Y ,.G.G.d.4.o.{ { J [ H ] [ K ~ J H l h u u u u u u u u u u ",
"u u u u u d A ~ y.I.C.9.@.R G H H J W ! ;.t.r.4.o.J J { { { } X.O.6.6. .K l i u u u u u u u u u ",
"u u u u u j ~ ,.P.>X#XC.u.W J L } E T ! -.e.5.4.! R R |  . .X.q.f.S.n.$.| C p u u u u u u u u u ",
"u u u u u l ~ 1.^.1X*XP.k.@.| } | | W W ' e.8.5.o.o.o.o.X.+.q.p.A..X~.v.#.K h i u u u u u u u u ",
"u u u u u h K #.x._.W.j.a.#. . . . .! _ =.u.u.9.4.4.O.O.+.q.a.Z.'.4X=XY.h.| k i u u u u u u u u ",
"u u u u u p S X.g.B.V.j.a.q.O...O.O.` =.r.f.h.g.q.q.4.q.$.q.w.n.E.>X.XD.g.} z p u u u u u u u u ",
"u u u u u p C | #.g.j.g.w.7.$.O.@.@.@.8.t.x.v.h.w.w.q.q.q.q.w.a.m.~.R.j.$.~ z h u u u u u u u u ",
"u u u u u i C } +.9.0.g.9.9.7.@.@.4.5.e.k.B.A.n.x.g.w.a.w.w.w.a.b.A.F.j.q.} C h u u u u u u u u ",
"u u u u u u z } #.7.g.g.g.g.6.4.5.e.e.d.B.D.J.D.B.n.b.x.d.a.a.a.h.v.b.j.9.} ] h p u u u u u u u ",
"u u u u u i C | $.g.g.h.g.f.0.y.t.s.d.M.D.I.I.W.D.J.F.D.V.b.j.a.h.v.c.j.g.} ] h p u u u u u u u ",
"u u u u u p S ..9.g.f.h.h.h.f.k.d.d.M.H.I.(.).(.!.~.~.R.D.Z.b.m.n.m.m.h.g.+.} z h u u u u u u u ",
"u u u i i h } +.w.h.v.n.m.V.n.B.C.C.H.H.Q.{.[.`.`.#X%X].E.J.Z.V.A.D.D.V.b.w...S h i u u u u u u ",
"u i i g k l } $.g.x.n.V.Z.Z.C.C.H.H.H.K.Q.[.|. X}.%X1X].Q.I.J.D.L.W.W.W.E.b.$.} z i u u u u u u ",
"u u i l A ~ $.g.c.m.V.D.E.J.H.K.K.K.Y.T.[.|.XXXX}. X.X`.(.I.W.I.W.(.).).+XR.g.^ Z i u u u u u u ",
"u i l A ( 1.z.n.m.A.J.J.W.W.W.Y.Y.Y.T.T.|.|.XXXX X{.{.`._.^.Y.(.).'..X&X3X#XS.$.K p i u u u u u ",
"u i l K 1.3.U.L.F.D.J.W.Q.Q.Q.Y.T.T.T.[.|.oXoXXX X}.}.{._._.^.(.'..X&X:X4X*XL.6.K i u u u u u u ",
"u i l K :.3.G.D.F.E.I.Y.[.Q.Q.T.T.T._.{.XXoXOXXXXX}.}.{.'.'./._.'.XX X.X&X].v.O.Z i u u u u u u ",
"u i g A ~ :.x.V.Z.E.Q._.[.Q.[.Q.T./.[.|.oXOXOXoXXXXX X}.}.{._._.|.}. X.X.XR.g.| l u u u u u u u ",
"u u y g m G @.d.Z.W.Q._.{.[.{.Q.Q.[.|.XXOXOXOXOX.X.XXX}.}.}.{.{.}.|.}.].].A.8.E l y y $ u u u u ",
"u u y y > a ~ f.C.I.Q.[.{.[.`.{.[.{.{.oXOXOX-XOXoX.XXX X X X{.{. XXX|.`.Q.l.=.D q 4 4 4 4 9 9 u ",
"u u u # # > J y.C.Y.Q.[. X|.{.{.{.|.oX$X;X;X-X;XoXoX.XoX.X X{. XXXXX|.[.Y.l.&.V e - - # 4 9 u u ",
"u u y y 4 7 T y.S.W._.{. X X X X.XOXOX;X,X,X;X;X-XoXoX$XoX X.X XXXXX|.[.Y.d.;.F e 4 4 4 6 9 u u ",
"u u u y 6 y ~ f.J.Q.`.}. X X.X XoXoX-X,X2X,X,X:X-XOXoXoXoXXX X XXXOXXX[.Q.M.;.T f 6 6 6 9 9 u u ",
"u u u u u p | h.E.Q.`.}.XXoX.X.X$X;X:X3X4X2X>X:X;X$X$XoXOXoX X XXXoXXX|.Q.B.:.~ N i u u u u u u ",
"u u u u u p | h.J.(.'. XXX.X.X.X$X;X>X3X5X2X<X:X;X$X$XoXoXoX X XXXXX|.{.Q.B.r.~ N u u u u u u u ",
"u u u u u p  .f.J.).{.}..X.X.X.XoX$X;X>X2X<X:X:X-X$X$X$X$XoX XXXXXOXXX{.Q.Z.0.~ l u u u u u u 9 ",
"u u u u u p | f.J.!.'.}..X.X.X.XoXoX$X=X,X:X:X;X$XOX$X$X.XXXXXXXoXoXXX}.(.A.0.~ l u u u u u u i ",
"u u u u u p | g.D.(.`.'..X.X X X X.X+X&X;X;X;X;X+X+X.X.X.X.XXX+X&X&X+X X(.V.9.~ k u u u u u u u ",
"u u u u u p } w.D.I.).'.'.}.'.'.}.}..X+X&X&X@X+X+X+X.X.X.X.XXX&X:X:X&X X).V.9.L k u u u u u u u ",
"u u u u u i } w.A.L.(.`.'.'.'.'.'.'.}..X+X+X+X+X.X.X.X.X.X X.X&X:X:X&X X!.m.9.[ h u u u u u u u ",
"u u u u u i ] 7.m.L.(.`.`.`.`.`.'.'.}. X+X.X+XoX.X.X X}.'.'. XoX;X;X.X'.W.b.$.] h u u u u u u u ",
"u u u u u u ] $.x.D.W.(.(._.^.^.^._.'. X.XXX+X+X X}.'.'.'.'.'.'..X.X}.Q.J.x.O.] h u u u u u u u ",
"u u u u u i z X.a.V.J.W.!.W.^.^.^.^._.'. XXX XXX}.'.[.[.'._._.^._.`.(.W.D.a.X.] h u u u u u u u ",
"u u u u u u h ] #.h.C.J.W.I.L.I.^.^.^._.}.|.}.}.'.[.^._.^.^.^.I.I.Q.Y.H.M.9.{ k p u u u u u u u ",
"u u u u u u u z L 4.f.B.J.L.L.L.P.P.^.^._.}.}.'._.^.^.^.^.W.L.P.P.L.H.M.p.+.[ k i u u u u u u u ",
"9 9 9 9 9 9 9 9 j L 4.p.B.Z.Z.C.H.H.K.I.(._._._.T.Y.I.Q.W.K.H.H.C.N.l.t.@.L l d u u u u u u u u ",
"6 6 9 9 9 6 9 4 7 s D @.r.p.d.l.M.B.C.D.L.^.Q.Y.K.P.H.J.J.C.M.d.s.,.*.( J N d u u u u u u u u u ",
"4 4 4 4 4 4 4 4 4 5 e M R ` @.;.,.p.d.l.B.S.H.H.H.N.M.M.M.d.t.;.&.Y b n a 7 y u u u u u u u u u ",
"- - - - - - - - - - , 0 e e M F ! _ -.;.,.i.s.s.s.s.s.s.t.;.Q I v r < = = - # u u u u u u u u u ",
"- - - - - @ @ - @ # - - - - = > t v I U Y / &.&.&.&.&.Q ! U V r ; %     O @ # # $ $ $ $ $ $ u 6 ",
"- - - - - - +   + + - - - - - % % * 2 t r x b b P b b V c t 2 * %           X X @ @ + + # # $ : ",
"- - - - - @       @ - - - - +       % * ; ; < 1 1 1 2 < > * = % o                       X + - - ",
"- - - - - @ +     - - - - - + O           % % % % % % % % %                             X + # - "
};
