/* XPM */
static char *result[] = {
/* columns rows colors chars-per-pixel */
"48 48 164 2 ",
"   c #301D3D",
".  c #391A3B",
"X  c #27213F",
"o  c #342938",
"O  c #541C2D",
"+  c #5E0C32",
"@  c #4C1336",
"#  c #4F1A31",
"$  c #491835",
"%  c #431638",
"&  c #7A0E24",
"*  c #7A012B",
"=  c #671529",
"-  c #6A102A",
";  c #771423",
":  c #4F3B2A",
">  c #413231",
",  c #64372E",
"<  c #612130",
"1  c #6F3B34",
"2  c #66313F",
"3  c #663A39",
"4  c #765415",
"5  c #5C4323",
"6  c #56412B",
"7  c #5E472C",
"8  c #664D2D",
"9  c #664333",
"0  c #695135",
"q  c #6C563E",
"w  c #331C49",
"e  c #3E1754",
"r  c #3A1950",
"t  c #3E1A52",
"y  c #421557",
"u  c #46145B",
"i  c #4A125E",
"p  c #49195B",
"a  c #531C54",
"s  c #6C1242",
"d  c #5D2649",
"f  c #4D1460",
"g  c #511662",
"h  c #541764",
"j  c #541B62",
"k  c #571966",
"l  c #5E1D69",
"z  c #68226F",
"x  c #6F5A46",
"c  c #8B0E1F",
"v  c #9E0D15",
"b  c #92091C",
"n  c #8C1419",
"m  c #8B161E",
"M  c #83181C",
"N  c #8A1D1D",
"B  c #951117",
"V  c #9D1C13",
"C  c #AF1A09",
"Z  c #B0130A",
"A  c #9E2D0E",
"S  c #9B390E",
"D  c #86251D",
"F  c #922915",
"G  c #9C2A10",
"H  c #92211D",
"J  c #99251D",
"K  c #9E371F",
"L  c #AE2907",
"P  c #AF2208",
"I  c #AA3107",
"U  c #AE3006",
"Y  c #AD3F03",
"T  c #A6330F",
"R  c #B53C04",
"E  c #AD241A",
"W  c #A0291D",
"Q  c #A23517",
"!  c #A33D1B",
"~  c #A93B18",
"^  c #B63F11",
"/  c #BC3A1E",
"(  c #800327",
")  c #860524",
"_  c #8C0720",
"`  c #8E1326",
"'  c #84372D",
"]  c #A93429",
"[  c #9E4E07",
"{  c #924A0E",
"}  c #984C0B",
"|  c #824F1F",
" . c #805E1F",
".. c #8E5D1E",
"X. c #9D5C18",
"o. c #A9410E",
"O. c #BB4E02",
"+. c #B8490E",
"@. c #A45003",
"#. c #AB5500",
"$. c #AE5A09",
"%. c #B84419",
"&. c #9E6E00",
"*. c #866117",
"=. c #9B6F11",
"-. c #966D18",
";. c #9A6B1C",
":. c #B8640E",
">. c #A97809",
",. c #A16013",
"<. c #B86810",
"1. c #A6791A",
"2. c #B07718",
"3. c #855824",
"4. c #AF4429",
"5. c #BE4D2A",
"6. c #A35226",
"7. c #A64539",
"8. c #B24932",
"9. c #C24309",
"0. c #C95E01",
"q. c #C7510E",
"w. c #C44812",
"e. c #C74C1A",
"r. c #C16100",
"t. c #D76D00",
"y. c #CD730C",
"u. c #D37509",
"i. c #C16F14",
"p. c #C77110",
"a. c #D37B1D",
"s. c #D97D1A",
"d. c #ED7900",
"f. c #CA5123",
"g. c #C76233",
"h. c #C16E3A",
"j. c #B68003",
"k. c #B38213",
"l. c #B48313",
"z. c #BE8E1C",
"x. c #AC822B",
"c. c #B28B3D",
"v. c #C08A0C",
"b. c #CD9305",
"n. c #D89D0F",
"m. c #CB9516",
"M. c #E5A508",
"N. c #E3A818",
"B. c #C1802F",
"V. c #DF862B",
"C. c #C99826",
"Z. c #D38232",
"A. c #DC973B",
"S. c #E58F3C",
"D. c #DFAD39",
"F. c #E5A52E",
"G. c #E1AB29",
"H. c #EEB222",
"J. c #F6C03B",
"K. c #B7944E",
"L. c #D38947",
"P. c #D98B43",
"I. c #DF8D40",
"U. c #FFCD55",
/* pixels */
"z z l h i i i i i i i i i i i i i i i i i i i i i i i i i i i i i i i i i i i i i i i i h l z z ",
"z z l h i i i i i i i i i i i i i i i i i i i i i i i i i i i i i i i i i i i i i i i i h l z z ",
"l l k g i a d 2 2 2 2 d a i i i i i i i i i i i i i i i i i i i i i i a d 2 2 2 2 d a i g k l l ",
"h h g f i d 1 | | | | 1 d i i i i i i i i i i i i i i i i i i i i i i d 1 | | | | 1 d i f g h h ",
"i i i i i 2 | &.&.&.&.| 2 i i i i i i i i i i i i i i i i i i i i i i 2 | &.&.&.&.| 2 i i i i i ",
"i i u y e 3 ..j.j.j.j.X.' s s s s s s s s s s s s s s s s s s s s s s ' X.j.j.j.j...3 e y u i i ",
"i i y r w 9 ;.b.b.b.b.<.! ` ` ` ` ` ` ` ` ` ` ` ` ` ` ` ` ` ` ` ` ` ` ! <.b.b.b.b.;.9 w r y i i ",
"i i e w X 8 1.M.M.M.M.u.9.Z Z Z Z Z Z Z Z Z Z Z Z Z Z Z Z Z Z Z Z Z Z 9.u.M.M.M.M.1.8 X w e i i ",
"i i e w X 0 x.H.H.H.H.a.%.v v v v v v v v v v v v v v v v v v v v v v %.a.H.H.H.H.x.0 X w e i i ",
"i i e w X q c.J.J.J.J.Z.4._ _ _ _ _ _ _ _ _ _ _ _ _ _ _ _ _ _ _ _ _ _ 4.Z.J.J.J.J.c.q X w e i i ",
"i i e w X x K.U.U.U.U.L.7.* * * * * * * * * * * * * * * * * * * * * * 7.L.U.U.U.U.K.x X w e i i ",
"i i e w X x K.U.U.U.U.P.8._ c m N N N N H J W W W W J H N N N N m c _ 8.P.U.U.U.U.K.x X w e i i ",
"i i e w X x K.U.U.U.U.I.5.v V G S S S S o.+.q.q.q.q.+.o.S S S S G V v 5.I.U.U.U.U.K.x X w e i i ",
"i i e w X x K.U.U.U.U.S.f.Z L Y #.#.#.#.r.t.d.d.d.d.t.r.#.#.#.#.Y L Z f.S.U.U.U.U.K.x X w e i i ",
"i i e w X q c.J.J.J.J.V.e.Z P U Y Y Y Y O.0.t.t.t.t.0.O.Y Y Y Y U P Z e.V.J.J.J.J.c.q X w e i i ",
"i i e w X 0 x.H.H.H.H.s.w.Z C P L L L L R O.r.r.r.r.O.R L L L L P C Z w.s.H.H.H.H.x.0 X w e i i ",
"i i e w X 8 1.M.M.M.M.u.9.Z Z Z Z Z Z Z L Y #.#.#.#.Y L Z Z Z Z Z Z Z 9.u.M.M.M.M.1.8 X w e i i ",
"i i e w X 8 1.M.M.M.M.y.^ v v v v v v v V G S S S S G V v v v v v v v ^ y.M.M.M.M.1.8 X w e i i ",
"i i e w X 8 1.M.M.M.M.p.~ _ _ _ _ _ _ _ c m N N N N m c _ _ _ _ _ _ _ ~ p.M.M.M.M.1.8 X w e i i ",
"i i e w X 8 1.M.M.M.M.i.K * * * * * * * * * * * * * * * * * * * * * * K i.M.M.M.M.1.8 X w e i i ",
"i i e w X 7 -.b.b.b.b.:.Q _ _ _ _ _ _ _ _ _ _ _ _ _ _ _ _ _ _ _ _ _ _ Q :.b.b.b.b.-.7 X w e i i ",
"i i e w X 6 *.j.j.j.j.$.T v v v v v v v v v v v v v v v v v v v v v v T $.j.j.j.j.*.6 X w e i i ",
"i i e w X : 4 &.&.&.&.@.I Z Z Z Z Z Z Z Z Z Z Z Z Z Z Z Z Z Z Z Z Z Z I @.&.&.&.&.4 : X w e i i ",
"i i e w X : 4 &.&.&.&.[ A v v v v v v v E / f.f.f.f./ E v v v v v v v A [ &.&.&.&.4 : X w e i i ",
"i i e w X : 4 &.&.&.&.} F _ _ _ _ _ _ _ ] g.S.S.S.S.g.] _ _ _ _ _ _ _ F } &.&.&.&.4 : X w e i i ",
"i i e w X : 4 &.&.&.&.{ D * * * * * * * 7.L.U.U.U.U.L.7.* * * * * * * D { &.&.&.&.4 : X w e i i ",
"i i e w X : 4 &.&.&.&.,.6.7.7.7.7.7.7.7.h.A.J.J.J.J.A.h.7.7.7.7.7.7.7.6.,.&.&.&.&.4 : X w e i i ",
"i i e w X : 4 &.&.&.&.2.B.L.L.L.L.L.L.L.A.F.H.H.H.H.F.A.L.L.L.L.L.L.L.B.2.&.&.&.&.4 : X w e i i ",
"i i e w X : 4 &.&.&.&.z.D.U.U.U.U.U.U.U.J.H.M.M.M.M.H.J.U.U.U.U.U.U.U.D.z.&.&.&.&.4 : X w e i i ",
"i i e w X : 4 &.&.&.&.l.C.D.D.D.D.D.D.D.G.N.M.M.M.M.N.G.D.D.D.D.D.D.D.C.l.&.&.&.&.4 : X w e i i ",
"i i e w X : 4 &.&.&.&.>.l.z.z.z.z.z.z.z.m.n.M.M.M.M.n.m.z.z.z.z.z.z.z.l.>.&.&.&.&.4 : X w e i i ",
"i i e w X : 4 &.&.&.&.&.&.&.&.&.&.&.&.&.j.b.M.M.M.M.b.j.&.&.&.&.&.&.&.&.&.&.&.&.&.4 : X w e i i ",
"i i e w X > 5 4 4 4 4 4 4 4 4 4 4 4 4 4 =.v.M.M.M.M.v.=.4 4 4 4 4 4 4 4 4 4 4 4 4 5 > X w e i i ",
"i i e w X o > : : : : : : : : : : : : :  .k.M.M.M.M.k. .: : : : : : : : : : : : : > o X w e i i ",
"i i e w X X X X X X X X X X X X X X X X 8 1.M.M.M.M.1.8 X X X X X X X X X X X X X X X X w e i i ",
"i i e w X   . % % % % % % % % % % % % % , 3.1.1.1.1.3., % % % % % % % % % % % % % .   X w e i i ",
"i i e w X . @ + + + + + + + + + + + + + < , 8 8 8 8 , < + + + + + + + + + + + + + @ . X w e i i ",
"i i e w X % + * * * * * * * * * * * * * + % X X X X % + * * * * * * * * * * * * * + % X w e i i ",
"i i e w X % + * ( ) _ ) ( * * * * ( ) _ & = O O O O = & _ ) ( * * * * ( ) _ ) ( * + % X w e i i ",
"i i e w X % + * ) b v b ) * * * * ) b v B n M M M M n B v b ) * * * * ) b v b ) * + % X w e i i ",
"i i e w X % + * _ v Z v _ * * * * _ v Z Z Z Z Z Z Z Z Z Z v _ * * * * _ v Z v _ * + % X w e i i ",
"i i e w X . @ + - ; M ; - + + + + - ; M M M M M M M M M M ; - + + + + - ; M ; - + @ . X w e i i ",
"i i e w X   . % $ # O # $ % % % % $ # O O O O O O O O O O # $ % % % % $ # O # $ % .   X w e i i ",
"i i e w X X X X X X X X X X X X X X X X X X X X X X X X X X X X X X X X X X X X X X X X w e i i ",
"h h p t w w w w w w w w w w w w w w w w w w w w w w w w w w w w w w w w w w w w w w w w t p h h ",
"l l j p e e e e e e e e e e e e e e e e e e e e e e e e e e e e e e e e e e e e e e e e p j l l ",
"z z l h i i i i i i i i i i i i i i i i i i i i i i i i i i i i i i i i i i i i i i i i h l z z ",
"z z l h i i i i i i i i i i i i i i i i i i i i i i i i i i i i i i i i i i i i i i i i h l z z "
};
