/* XPM */
static char *result[] = {
/* columns rows colors chars-per-pixel */
"48 48 169 2 ",
"   c #3A2D3B",
".  c #32323F",
"X  c #3A333E",
"o  c #651D2D",
"O  c #6A1A2A",
"+  c #7D1524",
"@  c #741827",
"#  c #791926",
"$  c #701728",
"%  c #731928",
"&  c #731931",
"*  c #781A30",
"=  c #472A37",
"-  c #4E2B35",
";  c #432C3A",
":  c #542B35",
">  c #4C3037",
",  c #42373E",
"<  c #4A303A",
"1  c #5B3936",
"2  c #7B212C",
"3  c #732231",
"4  c #7C2534",
"5  c #7A2938",
"6  c #554D3E",
"7  c #3D1D57",
"8  c #342D42",
"9  c #3C2D44",
"0  c #3D2D4A",
"q  c #333442",
"w  c #3B3344",
"e  c #323943",
"r  c #3B3A44",
"t  c #343E48",
"y  c #3A2053",
"u  c #41135D",
"i  c #431B5B",
"p  c #481B5F",
"a  c #432B44",
"s  c #4D2845",
"d  c #442C4B",
"f  c #492B4B",
"g  c #532845",
"h  c #433347",
"j  c #483747",
"k  c #423A41",
"l  c #41364B",
"z  c #4A334D",
"x  c #493C49",
"c  c #51374E",
"v  c #4A235B",
"b  c #483453",
"n  c #4B3D52",
"m  c #461661",
"M  c #491762",
"N  c #4C1964",
"B  c #511C67",
"V  c #531C69",
"C  c #5A1E6E",
"Z  c #5E1F70",
"A  c #631F76",
"S  c #4F2260",
"D  c #582567",
"F  c #572169",
"G  c #5B226D",
"H  c #5F2270",
"J  c #62256C",
"K  c #622B6A",
"L  c #6E316D",
"P  c #642373",
"I  c #6A2674",
"U  c #672A73",
"Y  c #692E74",
"T  c #6C247A",
"R  c #71257F",
"E  c #2F4346",
"W  c #2F4648",
"Q  c #2E4C4B",
"!  c #324346",
"~  c #34474A",
"^  c #384548",
"/  c #304A4C",
"(  c #2F504E",
")  c #384F55",
"_  c #365555",
"`  c #385657",
"'  c #335B59",
"]  c #395B5B",
"[  c #39605F",
"{  c #3E6B6D",
"}  c #3C706E",
"|  c #634C44",
" . c #694E44",
".. c #6B474E",
"X. c #724D4E",
"o. c #6E5244",
"O. c #735544",
"+. c #7A5A45",
"@. c #785E69",
"#. c #417776",
"$. c #417B7A",
"%. c #73646E",
"&. c #7A616B",
"*. c #786274",
"=. c #7C6B75",
"-. c #821B25",
";. c #8D1D24",
":. c #931E23",
">. c #9A1C20",
",. c #852226",
"<. c #8A2A26",
"1. c #942723",
"2. c #992623",
"3. c #9B2823",
"4. c #9B3926",
"5. c #852C37",
"6. c #A32521",
"7. c #A92620",
"8. c #AD2D20",
"9. c #A1292B",
"0. c #B02F21",
"q. c #AE3521",
"w. c #A0362F",
"e. c #B23A20",
"r. c #A73835",
"t. c #C25B27",
"y. c #CA5824",
"u. c #D25E23",
"i. c #D56423",
"p. c #D06B26",
"a. c #DD6D23",
"s. c #D97023",
"d. c #CF6F36",
"f. c #825D47",
"g. c #8C6843",
"h. c #946D43",
"j. c #986F44",
"k. c #9A7044",
"l. c #A67C46",
"z. c #835F69",
"x. c #836771",
"c. c #826C73",
"v. c #8A6B71",
"b. c #837076",
"n. c #85737C",
"m. c #8B767C",
"M. c #917A7D",
"N. c #B17A6D",
"B. c #DB8122",
"V. c #E38A22",
"C. c #EC9723",
"Z. c #EE9A22",
"A. c #AB8148",
"S. c #B38648",
"D. c #B98B48",
"F. c #B28376",
"G. c #BF8B77",
"H. c #C69175",
"J. c #752582",
"K. c #947F80",
"L. c #B59081",
"P. c #BA9582",
"I. c #BB9A88",
"U. c #C39B83",
"Y. c #C79A80",
"T. c #D7BDA0",
"R. c #DCBFA0",
"E. c #DEC09F",
"W. c #E5CAA9",
/* pixels */
"J.J.J.J.J.J.J.J.T A H G G V V M u 7 u u u u u m V Z G G G G G H P T J.T H G P T J.J.J.J.J.J.J.J.",
"J.J.J.J.J.J.J.J.T P H G G H V M u u u u u 7 u M B C G G G G G G P T J.T P H H T J.J.J.J.J.J.J.J.",
"J.J.J.J.J.J.T T P T P P P H Z V M m u u m m M B Z A P G G H P P P T T T P P P T J.J.J.J.J.J.J.J.",
"J.J.J.J.J.T T P T P T P T T H Z V M m u m N B Z A P P P H P P P T P P P T T J.J.J.J.J.J.J.J.J.J.",
"J.J.J.J.J.T P G P T J.J.J.J.T P Z V m m m V G H T T T P H P T J.T P H P J.J.J.J.J.J.J.J.J.J.J.J.",
"J.J.J.J.J.T T P P J.J.J.T T T P A V M u m V G P P T T P P P T J.T T P T J.J.J.J.J.J.J.J.J.J.J.J.",
"J.J.J.J.J.J.T T T T J.J.P P P T T Z N m M V Z G P P P T T T J.J.J.T J.J.J.J.J.J.J.J.J.J.J.J.J.J.",
"J.J.J.J.J.J.J.J.J.J.J.T P H A T J.Z V m M V V d ..K H T J.J.J.J.J.J.J.J.J.J.J.J.J.J.J.J.J.J.J.J.",
"J.J.J.J.J.J.J.J.J.J.J.J.P P T T J.A C N B C P K f.X.L I J.J.J.J.J.J.J.J.J.J.J.J.J.J.J.J.J.J.J.J.",
"J.J.J.J.J.J.J.J.J.J.J.J.T T T J.J.A Z V C P T I z o.f.c I J.J.J.J.J.J.J.J.J.J.J.J.J.J.J.J.J.J.J.",
"J.J.J.J.J.J.J.J.J.J.J.J.J.J.J.J.J.T P C P T J.R U j O.| z R J.J.J.J.J.J.J.J.J.J.J.J.J.J.J.J.J.J.",
"J.J.J.J.J.J.J.J.J.J.J.J.J.J.J.T T P J G A T J.J.T j g.O.h T J.J.J.J.J.J.J.J.J.J.J.J.J.J.J.J.J.J.",
"J.J.J.J.J.J.J.J.J.J.J.J.J.J.T T P P G G P T R J.T x l.g.j T J.J.J.J.J.J.J.J.J.J.J.J.J.J.J.J.J.J.",
"J.J.J.J.J.J.J.J.J.J.J.J.J.J.T P G C C G P T R T U x h.+.h T J.J.J.J.J.J.J.J.J.J.J.J.J.J.J.J.J.J.",
"J.J.J.J.J.J.J.J.J.J.J.J.J.J.J.P G G V V Z I P z j O.A.g.x T J.J.J.J.J.J.J.J.J.J.J.J.J.J.J.J.J.J.",
"J.J.J.J.J.J.J.J.J.J.J.J.J.J.T P G V B N C D z o.+.h.+.o.j T J.J.J.J.J.J.J.J.J.J.J.J.J.J.J.J.J.J.",
"J.J.J.J.J.J.J.J.J.J.J.J.J.J.T P G B M u v z o.A.S.j.O. .z T J.J.J.J.J.J.J.J.J.J.J.J.J.J.J.J.J.J.",
"J.J.J.J.J.J.J.J.J.J.J.J.J.J.T H G B M i h o.k.l.l.+.O. .h P R J.J.J.J.J.J.J.J.J.J.J.J.J.J.J.J.J.",
"J.J.J.J.J.J.J.J.J.J.J.J.J.J.T P G B i h  .h.D.D.S.h.O. .w U T J.J.J.J.J.J.J.J.J.J.J.J.J.J.J.J.J.",
"J.J.J.J.J.J.J.J.J.J.T J.J.J.T P C S 9 | o.O.h.k.h.+.O. .h G T J.J.J.J.J.J.J.J.J.J.J.J.J.J.J.J.J.",
"J.J.J.R T R R R J.J.T T T P J F B M w | | r r X , |  .| w P T T T T T J.J.R J.R J.J.T T R R J.J.",
"J.J.R f a f I I P H H H D 0 w 9 i i 8 w r W ( _ Q r r q w D P D 9 w 0 U R T R T R I f a d T J.J.",
"J.J.R a O $ & s a 9 a S w . W . 8 7 w Q _ [ } } [ _ Q E q d D 0 . W q d J f a a s & @ O a T J.J.",
"J.R I a $ ;.;.# @ % o ; . W ` W 8 y ) ( ( ' [ ' ' ( Q Q W 8 v w W ` W 8 = O $ @ # ;.;.$ a I J.J.",
"J.J.U a O < > 3.>.-.+ $   . ( . 8 7 / ' [ #.$.$.#.] ] ] ] w v 8 e ( . ; O + -.>.3.> ; O s A J.J.",
"J.J.P f O , 6 t.q.7.>.+ O ^ } Q . q Q ` t t ! t ! e q e ` W 8 . W } ^ o -.>.7.0.t.6 , o s A R J.",
"J.J.T J & 1.t.s.s.i.q.>.$ X W . E e _ w q E W e ! W . . e E . . . / . $ >.q.i.a.a.t.1.& J R J.J.",
"J.J.R I g 1.0.a.C.C.y.3.:     X ) q E q q ` ` e ` ` q . . e . .     ; : 1.y.C.Z.a.0.>.g P R J.J.",
"J.J.J.J.I * 6.i.C.V.q.1.2.:.# O   . q . q E W q W W . q . . .   O $ :.1.:.q.V.C.i.6.* I J.J.J.J.",
"J.J.J.J.R g # 8.u.q.e.s.i.7.>.+ O X _ W q t t w r r r ^ W _ . O + >.7.i.B.e.q.u.8.# g I J.J.J.J.",
"J.J.J.J.R I & >.1.<.B.Z.i.3.;.@ %   ! r t %.b.c.c.c.=.%.^ E   @ @ 1.3.i.C.B.<.2.>.* I J.J.J.J.J.",
"J.J.J.J.J.T g o - ,.s.V.4.> , ; 2 ; r %.*.L.P.P.P.P.G.m.%.r = 2 = , > 4.V.s.,.- o g R J.J.J.J.R ",
"J.J.J.J.J.J.I f ; 3.u.p.1 ! _ ! > o x b.I.R.R.U.U.U.P.M.=.x o : ! _ ! 1 p.u.2.; f I J.J.J.J.J.J.",
"J.J.J.J.J.J.J.T a 1.8.y.<.X t X 2 2 @.K.T.W.W.U.Y.U.U.L.m.&.4 2 X t X <.y.0.1.a P J.J.J.J.J.J.J.",
"J.J.J.J.J.J.J.R f $ >.3.: ~ #.! > 3 v.P.R.E.Y.H.G.G.U.F.m.x.3 - ~ { ~ : 3.>.% f T J.J.J.J.J.J.J.",
"J.J.J.J.J.J.J.J.I g % >.,.< , - -.2 v.L.U.H.d.d.w.r.N.K.n.c.2 -.< k > ,.>.% s P J.J.J.J.J.J.J.J.",
"J.J.J.J.J.J.J.J.J.I s O # ;.:.;.+ % c.M.F.r.t.1 = :.5.c.n.x.3 + ;.;.;.# O g I J.J.J.J.J.J.J.J.J.",
"J.J.J.J.J.J.J.J.J.R I f = O @ $ $ j %.n.v.9.2.    $ * x.n.%.< O @ @ $ = f I J.J.J.J.J.J.J.J.J.J.",
"J.J.J.J.J.J.J.J.R T T P D a a a a w n =.v.r.1.= ; $ 5 x.=.n 9 9 a 9 a B P R J.J.J.J.J.J.J.J.J.J.",
"J.J.J.J.J.J.J.J.T T P P T P P P G P Y *.=.z.5 3 3 5 z.=.*.Y G D S p p C A J.J.J.J.J.J.J.J.J.J.J.",
"J.J.J.J.J.J.J.J.T P G P T R T P H P P b n %.&.@.@.&.*.t b P H C V m u V A R J.R J.J.J.J.J.J.J.J.",
"T T T T P T T T P P G P P T P H H H P P H b b r 0 l l 0 H P Z V M m u V Z T T R J.J.J.J.J.J.J.J.",
"H H H P P H P P P G G G P P P G G G Z A U G G F S M N F H H V m m m u M C A T R J.J.J.J.J.J.J.J.",
"H H G G H H G H G G G G G G G C G C C Z G G G B M i M V G V m u u u u p V C A A J.J.J.J.J.J.J.J.",
"G G G G G G B B V F G G G F V V V V V V V V V M m u m M N N m u u u u u M V V Z A A A A T A T T ",
"G G G G G B N N B B G G G G V B M m m M M M m u m 7 m m m m m u u u u u m m N V V V V V V A P A ",
"G G G G G B M m M B F G G G V M u u u u u u u u u u u u u u u u u u u u u u u u u u u u N B G G ",
"G G G G G B m u M B G G G G B M u u u u u u u u u u 7 u u 7 u u u u u u u u u u u u u u M B C G "
};
