/* XPM */
static char *result[] = {
/* columns rows colors chars-per-pixel */
"48 48 60 1 ",
"  c #27213F",
". c #272140",
"X c #2A2343",
"o c #2D2748",
"O c #2E2A4C",
"+ c #322C4E",
"@ c #322D51",
"# c #363055",
"$ c #383157",
"% c #373359",
"& c #3A335A",
"* c #3B385F",
"= c #3D3A63",
"- c #3F3C68",
"; c #433D67",
": c #423E69",
"> c #3F446C",
", c #43416F",
"< c #49426D",
"1 c #434571",
"2 c #4C4674",
"3 c #434873",
"4 c #4E4A7C",
"5 c #534C7C",
"6 c #554E80",
"7 c #565083",
"8 c #5A5386",
"9 c #55558B",
"0 c #5C568B",
"q c #5D588E",
"w c #5C5A93",
"e c #5C5E99",
"r c #605C95",
"t c #625F9A",
"y c #556496",
"u c #5C639D",
"i c #64619D",
"p c #5B6CA1",
"a c #6664A2",
"s c #6867A6",
"d c #6968A7",
"f c #6467A8",
"g c #6768A9",
"h c #6A6BAC",
"j c #6C6EB1",
"k c #6C71B5",
"l c #647AB3",
"z c #6D73B8",
"x c #6D7BBD",
"c c #7074BA",
"v c #7479C2",
"b c #777DC8",
"n c #787ECA",
"m c #6C85C2",
"M c #7783CB",
"N c #7883CC",
"B c #7689CE",
"V c #7888CF",
"C c #768DD1",
"Z c #7693D5",
/* pixels */
"                                                ",
"                                                ",
"                                                ",
"                                                ",
"                                                ",
"                                                ",
"    . ..  ..X                                   ",
"  XXooooO@@@@@@#@OX                             ",
" Xo+$$$&*;:13333>>@X  ..                        ",
" X+*;;<250wuupppy6=O. ..                        ",
" o#;2558wfjxmmmmly>@. ..          ..            ",
" o#<588qijvMCZZZmy>@. ..         ...            ",
" o$<588qijvVCZZZmp>@........   X....            ",
" o$<588qijvMCZZZmp>%XX@@@@@@@@O@OX..            ",
" o$<550qihvMVCZZmp>>O=-1-11:>,>>=O.            .",
" o$<588qikvMMVCCmp>%=49eeeeeeuy93=o.           .",
"Xo&2588qijcnNVBCmp>>-9ihhjjkzcjfw-O....     ....",
"Xo&;588qijvnnMVBmp>>;7ahjkkvvnbzu:@.....    ....",
" o&;588qijvbnnVBmp>>=4qtaahcbbbze:@X............",
" o&;588qajvbnNVBmp>%;:7rwwijcvbku-@XXoO@@@@OOX..",
"Xo$;588qijvnnNNMmp>==:5800rajvvhe:$o@&=;--:-=@o.",
" o&;588qijvnnnNNvy-%=:5880qrigcje1$@&:40eee96%O.",
"Xo&;580qajvnnnNNlu-%$:788800wfjhe:&$;50tgjjp9-O.",
"X+&;588qtjcnnnNMlp>=%:688888wijje:&&:7rajzvje-@.",
"XX&;588qtjvnnnNVxp3%&<588888rtjje:=$:60rihzju,+ ",
"XX&2500qajvnnnNVmp3%&;5888880tjjt1$$:600rakje,@ ",
"Xo$;588qtjvnnNNVxp2%$<588888qtjhe:%&2508qijje,+ ",
" X$;588qtjvbnnNNzu<&&<588088qtjje:%&:688qihhe,+ ",
"Xo$<588qijvbnnnnze1%&:588888qthdw-%%<588qihdq<+ ",
"Xo$2588qajvbnnnnzu:%&25808880rai9;@%<5880rai8;+ ",
" o&;588qijvbnnnnze1%&:5888880qrq5*@$<5880qrq5&o ",
" o&;588qthzvnnnnze:%&:58888880q05*@$<58880w85&oX",
" X$<588qrddcvnnnce:&&:6688880qrq6*@$;8080qrq5;o.",
"Xo$<5888qrddcnnvcr:&;:6888880rai7;$$;5880rat8;O.",
" o$<58888qrijvvncr;&$:6888880rsa9:$$;888qrda9;O.",
" o$<588888qrddccci:&$:6888880rai9-$$;5880rat9;O.",
"XX$<5588888qrddcjt;&&<5888088rrq6*#$:68800rq4=o.",
"Xo$<5888888qqtdjdr;&&<5808888888:$#$:58880082&o.",
" o$<588888qqriddi8;$&<5888888885:&@$:6888885:$o.",
" X$<5888888qdddaq5&$$<58888888852*#$:8888885<$o.",
" o$<588888qrddda82&$$<5588888855;&#$;5888885;$oX",
" X$<5888q88rdddr5<$$$<58888888052$+$25888885<$oX",
" o$<585558qrrrr85<$+$<5588888855;&+$;5888885;$XX",
" o$<5555555558555;$+$;255555555<<&+$;5555552;#XX",
" X+&;<<<<<<<2<<<;&+++&;<2<<<<<<<&+++&;;<<<;;*+XX",
" Xo+$$$$$$$$&&$$$+oXo+$$$$$$$$$$+o o+$&&$$&$+oX ",
"  XXooooooooooooXXX XXXXoXooXXoX XXX oooooXo X  ",
"   X          XX    XX XXXXXX X X        X X    "
};
