/* XPM */
static char *result[] = {
/* columns rows colors chars-per-pixel */
"48 48 155 2 ",
"   c #342F3F",
".  c #392E3E",
"X  c #32303E",
"o  c #462D3E",
"O  c #4C2D3E",
"+  c #572A3E",
"@  c #74263E",
"#  c #7E273E",
"$  c #7A2D3F",
"%  c #352F42",
"&  c #3A2E46",
"*  c #3C2D4A",
"=  c #343343",
"-  c #383045",
";  c #35364A",
":  c #3C334B",
">  c #36384D",
",  c #3B3B4B",
"<  c #3A3650",
"1  c #373B51",
"2  c #393C55",
"3  c #3B3E5A",
"4  c #41125D",
"5  c #422E4E",
"6  c #5F3441",
"7  c #432355",
"8  c #462E55",
"9  c #492B56",
"0  c #4A235C",
"q  c #4D2B5C",
"w  c #51275F",
"e  c #50295E",
"r  c #433453",
"t  c #423853",
"y  c #6C3942",
"u  c #451661",
"i  c #491762",
"p  c #451A64",
"a  c #4C1964",
"s  c #511C67",
"d  c #531C69",
"f  c #5A1F6E",
"g  c #5E1F70",
"h  c #631F76",
"j  c #532365",
"k  c #592667",
"l  c #542A62",
"z  c #592A66",
"x  c #562169",
"c  c #5B226D",
"v  c #562A69",
"b  c #5D286A",
"n  c #413E63",
"m  c #503266",
"M  c #523268",
"N  c #492670",
"B  c #5D2471",
"V  c #5A3474",
"C  c #62286E",
"Z  c #642374",
"A  c #692676",
"S  c #642A72",
"D  c #682976",
"F  c #6C247A",
"G  c #642A7A",
"H  c #6A297E",
"J  c #71257E",
"K  c #3E4253",
"L  c #3B425D",
"P  c #3D4465",
"I  c #3D4863",
"U  c #3F466A",
"Y  c #3F496B",
"T  c #424456",
"R  c #43455A",
"E  c #46495C",
"W  c #404267",
"Q  c #4C4061",
"!  c #474D60",
"~  c #41496E",
"^  c #4E5266",
"/  c #52566B",
"(  c #474371",
")  c #424B73",
"_  c #434E79",
"`  c #45517D",
"'  c #565A70",
"]  c #595F75",
"[  c #586076",
"{  c #5D637B",
"}  c #9F2D41",
"|  c #B03845",
" . c #D6454A",
".. c #533B85",
"X. c #5C3D89",
"o. c #6D2C82",
"O. c #752582",
"+. c #732985",
"@. c #683484",
"#. c #633984",
"$. c #6D358B",
"%. c #643D8D",
"&. c #643F91",
"*. c #6C3B92",
"=. c #4A4E81",
"-. c #4F458C",
";. c #534C88",
":. c #465584",
">. c #485788",
",. c #475A88",
"<. c #49598D",
"1. c #4C4690",
"2. c #5F4594",
"3. c #514C97",
"4. c #5A4B96",
"5. c #564E99",
"6. c #5B4F9D",
"7. c #4D5791",
"8. c #4B5B92",
"9. c #4E5E9B",
"0. c #505794",
"q. c #5C509D",
"w. c #654395",
"e. c #684397",
"r. c #684399",
"t. c #66489B",
"y. c #4A6792",
"u. c #4E609C",
"i. c #656B84",
"p. c #737C98",
"a. c #5B5EAB",
"s. c #4F63A2",
"d. c #5263A5",
"f. c #5366AC",
"g. c #5961AD",
"h. c #5269AD",
"j. c #5B63B2",
"k. c #556BB4",
"l. c #576EBA",
"z. c #586BB8",
"x. c #5478B5",
"c. c #5773BD",
"v. c #5D72BD",
"b. c #5778BE",
"n. c #5876C0",
"m. c #597BC4",
"M. c #5680BD",
"N. c #5783C0",
"B. c #5789C2",
"V. c #5A82CA",
"C. c #5B8BCC",
"Z. c #5991C9",
"A. c #5D8ED2",
"S. c #5C90D4",
"D. c #8892B1",
/* pixels */
"O.O.O.O.O.O.O.O.F h B c c c d i 4 4 4 4 4 4 4 u s c c c c c c c h F O.F Z g Z F O.O.O.O.O.O.O.O.",
"O.O.O.O.O.O.O.O.F Z B f c c d i 4 4 4 4 4 4 4 i s c c c c c c C h F O.A Z B h F O.O.O.O.O.O.O.O.",
"O.O.O.O.O.O.F F F Z Z h Z Z f d i u 4 u p p s N B h B B B B Z Z h A F A Z h A F O.O.O.O.O.O.O.O.",
"O.O.O.O.O.F F Z h A A A F F h f s a N 1.3.3.5.6.q.a.6.6.5.G Z A A A Z Z A F J O.O.O.O.O.O.O.O.O.",
"O.O.O.O.O.F Z Z Z A O.O.O.F o.X.X...-.u.s.s.s.s.s.s.s.s.d.4.%.*.%.G Z Z J O.O.O.O.O.O.O.O.O.O.O.",
"O.O.O.O.J F A Z F F O.O.F o.&.j.k.h.9.) _ Y Y Y Y ) ~ ~ ) 9.f.l.l.w.G A J O.O.O.O.O.O.O.O.O.O.O.",
"O.O.O.O.O.O.F F F O.O.F H 2.j.z.l.9.Y 1 ; ; ; ; > ; ; ; > ) 9.n.S.v.w.o.J O.O.O.O.O.O.O.O.O.O.O.",
"O.O.O.O.O.O.O.O.O.O.O.H 2.g.l.l.z.9.U = % ; K K K K , X = U :.u.m.A.v.t.O.O.O.O.O.O.O.O.O.O.O.O.",
"O.O.O.O.O.O.O.O.O.O.+.r.g.l.l.k.s.` K = = K K K K , K = = K U ,.k.C.A.v.r.+.O.O.O.O.O.O.O.O.O.O.",
"O.O.O.O.O.O.O.O.O.O.$.j.l.l.l.k.,.L X X E K X , = ; K ! = X 3 ,.k.l.V.V.j.$.O.O.O.O.O.O.O.O.O.O.",
"O.O.O.O.O.O.O.O.O.O.*.j.l.l.c.k.,.L X = [ / T K K K / { ; X 3 >.k.l.c.c.j.*.O.O.O.O.O.O.O.O.O.O.",
"O.O.O.O.O.O.O.O.O.*.j.z.l.l.l.k.>.3 X K { ^ = . , = ^ { , X 3 >.k.l.l.l.z.j.*.O.O.O.O.O.O.O.O.O.",
"O.O.O.O.O.O.O.O.O.r.z.l.V.A.V.k.>.K   , { ^ . K , = E { , X L >.l.V.C.V.v.z.r.+.O.O.O.O.O.O.O.O.",
"O.O.O.O.O.O.O.O.O.r.z.l.m.B.N.k.>.3   ; / ] ] { { ' ] / = X K >.k.N.B.N.l.z.r.O.O.O.O.O.O.O.O.O.",
"O.O.O.O.O.O.O.O.O.r.z.z.9.,.8.h.:.K X X , { D.D.D.D.i., X X 3 >.h.8.>.9.z.z.r.O.O.O.O.O.O.O.O.O.",
"O.O.O.O.O.O.O.O.O.r.z.z.h.f.k.k.>.3 X X X t E E E E , X X X 3 >.k.k.d.k.z.z.r.O.O.O.O.O.O.O.O.O.",
"O.O.O.O.O.O.F z q ( u.k.l.l.l.k.>.L % X X X X X X X X X X X L ,.k.l.l.l.k.9.( e w J J J O.O.O.O.",
"O.O.O.O.O.F z < = 2 :.k.m.m.l.k.9.` 3 = X X X X X X X X X L Y y.k.l.l.l.k.>.3 ; t z J O.O.O.O.O.",
"O.O.O.O.F z : ! , 3 :.h.V.C.b.l.k.k.u.I L L L L L L L I I u.n.l.l.l.l.k.s.:.2 1 E t z F O.O.O.O.",
"O.O.O.J l t ! { R 3 Y ,.h.V.S.b.l.l.b.Z.Z.Z.Z.S.Z.Z.Z.Z.Z.n.l.l.l.l.z.s.:.Y 2 E { E t e J O.O.O.",
"O.O.J e t ^ { ' T = 2 ) <.h.V.S.m.l.n.m.V.m.m.V.V.m.V.m.V.n.l.l.l.l.s.>.) 3 ; 2 ] { ^ t l J O.O.",
"O.O.J r / i.[ ! , & 9 3 Y <.h.V.n.l.l.l.l.n.l.l.l.n.l.l.l.l.l.l.l.s.>.Y R q 5 , E [ i.' 5 J O.O.",
"O.O.F r i.p.! K < 0 j - 3 Y >.h.f.h.k.k.l.l.l.l.l.l.l.l.l.h.f.f.s.>.Y L * S l < T ! p.i.t J O.O.",
"O.J D Q { i.E : l x 0 & = P Y Y Y >.<.k.k.k.k.k.k.l.k.k.k.8.:.Y :.Y 3 = & x B j , R { { E A J O.",
"O.D 8 R [ ] t e x 0 & % X = ; 1 U ) ` :.:.>.>.>.>.>.>.>.:._ Y Y 1 ; ; X % & s c e < ] { R 8 S O.",
"J C - , E R - j d 7 = 2 ; X X = 1 2 3 K K 3 3 3 2 2 2 2 3 3 L 2 X X X ; 2 = * d k & T R ; & C O.",
"O.S - L P P n l d 0 > Y 1   X X X X . O 5 + y y y y 6 6 O . % % X X = 1 U ; * x l n P P 3 - S O.",
"O.D t <.9.u.8.n v w ; P 1 = X X X X O $ # |  . . . .| y @ . X % X X = 1 P ; a v n 8.9.s.8.t S O.",
"O.$.0.W 3 3 W 7.%.z % ; L 1 X   X = = o O $ } } } } $ o o - = % X = 2 L ; X q 2.7.P 3 3 W 0.$.O.",
"O.*.d.3 9 b V a.e.z %   > 3 3 = X I ) =   o + + + + o   = Y P = = 2 2 > X . e w.a.V k q 3 d.*.O.",
"O.@.=.1 z O.o.;.#.S 9 % X > 3 = 1 >.9.3 = ; 2 1 1 2 ; = 3 9.>.> = 2 > X . 8 C #.;.@.J l < =.o.O.",
"O.D 8 5 b O.F q S J S & X = = = P 8.u.) > L _ :.:._ P 1 Y 9.8.P = = = . & C J C e J O.c 5 9 A J ",
"O.O.F D O.O.O.J J O.D 5 . X X = Y :.,.Y 1 L :.d.d.>.L > Y ,.>.Y = X X X 5 A J J F J O.J J F J O.",
"O.O.O.O.O.O.O.O.O.O.J C 5 X X ; ,.x.M.u.2 ; P ,.,.P ; 2 u.M.x.>.; = X & x J O.O.O.O.O.O.J O.O.O.",
"O.O.O.O.O.O.O.O.O.O.O.J b 5 ; ~ ` 8.y.=.P ; ; 2 3 ; ; P ` y.8.` Y > & j F O.O.O.O.O.O.O.O.O.O.O.",
"O.O.O.O.O.O.O.O.O.O.O.J A e 3 8.L = = ; P 2 X = = % 1 P ; = = L 8.3 7 B F O.O.O.O.O.O.O.O.O.O.O.",
"O.O.O.O.O.O.O.O.O.O.O.O.A w : ~ 3 ; ; > P 1 X   X X 2 U > > ; 2 ) : q B A O.O.O.O.O.O.O.O.O.O.O.",
"O.O.O.O.O.O.O.O.O.O.O.F Z x l 2 :.9.9.7.L = X   % X = 3 7.9.9.:.2 0 x Z F O.O.O.O.O.O.O.O.O.O.O.",
"O.O.O.O.O.O.O.O.F F F A A Z Z l ( _ _ ) M l k l q e l m ( _ _ ( q j s g h O.O.O.O.O.O.O.O.O.O.O.",
"O.O.O.O.O.O.O.O.O.A h h A A Z S q 8 9 q F O.O.F B Z Z G q 8 8 9 s a a f h O.O.O.O.O.O.O.O.O.O.O.",
"O.O.O.O.O.O.O.O.A h c Z F J A h c Z A J J O.O.A Z c h A F A B x d i 4 d h J O.J O.O.O.O.O.O.O.O.",
"F F A F Z F F F Z h c Z A A Z h c c Z F F F A Z f d f Z A Z f s i i 4 s g F J J O.O.O.O.O.O.O.O.",
"Z Z Z Z Z Z Z Z Z c c B Z Z Z c x Z B Z Z Z Z B d a s f h g s i i 4 4 s f h h J O.O.O.O.O.O.O.O.",
"f B c c B c c c f x c c c c c x f c c f c c d s a 4 i d f d a 4 4 4 4 4 d f h F O.O.O.J J O.O.O.",
"c c c c c x d s d x c c c f f d s d s s d s s a u 4 u a a a p 4 4 4 4 4 a d f g h h h h h F F J ",
"c c c c c x d i s d c c c c x a i i i i i i i 4 4 4 u u i u 4 4 4 4 4 4 4 i i a d d d d g g Z g ",
"c c c c c d i 4 i d c c c x d i 4 4 4 4 4 4 4 4 4 4 4 4 4 4 4 4 4 4 4 4 4 4 4 4 4 4 4 4 4 s g C ",
"c c c c x d i 4 i d c c c x d i 4 4 4 4 4 4 4 4 4 4 4 4 4 4 4 4 4 4 4 4 4 4 4 4 4 4 4 4 s s f f "
};
