/* XPM */
static char *result[] = {
/* columns rows colors chars-per-pixel */
"48 48 189 2 ",
"   c black",
".  c #000202",
"X  c #070809",
"o  c gray4",
"O  c #090A0E",
"+  c #0D0F13",
"@  c #0E1116",
"#  c #101010",
"$  c gray7",
"%  c #131313",
"&  c #161616",
"*  c #1C1C16",
"=  c #111418",
"-  c #13161A",
";  c #14171B",
":  c #13161C",
">  c #14171E",
",  c #15191D",
"<  c #15191F",
"1  c #181818",
"2  c #28281B",
"3  c #131721",
"4  c #141923",
"5  c #161B24",
"6  c #161B25",
"7  c #171B25",
"8  c #171E27",
"9  c #1A1D21",
"0  c #191E27",
"q  c #1A1F27",
"w  c #1B1F27",
"e  c #1C1F24",
"r  c #171D29",
"t  c #171E28",
"y  c #171D2A",
"u  c #181D28",
"i  c #181E28",
"p  c #191F2B",
"a  c #181E2C",
"s  c #1D2025",
"d  c #1D2127",
"f  c #1B2129",
"g  c #1B202A",
"h  c #1C212B",
"j  c #1D222A",
"k  c #19202C",
"l  c #1A202C",
"z  c #1B212C",
"x  c #1A202D",
"c  c #1B212D",
"v  c #1A202E",
"b  c #1B212F",
"n  c #1A222E",
"m  c #1B222E",
"M  c #1C212C",
"N  c #1C222D",
"B  c #1D222D",
"V  c #1E232C",
"C  c #1E232D",
"Z  c #1C212E",
"A  c #1D232F",
"S  c #1E242F",
"D  c #1F242F",
"F  c #1D2330",
"G  c #1E2431",
"H  c #1F2531",
"J  c #1F2631",
"K  c #1E2532",
"L  c #1E2533",
"P  c #1F2633",
"I  c #1E2534",
"U  c #1E2634",
"Y  c #1F2634",
"T  c #1F2736",
"R  c #1E2837",
"E  c #1E2738",
"W  c #1F2A3B",
"Q  c #1F293C",
"!  c #272A25",
"~  c #21242A",
"^  c #22252C",
"/  c #202631",
"(  c #202734",
")  c #212734",
"_  c #212934",
"`  c #222935",
"'  c #202836",
"]  c #212836",
"[  c #202837",
"{  c #212937",
"}  c #262B37",
"|  c #222A38",
" . c #232B3A",
".. c #222B3B",
"X. c #242B39",
"o. c #242C3A",
"O. c #252C3B",
"+. c #222C3C",
"@. c #232C3D",
"#. c #222C3E",
"$. c #242C3C",
"%. c #252D3C",
"&. c #262E3C",
"*. c #262E3D",
"=. c #252E3E",
"-. c #262F3F",
";. c #2A2F3A",
":. c #32353C",
">. c #60633D",
",. c #232E42",
"<. c #263040",
"1. c #273043",
"2. c #263144",
"3. c #263146",
"4. c #263246",
"5. c #283141",
"6. c #283142",
"7. c #2B3343",
"8. c #2C3546",
"9. c #2D3647",
"0. c #2A3548",
"q. c #2B3649",
"w. c #2C3649",
"e. c #2A374C",
"r. c #2E3848",
"t. c #2D384A",
"y. c #2E394B",
"u. c #2C384D",
"i. c #2E384C",
"p. c #2F394C",
"a. c #2C394E",
"s. c #313C4F",
"d. c #383D49",
"f. c #2F3C51",
"g. c #313C50",
"h. c #323D51",
"j. c #333E52",
"k. c #343F53",
"l. c #374153",
"z. c #354056",
"x. c #364256",
"c. c #3C4555",
"v. c #364258",
"b. c #384459",
"n. c #38445A",
"m. c #3C4658",
"M. c #39455C",
"N. c #3A465D",
"B. c #3B485F",
"V. c #3E495D",
"C. c #3C495F",
"Z. c #3B4860",
"A. c #3B4960",
"S. c #3C4960",
"D. c #434346",
"F. c #474C59",
"G. c #7C7D40",
"H. c #464F60",
"J. c #404D64",
"K. c #404D65",
"L. c #404D66",
"P. c #4C5567",
"I. c #42506A",
"U. c #43516C",
"Y. c #555965",
"T. c #575C6B",
"R. c #475570",
"E. c #475774",
"W. c #4A5975",
"Q. c #4B5A76",
"!. c #4A5B76",
"~. c #4C5B77",
"^. c #4E5F7D",
"/. c #4F607E",
"(. c #616573",
"). c #727074",
"_. c #90902F",
"`. c #D0D009",
"'. c #D2D208",
"]. c #A9A65A",
"[. c #516282",
"{. c #566889",
"}. c #5B6E92",
"|. c #777B8B",
" X c #64789D",
".X c #7D808E",
"XX c #8B888B",
"oX c #848899",
"OX c None",
/* pixels */
"OXOXOXOXOXOXOXOXOXOXOXOXOXOXOXOXOXOXOXOXOXOXOXOXOXOXOXOXOXOXOXOXOXOXOXOXOXOXOXOXOXOXOXOXOXOXOXOX",
"OXOXOXOXOXOXOXOXOXOXOXOXOXOXOXOXOXOXOXOXOXOXOXOXOXOXOXOXOXOXOXOXOXOXOXOXOXOXOXOXOXOXOXOXOXOXOXOX",
"OXOXOXOXOXOXOXOXOXOXOXOXOXOXOXOXOXOXOXOXOXOXOXOXOXOXOXOXOXOXOXOXOXOXOXOXOXOXOXOXOXOXOXOXOXOXOXOX",
"OXOXOXOXOXOXOXOXOXOXOXOXOXOXOXOXOXOXOXOXOXOXOXOXOXOXOXOXOXOXOXOXOXOXOXOXOXOXOXOXOXOXOXOXOXOXOXOX",
"OXOXOXOXOXOXOXOXOXOXOXOXOXOXOXOXOXOXOXOXOXOXOXOXOXOXOXOXOXOXOXOXOXOXOXOXOXOXOXOXOXOXOXOXOXOXOXOX",
"OXOXOXOXOXOXOXOXOXOXOXOXOXOXOXOXOXOXOXOXOXOXOXOXOXOXOXOXOXOXOXOXOXOXOXOXOXOXOXOXOXOXOXOXOXOXOXOX",
"OXOXOXOXOXOXOXOXOXOXOXOXOXOXOXOXOXOXOXOXOXOXOXOXOXOXOXOXOXOXOXOXOXOXOXOXOXOXOXOXOXOXOXOXOXOXOXOX",
"OXOXOXOXOXOXOXOXOXOXOXOXOXOXOXOXOXOXOXOXOXOXOXOXOXOXOXOXOXOXOXOXOXOXOXOXOXOXOXOXOXOXOXOXOXOXOXOX",
"OXOXOXOXOXOXOXOXOXOXOXOXOXOXOXOXOXOXOXOXOXOXOXOXOXOXOXOXOXOXOXOXOXOXOXOXOXOXOXOXOXOXOXOXOXOXOXOX",
"OXOXOXOXOXOXOXOXOXOXOXOXOXOXOXOXOXOXOXOXOXOXOXOXOXOXOXOXOXOXOXOXOXOXOXOXOXOXOXOXOXOXOXOXOXOXOXOX",
"OXOXOXOXOXOXOXOXOXOXOXOXOXOXOXOXOXOXOXOXOXOXOXOXOXOXOXOXOXOXOXOXOXOXOXOXOXOXOXOXOXOXOXOXOXOXOXOX",
"OXOXOXOXOXOXOXOXOXOXOXOXOXOXOXOXOXOXOXOXOXOXOXOXOXOXOXOXOXOXOXOXOXOXOXOXOXOXOXOXOXOXOXOXOXOXOXOX",
"OXOXOXOXOXOXOXOXOXOXOXOXOXOXOXOXOXOXOXOXS.j.k.OXOXOXOXOXOXOXOXOXOXOXOXOXOXOXOXOXOXOXOXOXOXOXOXOX",
"OXOXOXOXOXOXOXOXOXOXOXOXOXOXOXOXOXOXOXOXOX*.N.C.OXOXOXOXOXOXOXOXOXOXOXOXOXOXOXOXOXOXOXOXOXOXOXOX",
"OXOXOXOXOXOXOXOXOXOXOXOXOXOXOXOXOXOXOXOXOXi.b.J.x.OXOXOXOXOXOXOXOXOXOXOXOXOXOXOXOXOXOXOXOXOXOXOX",
"OXOXOXOXOXOXOXOXOXOXOXOXOXOXOXOXOXOXOXOXOXw.n.K.S.O.OXOXOXOXOXOXOXOXOXOXOXOXOXOXOXOXOXOXOXOXOXOX",
"OXOXOXOXOXOXOXOXOXOXOXOXOXOXOXOXOXOXOXOXx w.Z.~.W.h.m OXOXOXOXOXOXOXOXOXOXOXOXOXOXOXOXOXOXOXOXOX",
"OXOXOXOXOXOXOXOXOXOXOXOXOXOXOXOXOXOXOXOXu y U $.z > 6 i OXOXOXOXOXOXOXOXOXOXOXOXOXOXOXOXOXOXOXOX",
"OXOXOXOXOXOXOXOXOXOXOXOXOXOXOXOXOXOXOXF v k T [ p ;.X.b Z OXOXOXOXOXOXOXOXOXOXOXOXOXOXOXOXOXOXOX",
"OXOXOXOXOXOXOXOXOXOXOXOXOXOXOXOXOXG | 6.z.L.R.!.V.Q./.U.v.o._ OXOXOXOXOXOXOXOXOXOXOXOXOXOXOXOXOX",
"OXOXOXOXOXOXOXOXOXOXOXOXOXOXOXOXOXOXOX@ + = ; ! s ~ >.e d OXOXOXOXOXOXOXOXOXOXOXOXOXOXOXOXOXOXOX",
"OXOXOXOXOXOXOXOXOXOXOXOXOXOXOXOXOXOXOXO X o # '._.1 `.* $ OXOXOXOXOXOXOXOXOXOXOXOXOXOXOXOXOXOXOX",
"OXOXOXOXOXOXOXOXOXOXOXOXOXOXOXOXOXOXOXK A C :.].2 & G.D.} OXOXOXOXOXOXOXOXOXOXOXOXOXOXOXOXOXOXOX",
"OXOXOXOXOXOXOXOXOXOXOXOXOXOXOXOXOXOXOX%.5.p.m.XXd.% ).c.r.OXOXOXOXOXOXOXOXOXOXOXOXOXOXOXOXOXOXOX",
"OXOXOXOXOXOXOXOXOXOXOXOXOXOXOXOXOXOXOX' =.q.h.H..X< |.y.7.OXOXOXOXOXOXOXOXOXOXOXOXOXOXOXOXOXOXOX",
"OXOXOXOXOXOXOXOXOXOXOXOXOXOXOXOXOXOXOXI +.2.u.f.oXF.T.t.&.OXOXOXOXOXOXOXOXOXOXOXOXOXOXOXOXOXOXOX",
"OXOXOXOXOXOXOXOXOXOXOXOXOXOXOXOXOXOXOXR #.4.e.a.P.(.0.q.6.OXOXOXOXOXOXOXOXOXOXOXOXOXOXOXOXOXOXOX",
"OXOXOXOXOXOXOXOXOXOXOXOXOXOXOXOXOXOXOXa E Q ,.3.l.Y.W @.L OXOXOXOXOXOXOXOXOXOXOXOXOXOXOXOXOXOXOX",
"OXOXOXOXOXOXOXOXOXOXOXOXOXOXOXOXOXOXOX0 w : 5 c J ^ - 9 , OXOXOXOXOXOXOXOXOXOXOXOXOXOXOXOXOXOXOX",
"OXOXOXOXOXOXOXOXOXOXOXOXOXOXOXOXOXOXOXg h S / / D V j f q OXOXOXOXOXOXOXOXOXOXOXOXOXOXOXOXOXOXOX",
"OXOXOXOXOXOXOXOXOXOXOXOXOXOXOXOXOXOXi N A P ] ` ) / H h M OXOXOXOXOXOXOXOXOXOXOXOXOXOXOXOXOXOXOX",
"OXOXOXOXOXOXOXOXOXOXOXOXOXOXOXOXOXOXP ( Y ] | | { ] H B ( OXOXOXOXOXOXOXOXOXOXOXOXOXOXOXOXOXOXOX",
"OXOXOXOXOXOXOXOXOXOXOXOXOXOXOXOXOX7 | 8.s.B.M.-.$.g.^.N.9.8 OXOXOXOXOXOXOXOXOXOXOXOXOXOXOXOXOXOX",
"OXOXOXOXOXOXOXOXOXOXOXOXOXOXOXOXOXOXn ..1.I.E.[.}. X{.A. .3 OXOXOXOXOXOXOXOXOXOXOXOXOXOXOXOXOXOX",
"OXOXOXOXOXOXOXOXOXOXOXOXOXOXOXOXOXOXOXOXOXl r y t 6 4 <.OXOXOXOXOXOXOXOXOXOXOXOXOXOXOXOXOXOXOXOX",
"OXOXOXOXOXOXOXOXOXOXOXOXOXOXOXOXOXOXOXOXOX    OXOX.   OXOXOXOXOXOXOXOXOXOXOXOXOXOXOXOXOXOXOXOXOX",
"OXOXOXOXOXOXOXOXOXOXOXOXOXOXOXOXOXOXOXOXOXOX  OXOX  OXOXOXOXOXOXOXOXOXOXOXOXOXOXOXOXOXOXOXOXOXOX",
"OXOXOXOXOXOXOXOXOXOXOXOXOXOXOXOXOXOXOXOXOXOXOXOXOXOXOXOXOXOXOXOXOXOXOXOXOXOXOXOXOXOXOXOXOXOXOXOX",
"OXOXOXOXOXOXOXOXOXOXOXOXOXOXOXOXOXOXOXOXOXOXOXOXOXOXOXOXOXOXOXOXOXOXOXOXOXOXOXOXOXOXOXOXOXOXOXOX",
"OXOXOXOXOXOXOXOXOXOXOXOXOXOXOXOXOXOXOXOXOXOXOXOXOXOXOXOXOXOXOXOXOXOXOXOXOXOXOXOXOXOXOXOXOXOXOXOX",
"OXOXOXOXOXOXOXOXOXOXOXOXOXOXOXOXOXOXOXOXOXOXOXOXOXOXOXOXOXOXOXOXOXOXOXOXOXOXOXOXOXOXOXOXOXOXOXOX",
"OXOXOXOXOXOXOXOXOXOXOXOXOXOXOXOXOXOXOXOXOXOXOXOXOXOXOXOXOXOXOXOXOXOXOXOXOXOXOXOXOXOXOXOXOXOXOXOX",
"OXOXOXOXOXOXOXOXOXOXOXOXOXOXOXOXOXOXOXOXOXOXOXOXOXOXOXOXOXOXOXOXOXOXOXOXOXOXOXOXOXOXOXOXOXOXOXOX",
"OXOXOXOXOXOXOXOXOXOXOXOXOXOXOXOXOXOXOXOXOXOXOXOXOXOXOXOXOXOXOXOXOXOXOXOXOXOXOXOXOXOXOXOXOXOXOXOX",
"OXOXOXOXOXOXOXOXOXOXOXOXOXOXOXOXOXOXOXOXOXOXOXOXOXOXOXOXOXOXOXOXOXOXOXOXOXOXOXOXOXOXOXOXOXOXOXOX",
"OXOXOXOXOXOXOXOXOXOXOXOXOXOXOXOXOXOXOXOXOXOXOXOXOXOXOXOXOXOXOXOXOXOXOXOXOXOXOXOXOXOXOXOXOXOXOXOX",
"OXOXOXOXOXOXOXOXOXOXOXOXOXOXOXOXOXOXOXOXOXOXOXOXOXOXOXOXOXOXOXOXOXOXOXOXOXOXOXOXOXOXOXOXOXOXOXOX",
"OXOXOXOXOXOXOXOXOXOXOXOXOXOXOXOXOXOXOXOXOXOXOXOXOXOXOXOXOXOXOXOXOXOXOXOXOXOXOXOXOXOXOXOXOXOXOXOX"
};
