/* XPM */
static char *result[] = {
/* columns rows colors chars-per-pixel */
"48 48 32 1 ",
"  c #40125D",
". c #43145F",
"X c #461661",
"o c #491762",
"O c #4C1964",
"+ c #4C1865",
"@ c #4F1867",
"# c #4F1B66",
"$ c #521869",
"% c #521B68",
"& c #521D68",
"* c #551E69",
"= c #581D6C",
"- c #581C6D",
"; c #5B1F6E",
": c #5E1F70",
"> c #5E1E71",
", c #631F76",
"< c #58206B",
"1 c #5B226D",
"2 c #5E226F",
"3 c #612372",
"4 c #642374",
"5 c #642275",
"6 c #662077",
"7 c #672376",
"8 c #692279",
"9 c #692479",
"0 c #6C247B",
"q c #6F247D",
"w c #722580",
"e c #752582",
/* pixels */
"eeeeeeee041111&o       o&111111140e04140eeeeeeee",
"eeeeeeee041111&o       o&111111140e04140eeeeeeee",
"eeeeewq0974444;%oX. .Xo%;43212347909749qeeeeeeee",
"eeeeeq947900005;&OX XO&;50731370974790qweeeeeeee",
"eeeee04140eeee041&o o&140e04140e04140eeeeeeeeeee",
"eeeeeq949qewq0974=+ o&13709749qeq949qeeeeeeeeeee",
"eeeeewq0qweq94790>@ o&1234790qwewq0qweeeeeeeeeee",
"eeeeeeeeeee04140e,$ o&111140eeeeeeeeeeeeeeeeeeee",
"eeeeeeeeeeeq949qe6-o%;44449qeeeeeeeeeeeeeeeeeeee",
"eeeeeeeeeeewq0qwe8:&;50000qweeeeeeeeeeeeeeeeeeee",
"eeeeeeeeeeeeeeeee04140eeeeeeeeeeeeeeeeeeeeeeeeee",
"eeeeeeeeeeeeeewq073140eeeeeeeeeeeeeeeeeeeeeeeeee",
"eeeeeeeeeeeeeeq9432140eeeeeeeeeeeeeeeeeeeeeeeeee",
"eeeeeeeeeeeeee04111140eeeeeeeeeeeeeeeeeeeeeeeeee",
"eeeeeeeeeeeeee041<*&:8eeeeeeeeeeeeeeeeeeeeeeeeee",
"eeeeeeeeeeeeee041*#o-6eeeeeeeeeeeeeeeeeeeeeeeeee",
"eeeeeeeeeeeeee041&o $,eeeeeeeeeeeeeeeeeeeeeeeeee",
"eeeeeeeeeeeeee041&o @>0qwewq0qweeeeeeeeeeeeeeeee",
"eeeeeeeeeeeeee041&o +=49qeq949qeeeeeeeeeeeeeeeee",
"eeeeeeeeeeeeee041&o o&140e04140eeeeeeeeeeeeeeeee",
"eeeeeeeewq00005;&OX XO&;50974790qweeeeeeeeeeeeee",
"eeeeeeeeq94444;%oX. .Xo%;47909749qeeeeeeeeeeeeee",
"eeeeeeee041111&o       o&140e04140eeeeeeeeeeeeee",
"eewq00005;&&&&OX       XO&=>,>=&=>,,,,680000qwee",
"eeq94444;%ooooX.       .Xo+@$@+o+@$$$$-:44449qee",
"ee041111&o                            o&111140ee",
"eeq94444:-$$$$$$$$$$$$$@+ooooX.    .Xo%;44449qee",
"eewq000086,,,,,,,,,,,,,>=&&&&OX    XO&;50000qwee",
"eeeeeeeeeeeeeeeeeeeeeee041111&o    o&140eeeeeeee",
"eeeeeeeeeeeeeeeeeeeeeeeq94444;%oX. +=49qeeeeeeee",
"eeeeeeeeeeeeeeeeeeeeeeewq00005;&OX @>0qweeeeeeee",
"eeeeeeeeeeeeeeeeeeeeeeeeeeeee041&o $,eeeeeeeeeee",
"eeeeeeeeeeeeeeeeeeeeeeeeeeeeeq94;%o-6eeeeeeeeeee",
"eeeeeeeeeeeeeeeeeeeeeeeeeeeeewq05;&:8eeeeeeeeeee",
"eeeeeeeeeeeeeeeeeeeeeeeeeeeeeeee04140eeeeeeeeeee",
"eeeeeeeeeeewq0qweeeeeeeeeeeeewq073140eeeeeeeeeee",
"eeeeeeeeeeeq949qeeeeeeeeeeeeeq9432140eeeeeeeeeee",
"eeeeeeeeeee04140eeeeeeeeeeeee04111140eeeeeeeeeee",
"eeeeeeeewq0974790qweeeewq0qwe041<*&:8eeeeeeeeeee",
"eeeeeeeeq947909749qeeeeq949qe041*#o-6eeeeeeeeeee",
"eeeeeeee04140e04140eeee04140e041&o $,eeeeeeeeeee",
"000000007313707313700005;&;505;&OX @>0qweeeeeeee",
"44444444321234321234444;%o%;4;%oX. +=49qeeeeeeee",
"11111111111111111111111&o o&1&o    o&140eeeeeeee",
"11111<*&*<1111<*&&&&&&&OX XO&OX    XO&=>,,,,6800",
"11111*#o#*1111*#oooooooX. .XoX.    .Xo+@$$$$-:44",
"11111&o o&1111&o                            o&11",
"11111&o o&1111&o                            o&11"
};
