/* XPM */
static char *result[] = {
/* columns rows colors chars-per-pixel */
"48 48 86 1 ",
"  c #25213E",
". c #292543",
"X c #2B2746",
"o c #2D2848",
"O c #2E2B4D",
"+ c #302C4E",
"@ c #322E50",
"# c #342F53",
"$ c #343053",
"% c #363255",
"& c #3A355B",
"* c #38365C",
"= c #3C365D",
"- c #3C375D",
"; c #3D3960",
": c #3F3A62",
"> c #433E68",
", c #424069",
"< c #41406B",
"1 c #45406A",
"2 c #47416D",
"3 c #47426D",
"4 c #4B4672",
"5 c #494776",
"6 c #4D4775",
"7 c #4F4977",
"8 c #4B4A7B",
"9 c #4E4F7C",
"0 c #504B7A",
"q c #504C7C",
"w c #524D7C",
"e c #544F7F",
"r c #504E80",
"t c #565181",
"y c #545183",
"u c #545584",
"i c #585384",
"p c #58558B",
"a c #5A578B",
"s c #5C588B",
"d c #59588C",
"f c #595B8E",
"g c #5D5A8D",
"h c #5C5990",
"j c #5A5E90",
"k c #5E5F9A",
"l c #605D93",
"z c #605D95",
"x c #616296",
"c c #62609A",
"v c #63619A",
"b c #62639F",
"n c #64649C",
"m c #65679D",
"M c #61689B",
"N c #666A9F",
"B c #6766A2",
"V c #6566A4",
"C c #696AA9",
"Z c #6B6BA9",
"A c #6B6CAC",
"S c #6B6FAC",
"D c #6D6EAE",
"F c #6A71A8",
"G c #6C70AC",
"H c #6C75AF",
"J c #6E76AF",
"K c #6F70B1",
"L c #6E7AB2",
"P c #7075B4",
"I c #727BB7",
"U c #7274B8",
"Y c #7377BA",
"T c #7679C0",
"R c #787FC3",
"E c #7A7EC7",
"W c #7380BA",
"Q c #7680BE",
"! c #7682C0",
"~ c #7984C6",
"^ c #7B81C9",
"/ c #7C84CA",
"( c #7C86CC",
") c #7D89CD",
"_ c #7F8FD0",
"` c #8197D5",
/* pixels */
"     +=26wiw62222222=+       +=22222226wiiiiiiii",
"     +=26wiw62222222=+       +=22222226wiiiiiiii",
"<<<<<5rphzvzhpppppppr5<*O O*<5rppppppphzvvvvvvvv",
"kkkkkbVCADKDACCCCCCCVbk8* *8kbVCCCCCCCADKKKKKKKK",
"EEEEEEEEEEEEEEEEEEEEEEEk< <kEEEEEEEEEEEEEEEEEEEE",
"EEEEEEEEEEEEEEEEEEEEEEEb5+5bEEEEEEEEEEEEEEEEEEEE",
"EEEEEEEEEEEEEEEEEEEEEEEVr=rVEEEEEEEEEEEEEEEEEEEE",
"EEEEEEEEEEEEEEEEEEEEEEECp2pCEEEEEEEEEEEEEEEEEEEE",
"EEEEEEEEEEEEEEEEEEEEEEECp2ycKUTEEEEEEEEEEEEEEEEE",
"EEEEEEEEEEEEEEEEEEEEEEECp2qavZUEEEEEEEEEEEEEEEEE",
"EEEEEEEEEEEEEEEEEEEEEEECp26wivKEEEEEEEEEEEEEEEEE",
"EEEEEEEEEEEEEEEEEEEEEEECp26wivKEEEEEEEEEEEEEEEEE",
"EEEEEEEEEEEEEEEEEEEEEEECp26wivKEEEEEEEEEEEEEEEEE",
"EEEEEEEEEEEEEEEEEEEEEEECp26wivKEEEEEEEEEEEEEEEEE",
"EEEEEEEEEEEEEEEEE^/((((Sd26winP((((/^EEEEEEEEEEE",
"EEEEEEEEEEEEEEEEE/)____Hf26wimI____)/EEEEEEEEEEE",
"EEEEEEEEEEEEEEEEE(_````Lj26wiNW````_(EEEEEEEEEEE",
"KKKKKYR((((((((((~!WWWWM9=17ixFWWWW!~(RYKYR(((((",
"vvvvvGQ__________!JNNNNu,+;4igxNNNNJ!_QGvGQ_____",
"iiiiiNW``````````WNiiii3% %3iiiiiiiNW`WNiNW`````",
"iiiiixFWWWWWWWWWWFxiiii3% %3iiiiiiixFWFxixFWWWWW",
"iiiiigxNNNNNNNNNNxgiiii3% %3iiiiiiigxNxgigxNNNNN",
"iiiiiiiiiiiiiiiiiiiiiii3% %3iiiiiiiiiiiiiiiiiiii",
"3333347wwwwwwwwwwwww743-+ +-347wwwwwwwwwwwwwwwww",
"%%%%%;166666666666661;%+X X+%;166666666666666666",
"     +=2222222222222=+       +=22222222222222222",
"  .o+&>66666666666661;%%%%%%%;166666666666666666",
"  o#=>4wwwwwwwwwwwww74333333347wwwwwwwwwwwwwwwww",
"  +=26wiiiiiiiiiiiiiiiiiiiiiiiiiiiiiiiiiiiiiiiii",
"  @:60eislvlsiiiislvvvvvvvvvvvvvvvvvvvvvvlsiiiii",
"  $>wetilBKBliiiilBKKKKKKKKKKKKKKKKKKKKKKBliiiii",
"  %3iiiivKEKviiiivKEEEEEEEEEEEEEEEEEEEEEEKviiiii",
"  %3islvZUEKvislvZUEEEEEEEEEEEEEEEEEEEEEEUZvlsii",
"  %3ilBKUTEKvilBKUTEEEEEEEEEEEEEEEEEEEEEETUKBlii",
"  %3ivKEEEEKvivKEEEEEEEEEEEEEEEEEEEEEEEEEEEEKvii",
"  %3ivKEEEEUZvZUEEEEEEEEEEEEEEEEEEEEEEEEEEEEKvii",
"  %3ivKEEEETUKUTEEEEEEEEEEEEEEEEEEEEEEEEEEEEKvii",
"  %3ivKEEEEEEEEEEEEEEEEEEEEEEEEEEEEEEEEEEEEEKvii",
"  %3ivKEEEEEEEEEEEEEEEEEEEEEEEEEEEEEEEEEEEEEKvii",
"  %3ivKEEEEEEEEEEEEEEEEEEEEEEEEEEEEEEEEEEEEEKvii",
"  %3ivKEEEEEEEEEEEEEEEEEEEEEEEEEEEEEEEEEEEEEKvii",
"++;4ivKEEEEEEEEEEEEEEEEEEEEEEEEEEEEEEEEEEEEEKvii",
"==17ivKEEEEEEEEEEEEEEEEEEEEEEEEEEEEEEEEEEEEEKvii",
"226wivKEEEEEEEEEEEEEEEEEEEEEEEEEEEEEEEEEEEEEKvii",
"226wivKEEEEEEEEEEEEEEEEEEEEEEEEEEEE^/(/^EEEEKvii",
"226wivKEEEEEEEEEEEEEEEEEEEEEEEEEEEE/)_)/EEEEKvii",
"226wivKEEEEEEEEEEEEEEEEEEEEEEEEEEEE(_`_(EEEEKvii",
"226wivKEEEEEEEEEEEEEEEEEEEEEEEEEEEE(_`_(EEEEKvii"
};
