/* XPM */
static char *result[] = {
/* columns rows colors chars-per-pixel */
"48 48 214 2 ",
"   c #040302",
".  c #0C0403",
"X  c #0B0508",
"o  c #130201",
"O  c #1A0301",
"+  c #170B09",
"@  c #1D1503",
"#  c #1B120A",
"$  c #0E0313",
"%  c #0E0317",
"&  c #110513",
"*  c #1A0C17",
"=  c #14041D",
"-  c #19071C",
";  c #171616",
":  c #270103",
">  c #340302",
",  c #3B0001",
"<  c #271906",
"1  c #23170C",
"2  c #321E02",
"3  c #280716",
"4  c #2E1D13",
"5  c #271819",
"6  c #331D1A",
"7  c #2C2201",
"8  c #362801",
"9  c #26211B",
"0  c #352417",
"q  c #150322",
"w  c #1C0923",
"e  c #1D062A",
"r  c #1F122A",
"t  c #1E0431",
"y  c #250A27",
"u  c #240C2C",
"i  c #291426",
"p  c #351A29",
"a  c #250B32",
"s  c #2B0E34",
"d  c #26063C",
"f  c #320E3E",
"g  c #2E1136",
"h  c #361932",
"j  c #34123C",
"k  c #352926",
"l  c #3C3328",
"z  c #35253A",
"x  c #480103",
"c  c #540002",
"v  c #5E0000",
"b  c #481201",
"n  c #660000",
"m  c #740000",
"M  c #422801",
"N  c #493708",
"B  c #50331B",
"V  c #653A0B",
"C  c #421E2B",
"Z  c #5C3C26",
"A  c #492A30",
"S  c #613C26",
"D  c #6D2E3F",
"F  c #594603",
"G  c #634D02",
"H  c #654B0A",
"J  c #7C4703",
"K  c #6D5800",
"L  c #715900",
"P  c #7B6400",
"I  c #6A4526",
"U  c #754A27",
"Y  c #7A4D29",
"T  c #785235",
"R  c #2B0543",
"E  c #2D0748",
"W  c #330D46",
"Q  c #3B1343",
"!  c #391348",
"~  c #340656",
"^  c #3A0B5B",
"/  c #3C1353",
"(  c #3E125A",
")  c #3B214E",
"_  c #3E0A63",
"`  c #421549",
"'  c #46194F",
"]  c #471854",
"[  c #41135D",
"{  c #4C1B5D",
"}  c #531B5D",
"|  c #533A58",
" . c #410969",
".. c #440A6E",
"X. c #461661",
"o. c #491762",
"O. c #4D1A64",
"+. c #48126B",
"@. c #531D65",
"#. c #5A1D65",
"$. c #541C69",
"%. c #5C1E6A",
"&. c #450674",
"*. c #460874",
"=. c #4B1570",
"-. c #5C1D73",
";. c #621F6D",
":. c #621F75",
">. c #5B226D",
",. c #62206E",
"<. c #642274",
"1. c #692175",
"2. c #6C247B",
"3. c #72247E",
"4. c #534D54",
"5. c #7C5F44",
"6. c #604E6D",
"7. c #676867",
"8. c #727171",
"9. c #7B787E",
"0. c #843F33",
"q. c #806B00",
"w. c #8C7502",
"e. c #967601",
"r. c #9A7A00",
"t. c #A07E00",
"y. c #8A542D",
"u. c #945D34",
"i. c #A05820",
"p. c #9B6639",
"a. c #B86725",
"s. c #A76A38",
"d. c #B5733C",
"f. c #CE7A0F",
"g. c #DD7E24",
"h. c #E17F2E",
"j. c #84326D",
"k. c #9B445E",
"l. c #AA524E",
"z. c #806E59",
"x. c #B87944",
"c. c #B5536E",
"v. c #C17B41",
"b. c #A78400",
"n. c #B79400",
"m. c #D6810B",
"M. c #C59C00",
"N. c #C89E00",
"B. c #DB8110",
"V. c #FB9A01",
"C. c #EC8A1C",
"Z. c #CBA600",
"A. c #D4AA00",
"S. c #D8AF00",
"D. c #D5B100",
"F. c #E1BD00",
"G. c #ECC300",
"H. c #F3CA00",
"J. c #A18774",
"K. c #CD8244",
"L. c #D38647",
"P. c #DA8A49",
"I. c #C88B56",
"U. c #C58C5A",
"Y. c #D2935C",
"T. c #E18F4B",
"R. c #E5924C",
"E. c #EB954E",
"W. c #CB9667",
"Q. c #D9A879",
"!. c #F0AC70",
"~. c #4E0684",
"^. c #530A89",
"/. c #591589",
"(. c #5C0C96",
"). c #5E1194",
"_. c #620F9E",
"`. c #681994",
"'. c #66169E",
"]. c #752582",
"[. c #732A8C",
"{. c #7B369A",
"}. c #6611A4",
"|. c #6914A5",
" X c #6A14A8",
".X c #6B14A9",
"XX c #6E18AB",
"oX c #7417B6",
"OX c #7719BA",
"+X c #7A1ABD",
"@X c #7E21B3",
"#X c #7D1CC3",
"$X c #913397",
"%X c #993895",
"&X c #912FA7",
"*X c #8C33BC",
"=X c #801DC2",
"-X c #898989",
";X c #909090",
":X c #B29386",
">X c #BFA587",
",X c #A5A4A6",
"<X c #CCAE8C",
"1X c #DCBE9A",
"2X c #E4BCAD",
"3X c #F4C18E",
"4X c #FAC28D",
"5X c #E0C29E",
"6X c #F6C898",
"7X c #FCD5A9",
"8X c #FDDBB2",
"9X c #D8D8D8",
"0X c gray89",
"qX c gray96",
/* pixels */
"].].].].].].].].2.<.>.>.>.>.$.X.[ ( ( X.( ( [ X.$.>.>.>.>.>.>.>.<.2.3.2.<.>.<.2.].].].].[.].].].",
"].].].].].].].].2.<.>.>.>.>.{ j W / R W ( d a s g ] >.>.>.>.>.>.<.2.].2.<.>.<.2.].].].].].].].].",
"].].].].].].3.2.2.<.<.<.<.>.' 5 h ! 5 g ! 5 +   % f @.>.>.>.>.<.<.2.2.2.<.<.2.2.].].].].].].].].",
"].].].].].2.2.<.<.2.2.2.2.' p u.Z 6 u.Z 5 u.Z $ ~ R u @.>.<.<.2.2.<.<.<.2.2.2.].].].].].].].].].",
"].].].].].2.<.>.1.2.].].3.` 4 d.s.y.K.s.y.K.U q ~...d W { >.2.].2.<.>.<.3.].].].].].].].].].].].",
"].].].].].2.2.<.2.2.].2.2.j 4 v.R.R.E.R.R.R.U w '.|.*.u j >.2.].3.2.<.2.3.].].].].].].].].].].].",
"].].].].].].2.2.2.].].2.1.j 4 d.E.E.E.E.E.E.U e '.+X.X*.d s >.].3.3.2.3.3.3.].].].].].].].].].].",
"].].].].].].].].].].].2.<.h 5 x.E.E.E.E.E.R.U w '.#X+X.X..d Q >.3.].].].].].].].].].].].].].].].",
"].].].].].].].].].].].3.1.j 4 x.E.E.E.E.E.R.U w '.=X#X#X}.*.d Q 1.3.3.].].].].].].].].].].].].].",
"].].].].].].].].].].].].3.j 4 h.E.E.E.E.E.E.U e '.#X#X#X+X}.&.R s ;.3.3.].].].].].].].].].].].].",
"].].].].].].].].].].].].3.j 4 d.T.E.E.E.E.P.I e '.#X=X#XoX&Xj.C & f ` ` ` #.3.3.].].].].].].].].",
"].].].].].].].].3.1.,.1.;.f 1 u.P.E.R.R.T.K.Z 3 ].&X&X&X&X%Xa.V & q - = - ` :.3.].].].].].].].].",
"].].].].].].].3.,.s q w w $ 1 s.L.R.K.P.T.v.S < a.h.h.h.h.g.f.0.&./.`.(.&.f s :.].].].].].].].].",
"].].].].].].].%.` d d R d = 1 p.K.K.K.K.L.v.S 2 f.V.V.V.V.f.l.j.}.OXoX(.~ W ` 1.].].].].].].].].",
"].].].].].].1.Q u  .~.^.~.~ i y.d.v.d.v.d.s.S 6 f.C.C.C.g.s.$X=X#XOX_. .y ` :.].].].].].].].].].",
"].].].].].1.s R  .~._.oXoX|.-.p Y x.v.v.s.B ] `.$X%X%X%X$X$X=X#XOX_.~ a ] :.].3.$X].].].].].].].",
"].].].].].%.= R ~.~.}.#X#X#XXX+.A I I I S ] /.#X#X#X=X#XOX.X}./. .~ W ` 1.3.].].].].].].].].].].",
"].].].].].;.y R &.~.}.oXOX#X+X|.{ 5 < < i /.oXOX+XXX X X/.*.&.! ; X j 3.3.].].].].].].].].].].].",
"].].].].].2.%.Q t &.(.(.(.XXXXW S u.s.s.y.h _ (.(._ t e q = q D p.5 Q 3.].].].].].].].].].].].].",
"].].].].].].3.} W ~ E E E ^ ^ $ 6 I Y U B & q E E C F F 7 X B U.I.4 Q 3.].].].].].].].].].].].].",
"].].].].].].].3.#.y $ . # 1 @ @ + . + o . @ @ @ @ F b.b.H B U.!.I.0 Q 3.].].].].].].].].].].].].",
"].].].].].].].].:.@.u @ P e.e.e.N o x : @ P e.e.b.G 7 8 T U.3X3XU.4 Q 3.].].].].].].].].].].].].",
"].].].].].].3.].2.,.g < t.M.M.M.G O v , 7 n.Z.n.P 8   X 5.3X7X3XI.4 Q ].].].].].].].].].].].].].",
"].].].3.2.2.2.,.>.$.s 7 b.M.M.Z.G O v , 7 n.Z.w.8 ;   X 5.7X8X4XI.4 f :.:.:.:.2.3.2.2.2.3.3.].].",
"].].2.2.<.<.>.! u [ s < b.M.M.n.G O v , . 8 8 N z.I     8.8X8X4XI.4 s O.$.$.$.>.>.2.<.<.2.2.].].",
"].].2.<.>.>.! B N p B K L r.Z.D.L O v ,     0 z.Q.5.    z.7X8X4XU.4 a ( ( [ o.O.>.>.>.>.<.2.].].",
"].].3.2.<.@.* G r.N w.Z.F K n.G.P O v ,     T !.6XJ.7 9 J.8X8X4XI.0 a ( X.X.$.>.<.<.<.<.2.2.].].",
"].].].2.2.@.* G n.b.Z.H.Z.P F D.q.O v ,     T !.7X5X>X>X1X8X8X4XI.4 t X.O.$.-.:.2.2.2.2.2.3.].].",
"].].].].3.;.* G N.N.S.G.H.n.w.F.q.+ n ,     T !.3X7X8X8X8X7X6XW.T p E X.O.>.<.2.].].].].].].].].",
"].].].].].,.i F b.N.N.A.H.H.H.H.P @ v ,     I Y.Y.Q.1X1X1X<XW.T r ! ( o.$.<.2.2.].].].].].].].].",
"].].].].].3.%.C N b.N.Z.A.S.S.A.K O v ,     # 0 0 k l l l B l k / ] X.O.>.2.2.].].].].].].].].].",
"].].].].].].].} C H L L L K L K 8 o > O X t = # 7.8.8.8.8.8.8.4.! [ _ $.-.].].].].].].].].].].].",
"].].].].].].].3.;.y 1 * * + * o $ - 5 5 i ^ R z ,X9XqXqX0X9X0X9.= ] X.-.:.].].].].].].].].].].].",
"].].].].].].].].2.;.#.#.} #.' & E {.:X>XJ.z / /.4.,XqXqX,X7.9X-X; [ $.>.<.].].].].].].].].].].].",
"].].].].].].3.3.3.].3.3.3.].,.- _ *X2X8X<Xk _ XX=.6.;X;X6.) 9.4.* O.>.<.2.].].].].].].].].].].].",
"].].].].].].].$X3.].].].3.2.#.- _ *X2X2X:Xk +.#X#X=.r r _ _ t % & { >.<.2.].].].].].].].].].].].",
"].].].].].].].].].].].2.2.<.>.&  .@X{.| A ^ (.#X#XXX).).'.}._ t * { >.<.2.].].].].].].].].].].].",
"].].].].].].].].].].].2.<.] g $ ~ _.^.E q  .}.#X#X#X#X#X#X#X}._ R j ] <.2.].].].].].].].].].].].",
"].].].].].].].].].2.2.2.1.j . # d &._ t % _ }.#X#X#X#X#X#X#XoX'.{ * g %.<.].].].].].].].].].[.].",
"].].].].].].].].2.2.<.<.<.j @ J B q t % q &._.#X#X#X#X#X#X#X(.k.i.< s $.<.].].].].].].].].].].].",
"].].].].].].].].2.<.>.<.2.} p V 2 o : o + D k.c.c.c.c.c.c.c.l.y.J b 3 W %.].].].].$X].].].].].].",
"<.2.2.2.2.2.2.2.<.<.>.<.<.<.] 1 . o v , : q.f.f.B.m.m.m.f.m.f.J > v x 3 ] <.2.].].3.].].].].].].",
"<.<.<.<.<.<.>.<.<.>.>.>.,./ 3 x > o v , o < 8 M M M M M M M M b v n n x 3 ! <.2.3.].].].].].].].",
">.>.>.>.>.>.>.>.>.>.>.>.>.g O n , o v , X y s y u y u u i y X , m m n , y / :.2.].].].:.].].].].",
">.>.>.>.>.>.@.>.$.>.>.>.>.j + c > o v , & / O.X.[ ( [ { O./ = > n n , - / @.$.-.:.:.:.:.:.:.3.2.",
">.>.>.>.>.$.O.X.O.@.>.>.>.{ j 3 o o n , & / X.X.[ ( [ X.o.X.! y : O y ! [ o.O.O.$.=.$.$.-.:.1.:.",
">.>.>.>.>.O.o.[ o.$.>.>.>.>.{ a u y , 3 u / X._ X.( ( ( X.( ( W w e W ( [ [ [ [ [ [ X.( X.$.>.>.",
">.>.>.>.>.>.o.[ X.$.>.>.>.>.@.[ ^ ! - a / ( ( ( ( ( ( X.( ( ( ( ( ( ( ( [ [ ^ [ [ [ ( [ o.@.>.>."
};
