/* XPM */
static char *result[] = {
/* columns rows colors chars-per-pixel */
"48 48 206 2 ",
"   c #040203",
".  c #0B0503",
"X  c #0C060B",
"o  c #140302",
"O  c #190202",
"+  c #1E040F",
"@  c #150A0A",
"#  c #181203",
"$  c #0E0216",
"%  c #130615",
"&  c #170A14",
"*  c #11031B",
"=  c #1B0B1A",
"-  c #2A0206",
";  c #350205",
":  c #3B0100",
">  c #241C02",
",  c #281E03",
"<  c #291A0F",
"1  c #281713",
"2  c #2C1B12",
"3  c #311D14",
"4  c #2C2303",
"5  c #382A04",
"6  c #2F2217",
"7  c #382717",
"8  c #1B0826",
"9  c #1C052B",
"0  c #1E0332",
"q  c #250B2E",
"w  c #310E2C",
"e  c #2D1228",
"r  c #250B35",
"t  c #260838",
"y  c #330E3C",
"u  c #2D1136",
"i  c #311236",
"p  c #3C1A37",
"a  c #33123C",
"s  c #2F2821",
"d  c #282728",
"f  c #322A23",
"g  c #3E352C",
"h  c #333232",
"j  c #4C0000",
"k  c #520103",
"l  c #5E0000",
"z  c #610000",
"x  c #750000",
"c  c #453601",
"v  c #553A09",
"b  c #4C2E1C",
"n  c #463411",
"m  c #6D3D0E",
"M  c #431D38",
"N  c #593924",
"B  c #512F31",
"V  c #663F27",
"C  c #74382E",
"Z  c #594505",
"A  c #5F4510",
"S  c #634E01",
"D  c #6A4906",
"F  c #695600",
"G  c #745C01",
"H  c #7D6600",
"J  c #644328",
"K  c #744927",
"L  c #7A582A",
"P  c #7A5435",
"I  c #7D5B3C",
"U  c #290444",
"Y  c #2F0D44",
"T  c #330C47",
"R  c #3B1342",
"E  c #3A1549",
"W  c #2F0450",
"Q  c #330554",
"!  c #38055E",
"~  c #3D0C5D",
"^  c #3A1155",
"/  c #3A1C50",
"(  c #3E125A",
")  c #3E0864",
"_  c #45164E",
"`  c #47194E",
"'  c #451754",
"]  c #41135D",
"[  c #4C1B5B",
"{  c #511C5A",
"}  c #563347",
"|  c #41056D",
" . c #45096C",
".. c #461661",
"X. c #4A1763",
"o. c #4C1964",
"O. c #541D63",
"+. c #581C61",
"@. c #531B69",
"#. c #5E1E6A",
"$. c #440571",
"%. c #480977",
"&. c #49057B",
"*. c #571973",
"=. c #611F6C",
"-. c #661E77",
";. c #4C2468",
":. c #572169",
">. c #5B226D",
",. c #66216C",
"<. c #642374",
"1. c #6A2276",
"2. c #6C247B",
"3. c #72247E",
"4. c #68434A",
"5. c #7C6B57",
"6. c #756E7A",
"7. c #843E3A",
"8. c #804E01",
"9. c #855102",
"0. c #875009",
"q. c #856B00",
"w. c #846906",
"e. c #9A7A00",
"r. c #A17F00",
"t. c #B7661D",
"y. c #88562F",
"u. c #A65539",
"i. c #9C6435",
"p. c #A96C39",
"a. c #B9763E",
"s. c #C56F1F",
"d. c #C57119",
"f. c #D17B2E",
"g. c #883957",
"h. c #9B4942",
"j. c #A85242",
"k. c #966B44",
"l. c #816D58",
"z. c #84715C",
"x. c #B77943",
"c. c #8F4579",
"v. c #BD5B62",
"b. c #C27C41",
"n. c #C97F43",
"m. c #C06150",
"M. c #A38200",
"N. c #AD8C00",
"B. c #B38E00",
"V. c #B09100",
"C. c #C39A00",
"Z. c #E98D07",
"A. c #FB9B05",
"S. c #CCA400",
"D. c #D4AA00",
"F. c #D9B400",
"G. c #E4BA00",
"H. c #E38228",
"J. c #EBC200",
"K. c #F5CC00",
"L. c #F9D000",
"P. c #B88A5F",
"I. c #948069",
"U. c #CB8144",
"Y. c #D78948",
"T. c #C88B56",
"R. c #E08E4B",
"E. c #E6924D",
"W. c #EB954E",
"Q. c #D0946E",
"!. c #F3A868",
"~. c #EEAB70",
"^. c #E4AF7D",
"/. c #4E0684",
"(. c #4D0980",
"). c #510987",
"_. c #55098D",
"`. c #5F1584",
"'. c #570990",
"]. c #5A0C93",
"[. c #5D1492",
"{. c #610E9E",
"}. c #671798",
"|. c #752582",
" X c #6912A7",
".X c #7316B5",
"XX c #7618B9",
"oX c #781AB9",
"OX c #7E1CC3",
"+X c #93358D",
"@X c #8527A6",
"#X c #9532A2",
"$X c #801EC0",
"%X c gray52",
"&X c #A5A5A5",
"*X c #D0B392",
"=X c #F7BF8B",
"-X c #FAC28D",
";X c #E7C7A2",
":X c #F8D5AB",
">X c #F6D9B0",
",X c #FDDBB2",
"<X c #C0C0C0",
"1X c #CBCBCB",
"2X c gray82",
"3X c #FBFBFB",
/* pixels */
"|.|.|.|.|.=.= R :.& i [ & i ;.X.( ] ( ] ( ^ 0     y :.>.>.>.>.>.<.2.2.2.<.>.<.2.|.|.|.|.|.|.|.|.",
"|.|.|.|.+.M C B R J B p J B R ] ] ] ( ] ^ t t U U U R O.>.>.>.>.<.2.|.2.<.>.<.2.|.|.|.|.|.|.|.|.",
"|.|.|.3.E 6 a.y.b f.y.N f.K * / X.....^ U 8 Q '._.Q 9 / ;.>.<.<.<.2.2.2.2.<.<.2.|.|.|.|.|.|.|.|.",
"|.|.|.3.R 1 f.Y.U.R.Y.U.R.K = ..@.o...t 8 ) ]..XXX[.) 8 R >.<.2.2.<.<.<.2.2.|.2.|.|.|.|.|.|.|.|.",
"|.|.|.3.R 2 b.W.W.W.W.W.W.K = { >.X.u t Q ]..XOXOX.X].! t E ,.3.2.1.>.<.2.|.|.|.|.|.|.|.|.|.|.|.",
"|.|.|.3.R 2 x.W.W.W.W.W.E.K = O.>.E 8 Q ].XXOXOXOX$XoX].Q q [ 1.3.1.<.2.3.|.|.|.|.|.|.|.|.|.|.|.",
"|.|.|.3.E 2 f.W.W.W.W.W.E.K = { E q ! ].OXOXOXOXOXOXOXXX].! 9 _ 3.3.2.2.3.|.|.|.|.|.|.|.|.|.|.|.",
"|.|.|.|.R 3 x.W.W.W.W.W.W.K X u Y Q ]..XOXOXOXOXOXOXOX$X.X].Q Y _ -.|.|.|.|.|.|.|.|.|.|.|.|.|.|.",
"|.|.|.3.R 2 a.W.W.W.W.W.Y.K . . y -.oXOXOXOX$X$XOXOXOXOXOXoX-.y & { -.|.|.|.|.|.|.|.|.|.|.|.|.|.",
"|.|.|.3.R 1 i.Y.W.W.W.E.U.V     v u.@X$X$X$X$X$X$XOX$X$X$X@Xu.v X % _ 3.3.3.3.3.|.|.|.|.|.|.|.|.",
"|.|.|.|.R 1 i.Y.W.Y.R.E.x.J X t 7.d.v.v.v.v.v.v.v.v.v.v.v.m.d.C U U Y T R R _ -.|.|.|.|.|.|.|.|.",
"|.|.|.3.R 1 i.Y.Y.b.Y.Y.f.N *  .g.d.Z.A.A.A.A.A.A.A.A.A.A.Z.d.g.'._.Q 8 * * q { 3.|.|.|.|.|.|.|.",
"|.|.|.3.R 1 i.b.n.b.b.b.x.N q [.@Xc.s.Z.A.A.A.A.A.A.A.A.Z.s.c.@XXXXX].$.| | ! 9 ` 3.|.|.|.|.|.|.",
"|.|.|.|.+.M N y.x.b.x.x.y.M  ..X X}.g.h.j.j.u.j.j.j.u.j.h.g.}.XXOXOX.X]._.).&.W T _ 1.|.|.|.|.|.",
"|.|.|.|.|.=.e N i.i.i.y.e  ..XoX{./.$. . . . . .$. . . . .$.).{.XXXX.X.X'././.$.U w =.|.|.|.|.|.",
"|.|.|.|.|.3.=.M 1 < < 1 Q &.].'.'.$.q + * * * * * * * * * q $.'.'.'.'._._./.$.0 R =.3.|.|.|.|.|.",
"|.|.|.|.|.-._ B N K J N Y U U U U a v 5 # J P P P P J # 4 A Y U U U U U U U U R +.3.|.|.|.|.|.|.",
"|.|.|.|.|.-.w N i.a.p.y.5 > > > > 5 q.D N T.~.!.!.!.T.N F w.5 > > > > # . $ q =.|.|.|.|.|.|.|.|.",
"|.|.|.|.|.3.,.M < 2 2 5 w.M.M.M.r.q.c L T.!.!.!.!.!.!.T.L 5 q.M.M.M.M.q.# u >.3.|.|.|.|.|.|.|.|.",
"|.|.|.|.|.|.3.a . ; O > M.D.G.F.M.v # 7 k.^.-X-X-X-X^.y.7 # Z M.G.F.D.V.G N ` 1.|.|.|.|.|.|.|.|.",
"|.|.|.|.|.|.3.R O l : > N.J.K.F.H 6     f *X,X,X,X,X*Xf   . 4 H F.L.J.S.C.S = =.|.|.|.|.|.|.|.|.",
"|.|.|.|.|.|.3.R O l : 4 S.K.F.Z L k.<   s *X,X,X,X,X*Xs   < k.I Z F.K.J.S.S & =.|.|.|.|.|.|.|.|.",
"|.|.|.|.3.1._ = O l : # G q.H L P.Q.6   s *X,X,X,X,X*Xs   s Q.P.L H H e.S.G = >.+._ 1.3.|.|.|.|.",
"|.|.|.3.<.{ 2 # O z : . # # 6 T.-X*Xs   s *X,X,X,X,X*Xs   s *X-XT.6 # Z F.q.& _ M 2 { ,.3.3.|.|.",
"|.|.2.1.E 3 w.v O l : # q.Z 6 T.-X*Xf   f *X,X,X,X,X*Xf . f *X-XT.3 Z V.J.q.. & Z w.6 E <.|.|.|.",
"|.|.2.<.i , M.Z O l : 4 M.Z 6 T.-X;XI.5.I.;X,X,X,X,X;XI.5.I.;X-XT.6 Z S.K.V.F H M.M., i >.|.|.|.",
"|.|.3.<.i 4 M.S O l : > M.G n x.^.:X>X>X,X,X,X,X,X,X,X>X>X:X:X^.x.n G S.K.G.D.J.F.M., i <.|.|.|.",
"|.|.|.1.R , e.S O l : 4 M.N.q.n k.^.>X>X,X,X,X,X,X,X,X,X>X:X=Xk.n q.B.S.K.K.J.F.S.r., Y <.|.|.|.",
"|.|.|.|.O.M Z 5 o l : 4 e.e.Z # n I l.z.5.z.z.z.z.z.5.5.5.5.I 7 # v e.S.G.G.G.S.e.A M { |.|.|.|.",
"|.|.|.|.3.=.e X o j ; # H A 8 8 % @ d h h h h h h h h h h f @ @ $ % Z r.r.M.r.M.A e =.3.|.|.|.|.",
"|.|.|.|.|.3.=.u . o .   > ' }.[.T d &X1X1X1X1X1X2X1X1X1X1X&Xd 0 | | y > , , , , M =.3.|.|.|.|.|.",
"|.|.|.|.|.3.` } 5.5.g $ T [.oX X%./ 6.<X3X3X<X%X%X<X3X3X<X6./ ) ).&.| t X = i _ { |.|.|.|.|.|.|.",
"|.|.|.|.|.#.= z.>X:X5.8 [.oX X(.&.$.r 6.2X2X6.8 q 6.2X2X6.r | &.$.(./.$.9 T =.3.|.|.|.|.|.|.|.|.",
"|.|.|.|.3.#.= z.>X>X5.* %.].(.0 Q &.| / h h ;.}.[.;.h h / $.(.Q 0 $././.| W w =.|.|.|.|.|.|.|.|.",
"|.|.|.|.|.1._ 4.5.z.B * ) /.) * U _.{./. ...[.OXOX[...) (.{.).U * ) ).`.c.B = =.|.|.|.|.|.|.|.|.",
"|.|.|.|.|.|.1._ X @   $ ) &.) 0 W '..X$XoXoXOXOXOXOXOXOXOX.X'.Q 9 ! *.+XQ.P & #.|.|.|.|.|.|.|.|.",
"|.|.|.|.|.|.3.R o j - * ) W 0 ! %.'.oX$XOXOXOXOXOXOXOXOXOXXX].&.! 9 4.Q.!.y.= =.|.|.|.|.|.|.|.|.",
"|.|.|.|.|.|.3.R O l : X U 9 = B ,.'.XX$XOXOXOXOXOXOXOXOXOXXX].,.C & 7 P y.B ` 1.|.|.|.|.|.|.|.|.",
"|.|.|.|.|.|.|.R O l : . % * 3 0.7.1.#X#X#X#X#X#X#X#X#X#X#X+X-.7.0.1 % + 8 _ 2.|.|.|.|.|.|.|.|.|.",
"|.|.|.|.|.|.|.R O l : % _ +.` 3 m t.f.H.H.H.H.H.H.H.H.H.H.f.t.m 1 E E ] O.-.|.|.|.|.|.|.|.|.|.|.",
"|.|.|.|.|.|.3.R O l : % +.|.>.R b D 8.9.9.9.9.9.9.9.9.9.9.8.D b a ( ..X.*.|.|.|.|.|.|.|.|.|.|.|.",
"2.2.2.2.2.2.2.a O l : & O.2.1.>.i . o O O . @ & & o . o O o . u ..X.) @.>.<.2.|.|.|.|.|.|.|.|.|.",
"<.<.<.<.<.<.<.i O l : % [ <.<.>.u o j l j o q ' ' 8 o j l j o r ] ..( o.@.<.2.|.|.|.|.|.|.|.|.|.",
">.>.>.>.>.>.:.u O l : * [ >.>.:.u O z x z O u O...q o z x z O 9 ( ] ( ..@.:.<.2.|.|.|.|.|.|.|.|.",
">.>.>.>.>.:.@.Y + k ; = [ >.:.:.i + k z j + Y o...r + k z k + r ( ( ....o.@.*.>.-.*.-.-.-.<.2.2.",
">.>.>.>.>.:.o.' R + w [ :.>.:.o.] a + O + R ( ..] ^ y + O + Y ^ ] ] ( ( ..o.X.o.*.@.X.@.*.#.<.<.",
">.>.>.>.>.@.o.] ] a _ :.>.>.@...] ^ r 9 r ^ ( ( ..( ^ r 9 u ^ ] ( ....( ..( ..( ( ( ( ....@.>.>.",
">.>.>.>.>.@.X.] ] [ ;.>.{ O.;.( ( ] ] ( ( ] ^ T ^ ^ ( ( ( ( ] ] ( ~ ( ( ( ~ ( ..~ ( ..( ..@.>.>."
};
