/* XPM */
static char *result[] = {
/* columns rows colors chars-per-pixel */
"48 48 205 2 ",
"   c #040303",
".  c #090505",
"X  c #0C050C",
"o  c #1C0102",
"O  c #170908",
"+  c #1B1309",
"@  c #120616",
"#  c #130D14",
"$  c #180A15",
"%  c #13041B",
"&  c #1B0A1D",
"*  c #2A0F0F",
"=  c #390205",
"-  c #251805",
";  c #241C04",
":  c #231908",
">  c #2F1E13",
",  c #281919",
"<  c #2E2401",
"1  c #3B2401",
"2  c #352800",
"3  c #3A3100",
"4  c #2C231B",
"5  c #352518",
"6  c #1B0725",
"7  c #1C062B",
"8  c #1E0333",
"9  c #240B2D",
"0  c #280B29",
"q  c #2D1429",
"w  c #351C23",
"e  c #250B33",
"r  c #2B0E33",
"t  c #29093B",
"y  c #340D30",
"u  c #2D1134",
"i  c #33113C",
"p  c #39153A",
"a  c #332928",
"s  c #383027",
"d  c #480303",
"f  c #5B0000",
"g  c #4A1106",
"h  c #620000",
"j  c #690000",
"k  c #740000",
"l  c #483705",
"z  c #4F3315",
"x  c #66390A",
"c  c #6E3E15",
"v  c #451F25",
"b  c #421E31",
"n  c #5B363B",
"m  c #673E29",
"M  c #5A4703",
"N  c #634D04",
"B  c #6C5500",
"V  c #6E5800",
"C  c #765003",
"Z  c #7B6300",
"A  c #5F4129",
"S  c #6A442A",
"D  c #774C2A",
"F  c #704B30",
"G  c #7A5434",
"H  c #2A0543",
"J  c #2B0546",
"K  c #320D44",
"L  c #30064E",
"P  c #330D4B",
"I  c #3A1343",
"U  c #38114A",
"Y  c #370858",
"T  c #3A1153",
"R  c #3E125B",
"E  c #392548",
"W  c #3E0865",
"Q  c #43164B",
"!  c #43194E",
"~  c #481854",
"^  c #41125D",
"/  c #4C1A5B",
"(  c #531C5E",
")  c #4E3556",
"_  c #42086B",
"`  c #430F69",
"'  c #471563",
"]  c #491762",
"[  c #4D1A64",
"{  c #521D65",
"}  c #591D64",
"|  c #531C69",
" . c #5D1E6B",
".. c #450972",
"X. c #460874",
"o. c #490879",
"O. c #491071",
"+. c #5D1C73",
"@. c #621F6D",
"#. c #621F75",
"$. c #5B226D",
"%. c #5E326F",
"&. c #64206F",
"*. c #642374",
"=. c #692276",
"-. c #6C247B",
";. c #71247E",
":. c #686669",
">. c #787877",
",. c #853F35",
"<. c #8B4E13",
"1. c #896E01",
"2. c #927602",
"3. c #9C7B00",
"4. c #B26C03",
"5. c #A17F00",
"6. c #905433",
"7. c #B45D3C",
"8. c #996036",
"9. c #B36A2D",
"0. c #BA763E",
"q. c #D07B0F",
"w. c #84365D",
"e. c #8C3677",
"r. c #AD564F",
"t. c #926741",
"y. c #A97547",
"u. c #B85669",
"i. c #C47C41",
"p. c #9F8100",
"a. c #A38100",
"s. c #AB8700",
"d. c #B99500",
"f. c #D48109",
"g. c #C69C00",
"h. c #F19401",
"j. c #FE9C01",
"k. c #EA881F",
"l. c #CDA700",
"z. c #D3AA00",
"x. c #D6B300",
"c. c #DDB500",
"v. c #E0B600",
"b. c #E3BB00",
"n. c #E48229",
"m. c #E6C000",
"M. c #EDC300",
"N. c #F0C700",
"B. c #F5CC00",
"V. c #FDD500",
"C. c #BD8250",
"Z. c #B08D6B",
"A. c #D28B4F",
"S. c #C58854",
"D. c #C98B56",
"F. c #E6924C",
"G. c #EA954E",
"H. c #CC9462",
"J. c #D8A778",
"K. c #F1AD70",
"L. c #4F0684",
"P. c #510787",
"I. c #560A8D",
"U. c #591885",
"Y. c #5A0C93",
"T. c #5F0E9A",
"R. c #5B1291",
"E. c #620F9F",
"W. c #65159A",
"Q. c #752582",
"!. c #783299",
"~. c #6611A3",
"^. c #6913A6",
"/. c #6C14AB",
"(. c #6C16AA",
"). c #6D18AB",
"_. c #7317B5",
"`. c #7419B4",
"'. c #7618B9",
"]. c #7A1ABD",
"[. c #7D20BA",
"{. c #7E1CC3",
"}. c #9D3E86",
"|. c #943499",
" X c #9A3899",
".X c #801FBC",
"XX c #8729A5",
"oX c #9331A3",
"OX c #892FBC",
"+X c #8D33C1",
"@X c #868687",
"#X c #9E9E9E",
"$X c #B0A198",
"%X c #D2B491",
"&X c #F0BB9E",
"*X c #D19BB5",
"=X c #D9B4A1",
"-X c #F9C28D",
";X c #F6C593",
":X c #EAC8A0",
">X c #FCD5A9",
",X c #FDDBB2",
"<X c #D7D7D7",
"1X c #E5E5E5",
"2X c #F6F6F6",
/* pixels */
"Q.Q.Q.Q.Q.Q.Q.Q.-.*.$.$.$.$.| ] R R U P P P T ] [ $.$.$.$.$.$.$.*.-.;.-.*.$.*.-.Q.Q.Q.Q.Q.Q.Q.Q.",
"Q.Q.Q.Q.Q.Q.Q.Q.-.*.$.$.p ! / t K T t P R R K e u ~ $.$.$.$.$.$.*.-.Q.-.*.$.*.-.Q.Q.Q.Q.Q.Q.Q.Q.",
"Q.Q.Q.Q.Q.Q.-.-.=.=.&.~ w p ! w p I , u P T e 6 % i [ $.$.$.$.*.*.-.-.-.*.*.-.-.Q.Q.Q.Q.Q.Q.Q.Q.",
"Q.Q.Q.Q.Q.;.-.*.*.=.Q w 8.S 5 8.S , 8.S @ % H W W J 9 $.$.*.*.-.-.*.*.=.-.-.-.;.Q.Q.Q.Q.Q.Q.Q.Q.",
"Q.Q.Q.Q.Q.-.*.$.*.=.I > y.8.6.n.9.6.A.D X e X.E.~.o.H i ~ $.-.Q.-.*.$.*.;.;.Q.Q.Q.Q.Q.Q.Q.Q.Q.Q.",
"Q.Q.Q.Q.Q.-.-.*.=.-.I > A.F.F.G.F.A.i.m 7 X.^.{.].^.o.7 i $.-.Q.;.-.*.=.;.Q.Q.Q.Q.Q.Q.Q.Q.Q.Q.Q.",
"Q.Q.Q.Q.Q.Q.-.-.;.;.p > i.G.G.G.G.S.z p X./.]..X{.].).o.H 9 &.;.Q.;.#.;.;.Q.Q.Q.Q.Q.Q.Q.Q.Q.Q.Q.",
"Q.Q.Q.Q.Q.Q.Q.Q.Q.;.p > 0.G.G.F.0.S i _ ^.].{.{.{.{.].^...H I } Q.Q.Q.;.Q.Q.Q.Q.Q.Q.Q.Q.Q.Q.Q.Q.",
"Q.Q.Q.Q.Q.Q.Q.Q.Q.Q.I > i.G.F.A.m 8 o./.{.{.{.{.{.{.{.{.^.o.8 I #.;.Q.Q.Q.Q.;.;.Q.Q.Q.#.Q.Q.Q.Q.",
"Q.Q.Q.Q.Q.Q.Q.Q.Q.Q.I > 0.G.i.z I o./.{.{.{.{.{.{.{.{.{.]./.o.H 0 #.;.Q.Q.Q.=.|.Q.Q.Q.|.Q.Q.Q.Q.",
"Q.Q.Q.Q.Q.Q.Q.Q.Q.;.I + m D m + v w.XX.X{.{.{..X{.{.{.{.{.XXw.v X i } Q.Q.Q.Q.;.Q.Q.Q.Q.Q.Q.Q.Q.",
"Q.Q.Q.Q.Q.Q.Q.Q.;.#.I % & & & @ x 9.}.oXoXOXoXoXoXoXoXoXoX}.9.x @ % K  .@.@.#.;.Q.Q.Q.Q.Q.Q.Q.Q.",
"Q.Q.Q.Q.Q.Q.Q.Q.@.y H X.R.W.Y.X.,.q.q.q.n.n.n.n.n.n.n.q.q.n.q.,._ W J & & & r @.Q.Q.Q.Q.Q.Q.Q.Q.",
"Q.Q.Q.Q.Q.Q.Q.Q.#.Q H Y Y._.'.^.e.r.q.j.j.j.j.j.j.j.j.j.h.q.r.}.E.E.X.H t H t I } Q.Q.Q.Q.Q.Q.Q.",
"Q.Q.Q.Q.Q.Q.Q.Q.Q.;.Q 0 _ Y.'.{..XoXr.q.k.k.k.k.n.k.k.k.q.7.XX.X{.{.^.I.I.P.X.7 I #.;.Q.Q.Q.Q.Q.",
"Q.Q.Q.Q.Q.Q.Q.Q.Q.Q.#.( 0 Y T.'..X.XoX X X X X X X X X XoXXX.X{.{.{.{._._.E.L.X.H y @.Q.Q.Q.Q.Q.",
"Q.Q.Q.Q.Q.Q.Q.Q.Q.Q.Q.=.Q K L ` T.^.^._.[.{.{.{.{.{.{.{.{.{.{.{.{.{.{.{.{.~.P.L.J % @.;.Q.Q.Q.Q.",
"Q.Q.Q.Q.Q.Q.Q.Q.Q.Q.Q.;.@.i . , T X.X.I.^.).).].].[.{.{.{.{.{.{.{.{.{.'.'.E.L.X.J 9 @.Q.Q.Q.Q.Q.",
"Q.Q.Q.Q.Q.Q.Q.Q.Q.Q.Q.@.0 X : t.F % % 6 6 7 W Y.Y./.{.{.{.{.{.{.{.{.^.Y.Y.I.X.e K  .;.Q.Q.Q.Q.Q.",
"Q.Q.Q.Q.Q.Q.Q.Q.Q.Q.;.=.Q 6 > S.y.S O ; M M v L J Y W ` ` ` ` O.` _ Y J J J J K ( Q.Q.Q.Q.Q.Q.Q.",
"Q.Q.Q.Q.Q.Q.Q.Q.Q.-.-.-.*.i 4 D.K.H.z N p.p.N : : : : : < + : : : : - + . X 0 &.;.Q.Q.Q.Q.Q.Q.Q.",
"Q.Q.Q.Q.Q.Q.Q.Q.;.=.*.*.#.i 5 S.-X;XD.D < < M 3.3.3.3.3.2.p.3.p.3.3.3.1.+ u  .;.Q.Q.Q.;.Q.Q.Q.Q.",
"Q.Q.Q.Q.Q.Q.Q.Q.-.*.$.$.$.u > D.-X>X;Xt.X   2 Z d.l.c.v.v.v.c.z.g.g.g.5.; p ;.;.;.;.;.;.Q.Q.Q.Q.",
"Q.Q.Q.Q.-.-.-.-.*.$.| | | u > D.-X,X>X:.    + 3 2.d.x.x.m.B.B.c.g.g.g.s.; i *.$.#.;.;.;.;.;.Q.Q.",
"Q.Q.-.-.*.*.*.*.+.| ] ] ] 9 > D.-X,X>X:.. . A t.z 2 3 3 1.l.z.l.g.g.g.p.; r ] 9 I *.*.*.#.Q.Q.Q.",
"Q.Q.-.*.$.$.$.$.| ] ^ ^ ^ e > D.-X,X>X:.. . G J.t.5 . M p.x.b.b.x.l.3.V Z z u M z I } $.*.-.Q.Q.",
"Q.Q.-.-.*.*.*.*.#. .| | ] r > D.-X,X,XZ.4 4 Z.:XK.G < p.c.V.V.V.m.d.B M l.1.3 p.M & { *.=.Q.Q.Q.",
"Q.Q.Q.-.-.-.-.-.#.#.#.#.#.i > D.-X,X,X=X%X%X:X>XK.G + a.b.V.V.V.x.M Z x.B.l.s.d.N $ { -.-.Q.Q.Q.",
"Q.Q.Q.Q.Q.Q.Q.Q.Q.Q.Q.Q.-.I + F H.;X,X,X,X,X>X-XK.G ; 3.z.M.V.V.b.3.d.B.M.z.g.g.N & $.;.Q.Q.Q.Q.",
"Q.Q.Q.Q.Q.Q.Q.Q.Q.Q.Q.Q.;.I . o F H.%X%X%X%XJ.D.D.S ; 1.d.l.M.B.B.N.B.N.z.g.g.s.M q &.Q.Q.Q.Q.Q.",
"Q.Q.Q.Q.Q.Q.Q.Q.Q.Q.Q.Q.;.I . d g 3 s s s s 5 5 5 + . < Z g.z.z.z.z.z.z.g.g.s.l b &.;.Q.Q.Q.Q.Q.",
"Q.Q.Q.Q.Q.Q.Q.Q.Q.Q.Q.=.~ n S v A >.>.>.>.>.>.:., 7 T H v B B B B B B B V V N b ( ;.Q.Q.Q.Q.Q.Q.",
"Q.Q.Q.Q.Q.Q.Q.Q.Q.Q.Q.@.& G C.5 >.2X<X<X2X2X1X#XE ' ).R.L % # X   # # # $ $ q &.;.;.Q.Q.Q.Q.Q.Q.",
"Q.Q.Q.Q.Q.Q.Q.Q.Q.Q.Q.*.& G S.5 >.<X:.#X2X2X#X) U.[.{.].Y.W W 8 # P ! ~ / $.} ;.Q.;.Q.Q.Q.Q.Q.Q.",
"Q.Q.Q.Q.Q.Q.Q.Q.Q.Q.Q.-.! n S + ) >.E %.@X@X:.O.).{.{.{.~.P.L.J & /  .#.-.Q.Q.Q.Q.Q.Q.Q.Q.Q.Q.Q.",
"Q.Q.Q.Q.Q.Q.Q.Q.Q.Q.Q.Q.=.p X   # 7 O.P # 4 %.[.{.{.].).E.I.L.J @ / $.*.-.Q.Q.Q.Q.Q.Q.Q.Q.Q.Q.Q.",
"Q.Q.Q.Q.Q.Q.Q.Q.Q.Q.Q.-.=.i     8 X.~.Y 4 Z.*X*X+X{.).P W ).I.J % / $.*.-.Q.Q.Q.Q.Q.Q.Q.Q.Q.Q.Q.",
"Q.Q.Q.Q.Q.Q.Q.Q.Q.Q.Q.-.*.u X 8 W Y._.W a %X,X&X+X{.W.7 R ].(.W t i ! #.-.Q.Q.Q.Q.Q.Q.Q.Q.Q.Q.Q.",
"Q.Q.Q.Q.Q.Q.Q.Q.Q.-.-.-.*.i @ ~ +.T.`.O.a $X&X*X+X[.W.7 W {.{.!./ % u +.*.Q.Q.Q.Q.|.Q.Q.Q.Q.Q.Q.",
"Q.Q.Q.Q.Q.Q.Q.Q.-.-.*.=.*.K * <.e.`.{.).U.E ) !.[.`.O.% W {.{.e.<.* e | *.Q.Q.Q.;.-.Q.Q.Q.Q.Q.Q.",
"Q.Q.Q.Q.Q.Q.Q.Q.-.*.$.$.Q y d x 6.u.u.u.r.c v L ` Y y l 6.u.u.6.x q K | #.Q.Q.Q.Q.Q.Q.Q.Q.Q.Q.Q.",
"-.-.-.Q.-.-.-.-.*.*.} ! * d h o C f.q.q.q.4.l .     * <.4.q.q.C $ K T [ +.-.-.Q.Q.Q.Q.Q.Q.Q.Q.Q.",
"$.*.*.*.%.#.*.*.*.$.I & d j k h g 1 1 1 1 - o         - 1 1 1 g d $ u ' | *.=.-.;.Q.Q.Q.Q.Q.Q.Q.",
"$.$.$.$.$.$.$.$.$.$.! q d f k k = . 0 r 9 r u 0 9 6 6 . o = = f h o 7 ' |  .*.=.;.Q.Q.Q.Q.Q.Q.Q.",
"$.$.$.$.$.| | | { $.$.~ 0 = h h = & ! ] [ [ [ ' ^ R U & = f f h f O t ^ ] | | +.#.#.#.#.#.#.-.-.",
"$.$.$.$.$.$.[ ] [ $.$.$.~ 0 o o 0 T ' ' / ] ] ' ^ ^ ^ P 0 O o o o K T ^ ' ' ] | | | [ |  .+.*.*.",
"$.$.$.$.$.{ [ R ] { $.$.$.U r e K R R R R ^ R R ^ R ^ ^ K 7 7 7 e T ^ ^ R ^ ^ ^ _ ^ ^ ' ] | $.$.",
"$.$.$.$.$.| ] R ' { $.$.$.$.[ / R ' R ' R ^ ' R ^ ^ R ^ R R R R T ^ ^ ^ ^ ^ R ^ ^ ^ ^ R ] | $.$."
};
