/* XPM */
static char *result[] = {
/* columns rows colors chars-per-pixel */
"48 48 198 2 ",
"   c #060303",
".  c #0B0102",
"X  c #0B040B",
"o  c #190102",
"O  c #140806",
"+  c #1C1503",
"@  c #1D130A",
"#  c #0D0312",
"$  c #0D001A",
"%  c #130513",
"&  c #160B12",
"*  c #180A17",
"=  c #13041B",
"-  c #19071A",
";  c #1B0A1A",
":  c #290102",
">  c #340100",
",  c #3C0002",
"<  c #261D04",
"1  c #21150B",
"2  c #2C1D0C",
"3  c #23061F",
"4  c #300413",
"5  c #2D1C11",
"6  c #251319",
"7  c #3A2301",
"8  c #342902",
"9  c #3C3201",
"0  c #3A2613",
"q  c #130123",
"w  c #1E0A25",
"e  c #1E042D",
"r  c #1C0232",
"t  c #230A2A",
"y  c #220A2C",
"u  c #2D1420",
"i  c #331923",
"p  c #381A29",
"a  c #2B0F33",
"s  c #24043B",
"d  c #270938",
"f  c #2E1233",
"g  c #35123E",
"h  c #3A1738",
"j  c #352020",
"k  c #470000",
"l  c #570000",
"z  c #5D0000",
"x  c #680000",
"c  c #790000",
"v  c #462C00",
"b  c #482C00",
"n  c #4C380A",
"m  c #543916",
"M  c #61370B",
"N  c #653A0C",
"B  c #411B2F",
"V  c #452827",
"C  c #5F3928",
"Z  c #633C27",
"A  c #7C3E2A",
"S  c #544102",
"D  c #634E01",
"F  c #684E09",
"G  c #6B5703",
"H  c #735A03",
"J  c #765D00",
"K  c #6F4B25",
"L  c #714629",
"P  c #764A28",
"I  c #260341",
"U  c #2B0641",
"Y  c #2E0B42",
"T  c #2E034D",
"R  c #320D44",
"E  c #330F4A",
"W  c #3C1343",
"Q  c #371248",
"!  c #350558",
"~  c #3B1154",
"^  c #3E125B",
"/  c #3A0462",
"(  c #3F056B",
")  c #431845",
"_  c #42164A",
"`  c #501D4E",
"'  c #491657",
"]  c #491B56",
"[  c #41125D",
"{  c #511E56",
"}  c #521B5C",
"|  c #7C3058",
" . c #41066C",
".. c #430A6C",
"X. c #451561",
"o. c #491762",
"O. c #4D1A64",
"+. c #541D64",
"@. c #5B1D65",
"#. c #531C69",
"$. c #5E1E6A",
"%. c #440673",
"&. c #4A067B",
"*. c #4D0B7E",
"=. c #571377",
"-. c #601F6C",
";. c #631F76",
":. c #572069",
">. c #5B226D",
",. c #62206F",
"<. c #7F3162",
"1. c #642273",
"2. c #682275",
"3. c #6C247B",
"4. c #72247F",
"5. c #6C485D",
"6. c #806501",
"7. c #8F7100",
"8. c #927301",
"9. c #997B00",
"0. c #AA640B",
"q. c #B46A0E",
"w. c #8A4A21",
"e. c #834030",
"r. c #905A33",
"t. c #8E623D",
"y. c #A66937",
"u. c #B86933",
"i. c #D07C0E",
"p. c #D37C11",
"a. c #DB7C28",
"s. c #DD7B33",
"d. c #853752",
"f. c #893571",
"g. c #B45C44",
"h. c #B37B4F",
"j. c #A94A71",
"k. c #B35174",
"l. c #C17A40",
"z. c #A48300",
"x. c #AD8B00",
"c. c #B38E00",
"v. c #BB9700",
"b. c #D7820E",
"n. c #DC820F",
"m. c #C29B00",
"M. c #C99F00",
"N. c #F29402",
"B. c #FE9C01",
"V. c #EF8D18",
"C. c #CCA300",
"Z. c #D0A700",
"A. c #D5AB00",
"S. c #D9AF00",
"D. c #DBB200",
"F. c #E3B900",
"G. c #E5BB00",
"H. c #E6C000",
"J. c #ECC200",
"K. c #F1C700",
"L. c #F4CA00",
"P. c #F8CE00",
"I. c #FED500",
"U. c #AF8158",
"Y. c #CC8144",
"T. c #CF894F",
"R. c #E18F4B",
"E. c #E6924C",
"W. c #EB954E",
"Q. c #4E0684",
"!. c #4E048B",
"~. c #500687",
"^. c #510986",
"/. c #510688",
"(. c #5A0B94",
"). c #5B0C95",
"_. c #620F9D",
"`. c #752582",
"'. c #640FA3",
"]. c #6611A3",
"[. c #6913A7",
"{. c #6C13AB",
"}. c #7417B6",
"|. c #7315BC",
" X c #7A1ABD",
".X c #7E20AE",
"XX c #7E1CC3",
"oX c #993A8E",
"OX c #8E309A",
"+X c #A03E90",
"@X c #8F2DAA",
"#X c #8120BB",
"$X c #8836B3",
"%X c #9C48BF",
"&X c #801EC1",
"*X c #8626C5",
"=X c #DBA582",
"-X c #CA98AA",
/* pixels */
"`.`.`.`.`.`.`.`.1.1.>.>.>.>.#.X.^ ^ ~ ~ ^ ^ ^ ^ #.>.>.>.>.>.>.>.1.2.`.3.1.>.1.3.4.`.`.`.4.`.`.`.",
"`.`.`.`.`.`.`.`.`.1.>.>.>.>.#.o.^ ^ ^ ^ ^ ^ E g Y ] >.:.>.>.>.>.:.' +.1._ ] :.] :.4.`.`.4.4.`.`.",
"`.`.`.`.`.`.4.3.`.1.1.1.1.1.>.O.O.^ ^ ^ ^ ^ a = = Y :.:.>.>.>.>.] i B +.i h } i B 2.4.`.OX3.`.`.",
"`.`.`.`.`.3.3.1.1.1.3.3.`.1.1.>.:.O.o.^ ~ y s / / Y a +.>.>.1.] p t.L j r.Z p r.Z f 2.`.`.`.`.`.",
"`.`.`.`.`.3.1.>.1.3.`.`.`.`.3.1.>.#.o.E a r ( ].].( d Q { 1.1.) 5 l.y.P Y.y.P Y.P t ,.4.4.4.`.`.",
"`.`.`.`.`.3.3.1.2.3.`.`.3.3.3.1.`.#.^ d e *.]. X X].%.e g >.1.W 1 Y.R.R.W.W.E.E.P ; ,.`.`.`.`.`.",
"`.`.`.`.`.`.3.3.3.`.`.`.2.1.2.3.;.O.w U ( [. XXXXX X[...U f 1.W 5 Y.W.W.W.W.W.W.P ; ,.4.`.`.`.`.",
"`.`.`.`.`.`.`.`.`.`.`.3.2.>.1.3.#.E d ( [. XXXXXXXXX X[.( Y W w 5 u.W.W.W.W.W.E.P ; ,.4.`.`.`.`.",
"`.`.`.`.`.`.`.`.`.`.`.`.2.1.1.1.W y %.].XXXXXXXXXXXXXXXX]...r X 1 Y.E.W.W.W.W.W.P ; -.4.`.`.`.`.",
"`.`.`.`.`.`.`.`.`.`.`.`.4.4.-.a U %.[. XXXXXXXXXXXXXXXXX X[.( r 5 Y.E.W.W.W.W.W.P ; -.`.`.`.`.`.",
"`.`.`.`.`.`.`.`.`.4.`.`.`.@.g % B <. X XXXXXXXXXXXXXXXXX X.X<.B @ K u.E.W.W.W.T.L ; -.`.`.`.`.`.",
"`.`.`.`.`.`.`.`.4.2.;.;.-.W = X M u.oX@X@X@X@X@X@X@X@X@X@XoXu.N # ; L s.T.Y.Y.l.Z ; ;.`.`.`.`.`.",
"`.`.`.`.`.`.`.`.2.f w w t s /  .e.i.a.a.s.s.s.s.s.s.s.s.s.a.i.e./ / h V 0 0 m y.Z * -.`.`.`.`.`.",
"`.`.`.`.`.`.`.-._ s s s s ! /._.f.g.p.N.B.B.B.B.B.B.B.B.N.n.g.f._.~.! s s s g C 7 * -.`.`.`.`.`.",
"`.`.`.`.`.`.2.W y  .&.&.Q./.).}.&XOXu.p.V.V.V.V.V.V.V.V.p.u.OX X}.).~.Q.&.&. .t X % $.`.`.`.`.`.",
"`.`.`.`.`.2.a U  .Q./././._.}.XX&X&XOXoX+X+X+X+X+X+X+X+XoXOX#XXXXX}._.~.~.~.Q. .r - $.`.`.`.`.`.",
"`.`.`.`.`.;.W R ! &.~.~.^.].XXXX&X&X&X&X&X&X&X&X&X&X&X&X&X&XXXXXXXXX].Q.Q.!.&.! U W ;.`.`.`.`.`.",
"`.`.`.`.`.`.3._ e / Q.Q.^._. XXX&X&XXXXXXXXXXXXXXX&XXXXXXXXXXXXXXX X].Q.&.%./ q W 3.`.`.`.`.`.`.",
"`.`.`.`.`.`.`.1.' y ! ~./.(.]. XXXXX&X&X&XXX&X&X&XXX&X&X&XXX&XXXXX].(.&.r q $   W `.`.`.`.`.`.`.",
"`.`.`.`.`.`.`.`.2.W T T T T ! ..(.{.{.{.{.{.{.{.{.{.{.{.{.{.{.)...T T I #   X a } `.`.`.`.`.`.`.",
"`.`.`.`.`.`.`.`.3.$.h 1 @ @ @ @ T &.&.&.%.&.&.&.&.&.&.&.Q.&.&.R 1 @ @ + + O % @.4.`.`.`.`.`.`.`.",
"`.`.`.`.`.`.`.`.-.f m 8.8.8.8.7.m q q q q q q = q q q q q q q n 7.8.8.8.7.n * -.4.`.`.`.`.`.`.`.",
"`.`.`.`.`.`.4.4.+.* D M.M.Z.D.D.z.G S S S S S n S S S S S S G z.A.D.Z.m.v.D ; -.`.`.`.4.`.`.`.`.",
"`.`.`.4.3.2.,.;.+.& D M.C.G.I.I.P.G.C.m.m.v.m.m.m.v.v.C.v.C.H.L.I.I.G.C.C.D * +.;.-.3.3.4.4.`.`.",
"`.`.4.2.1.:.f ) ] & D C.H.P.I.I.I.I.P.K.K.K.P.K.K.K.K.K.K.P.I.I.I.I.I.H.C.D & ] W a :.1.2.`.`.`.",
"`.`.3.1.] h n V a X D C.P.I.I.I.I.I.I.I.I.I.I.I.I.I.I.I.I.I.I.I.I.I.I.L.C.D X a V n h ] 1.2.`.`.",
"`.`.4.2.g < 9.H < + H C.K.I.I.I.I.I.I.I.I.I.I.I.I.I.I.I.I.I.I.I.I.I.I.K.Z.H + < H 9.2 g 1.3.`.`.",
"`.`.`.3.g < z.v.c.9.x.M.A.G.I.I.I.I.I.H.D.P.I.I.I.I.I.D.J.I.I.I.I.I.G.A.M.x.9.c.m.z.< g 3.`.`.`.",
"`.`.`.4.W < x.A.G.D.Z.C.D.G.J.I.I.I.H.F.D.H.P.I.I.L.G.F.G.J.I.I.I.G.G.D.M.Z.D.F.A.z.< W 4.`.`.`.",
"`.`.`.4.) 5 7.v.A.J.F.S.K.G.S.K.I.K.D.G.L.D.G.P.I.G.D.K.H.D.K.P.L.S.G.L.S.F.K.A.v.8.2 _ `.`.`.`.",
"`.`.`.`.;.` 0 6.C.A.G.P.I.P.H.S.A.D.J.P.I.K.F.A.A.F.K.I.P.H.D.A.S.H.P.I.L.G.S.M.6.0 ` 1.`.`.`.`.",
"`.`.`.`.4.;.) m J J c.G.H.L.I.G.D.F.I.I.I.I.J.F.D.J.I.I.I.I.G.D.G.I.L.H.G.c.J J m ) 2.4.`.`.`.`.",
"`.`.`.`.`.`.4.) 1 1 F c.c.C.H.K.K.P.P.I.P.P.P.K.P.P.I.P.P.P.P.L.K.H.C.c.x.G < + Q 1.`.`.`.`.`.`.",
"`.`.`.`.`.`.`.;.@.} B 7 8 9 D v.D.D.A.D.S.A.D.D.D.A.S.A.D.D.A.D.v.D 9 8 8 K t.6 W 3.`.`.`.`.`.`.",
"`.`.`.`.`.`.`.`.4.4.B % e s p F J J J J J J J J J J J J J J J J F p Y ~ 5.U.T.0 W `.`.`.`.`.`.`.",
"`.`.`.`.`.`.`.`.`.4.E = / &.( * O & & & & & & & & & & & & & & X * / _.$X-X=Xh.j ) `.`.`.`.`.`.`.",
"OX4.`.`.`.`.`.`.`.4.W = %.^.%.$ r / / / / / / / / / / / / / / r $ ..[.*X%X5.V { 1.`.`.`.`.`.`.`.",
"4.4.`.`.`.`.`.`.`.4.} a T T T s ! ^.).'._._._.)._._.'.).!.!.Q./ I T ^.{.XX..; $.`.`.`.`.`.`.`.`.",
"4.`.`.`.`.`.`.`.`.3.1.+.t % = [ *.(.|.XXXXXXXXXX XXXXXXX].!.~.=.[ - I ^.].! ; -.`.`.`.`.`.`.`.`.",
"4.`.`.`.`.`.`.`.`.2.1.,.} t 1 w.| !.|.XXXXXXXXXXXXXXXXXX'.!.!.| w.1 # q y = - >.`.`.`.`.`.`.`.`.",
"`.`.`.`.`.`.`.`.2.1.>.1.3.} p N A d.k.k.k.k.k.k.k.k.j.j.f.| d.P N u $ . : o - -.`.`.`.`.`.`.`.`.",
"1.1.`.`.3.3.`.1.2.1.>.1.1.2.} u M 0.i.b.b.b.b.b.b.b.i.q.0.0.0.S 6 Q e o l > - @.`.`.`.`.`.`.`.`.",
"1.1.1.1.>.1.1.1.;.>.>.>.>.1.>.] p v v v v v v b v b v 7 7 7 8 j Q ^ y o z , - @.`.`.`.`.`.`.`.`.",
">.>.>.>.>.>.>.>.>.>.>.>.>.>.>.:.f . : > > > o X w %     & t w g ^ ^ y o z , % +.4.`.`.`.`.`.`.`.",
">.>.>.>.>.:.:.#.#.:.>.>.>.>.>.#.a O l x x x > # E e X X Y X.^ ^ ^ ^ y O l , % } ;.;.;.;.1.3.3.3.",
">.>.>.>.>.#.O.O.O.:.>.>.>.>.:.O.y o x c c c , # Q ~ Y E ^ X.X.^ [ ^ y o x , % ~ =.#.#.#.#.>.1.1.",
">.>.>.>.>.#.O.^ o.#.>.>.>.:.#.X.Y 3 k k k k 4 y ~ ^ ^ ^ ^ ^ [ [ [ ^ Y t , 4 y ~ ^ ^ X.^ X.#.>.>.",
">.>.>.>.>.#.o.^ o.#.>.>.>.>.#.o.^ E % . . . e ^ ^ ^ X.^ ^ ^ [ [ [ [ ~ R % y ~ [ / ^ ^ ^ o.#.>.>."
};
