/* XPM */
static char *result[] = {
/* columns rows colors chars-per-pixel */
"48 48 209 2 ",
"   c #030202",
".  c #0B0504",
"X  c #0B030C",
"o  c #0E080A",
"O  c #1A0202",
"+  c #150905",
"@  c #191109",
"#  c #0F0314",
"$  c #120514",
"%  c #12041B",
"&  c #180919",
"*  c #181514",
"=  c #2F0100",
"-  c #360206",
";  c #3B0000",
":  c #261D03",
">  c #2B1B02",
",  c #28180A",
"<  c #2D0E14",
"1  c #281715",
"2  c #2C1C13",
"3  c #311C19",
"4  c #2C2302",
"5  c #342201",
"6  c #342A01",
"7  c #2E2319",
"8  c #332217",
"9  c #1B0826",
"0  c #1C0924",
"q  c #1F0431",
"w  c #260B2A",
"e  c #250C2C",
"r  c #2C102E",
"t  c #351A26",
"y  c #260B33",
"u  c #250836",
"i  c #320F3C",
"p  c #2E1136",
"a  c #3A1937",
"s  c #34123C",
"d  c #2D2720",
"f  c #2F2821",
"g  c #342D24",
"h  c #352F3A",
"j  c #4B0000",
"k  c #5E0000",
"l  c #600000",
"z  c #740000",
"x  c #563A05",
"c  c #4A3315",
"v  c #6A3C0D",
"b  c #421C37",
"n  c #4A272A",
"m  c #593623",
"M  c #623E23",
"N  c #793E24",
"B  c #594309",
"V  c #624D01",
"C  c #674F0A",
"Z  c #665001",
"A  c #695501",
"S  c #775E02",
"D  c #6A4C1A",
"F  c #7C6500",
"G  c #7D6119",
"H  c #56422E",
"J  c #53483B",
"K  c #674529",
"L  c #754A27",
"P  c #7D532E",
"I  c #290443",
"U  c #290445",
"Y  c #310C48",
"T  c #3B1343",
"R  c #38114A",
"E  c #310551",
"W  c #380859",
"Q  c #3B1351",
"!  c #3F125C",
"~  c #3A2E42",
"^  c #3D0665",
"/  c #45164D",
"(  c #45184C",
")  c #491C4E",
"_  c #451954",
"`  c #4A1957",
"'  c #41125D",
"]  c #521958",
"[  c #482446",
"{  c #42056E",
"}  c #460C6B",
"|  c #461661",
" . c #491762",
".. c #4D1A64",
"X. c #531C63",
"o. c #581D63",
"O. c #531C69",
"+. c #5C1E6A",
"@. c #430571",
"#. c #470A74",
"$. c #480877",
"%. c #48057A",
"&. c #4A087B",
"*. c #4C1373",
"=. c #5B1974",
"-. c #621E6D",
";. c #6B1F6B",
":. c #621E75",
">. c #5B226D",
",. c #63206E",
"<. c #70226B",
"1. c #642374",
"2. c #6A2276",
"3. c #6C247B",
"4. c #71247E",
"5. c #6B5B4C",
"6. c #7F6D59",
"7. c #564463",
"8. c #614971",
"9. c #656565",
"0. c #7D7D7C",
"q. c #905018",
"w. c #846902",
"e. c #8E7501",
"r. c #987900",
"t. c #A76405",
"y. c #BB6D14",
"u. c #8A5830",
"i. c #AA5835",
"p. c #8F633C",
"a. c #9C6336",
"s. c #A66A38",
"d. c #AE703C",
"f. c #B7743D",
"g. c #CC790F",
"h. c #8A3D46",
"j. c #823554",
"k. c #AF564F",
"l. c #8B6A4A",
"z. c #AC7443",
"x. c #A64C65",
"c. c #B55663",
"v. c #BB5965",
"b. c #C17B41",
"n. c #9A8101",
"m. c #A58300",
"M. c #AA8800",
"N. c #B38E00",
"B. c #B59201",
"V. c #D18006",
"C. c #C69D00",
"Z. c #F19401",
"A. c #FE9D01",
"S. c #E08219",
"D. c #C7A500",
"F. c #CDA500",
"G. c #D1A700",
"H. c #D3AD00",
"J. c #DEB600",
"K. c #E2B800",
"L. c #E68425",
"P. c #EBC200",
"I. c #F3C900",
"U. c #BC8D62",
"Y. c #CC8244",
"T. c #D48647",
"R. c #C68955",
"E. c #C78D59",
"W. c #DD995E",
"Q. c #E28F4C",
"!. c #E6924D",
"~. c #EB954E",
"^. c #C99361",
"/. c #F4A968",
"(. c #E8AB76",
"). c #F7B376",
"_. c #4E0684",
"`. c #500687",
"'. c #54088A",
"]. c #590B92",
"[. c #5F1297",
"{. c #64159B",
"}. c #752582",
"|. c #792982",
" X c #6711A4",
".X c #6812A4",
"XX c #6A14A8",
"oX c #6C14AA",
"OX c #7418B6",
"+X c #7A1ABD",
"@X c #7E1CC3",
"#X c #8A2D93",
"$X c #8123AC",
"%X c #9533A0",
"&X c #848384",
"*X c #9A999A",
"=X c #AAA8AB",
"-X c #CCAD8A",
";X c #D5B189",
":X c #CEB291",
">X c #D1B593",
",X c #D7BA97",
"<X c #F9C18C",
"1X c #F9C694",
"2X c #FAD3A9",
"3X c #FEDCB3",
"4X c #CDCDCD",
"5X c #E3E4E3",
"6X c #F6F7F6",
/* pixels */
"}.}.}.}.}.}.}.}.3.,.>.>.>.>.>.' ! ' ' ! ! ! ! ' >.>.>.>.>.>.>.>.1.3.}.3.1.>.1.3.}.}.}.}.}.}.}.}.",
"}.}.}.}.}.}.}.}.;./ _ X.T (  .i Y ! ' ' ! ! Y y p Q >.>.>.>.>.>.1.3.}.3.1.>.1.3.}.}.}.}.}.}.}.}.",
"}.}.}.}.}.}.4.1.] 3 b / 3 a ) 3 t Q ' ! ! Q y 9 % i X.>.>.>.1.1.1.3.3.3.1.1.1.3.}.}.}.}.}.}.}.}.",
"}.}.}.}.}.3.2.T 3 a.M n a.K t a.K 0 Q ' Q 9 I ^ ^ I e ] >.1.1.3.3.1.1.1.3.3.}.}.}.}.}.}.}.}.}.}.",
"}.}.}.}.}.3.1.s 2 b.d.u.T.d.u.T.L & R Y y I #. X X#.I i _ >.3.4.3.1.>.1.3.}.}.}.}.}.}.}.}.}.}.}.",
"}.}.}.}.}.3.2.s 2 b.!.!.~.~.~.!.L $ Y y q &.XX@X@XXX&.u i >.3.}.}.2.1.2.4.}.}.}.}.}.}.}.}.}.}.}.",
"}.}.}.}.}.4.3.s 2 b.~.~.~.~.~.~.L X $ I &.oX+X@X@X+XoX&.I e >.4.4.3.3.3.}.}.}.}.}.}.}.}.}.}.}.}.",
"}.}.}.}.}.}.4.T 2 b.~.~.~.~.~.~.L o q $.oX+X@X@X@X@X+XoX#.I T o.}.}.}.}.}.}.}.}.}.}.}.}.}.}.}.}.",
"}.}.}.}.}.}.4.T < b.~.~.~.~.~.!.L % #.oX@X@X@X@X@X@X@X@XoX%.q T -.}.}.}.}.}.}.}.}.}.}.}.}.}.}.}.",
"}.}.}.}.}.}.4.T 2 b.~.~.~.~.~.~.L 0 [.+X@X@X@X@X@X@X@X@X+XoX&.I w -.}.}.}.}.}.}.}.}.}.}.}.}.}.}.",
"}.}.}.|.}.}.}.T , d.Q.~.~.~.~.T.K 0 .X@X@X@X@X@X@X@X@X@X$X$Xj.n X i o.4.}.4.}.|.}.}.}.}.}.}.}.}.",
"}.}.}.}.}.}.}.b 1 a.T.~.!.~.!.b.M & |.%X%X%X%X%X%X%X%X%X%X%Xy.v % % T -.+.-.-.4.}.}.}.}.}.|.}.}.",
"}.}.}.}.}.|.4.s , a.T.Q.Y.T.!.b.M > y.L.L.L.L.L.L.L.L.L.L.L.g.u.^ ^ E % & & w -.}.}.}.}.}.}.}.}.",
"}.}.}.}.}.}.4./ 1 a.Y.T.b.Y.T.z.M > y.Z.A.A.A.A.A.A.A.A.Z.g.k.#X X X$.U I I I T o.}.}.}.}.}.}.}.",
"}.}.}.}.}.}.}._ 3 u.s.b.b.b.b.s.m < q.g.S.S.S.S.L.g.g.g.g.i.#XOX@X@XoX].`.`.@.q T -.}.}.|.}.}.}.",
"}.}.}.}.}.}.}.:.] t L f.b.z.s.c T { -.<.<.<.<.<.<.4.<.<.;.=.]. X@X@X+XoX].`.`.@.U w :.}.}.}.}.}.",
"}.}.}.}.}.}.}.}.:./ n M M K m i ^ %.E U I I I I I I I I I E &.].XX X X X'.`.%.E I / 2.}.}.}.}.}.",
"}.}.}.}.}.}.}.}.4.:.b 1 , , w ^ ^ W 1 +   7 7 2 7 2 1 . + 1 ^ ^ @.^ @.@.@.^ ^ e / 4.}.}.}.}.}.}.",
"}.}.}.}.}.}.}.}.;.p m a.f.s.P 1 % 2 w.x 7 a.Y.R.R.R.z., B F 3 % % % % % % % 9 ] 2.}.}.}.}.}.}.}.",
"}.}.}.}.}.}.}.}.2./ n D L K D B B V Z D p.W././././.^.p.D Z V V V V B x o 0 / 3.}.}.}.}.}.}.}.}.",
"}.|.}.}.}.}.}.}.4.3.s . + . 4 m.B.w.: K E.(.).).).).(.E.K 4 F B.D.F.D.m.x b ,.4.}.}.}.}.}.}.}.}.",
"}.}.}.}.}.}.}.}.3.2.s O j = 6 D.e.4   @ H ;X2X2X2X2X;XH @   4 e.P.I.J.C.r.B r ,.}.}.}.}.}.}.}.}.",
"}.}.}.}.}.}.3.}.3.1.p O k ; @ A G K +   7 >X3X3X3X3X>Xf   + H G n.P.I.J.D.V $ >.4.4.}.}.}.}.}.}.",
"}.}.}.}.3.2.+.1.1.>.y O k ; . * l.E.7   g >X3X3X3X3X>X7   8 E.l.B B.H.H.G.Z * X.:.+.2.3.4.4.}.}.",
"}.}.}.2.1.X.e T >. .e O k ; , z.(.-X7   f >X3X3X3X3X>Xf   7 -X(.z.c 6 B H.F * ! T r X.1.2.4.}.}.",
"}.}.3.1._ a B c p y % O k ; 8 R.<X>Xf   f >X3X3X3X3X>X7   f >X<XR.8 6 F K.F o e c B t ` 1.3.}.}.",
"}.}.3.2.s , r.F 4 4 + O k ; 7 R.1X,XJ d J ,X3X3X3X3X,XJ d J ,X<XR.8 V F.I.n.: 4 S r.: s 2.3.}.}.",
"}.}.}.2.s : m.D.D.n.B O k ; 7 R.<X2X,X:X>X3X3X3X3X3X2X,X:X,X2X<XR.8 V F.I.H.M.D.F.m.: s 3.}.}.}.",
"}.}.|.4.T : m.H.K.J.S O l - @ K U.1X3X3X3X3X3X3X3X3X3X3X3X3X1XU.P C e.G.I.I.K.K.H.m., T 4.}.}.}.",
"}.}.}.4.) 2 w.B.H.K.F O k -   . K ^.-X:X,X,X>X>X,X>X>X>X>X-X^.K : w.N.F.I.I.P.G.B.w.8 / 4.}.}.}.",
"}.}.|.4.2.] 8 S C.D.A O k -     @ 7 g g g g g g g g g g g f 7 @ . : S C.F.G.G.C.S 8 ] 2.}.}.}.}.",
"}.}.|.4.4.2./ m Z Z 6 . = = # Y q * 9.0.0.0.0.0.0.0.0.0.0.9.* 9 I u n Z Z Z Z V m ( 2.|.}.}.}.}.",
"}.}.}.}.}.}.}./ & . @ 7 d o 9 {.} h =X5X6X6X5X4X4X5X6X6X5X=Xh U `.&.E % % X . $ / 4.}.}.}.|.}.}.",
"}.}.}.}.}.}.}.2.] & 5.-X:X5.9 {.[.^ ~ *X6X6X*Xh h *X6X6X*Xh { %.`.`.%.{ ^ u $ ] 2.}.}.}.}.}.}.}.",
"}.}.}.}.}.}.}.}.-.& l.3X3X6.# E #.%.E 7.&X&X8.! ! 8.&X&X7.E %.{ E %.`.`.`.U & +.}.}.}.}.}.}.}.}.",
"}.}.}.}.}.}.}.}.-.r 9.>X>X5..   U _._.W 9 9 *.+X@X*.0 e W `.`.U % W %.`.@.U w -.}.}.}.}.}.}.}.}.",
"}.}.}.}.}.}.}.}.4.-.[ g g *     U _.`.].{..XOX@X@XOX{.{.XXoX'.i   % E ^ q Y -.4.}.}.}.}.}.}.}.}.",
"}.}.}.}.}.}.}.}.}.4.T . = O X q ^ _.`. X@X@X$X@X@X@X@X@X@XOX].{ q X 9 u Y o.}.}.}.}.}.}.}.}.}.}.",
"}.}.}.}.}.}.}.}.}.2.s O k - $ ` =.`.`. X@X@X@X@X@X@X@X@X@XOX].&.] $ X w o.4.}.}.}.}.}.}.}.}.}.}.",
"}.}.}.}.}.}.}.}.4.1.s O k - , q.j.`.`. X@X@X@X@X@X@X@X@X@X+X[.5.q.@ w ' :.}.}.}.}.}.}.}.}.}.|.}.",
"}.}.}.}.}.}.}.}.3.1.p O k ; + x N h.h.j.x.v.v.v.v.v.v.v.v.c.h.N x t Y *.1.}.}.}.}.}.}.}.}.}.}.}.",
"3.3.3.3.3.3.3.3.1.1.p O k ; . $ x t.t.t.t.g.V.V.V.V.V.V.g.g.t.x 0 Q ' ..>.3.3.4.}.}.}.}.}.}.}.}.",
"1.1.1.1.1.1.1.1.1.>.p O l ; o T t , > > 5 5 5 5 5 5 5 5 5 5 > t Q ' ! ..O.1.2.4.}.}.}.}.}.}.}.}.",
">.>.>.>.>.>.>.>.>.O.p O l ; $ ` / e .   X w p w . O ; ; ; - . e ' ' ! | O.>.1.3.}.}.}.}.}.}.}.}.",
">.>.>.>.>.>.O.O.O.O.p O l ; $ ` X._ 0 # 0 ` X.Q $ ; z z z k O q ' ' ' ' ..O.O.=.:.1.:.:.:.2.3.3.",
">.>.>.>.>.X... ...X.p O k ; $ Q  .' Q Q Q ' | R $ ; z z z l O e Q ' ' ' |  ...O.O.*.O.O.+.=.1.1.",
">.>.>.>.>.>...'  ..._ r - < s ' ' ' ' ' ' ' ' W u < ; ; - - 0 Y ' ' ' ' ' ' ' ' ! | | !  .O.>.>.",
">.>.>.>.>.O...' | O.>.] w s X. .' ' ! ! ' ' ' ' ' u $ o # & R ! ' ' ' ' ' ' ' ! ^ ! ! !  .O.>.>."
};
