/* XPM */
static char *result[] = {
/* columns rows colors chars-per-pixel */
"48 48 209 2 ",
"   c #040303",
".  c #0B0403",
"X  c #0B0805",
"o  c #0B040B",
"O  c #130101",
"+  c #190301",
"@  c #140B02",
"#  c #180C0C",
"$  c #1A1204",
"%  c #1B0C12",
"&  c #14051B",
"*  c #160819",
"=  c #18151B",
"-  c #290104",
";  c #340002",
":  c #3B0100",
">  c #251C02",
",  c #24170C",
"<  c #29190D",
"1  c #331E07",
"2  c #281715",
"3  c #2E1D12",
"4  c #351F10",
"5  c #312601",
"6  c #322706",
"7  c #332214",
"8  c #32281F",
"9  c #150324",
"0  c #1A0625",
"q  c #1C0822",
"w  c #1C052E",
"e  c #1D0829",
"r  c #1D0232",
"t  c #270B29",
"y  c #220B2C",
"u  c #2A102C",
"i  c #351B29",
"p  c #280A38",
"a  c #320D3C",
"s  c #2E1137",
"d  c #2F103B",
"f  c #34123A",
"g  c #371838",
"h  c #282521",
"j  c #372822",
"k  c #302E2C",
"l  c #3C3B38",
"z  c #460000",
"x  c #520001",
"c  c #5D0000",
"v  c #4A3B01",
"b  c #4C2C18",
"n  c #543313",
"m  c #53341E",
"M  c #723E16",
"N  c #5A3827",
"B  c #4E2A35",
"V  c #603C23",
"C  c #6B2D3E",
"Z  c #574501",
"A  c #644E01",
"S  c #734503",
"D  c #6C5502",
"F  c #725D00",
"G  c #6D5017",
"H  c #7C6401",
"J  c #754A27",
"K  c #764A29",
"L  c #714D2D",
"P  c #290444",
"I  c #2C0943",
"U  c #2D044B",
"Y  c #330C42",
"T  c #30074F",
"R  c #340F4B",
"E  c #3B1443",
"W  c #3D1549",
"Q  c #360957",
"!  c #371050",
"~  c #3B1154",
"^  c #3E125B",
"/  c #3C2A4A",
"(  c #3C0565",
")  c #41154B",
"_  c #441849",
"`  c #421655",
"'  c #4A1753",
"]  c #461A53",
"[  c #41125D",
"{  c #4A1959",
"}  c #521D53",
"|  c #521B5D",
" . c #47294C",
".. c #450D6D",
"X. c #461661",
"o. c #491763",
"O. c #4C1964",
"+. c #4A126D",
"@. c #521C65",
"#. c #581A67",
"$. c #531C69",
"%. c #5C1E6C",
"&. c #490779",
"*. c #5A1B75",
"=. c #641F6B",
"-. c #621F76",
";. c #651879",
":. c #562066",
">. c #5B226D",
",. c #5F2270",
"<. c #63206F",
"1. c #642374",
"2. c #692175",
"3. c #672278",
"4. c #6C247B",
"5. c #71247E",
"6. c #6B584E",
"7. c #72624F",
"8. c #7C6955",
"9. c #726F74",
"0. c #843C3E",
"q. c #8A5108",
"w. c #915803",
"e. c #846B00",
"r. c #8B7500",
"t. c #957601",
"y. c #895832",
"u. c #A8592C",
"i. c #86603E",
"p. c #9D6435",
"a. c #B66526",
"s. c #A56A38",
"d. c #B7753D",
"f. c #CA7B08",
"g. c #C67218",
"h. c #D8792E",
"j. c #E17E31",
"k. c #893B53",
"l. c #B45857",
"z. c #8C6D4F",
"x. c #B97945",
"c. c #994369",
"v. c #AC4E6B",
"b. c #816863",
"n. c #8F7B63",
"m. c #C27B41",
"M. c #A68500",
"N. c #AE8A00",
"B. c #BB9400",
"V. c #C49C00",
"C. c #C99F00",
"Z. c #EE9008",
"A. c #CEA400",
"S. c #CDAC00",
"D. c #D3A900",
"F. c #DBB300",
"G. c #E4BC00",
"H. c #EDC500",
"J. c #F4CB00",
"K. c #F5CC00",
"L. c #FDD500",
"P. c #BB8454",
"I. c #CA8144",
"U. c #D78948",
"Y. c #C88B56",
"T. c #D7955B",
"R. c #E18F4B",
"E. c #E6924D",
"W. c #EB954E",
"Q. c #D59F6E",
"!. c #F0B178",
"~. c #4E0783",
"^. c #540B8A",
"/. c #540A8C",
"(. c #59148B",
"). c #590B92",
"_. c #5D0C98",
"`. c #5E1294",
"'. c #65169E",
"]. c #752582",
"[. c #752589",
"{. c #630FA0",
"}. c #6A14A7",
"|. c #7216B3",
" X c #771AB5",
".X c #771AB9",
"XX c #791BBC",
"oX c #7E1CC3",
"OX c #8527A7",
"+X c #902EA9",
"@X c #882EBA",
"#X c #807F80",
"$X c #AA6DA5",
"%X c #9840C1",
"&X c #949391",
"*X c #B79E80",
"=X c #B2B2B3",
"-X c #CBAB87",
";X c #D0B492",
":X c #F0B883",
">X c #E3B6B3",
",X c #FAC28D",
"<X c #FACB99",
"1X c #F7D3A9",
"2X c #FCDCB3",
"3X c #BFC0C0",
"4X c #C2C3C3",
"5X c #DADADA",
"6X c #F4F4F4",
/* pixels */
"].].].].].].].].4.1.>.>.>.>.$.X.^ ! q d ! q & * * E >.>.>.>.>.>.1.4.5.4.3.>.1.4.5.].].].].].].].",
"].].].].].].].].4.1.,.>.>.>.:.o.R s N B i N 7 @ m B E :.>.>.>.>.<.4.5.4.1.,.1.4.].].].].].].].].",
"].].].].].].5.4.3.3.1.1.1.1.>.O.u 3 d.K b d.y.b d.J * ) :.,.,.,.1.4.4.4.3.1.3.5.].].].].].].].].",
"].].].].].4.4.1.3.3.4.3.4.4.1.>.s < I.I.m.R.I.m.E.J X & E >.3.4.4.1.1.1.3.4.4.5.].].].].].].].].",
"].].].].].4.3.,.1.4.].].].5.4.1.s 3 m.W.W.W.W.W.E.J o r d W 1.].4.1.>.1.5.5.].].].].].].].].].].",
"].].].].].4.4.3.4.4.].].4.4.4.1.f 3 d.W.W.W.W.W.E.J & ..T e | 3.5.4.1.4.5.].].].].].].].].].].].",
"].].].].].5.4.4.4.].].5.4.1.3.1.f 3 m.W.W.W.W.W.E.J 9 `.).Q e ] 5.5.5.5.5.5.].].].].].].].].].].",
"].].].].].].].].].].].4.1.>.>._ q 3 m.W.W.W.W.W.E.J 0 '.|.).T Y ' 4.5.5.].].].].].].].].].].].].",
"].].].].].].].].].].].5.4.<.{ &   < x.E.W.W.W.W.E.J 0 '.oX X;.a & | -.<.<.4.].].].].].].].].].].",
"].].].].].].].].].].5.5.;.) *     , s.U.W.W.W.E.I.V 0 }.oXOXu.n . & q q q ' 5.].[.].].].].].].].",
"].].].].].].].5.-.' ) ) W Y P p & , p.U.W.U.R.R.m.N 2 k.v.l.g.M a Q Q ! a Y ' ;.].].].].].].].].",
"].].].].].].].5.| y & & & U /.~.U , p.U.E.m.U.U.m.G 1 f.Z.Z.a.k.).|. X}.&.P t -.5.].].].].].].].",
"].].].].].].5.' t Q ( ( ( ).|.|.Q , p.m.m.m.m.m.m.V 1 f.Z.g.v.OXXXXX|.~.p f =.2.].].].].].].].].",
"].].].].].5.' Y U &.).{.{.|.oXoX(.` V p.m.m.m.d.K B ' l.l.v.@XoXXX|.&.U a } 2.OX].].].].].].].].",
"].].].].].%.* P ~./.{.oXoXoXoXoXXX}.I V s.s.s.y.i +.oXXXOX.XXX|.'.&.U t =.5.].].].].].].].].].].",
"].].].].].<.* U ~./.{.oXoXoXoXoXoXXX{.` 2 < < i *.|.oXoX|._.).( w 9 Y =.5.].].].].].].].[.].].].",
"].].].].].2.) Y T &._.{.}. XoXoXoX X*. .m G V B ' ......Q U U B N # E 5.].].].].].].].].].].].].",
"].].].].].5.4._ w ( &.&.&.`.}.}.}.(.e b s.d.s.y., @ , , # . 2 i.P.7 W 5.].].].].].].].].].].].].",
"].].].].].].].2.{ w 9 9 9 9 r w r 9   # 7 7 7 < . v t.t.v < z.T.Y.3 E 5.].].].].].].].].].].].].",
"].].].].].].].].-.W q @ v Z Z Z Z Z Z 5 . - + $ v A D D G i.Q.!.Y.3 E 5.].].].].].].].].].].].].",
"].].].].].].].].5.2.f > t.V.B.B.B.A.V.A + x : $ H Z X @ y.!.<X,XY.3 W 5.].].].].].].].].].].].].",
"].].].].].].].].5.2.f > M.V.C.C.F.J.H.H + c : X > $   X 8.1X2X,XY.7 E ].].].].].].].].].].].].].",
"].].].].5.5.5.<.] #.s > M.V.A.B.D.G.G.F + c : # N 8     8.2X2X,XY.7 f 5.].].].].].].].].].].].].",
"].].].5.4.2.<.g 2 ` i v r.N.A.S.S.D.A.D + c : 7 P.L     b.2X2X,XY.4 f *.-.-.3.4.4.4.4.4.5.5.].].",
"].].5.4.1.:.u Z q.3 D M.Z H S.H.K.H.H.H + c : 8 -X8.X X 8.2X2X<XY.7 p $.+.$.$.*.1.1.1.1.3.4.].].",
"].].4.1.>.{ * A N.D M.F.r.F r.G.L.L.L.H + c : h ;XQ.7.6.*X2X2X,XY.2 y ^ [ [ o.@.>.>.>.>.1.4.].].",
"].].5.4.1.| * A V.V.F.K.H.M.Z S.L.L.K.H + c : j -X1X1X1X1X2X1X:Xx.h p X.X.o.$.$.,.1.1.1.3.5.].].",
"].].].5.4.#.* A C.C.A.F.K.G.S.H.L.L.F.F + c : 8 Q.<X2X2X2X1X,Xz.j Y ! X.o.@.%.1.4.4.4.4.4.].].].",
"].].].].5.2._ m e.B.V.A.G.G.G.G.H.F.A.A + c : $ L z.n.n.P.9.7.N u ~ ^ X.$.>.1.3.].].].].].].].].",
"].].].].].].4._ 4 t.M.N.N.N.N.N.N.N.M.Z O x ; X h k k k k k k k ~ [ ^ O.:.1.3.4.].].].].].].].].",
"].].].].].].5.2.} 6 5 5 5 5 5 5 5 6 5 $   O o h &X4X4X4X4X4X=X9.e ^ ^ X.*.3.4.].].].].].].].].].",
"].].].].].].5.5.2._ f f f f u o   o I ! ^ 6.6.8.&X4X6X6X4X=X5X#X= ~ X.$.,.].].].].].].].].].].[.",
"].].].].].].].].].;.5.;.5.5.#.%   9 `..X%X>X1X-Xk 9.5X5X9. .3X9.= ] o.:.-.].].].].].].].].].].].",
"].].].].].].].].].].].].].5.=.*   9 }.oX%X>X2X;Xj = l l W ^ / h o ] $.>.3.].].].].].].].].].].].",
"].].].].].].].].].].].].].5.%.*   9 ).|.@X$X&Xb. .~ ^ ^ &.).T & * O.>.1.3.].].].].].].].].].].].",
"].].].].].].].].].].].].5.-.| q o 9 ( _.}.`.Y t '..XXXXXXX|.^.U q ` >.,.4.].].].].].].].].].].].",
"].].].].].].].].].].].4.2.W y Q [ Q e Q _.~.P 0 }.oXoXoXoXXX).&.Q e E ,.4.].].].].].].].].].].].",
"].].[.c.].].].].].].].4.1.s % C =.&.U P U U 0 e '.oXXXXXoX.X).=.C % d ,.3.].].].[.].].].].].].].",
"].5.5.5.].].[.].5.5.4.4.-.E < q.0.=.#.a o o   * [.+X+X+X+XOX;.0.q.< d %.3.].].].].].].].].].].].",
"].OX5.5.].].].].4.4.1.2.2.=.' 4 M u.u.n O z - 1 a.U.j.j.j.h.a.M 4 E ` $.-.].].].].].].].[.].].].",
"].].].].].].].].4.3.>.1.4.5.>.g b S S 1 + c : $ S w.w.w.w.q.D b f ` [ @.-.5.].].].].].].].].].].",
"4.4.4.].4.4.1.].1.1.>.1.3.3.4.>.g # % o O c :   @ @ @ % % % % Y { X.[ +.%.4.4.5.].].].].].].].].",
",.,.1.1.,.1.1.1.1.>.>.>.1.1.<.>.| ] ] y + c : O z - o E ] ] / ^ X.X.[ o.$.1.3.4.].].].].].].].].",
">.>.>.>.>.>.,.,.>.>.>.>.>.>.>.>.>.>.>.s + c : + c : o ` >.@.X.[ ^ ^ ^ X.$.>.1.4.5.].].5.].].].].",
">.>.>.>.>.>.$.O.$.:.>.>.>.>.>.:.$.$.O.d % x ; O x : & ` $.O.X.[ ^ ( ^ o.O.@.$.*.-.-.-.-.2.4.4.4.",
">.>.>.>.>.:.O.O.O.$.>.>.>.>.:.O.o.o.o.` a - .   + t R [ X.X.X.[ ^ X.^ ^ X.o.O.$.@.+.$.$.%.*.1.1.",
">.>.>.>.>.$.O.^ o.@.>.>.>.>.$.o.[ [ [ [ Q y e e q I [ [ [ ^ ^ ^ ^ ^ X.^ [ [ ^ X.[ [ [ X.o.@.>.>.",
">.>.>.>.>.$.O.^ X.@.>.>.>.>.$.o.[ ^ [ [ [ ^ ~ R R ~ [ [ ^ X.^ X.^ ^ ^ ~ ^ Q ~ ^ ~ ~ ^ [ X.O.>.>."
};
