/* XPM */
static char *result[] = {
/* columns rows colors chars-per-pixel */
"48 48 210 2 ",
"   c #030201",
".  c #0A0504",
"X  c #0E0A06",
"o  c #0B040B",
"O  c #160100",
"+  c #1B0101",
"@  c #160B09",
"#  c #1D1502",
"$  c #0E0314",
"%  c #0E0515",
"&  c #110513",
"*  c #190917",
"=  c #15051C",
"-  c #1A0B1A",
";  c #151414",
":  c #250203",
">  c #360103",
",  c #3B0101",
"<  c #3E0D01",
"1  c #251C02",
"2  c #22160A",
"3  c #291909",
"4  c #280816",
"5  c #241816",
"6  c #2E1D13",
"7  c #301D19",
"8  c #2B2202",
"9  c #382201",
"0  c #3E3400",
"q  c #2B231C",
"w  c #342317",
"e  c #150421",
"r  c #1A0625",
"t  c #1D0A22",
"y  c #1C052B",
"u  c #1D0828",
"i  c #1D0232",
"p  c #260925",
"a  c #240B2D",
"s  c #2A1326",
"d  c #351A29",
"f  c #250B31",
"g  c #2B0E34",
"h  c #25043C",
"j  c #250839",
"k  c #340E3E",
"l  c #2F1138",
"z  c #391A35",
"x  c #34113C",
"c  c #312A22",
"v  c #3A2E2B",
"b  c #480103",
"n  c #550101",
"m  c #5E0000",
"M  c #4D1400",
"N  c #630000",
"B  c #680000",
"V  c #740000",
"C  c #412801",
"Z  c #4A3904",
"A  c #4F3216",
"S  c #67390B",
"D  c #693A19",
"F  c #421E29",
"G  c #4F322D",
"H  c #623D26",
"J  c #6A2D3B",
"K  c #594604",
"L  c #634D04",
"P  c #764504",
"I  c #6E5901",
"U  c #715900",
"Y  c #6C421A",
"T  c #7A6200",
"R  c #6A4424",
"E  c #764A28",
"W  c #774B28",
"Q  c #744D33",
"!  c #2A0543",
"~  c #2E0947",
"^  c #330D42",
"/  c #340D4C",
"(  c #361244",
")  c #3B1343",
"_  c #3C144C",
"`  c #37184B",
"'  c #350757",
"]  c #3B1154",
"[  c #3E125A",
"{  c #3D0765",
"}  c #411449",
"|  c #44184F",
" . c #471855",
".. c #41135D",
"X. c #4C1B5C",
"o. c #531C5D",
"O. c #463141",
"+. c #41076A",
"@. c #460D6D",
"#. c #471661",
"$. c #4A1763",
"%. c #4C1964",
"&. c #47116A",
"*. c #531D65",
"=. c #5A1D64",
"-. c #531C69",
";. c #5C1E6B",
":. c #460675",
">. c #480777",
",. c #4F117F",
"<. c #5C1D73",
"1. c #621F6D",
"2. c #621F75",
"3. c #57206B",
"4. c #5B226D",
"5. c #63206F",
"6. c #642374",
"7. c #692175",
"8. c #6C247B",
"9. c #72247E",
"0. c #504C4F",
"q. c #7C5F44",
"w. c #775768",
"e. c #646564",
"r. c #767476",
"t. c #843F32",
"y. c #915216",
"u. c #886C00",
"i. c #8C7402",
"p. c #977700",
"a. c #9A7A00",
"s. c #A96605",
"d. c #8B5132",
"f. c #935D33",
"g. c #B35D39",
"h. c #9A6538",
"j. c #A86B38",
"k. c #B57037",
"l. c #D17C0C",
"z. c #DA7C24",
"x. c #C07A3F",
"c. c #8A3571",
"v. c #8E4351",
"b. c #AC5451",
"n. c #806E58",
"m. c #B97944",
"M. c #B6536E",
"N. c #C27B41",
"B. c #A38100",
"V. c #AE8900",
"C. c #B99600",
"Z. c #D5810B",
"A. c #C69C00",
"S. c #C89E00",
"D. c #CBA500",
"F. c #D4AB00",
"G. c #D5B300",
"H. c #DCB400",
"J. c #E2B700",
"K. c #E6C000",
"L. c #EDC400",
"P. c #F4CA00",
"I. c #F4CC00",
"U. c #FDD400",
"Y. c #9E886F",
"T. c #AF977C",
"R. c #CD8244",
"E. c #D48647",
"W. c #D98A49",
"Q. c #C88B56",
"!. c #C58C5A",
"~. c #E18F4B",
"^. c #E5914C",
"/. c #EB954E",
"(. c #CA9667",
"). c #EFA86A",
"_. c #4E0684",
"`. c #520987",
"'. c #550B8C",
"]. c #591488",
"[. c #5B0D94",
"{. c #5F1098",
"}. c #620F9E",
"|. c #67179B",
" X c #752582",
".X c #752A93",
"XX c #6914A5",
"oX c #6914A7",
"OX c #6A14A8",
"+X c #7317B5",
"@X c #7618B9",
"#X c #7A1ABD",
"$X c #7E1CC3",
"%X c #903296",
"&X c #8B30BD",
"*X c #9743BE",
"=X c #8C30C2",
"-X c gray51",
";X c #B39486",
":X c #B7AA9A",
">X c #CFB391",
",X c #DBBA95",
"<X c #E8B3A5",
"1X c #F9C28D",
"2X c #EFC498",
"3X c #E5C0A8",
"4X c #FCD7AD",
"5X c #FDDBB2",
"6X c #D5D5D5",
"7X c gray91",
/* pixels */
" X X X X X X X X8.7.4.4.4.4.-.#.[ [ [ [ [ [ [ #.-.3.4.4.3.4.4.4.6.8.9.8.6.4.6.8. X X X X X X X X",
" X X X X X X X X8.6.4.4.4.4.-.$.#.[ #.[ [ j j g l | *.)  .4.4.4.6.8.9.8.6.4.6.8. X X X X X X X X",
" X X X X X X9.8.8.6.6.4.6.6.4.-.$.#.[ [ ( 5 @ . 5 z  .d z 3.4.6.6.8.8.8.6.6.8.8. X X X X X X X X",
" X X X X X8.8.6.6.8.8.8.8.8.6.<.-.%...~ 7 f.H 2 f.H c f.H s 3.8.8.6.6.7.8.8.8. X X X X X X X X X",
" X X X X X8.7.4.6.8. X X X X8.6.4.*.X.i 6 k.j.d.R.j.d.E.E * 3.9.8.6.4.6.9. X X X X X X X X X X X",
" X X X X X8.8.7.6.8. X X8.8.8.6.6.3.[ u 6 R.^.^./.^.~.^.E * =.9.8.8.6.8.9. X X X X X X X X X X X",
" X X X X X X X8. X X X8.8.6.6.8.8.%.t o 3 x././././././.W - 4.9.9.9.8.9.9. X X X X X X X X X X X",
" X X X X X X X X X X X8.6.4.6.8.3.x h e 6 m./././././.^.E @ x =. X X9. X X X X X X X X X X X X X",
" X X X X X X X X X X X9.8.6.6.;./ i :.! 6 N././././././.E . % ) 7.9. X X X X X X X X X X X X X X",
" X X X X X X X X X X X X8.8.1.g ! :.OX' 3 N././././././.E $ ' ! g 1.9.9. X X X X X X X X X X X X",
" X X X X X X X X X X X X X=.k $ F c.%X{ 6 j.~./././.^.W.H @ J d & k } } } =.9.9. X X X X X X X X",
" X X X X X X X X9.7.1.6.1.( = $ D s.%X .2 j.W./.^./.^.x.H 1 s.S & = r = = } 7.9. X X X X X X X X",
" X X X X X X X X1.g r - r ! { { t.l.z.D 3 h.E.^.E.~.~.N.D 3 s.J :.'.|.].@.! g 7. X X X X X X X X",
" X X X X X X X=.} h ! h h +.}.}.c.b.Z.P 2 h.N.W.N.N.E.m.H 2 v.c.OX@X+X[.' k } 8. X X X X X X X X",
" X X X X X X6.) a +._.'.'.XX#X$X$X%Xg.D 7 d.k.N.N.N.m.j.H j |.&X$X@X}.+.a }  X X X X X X X X X X",
" X X X X X6.g ! +._.}.+X@X#X=X$X$X$X%X%X].d E N.N.N.j.A  .|.@X#X@X}.' f  .2. X X X X X X X X X X",
" X X X X9.;.- ! _._.}.$X$X$X$X$X$X$X$X$X+X&.G H R R H | `.XXXX].{ ' ~ } 7. X X X X X X X X X X X",
" X X X X X1.a ! >._.}.$X#X$X$X$X$X$X$X$X#XXX .5 3 3 s ].'.>.:./ 5 o x 8. X X X X X X X X X X X X",
" X X X X X9.1.k i _.[.[.[.OX$X$X$X$X$X$XoX/ G f.k.j.Q z e e = J h.5 ) 9. X X X X X X X X X X X X",
" X X X X X X9.o.~ ! ~ ~ ~ { @.&.@.@.@.@.[ & w R Q W Y K 8 @ A !.Q.w ) 9. X X X X X X X X X X X X",
" X X X X X X X9.;.a o o # # 5 2 2 2 2 2 # # # . @ @ 8 T L A T.).Q.6 ) 9. X X X X X X X X X X X X",
" X X X X X X X X8.o.a # T a.p.p.p.p.p.a.p.p.Z X b : . 8 Q !.1X1XQ.7 )  X X X X X X X X X X X X X",
" X X X X X X X9.8.6.l 1 B.C.A.A.F.H.H.J.H.H.I + m ,   . q.1X4X1XQ.6 )  X X X X X X X X X X X X X",
" X X9.9.8.8.8.6.=.3.g 1 B.A.A.A.H.P.P.J.H.G.I @ m ,   X q.4X4X1XQ.6 k <.2.2.2.6.8.8.8.8.9. X X X",
" X X9.8.6.6.6._ a | f 8 B.D.D.A.D.F.D.u.0 0 # O m ,     r.4X4X1XQ.6 g *.-.-.-.6.6.6.6.6.7.9. X X",
" X X8.6.4.*.` A A d A I I p.D.G.J.J.H.B.Z @   O m ,     n.4X5X1XQ.6 i [ #.[ $.-.4.4.4.4.6.8. X X",
" X X9.8.6.o.- L a.A i.D.K I C.K.U.U.U.H.a.1   O m , . 5 Y.5X5X1XQ.w i #.#.#.-.3.6.6.6.6.8.8. X X",
" X X X9.8.=.* L C.B.D.U.D.T K G.U.U.U.H.B.8   O m , q Y.,X5X5X1XQ.q f [ $.-.3.6.8.8.8.8.8. X X X",
" X X X X9.;.* L A.A.F.J.I.C.p.J.U.U.L.F.B.1   O m , c >X5X4X2X(.Q d ( #.*.3.6.8. X X X X X X X X",
" X X X X9.5.p L V.A.S.F.I.I.L.I.U.L.F.C.i.#   O m , c T.,X,X(.Q t / [ %.3.6.8.8. X X X X X X X X",
" X X X X X9.4.F Z V.A.D.F.G.F.F.F.F.S.T 1 .   O N , X c G c v v _ #.[ %.<.7.8. X X X X X X X X X",
" X X X X X X9.o.F L U U U I U U U I I A h i = . > : ; 0.r.r.r.0.` #.[ -.2. X X X X X X X X X X X",
" X X X X X X X9.1.s * @ 2 * @ X o & * / _.`./ - 5 5 G :X6X6X7Xr.- [ X.3.6. X X X X X X X X X X X",
" X X X X X X X X9.=.=.=.=.=. .& i { { [.+X+XXX.X;X:X;X0.0.e.6X-X- ..-.4.6. X X X X X X X X X X X",
" X X X X X X X9. X9. X X9.9.1.- ! >.' `.$X$X$X*X3X5X>Xc e ` r.0.- X.4.6.8. X X X X X X X X X X X",
" X X X X X X X9. X X X9.9.8.=.= ! +.e { @X$X$X=X<X3X:Xv / >.i % - X.3.6.8. X X X X X X X X X X X",
" X X X X X X X%X X X X8.8.6.=.= ! { % ~ }.#X$X=X=X XO.].oXoX:.i = X.4.4.8. X X X X X X X X X X X",
" X X X X X X X X X X X8.6. .( h :.'.{ ' { [.+X#XoX' r |.$X+X'.{ i x  .6.8. X X X X X X X X X X X",
" X X X X X X X X X8.8.8.2.^ -  .|.=X#X&.i { '.XX,.h e |.$X@X{.`.#.e l 4.8. X X X X X X X X.X X X",
" X X X X X X X X9.8.6.7.7.^ 2 y.c.$X$XOX`.i y y e % y XX$X$X+Xw.y.2 j -.6. X X X X X X X X X X X",
" X X X X X X X X8.6.4.6.8.o.d S d.M.M.M.b.D 9 . : + 5 v.M.M.M.d.S < 4 / ;. X X X X X X X X X X X",
"8.8.8.8.8.8.8.8.6.6.4.6.6.4.| 4 P Z.l.Z.l.s.Z O m , 3 s.Z.Z.l.P : m b 4 | 6.8.9. X X X X X X X X",
"6.6.6.6.6.6.6.6.6.4.4.4.5.} 4 b M C C C 9 9 # O N , . 9 C C C M m V B b 4 _ 6.9. X X X X X X X X",
"4.4.4.4.4.3.4.4.4.4.4.4.4.l @ N n , > + o p = O m , . p l p o , V V m , p } 6.8. X X X X X X X X",
"4.4.4.4.3.3.3.-.*.3.4.4.4.x * n N N m > = | g O m , $ _ #.` e > B B > = ] %.;.<.2.2.2.2.2.2.9.8.",
"4.4.4.4.4.-.%.%.%.3.4.4.4.X.) : + : + p _ ..f O N , $ _ $.#.` p + : p _ ..$.%.%.-.&.-.-.;.2.6.6.",
"4.4.4.4.4.3.$.#.#.-.3.4.4.4.X.f u r u ~ ....^ p , 4 f / #.[ [ ~ u r ~ ..[ ..[ #.#.#.#.[ $.-.4.4.",
"4.4.4.4.3.3.$.[ #.*.3.4.4.4.3...[ [ ] [ ..[ ../ = f [ [ [ [ [ ` / ] ] ] [ [ ' [ [ [ [ ..#.-.4.4."
};
