/* XPM */
static char *result[] = {
/* columns rows colors chars-per-pixel */
"48 48 212 2 ",
"   c #040302",
".  c #0B0403",
"X  c #0B050C",
"o  c #150101",
"O  c #1B0102",
"+  c #160909",
"@  c #1C1308",
"#  c #0E0215",
"$  c #140615",
"%  c #170915",
"&  c #12041C",
"*  c #19071A",
"=  c #1B0A1B",
"-  c #1A1716",
";  c #280304",
":  c #360104",
">  c #3B0001",
",  c #241C04",
"<  c #2D1D01",
"1  c #231908",
"2  c #26180B",
"3  c #280C19",
"4  c #251913",
"5  c #2D1E12",
"6  c #2E2401",
"7  c #3C2401",
"8  c #352801",
"9  c #3A3100",
"0  c #2C231A",
"q  c #352418",
"w  c #1B0627",
"e  c #1E0A29",
"r  c #1E0332",
"t  c #240C2C",
"y  c #290C29",
"u  c #2A1226",
"i  c #341B23",
"p  c #250B34",
"a  c #280937",
"s  c #300E32",
"d  c #2D1134",
"f  c #33113C",
"g  c #3C183B",
"h  c #362F2B",
"j  c #470502",
"k  c #520001",
"l  c #5E0000",
"z  c #4B1100",
"x  c #620000",
"c  c #690000",
"v  c #740000",
"b  c #483705",
"n  c #5B3705",
"m  c #4D2F19",
"M  c #4B3317",
"N  c #673B09",
"B  c #441E25",
"V  c #421D38",
"C  c #472A29",
"Z  c #5B3826",
"A  c #663F28",
"S  c #713925",
"D  c #5A4703",
"F  c #634C04",
"G  c #6B5500",
"H  c #6E5800",
"J  c #785002",
"K  c #7B6300",
"L  c #5F4129",
"P  c #694326",
"I  c #794C29",
"U  c #734D31",
"Y  c #754E36",
"T  c #2A0543",
"R  c #290445",
"E  c #320E44",
"W  c #3B1344",
"Q  c #381149",
"!  c #380958",
"~  c #3A1153",
"^  c #3E115A",
"/  c #3D2A4B",
"(  c #3F0866",
")  c #44194C",
"_  c #441756",
"`  c #461954",
"'  c #4A1B55",
"]  c #41135D",
"[  c #4D1B5B",
"{  c #541B5E",
"}  c #412242",
"|  c #430F67",
" . c #41056D",
".. c #430E69",
"X. c #461661",
"o. c #491762",
"O. c #4D1A63",
"+. c #4A126D",
"@. c #501767",
"#. c #521D63",
"$. c #5A1D65",
"%. c #541C69",
"&. c #5E1E6A",
"*. c #450673",
"=. c #470A74",
"-. c #490879",
";. c #5D1C72",
":. c #611F6C",
">. c #621F75",
",. c #572169",
"<. c #5B226D",
"1. c #632374",
"2. c #6A2275",
"3. c #6C247B",
"4. c #72247E",
"5. c gray27",
"6. c #765649",
"7. c #77614B",
"8. c #594764",
"9. c #686669",
"0. c #787778",
"q. c #853F35",
"w. c #896E01",
"e. c #927602",
"r. c #9C7B00",
"t. c #A46203",
"y. c #875832",
"u. c #965F34",
"i. c #AE5A3A",
"p. c #986035",
"a. c #BA6722",
"s. c #A86B39",
"d. c #B9763E",
"f. c #D17A12",
"g. c #863853",
"h. c #AB5350",
"j. c #926741",
"k. c #806E59",
"l. c #B07645",
"z. c #B9576A",
"x. c #AB4C72",
"c. c #90766C",
"v. c #C07A40",
"b. c #9F8100",
"n. c #A38100",
"m. c #AB8700",
"M. c #B99500",
"N. c #D48109",
"B. c #C69D00",
"V. c #F19401",
"C. c #FE9C01",
"Z. c #EA881F",
"A. c #CDA700",
"S. c #D2A700",
"D. c #D3AA00",
"F. c #DBB400",
"G. c #E0B600",
"H. c #E3BB00",
"J. c #E48229",
"K. c #E6C100",
"L. c #EDC300",
"P. c #F5CC00",
"I. c #FDD500",
"U. c #BF8F65",
"Y. c #D08A4F",
"T. c #C48754",
"R. c #C98B56",
"E. c #E7934D",
"W. c #EB954E",
"Q. c #CF8F67",
"!. c #D8A778",
"~. c #F1AA6D",
"^. c #4E0783",
"/. c #530989",
"(. c #561087",
"). c #5A0C93",
"_. c #5F0E9A",
"`. c #5C1193",
"'. c #611398",
"]. c #6A169B",
"[. c #752582",
"{. c #630FA1",
"}. c #6611A3",
"|. c #6913A6",
" X c #6C14AB",
".X c #6F19AE",
"XX c #7517B7",
"oX c #7A1ABD",
"OX c #7625A5",
"+X c #7E1CC3",
"@X c #9D3E86",
"#X c #943499",
"$X c #9A3899",
"%X c #8729A5",
"&X c #9331A3",
"*X c #8223BC",
"=X c #963FBF",
"-X c #9D6895",
";X c #908F90",
":X c #ABA9AC",
">X c #C8AD8D",
",X c #D6B28C",
"<X c #D6B996",
"1X c #E5B7B6",
"2X c #FAC18D",
"3X c #F6C593",
"4X c #EAC8A0",
"5X c #FBD5AA",
"6X c #FDDBB2",
"7X c #D7D7D7",
"8X c #E5E5E5",
"9X c #F6F6F6",
/* pixels */
"[.[.[.[.[.[.[.[.3.1.<.,.[ #.O.o.] ] ] ] ^ ^ ^ o.O.O.' ` ' [ ,.<.1.3.3.3.1.<.1.3.[.[.[.[.[.[.[.[.",
"[.[.[.[.[.[.[.$.) :.' W #.` W ] ] ] ] ^ X.^ Q p d ` <.<.<.<.<.<.1.3.[.3.1.<.1.3.[.[.[.[.[.[.[.[.",
"[.[.[.[.[.3.:.V i ' g i ) V i ) ] o.X.^ ^ ~ p & w a #.<.<.<.1.1.3.3.3.3.1.1.3.3.[.[.[.[.[.[.[.[.",
"[.[.[.[.[.&.d A u.i A u.q P p.i E o.o.^ ~ w T ( ( T t #.<.1.1.3.3.1.1.1.3.3.3.[.[.[.[.[.[.[.[.[.",
"[.[.[.[.[.$.% I J.y.s.Y.y.s.v.5 d ,.] Q a a *.{.}.=.T f ` 1.3.[.3.1.:.1.4.[.[.[.[.[.[.[.[.[.[.[.",
"[.[.[.[.[.$.% I E.E.W.W.E.E.v.5 f #.^ p r -.|.+XoX|.-.r f ,.3.[.3.3.1.3.4.[.[.[.[.[.[.[.[.[.[.[.",
"[.[.[.[.[.$.= I W.W.W.W.W.W.v.5 f [ e T -. XoX+X+XoX X-.T y <.4.[.4.3.4.4.[.[.[.[.[.[.[.[.[.[.[.",
"[.[.[.[.[.&.= I E.W.W.W.W.W.v.5 e f a *.|.oX+X+X+X+XoX|.=.T W $.4.[.4.[.[.[.[.[.[.[.[.[.[.[.[.[.",
"[.[.[.[.4.:.= I W.W.W.W.W.W.v.2 X r -.|.+X+X+X+X+X+X+X+X|.-.r W >.4.[.[.[.[.[.[.%X[.[.[.[.[.[.[.",
"[.[.[.[.4.:.= I W.W.W.W.W.W.v.5 r -. XoX+X+X+X*X+X+X+X+XoX|.-.T s :.4.[.[.[.[.[.4.[.[.[.[.[.[.[.",
"[.[.[.[.4.:.% P Y.W.d.I I I A @ B g.*XoX+X+X+X+X+X+X+X+X*XoXg.B X f $.[.[.[.[.[.4.4.[.[.[.[.[.[.",
"[.[.[.[.4.:.% A v.v.P % w = * $ N a.@X&X&X&X&X&X&X&X&X&X&X@Xa.N $ & E :.:.:.>.4.4.4.[.[.[.[.[.[.",
"[.[.[.[.[.:.* Z s.m f  .`.'.`.=.q.f.f.f.J.J.J.J.J.J.J.J.f.J.f.q. .( R = w * s :.[.4.4.#X[.[.[.[.",
"[.[.[.[.[.:.* A s.P V ! ).XXoX X#Xh.Z.V.C.C.C.C.C.C.C.C.C.f.h.#X{._.*.T a R a E :.4.4.2.[.[.[.[.",
"[.[.[.[.[.:.y Z s.s.P u | _.oXoX*X%Xi.f.Z.Z.Z.Z.J.Z.J.Z.f.i.#XXX+X+X X/././.*.p ) >.4.4.[.[.[.[.",
"[.[.[.[.[.4.:.V m s.s.y.3 ! _.XX*X*X%X$X$X$X$X$X$X$X$X$X$X%X*X+X+X+X+XXXXX{.^. .a s :.4.[.[.[.[.",
"[.[.[.[.[.[.4.{ V Z P M + w ! X./. X|.XX*X+X*X+X+X+X+X*X+X+X+X+X+X+X+X+X+X|./.^.R * :.[.[.[.[.[.",
"[.[.[.[.[.[.[.2.{ 5 1 @ @ X   4 Q *.*./.}.|.XXXXXX+X+X+X+X+X+X+X+X+X+XXXXX{.^.*.R t :.[.[.[.[.[.",
"[.[.[.[.[.[.4.` i I u.u.u.M 2 j.L & w w w t ( ).). X+X+X+X+X+X+X+X+X X).).).*.p E :.4.[.[.[.[.[.",
"[.[.[.[.[.[.[.{ V Z P A P 5 5 T.l.L + < D D h R R !  ...........| | ! R R R R E { 4.[.[.[.[.[.[.",
"[.[.[.[.[.[.[.4.$.* o o .   5 R.~.Q.M G b.b.D 6 1 1 1 1 2 1 1 1 @ 1 1 @ . X t :.4.[.[.[.[.[.[.[.",
"[.[.[.[.[.[.[.[.&.* ; j .   5 R.2X3XQ.I 6 6 F r.r.r.r.r.r.r.r.r.r.r.r.K @ d :.4.[.[.[.[.[.[.[.[.",
"[.[.[.[.[.[.[.3.$.$ > x o   5 R.3X5X3X7.    8 K M.S.F.G.G.G.F.D.B.B.B.n., W 3.[.[.4.[.4.[.[.[.[.",
"[.[.[.[.3.3.3.3.{ * > l o   5 R.2X6X5Xk.X   @ 9 e.M.F.F.H.P.P.F.A.B.B.n.< f 1.<.>.3.4.3.4.4.[.[.",
"[.[.4.3.1.1.1.1.' $ > l o   5 R.3X6X5X9.    L p.M 8 8 9 K D.D.A.B.B.B.b.6 p [ t W 1.1.1.3.3.[.[.",
"[.[.3.1.<.<.<.<._ $ > l o   5 R.2X6X5X9..   7.!.u.q @ b b.H.H.F.F.A.e.H K M i M m W #.<.>.3.[.[.",
"[.[.4.3.1.1.1.1.[ $ > l o   5 R.2X6X6XU.0 0 U.4X~.U 6 r.F.I.I.I.K.M.H D A.e.9 b.F = #.1.3.3.[.[.",
"[.[.[.4.3.3.3.3.#.* > l o   5 R.2X6X6X4X>X>X4X5X~.7.6 b.K.I.I.I.F.D K D.P.A.m.M.F = $.3.3.[.[.[.",
"[.[.[.[.[.[.[.[.:.% > l O = } Y U.3X6X6X6X6X5X2X~.Y , n.D.L.I.I.H.r.M.P.H.S.B.B.F = :.[.[.[.[.[.",
"[.[.[.[.[.[.[.[.:.= : k o s [ - U U.,X<X<X<X!.R.R.P , w.M.S.L.P.P.P.P.L.D.B.B.m.D u :.[.[.[.[.[.",
"[.[.[.[.[.[.[.[.:.= X o   # &   @ q M h h h q q q 1 . , K B.S.S.D.D.S.S.A.B.m.b V <.4.[.[.[.[.[.",
"[.[.[.[.[.[.4.,.) L U L f T e   5.0.0.0.0.0.0.9.- e ^ ] C G G H G G G G G G F C { [.[.[.[.[.[.[.",
"[.[.[.[.[.[.[.g q T.~.z.4./. .% 0.9X7X8X9X9X8X:Xh ( +XoX+.= & X X + + - % % u :.4.[.[.[.[.[.[.[.",
"[.[.[.[.[.[.4.) 5 R.~.Q.[.(. .* 0.7X9.;X9X9X;X/ ( `.+X+XOX`.( r - Q ~ _ [ #.:.4.[.[.[.[.[.[.[.[.",
"[.[.[.[.[.[.4.$.V Y y.6.;./. .& 5.0./ 8.;X;X8.! `.|..XoXoX+X=Xc.6./ ` 1.3.[.[.[.[.[.[.[.[.[.[.[.",
"[.[.[.[.[.[.[.[.:.= + 3 ( -. .# X r -.! e e ! ).XX`.^..XXX=X1X6X>Xh d 1.3.[.[.[.[.[.[.[.[.[.[.[.",
"[.[.[.[.[.[.[.[.:.* ; j * ! ( & r *. X|.'.`.|.+X+X( r ^. X=X4X6X>Xh s 1.3.[.[.[.[.[.[.[.[.[.[.[.",
"[.[.[.[.[.[.[.[.:.* > l o w R R =. XoX+X+X+X+X+X+X(.R R ^.OX-X-X7.- d 1.3.[.[.[.[.[.[.[.[.[.[.[.",
"[.[.[.[.[.[.[.[.$.* > l o   # { ].+X+X+X+X+X+X+X+X}.( r R ( -.W @ . p <.3.[.[.[.[.[.[.[.[.[.[.[.",
"[.[.[.[.[.[.[.[.$.* > l o   1 a.x.*X+X+X+X+X+X*X+X}.^.( R & & M J @ t %.1.[.[.[.[.[.[.[.[.[.[.[.",
"[.[.[.[.[.[.[.[.$.$ : l o O z J u.z.z.z.z.z.z.z.z.h.g.g.S n n N n u E @.;.[.[.[.[.[.[.[.[.[.[.[.",
"3.3.3.3.3.3.3.3.{ $ : k ; > x ; J N.f.f.f.f.N.N.f.f.t.t.t.t.t.n 3 E ~ O.;.3.3.[.[.[.[.[.[.[.[.[.",
"1.1.1.1.1.1.1.1.{ # . ; k c v l z 7 7 7 b z 8 7 < < < < < < < z k % a X.%.1.3.3.[.[.[.[.[.[.[.[.",
"<.<.<.<.<.,.<.<.' $ O > > l v v > . y d y y d t t t w . O : > k l O p X.%.<.1.3.[.[.[.[.[.[.[.[.",
"<.<.<.<.<.,.%.,.' = : k ; : x x : w _ O.O.O.O.o._ ^ Q = : l l x k $ a X.o.%.;.;.>.>.>.>.3.3.3.3.",
"<.<.<.<.<.%.O.o.O.` s % W s O ; y ~ _ o.o.o.X.o.] ] ^ ~ t o O O ; a ~ ] X.o.o.O.@.@.@.@.&.;.1.1.",
"<.<.<.<.<.,.o.] o.@.) f ,.) p t E ^ ] ] ] ] ] ^ ^ | ^ ^ E e e e p ~ ] ] ^ X.X.] X.X.X.X.X.%.<.<.",
"<.<.<.<.<.,.o.] o.@.,.,.,.,.#.] ^ ] ^ ] ] ] ] ] ^ ^ ^ X.^ ^ ^ ^ ^ ] ] ^ ^ ^ ^ ^ ^ ( ^ ] X.%.<.<."
};
