/* XPM */
static char *result[] = {
/* columns rows colors chars-per-pixel */
"48 48 192 2 ",
"   c #060303",
".  c #0B0203",
"X  c #0B040C",
"o  c #190102",
"O  c #160908",
"+  c #1C1403",
"@  c #1E130A",
"#  c #0D0311",
"$  c #0E011C",
"%  c #120514",
"&  c #160A12",
"*  c #190B16",
"=  c #14051B",
"-  c #1A0B1A",
";  c #270205",
":  c #340100",
">  c #3C0003",
",  c #261D04",
"<  c #22150E",
"1  c #2B1D0C",
"2  c #2C0D18",
"3  c #2D1C12",
"4  c #3A2301",
"5  c #332802",
"6  c #3C3101",
"7  c #3B2711",
"8  c #130223",
"9  c #1C0825",
"0  c #1D042C",
"q  c #1B0131",
"w  c #240B29",
"e  c #220A2D",
"r  c #371928",
"t  c #240637",
"y  c #2C0F33",
"u  c #25043B",
"i  c #2B0D39",
"p  c #2C1132",
"a  c #2F103B",
"s  c #35123D",
"d  c #3B1839",
"f  c #470000",
"g  c #5A0000",
"h  c #6A0000",
"j  c #790000",
"k  c #462C00",
"l  c #482C00",
"z  c #4C380A",
"x  c #503017",
"c  c #533914",
"v  c #63390A",
"b  c #411B28",
"n  c #441D3E",
"m  c #492A28",
"M  c #5D3826",
"N  c #4A2630",
"B  c #7C3E29",
"V  c #544102",
"C  c #5F4F01",
"Z  c #634E01",
"A  c #684E0B",
"S  c #6A5601",
"D  c #745B02",
"F  c #755D00",
"G  c #6B412B",
"H  c #744928",
"J  c #290641",
"K  c #2A0542",
"L  c #2E034E",
"P  c #320C44",
"I  c #340E4B",
"U  c #3C1343",
"Y  c #391346",
"T  c #350559",
"R  c #3C1255",
"E  c #3E125B",
"W  c #3A0462",
"Q  c #3E0766",
"!  c #421946",
"~  c #42164A",
"^  c #501D4E",
"/  c #491855",
"(  c #41125D",
")  c #4B1B5B",
"_  c #521C5F",
"`  c #55374C",
"'  c #40056C",
"]  c #430A6C",
"[  c #461562",
"{  c #491762",
"}  c #4D1A64",
"|  c #541D64",
" . c #5B1D66",
".. c #531C69",
"X. c #5E1E6A",
"o. c #450673",
"O. c #4A067B",
"+. c #4D0A7E",
"@. c #5E1F70",
"#. c #611F6B",
"$. c #631F76",
"%. c #57206B",
"&. c #5B226D",
"*. c #61206E",
"=. c #7F3162",
"-. c #652274",
";. c #692174",
":. c #6C247B",
">. c #72247E",
",. c #69554C",
"<. c #806501",
"1. c #8F7100",
"2. c #927301",
"3. c #997B00",
"4. c #AA640B",
"5. c #B46A0E",
"6. c #8A4A20",
"7. c #83532E",
"8. c #834030",
"9. c #9D6535",
"0. c #B36430",
"q. c #B5733D",
"w. c #BA763E",
"e. c #D07C0E",
"r. c #D37C11",
"t. c #DB7C28",
"y. c #DD7B33",
"u. c #853752",
"i. c #893571",
"p. c #B45C44",
"a. c #84715C",
"s. c #A94A71",
"d. c #B35174",
"f. c #C07A40",
"g. c #A48300",
"h. c #AE8B00",
"j. c #B28E00",
"k. c #BB9700",
"l. c #D7820E",
"z. c #DC820F",
"x. c #C29B00",
"c. c #C99F00",
"v. c #F29402",
"b. c #FE9C01",
"n. c #EF8D18",
"m. c #CCA300",
"M. c #D0A700",
"N. c #D5AB00",
"B. c #D9AF00",
"V. c #DBB200",
"C. c #E3B900",
"Z. c #E5BB00",
"A. c #E6C000",
"S. c #ECC200",
"D. c #F1C700",
"F. c #F4CA00",
"G. c #F8CE00",
"H. c #FED500",
"J. c #A08479",
"K. c #CD8244",
"L. c #DA8B49",
"P. c #E08E4B",
"I. c #EB954E",
"U. c #4E0684",
"Y. c #4F048B",
"T. c #500687",
"R. c #510688",
"E. c #590A94",
"W. c #5A0B94",
"Q. c #620F9D",
"!. c #641799",
"~. c #752582",
"^. c #640FA3",
"/. c #6611A3",
"(. c #6914A5",
"). c #6C13AB",
"_. c #7417B6",
"`. c #7315BC",
"'. c #7A1ABD",
"]. c #7A21A9",
"[. c #7F21BE",
"{. c #7E1CC3",
"}. c #993A8E",
"|. c #8E309A",
" X c #A03E90",
".X c #8F2DAA",
"XX c #8120BB",
"oX c #A455BE",
"OX c #B073AE",
"+X c #801EC1",
"@X c #C18BAC",
"#X c #F3D5AE",
/* pixels */
"~.~.~.~.~.~.~.~.:.-.&.&.&.&...[ E E E [ [ E E [ R %.&.&.&.&.%.U y X./ s | U p &.>.~.~.~.~.~.~.~.",
"~.~.~.~.~.~.~.~.~.-.&.&.&.&.%.[ E E E E E E I a p / &.&.&.%.Y m M ! N M n N M !  .~.~.~.~.~.~.~.",
"~.~.~.~.~.~.>.:.:.-.-.-.-.&.&...} E [ E E E i $ = s %.&.&.) - H w.x 7.q.x 7.q.3 ! >.~.~.~.~.~.~.",
"~.~.~.~.~.:.:.-.-.-.:.:.~.:.-.&.%...[ [ R 9 u W W J p _ &._ * H P.f.f.P.f.K.f.3 U >.~.~.~.~.~.~.",
"~.~.~.~.~.:.-.@.-.:.~.~.~.~.:.-.&...) I i q Q Q.Q.Q J Y ) _ * H I.I.I.I.I.I.f.3 U >.~.~.~.~.~.~.",
"~.~.~.~.~.>.:.-.-.:.~.~.:.:.:.-.$.%.E t 0 +.(.[.{.(.o.q s ) * H I.I.I.I.I.I.f.3 U >.~.~.~.~.~.~.",
"~.~.~.~.~.~.>.:.:.~.~.>.:.-.-.:.~.} e J Q (.`.{.{.'.).Q J - X H I.I.I.I.I.I.f.3 d >.>.~.~.~.~.~.",
"~.~.~.~.~.~.~.~.~.~.~.:.-.&.;.:.} Y t Q ).{.{.{.{.{.[.(.Q 9 X H I.I.I.I.I.I.f.3 ~ >.~.~.~.~.~.~.",
"~.~.~.~.~.~.~.~.~.~.~.>.;.;.-.*.Y q o./.'.{.{.{.{.{.{.{.(.o.9 G K.I.I.I.I.I.w.3 ~ ~.~.~.~.~.~.~.",
"~.~.~.~.~.~.~.~.~.~.~.~.>.:.*.y K o.(.{.+X{.{.{.{.{.{.{.`.(.Q U M f.I.I.I.L.9.1 U ~.~.~.~.~.~.~.",
"~.~.~.~.~.~.~.~.~.~.~.~.>.#.s % b i.].+X{.{.{.{.{.{.{.{.'.XX=.r @ H w.I.I.L.9.1 U >.~.~.~.~.~.~.",
"~.~.~.~.~.~.~.~.>.;.;.;.$.U % X v 0.}..X.X.X.X.X.X.X.X.X.X X0.v X & H K.K.w.7.< s >.~.~.~.~.~.~.",
"~.~.~.~.~.~.~.~.$.y 9 9 w t W ' B e.t.t.y.y.y.y.y.y.y.y.y.t.e.8.W W d b 7 7 1 . ~ >.>.~.~.~.~.~.",
"~.~.~.~.~.~.~.#.~ t u u u T R.Q.i.p.r.v.b.b.b.b.b.b.b.b.v.z.p.i.Q.R.T u u u 0 X s >.~.~.~.~.~.~.",
"~.~.~.~.~.~.-.U e Q O.U.U.R.W._.XX|.0.t.n.n.n.n.n.n.n.n.t.0.|.'._.W.U.U.O.O.' 9 n ;.>.~.~.~.~.~.",
"~.~.~.~.~.-.y K ' U.R.R.R.Q._.{.+XXX|.}. X X X X X X X X}.|.XX{.{._.Q.R.R.R.T.' K y $.~.~.~.~.~.",
"~.~.~.~.~.$.U P T O.Y.U.Y./.[.{.+X+X+X'.+X+X+X+X+X+X+X+X+X+X{.{.{.{./.Y.T.Y.O.T P ~ $.~.~.~.~.~.",
"~.~.~.~.~.~.:.~ 0 Q O.U.Y./.'.{.+X{.+X+X{.{.{.{.{.{.{.{.{.{.{.{.{.'.Q.U.O.o.W e ~ $.~.~.~.~.~.~.",
"~.~.~.~.~.~.~.$./ e T U.T.E.Q.'.+X{.+X{.{.+X+X{.+X+X+X{.{.{.+X+X'./.E.o.q 8 0 / $.~.~.~.~.~.~.~.",
"~.~.~.~.~.~.~.~.$.U P L L L T ] E.).).).).).).(.).).).).).).).W.] T L u #   = &.>.~.~.~.~.~.~.~.",
"~.~.~.~.~.~.~.~.>.#.d < @ @ @ < P O.O.O.O.o.O.O.O.O.O.O.U.O.O.P @ @ @ @ + . = #.i.~.~.~.~.~.~.~.",
"~.~.~.~.~.~.~.~.#.p c 2.2.2.2.1.c 8 8 8 8 8 8 8 8 8 8 8 8 8 8 z 1.2.2.2.1.z * #.~.~.~.~.~.~.~.~.",
"~.~.~.~.~.~.~.~. .* Z x.c.m.V.V.g.S V V V V V V V V V V V V S g.V.V.m.c.x.Z - X.~.~.~.~.~.~.~.~.",
"~.~.~.>.:.:.#.-.) & Z c.m.Z.H.H.F.Z.m.x.x.k.x.x.x.k.x.x.k.m.A.G.H.H.Z.m.c.Z & | $.$.$.$.~.~.~.~.",
"~.~.:.:.-.%.w ! ) & Z m.Z.H.H.H.H.H.G.F.F.D.F.F.F.F.D.F.D.F.H.H.H.H.H.Z.m.Z & ) U p %.-.:.:.~.~.",
"~.~.:.;.) d z m p X Z m.F.H.H.H.H.H.H.H.H.H.H.H.H.H.H.H.H.H.H.H.H.H.H.G.m.Z X y m z d ) -.:.~.~.",
"~.~.>.;.s 1 3.S , + D m.D.H.H.H.H.H.H.H.G.H.H.H.H.H.H.H.H.H.H.H.H.H.H.D.m.S + , D 3., s :.:.~.~.",
"~.~.>.>.s , g.x.j.3.h.c.M.S.H.H.H.H.H.A.V.G.H.H.H.H.G.V.S.H.H.H.H.H.A.M.m.h.3.k.x.g., s :.~.~.~.",
"~.~.~.>.d , g.B.Z.V.M.m.V.Z.S.H.H.H.A.Z.V.A.F.H.H.G.Z.V.Z.S.H.H.H.S.C.B.m.M.V.Z.B.g., U :.~.~.~.",
"~.~.~.>.~ 3 2.k.M.S.Z.B.F.Z.B.D.H.S.V.Z.F.B.Z.H.G.Z.V.F.A.V.D.G.D.V.Z.F.B.Z.S.M.k.1.3 U ~.~.~.~.",
"~.~.~.~.$.^ 7 <.m.B.Z.G.H.G.A.V.N.B.S.H.H.F.C.N.N.C.F.H.G.A.V.N.V.A.H.H.F.Z.V.m.<.7 ^ ;.~.~.~.~.",
"~.~.~.~.>.$.! c F F j.Z.Z.F.H.Z.V.Z.G.H.H.H.D.C.V.S.H.H.H.H.Z.V.C.G.F.S.Z.h.F F c U ;.~.~.~.~.~.",
"~.~.~.~.~.~.>.! < ; A h.j.m.C.S.F.F.G.G.G.G.F.F.F.F.G.G.G.G.F.F.F.A.m.j.h.Z O @ ! $.~.~.~.~.~.~.",
"~.~.~.~.~.~.>.$._ | b 5 5 6 C x.V.V.V.B.B.V.V.V.V.V.V.V.V.V.V.V.k.C 6 5 5 + % ~ $.~.~.~.~.~.~.~.",
"~.~.~.~.~.~.~.~.:.^ ` ,.,.` ! A F F F F F F F F F F F F F F F F A p t t t = % #.>.~.~.~.~.~.~.~.",
"~.~.~.~.~.~.~.~.#.w a.#X#XOX!.9 O & & % & & & & & & & & & & & X * Q O.O.O.u - #.~.~.~.~.~.~.~.~.",
"~.~.>.>.>.~.~.~.%.& J.#X#X@X(.9 q W W W W W W W W W W W W W W q $ o.Y.R.Y.K = #.>.~.~.~.~.~.~.~.",
"~.~.>.>.~.~.~.~.-.a ,.J.@XoX(.9 J U.Y.Y.Q.Q.Q.W.Q.Q.Q.Q.Q.E.Y.T t L Q U.T K ! $.~.~.~.~.~.~.~.~.",
"~.~.~.|.~.~.~.~.>.-.U p ].[.!.8 J Y.Y.^.{.{.{.{.'.{.{.{.{.).Y.+.( % u W 8 U $.~.~.~.~.~.>.|.~.~.",
"~.~.~.~.~.~.~.~.>.-.s 8 !.).U.= J Y.Y.^.{.{.{.{.{.{.{.{.{.{.E.=.6.< # = X U >.~.~.~.>.>.>.~.~.~.",
"~.~.~.~.~.~.~.~.:.-.! a [ Q J # b u.u.u.s.s.d.d.d.d.d.d.d.s.u.B v O o ; . s >.~.~.~.~.~.~.~.~.~.",
":.:.:.:.:.:.:.:.-.-.%.) 0 - = X c 4.4.4.5.r.l.l.l.l.l.l.l.e.4.v O   : g o s :.>.~.~.~.~.~.~.~.~.",
"-.-.-.-.-.-.-.&.&.-.&.&.) ! / R b 4 4 4 4 k l l k k l k l k 6 r y X > g o s ;.>.~.~.~.~.~.~.~.~.",
"&.&.&.&.&.&.&.&.&.&.&.&.&.&.&.%.Y p e &     % w X o : : : ; O e I X : h o y $.$.~.~.~.~.~.~.~.~.",
"&.&.&.&.&.%.} %.%.%.&.&.&.&.&.%.| { ) i X X y I X : h h h g O 0 I = > g o s ..@.$.$.$.$.$.$.>.$.",
"&.&.&.&.&.%.} } } %.&.&.&.&.%.} { { { R P Y ( R % > j j j h o 0 E P w ; i ( } ....} ....X.@.-.;.",
"&.&.&.&.&.%.} ( [ } &.&.&.&.%.) ( ( ( ( ( ( ( I e 2 f f f > 9 P E E J e I ( ( ( ] ( [ ( { ..&.&.",
"&.&.&.&.%.%.} ( { } %.&.&.%...[ ( ( E ( ( ( ( ( R w . .   X I E [ E E E E ( ( E ( ( ( ( { ..&.&."
};
