/* XPM */
static char *result[] = {
/* columns rows colors chars-per-pixel */
"48 48 198 2 ",
"   c #040202",
".  c #0B0304",
"X  c #08010A",
"o  c #140103",
"O  c #190104",
"+  c #140B02",
"@  c #1C0C02",
"#  c #1A050B",
"$  c #1E140A",
"%  c #130513",
"&  c #150A13",
"*  c #190C14",
"=  c #12041B",
"-  c #17091B",
";  c #1B0A1B",
":  c #1E1115",
">  c #230407",
",  c #3B0002",
"<  c #271E03",
"1  c #27180C",
"2  c #261516",
"3  c #2D1C12",
"4  c #321E19",
"5  c #342A01",
"6  c #38260A",
"7  c #372216",
"8  c #140125",
"9  c #1A0625",
"0  c #1D0728",
"q  c #1D0432",
"w  c #22092D",
"e  c #290B29",
"r  c #2D1425",
"t  c #3E1D2C",
"y  c #230437",
"u  c #250A33",
"i  c #230439",
"p  c #2B0C3B",
"a  c #310D3B",
"s  c #2E1134",
"d  c #2E103A",
"f  c #34123B",
"g  c #371538",
"h  c #440000",
"j  c #560001",
"k  c #5E0000",
"l  c #680000",
"z  c #750000",
"x  c #50390E",
"c  c #4D2D1A",
"v  c #542E11",
"b  c #733E18",
"n  c #441D3C",
"m  c #46252A",
"M  c #483120",
"N  c #5C3728",
"B  c #492533",
"V  c #542B38",
"C  c #603A33",
"Z  c #534102",
"A  c #5A4700",
"S  c #634E01",
"D  c #674E09",
"F  c #715006",
"G  c #755D02",
"H  c #795E05",
"J  c #67452A",
"K  c #754A29",
"L  c #764A28",
"P  c #764E31",
"I  c #7A5335",
"U  c #2A0444",
"Y  c #2E0B41",
"T  c #2E044C",
"R  c #330D43",
"E  c #30064D",
"W  c #3C1442",
"Q  c #391347",
"!  c #2E0350",
"~  c #330554",
"^  c #350655",
"/  c #3B1154",
"(  c #3F125B",
")  c #3A0463",
"_  c #3B0665",
"`  c #451A47",
"'  c #42164C",
"]  c #461754",
"[  c #4C1955",
"{  c #41135D",
"}  c #531B5B",
"|  c #692B41",
" . c #41056C",
".. c #461661",
"X. c #491762",
"o. c #4C1A64",
"O. c #541D64",
"+. c #5C1D66",
"@. c #531C69",
"#. c #5D1E6B",
"$. c #450575",
"%. c #470578",
"&. c #4A067E",
"*. c #56107D",
"=. c #611F6C",
"-. c #681D6B",
";. c #631B7A",
":. c #562066",
">. c #5B226D",
",. c #642374",
"<. c #692276",
"1. c #6C247B",
"2. c #72247E",
"3. c #7D327F",
"4. c #71414C",
"5. c #8A500C",
"6. c #955B03",
"7. c #886E00",
"8. c #927401",
"9. c #977A01",
"0. c #9D7D00",
"q. c #84532D",
"w. c #8D613D",
"e. c #996336",
"r. c #AE6530",
"t. c #B9753E",
"y. c #C26F16",
"u. c #CA7418",
"i. c #D67633",
"p. c #E07C36",
"a. c #843B40",
"s. c #893B50",
"d. c #9F4E42",
"f. c #B95B57",
"g. c #9F4376",
"h. c #A24966",
"j. c #B45271",
"k. c #C17A40",
"l. c #C96751",
"z. c #A48200",
"x. c #A98900",
"c. c #B38E00",
"v. c #B99600",
"b. c #BC9500",
"n. c #C39C00",
"m. c #C99F00",
"M. c #E78A0E",
"N. c #EE9202",
"B. c #FE9F01",
"V. c #F6950C",
"C. c #CDA400",
"Z. c #D1A700",
"A. c #D4AC00",
"S. c #D9AF00",
"D. c #D6B200",
"F. c #DCB200",
"G. c #FEA001",
"H. c #E1B700",
"J. c #E4BA00",
"K. c #E9BE00",
"L. c #EDC300",
"P. c #F1C700",
"I. c #F4CA00",
"U. c #F8CF00",
"Y. c #FED500",
"T. c #CE8244",
"R. c #D88948",
"E. c #D4925A",
"W. c #E08E4B",
"Q. c #E6924D",
"!. c #EB954E",
"~. c #D1856E",
"^. c #EFA26A",
"/. c #4F0685",
"(. c #500687",
"). c #500985",
"_. c #510688",
"`. c #570C8D",
"'. c #580C8F",
"]. c #5B1283",
"[. c #560990",
"{. c #5A0B94",
"}. c #5D0C99",
"|. c #752582",
" X c #6713A3",
".X c #6812A6",
"XX c #6D14AD",
"oX c #6F15B0",
"OX c #7216B4",
"+X c #7419B3",
"@X c #7416B9",
"#X c #7819BC",
"$X c #7D1CC3",
"%X c #8427A2",
"&X c #8727AB",
"*X c #8E2CAC",
"=X c #8624B7",
"-X c #8221B9",
/* pixels */
"|.|.|.|.|.|.|.|.1.>.>.>.>.>.@.X.( ( ( ( ( ( Y - - Q >.>.>.>.>.>.,.1.[ s } W s :.[ s -.|.|.|.|.|.",
"|.|.|.|.|.|.|.|.|.,.>.>.>.>.@.X.( ( ( ../ Y q i i Y Q :.>.>.>.>.:.[ V N B V N ` V N ` +.|.|.|.|.",
"|.|.|.|.|.|.2.1.1.,.,.,.,.>.>.@.o.( ..( R 9 E ).).! 0 ] >.>.>.,.O.; L t.c I t.c P t.7 ` 2.|.|.|.",
"|.|.|.|.|.1.1.,.,.1.1.,.|.1.,.>.@.@.( U 9 ^ `.OX@X`.^ 0 Q >.,.1.} - L R.t.T.W.t.T.i.3 f 2.|.|.|.",
"|.|.|.|.|.1.,.>.,.1.|.|.|.|.1.,.>.o.R q E `.oX$X$XoX`.E Y ` >.|.+.- L Q.!.!.!.!.Q.k.3 W 2.|.|.|.",
"|.|.|.|.|.1.1.<.,.1.|.|.|.1.<.<.>.( 9 E `.#X$X$X$X$X+X`.E 0 :.1.+.- L !.!.!.!.!.Q.k.3 W 2.|.|.|.",
"|.|.|.|.|.|.1.1.|.|.|.1.,.,.,.<.' 0 ^ `.+X$X$X$X$X$X$X+X`.^ w ] #.- K Q.!.!.!.!.!.k.3 Q 2.|.|.|.",
"|.|.|.|.|.|.|.|.|.|.|.|.,.>.#.] R E `.OX$X$X$X$X$X$X$X$XoX`.E R W & K !.!.!.!.!.!.k.3 Q 2.|.|.|.",
"|.|.|.|.|.|.|.|.|.|.|.2.<.>.[ ; a ;.+X$X$X$X$X$X$X$X$X$X$X+X;.d X   L W.!.!.!.!.Q.t.3 W |.|.|.|.",
"|.|.|.|.|.|.|.|.|.|.|.2.2.] ; . v d.&X$X$X$X$X$X$X$X$X$X$X&Xd.c     J T.!.!.!.Q.R.r.2 W 2.|.|.|.",
"|.|.|.|.|.|.|.|.;.[ ' ' ' R i y b y.j.j.j.j.j.j.j.j.j.j.j.f.y.L y y B K q.q.e.R.R.e.1 W 2.|.|.|.",
"|.|.|.|.|.|.|.1.} w = = = E &.).s.u.M.V.V.V.V.V.V.V.V.V.V.M.y.s.).&.T # & * c r.k.e.1 W 2.|.|.|.",
"|.|.|.|.|.|.2.[ e ^ ) ) ) &.[.XX%Xg.u.N.B.G.G.G.G.G.G.B.N.u.g.%XXX[.%.) ) ) E m q.e.3 g 2.|.|.|.",
"|.|.|.|.|.1.[ R T &././.(.[..X#X$X=Xh.f.l.l.l.l.l.l.l.l.f.h.&X#X#X.X{.(.(.(.%.U B N n } |.|.|.|.",
"|.|.|.|.|.,.e U $././.(.(..X#X$X$X#X=X=X-X=X=X=X=X=X=X=X-X-X-X$X$X#X.X_.(.(.).$.p r #.2.|.|.|.|.",
"|.|.|.|.|.|.+.R y $.(.(.(..X$X$X$X$X$X$X$X$X$X$X$X$X$X$X$X$X$X$X$X$X.X(.(.(.$.i R =.2.2.|.|.|.|.",
"|.|.|.|.|.|.2.} a T  .(.).}.oX$X$X$X$X$X$X$X$X$X$X$X$X$X$X$X$X$X#XoX}.&.^ T R m B [ 1.|.|.|.|.|.",
"|.|.|.|.|.|.|.2.+.e T %.%.%.). X+X#X#X#X@X#X#X#X#X#X#X#X#X#X#X+X X).%._ = X 1 I N r -.2.|.|.|.|.",
"|.|.|.|.|.|.|.|.2.+.R 8 8 8 8 q _ }.}.}.}.}.}.}.}.}.}.}.}.}.}._ 0 8 8 =       3 n +.1.|.|.|.|.|.",
"|.|.|.|.|.|.|.|.1.[ M Z Z Z Z Z m T ~ E ! ! ! T ! ! ! ! ! ! T m x Z Z Z x <     f |.|.|.|.|.|.|.",
"|.|.|.|.|.|.|.|.+.; S b.v.v.n.b.G 1 $ $ $ $ $ $ $ $ $ $ $ $ < G b.n.b.v.b.A     W 2.|.|.|.|.|.|.",
"|.|.|.|.|.|.|.|.+.- S n.C.F.P.P.D.c.9.8.8.8.8.8.8.8.8.8.8.9.c.D.P.I.F.C.C.S     W 2.|.|.|.|.|.|.",
"|.|.|.|.|.<.[ +.+.- S m.F.P.Y.Y.Y.U.F.F.F.D.F.F.D.F.F.F.F.F.U.Y.Y.Y.L.F.C.A     e [ 1.|.|.|.|.|.",
"|.|.|.2.<.} 2 n ] & S C.U.Y.Y.Y.Y.Y.Y.Y.Y.Y.Y.Y.Y.Y.Y.Y.Y.Y.Y.Y.Y.Y.Y.I.Z.S     + 2 } ,.1.|.|.|.",
"|.|.2.,.' 4 H x * . S Z.U.Y.Y.Y.Y.Y.Y.Y.Y.Y.Y.Y.Y.Y.Y.Y.Y.Y.Y.Y.Y.Y.Y.Y.C.S     x G 4 ` ,.1.|.|.",
"|.|.1.,.s < z.0.S Z 7.C.F.I.Y.Y.Y.Y.Y.I.L.Y.Y.Y.Y.Y.Y.L.I.Y.Y.Y.Y.Y.I.H.C.7.A S 8.z.< d ,.1.|.|.",
"|.|.2.,.f < z.S.J.C.n.C.A.K.U.Y.Y.Y.Y.J.F.I.U.Y.Y.Y.P.S.J.Y.Y.Y.Y.U.J.Z.m.n.C.H.D.z.< f ,.1.|.|.",
"|.|.|.1.f < z.C.F.L.F.C.L.F.F.U.Y.Y.F.F.L.F.L.Y.Y.L.D.L.F.F.Y.Y.Y.F.H.K.C.F.L.F.Z.z.< f 1.|.|.|.",
"|.|.|.|.} m D 0.Z.J.J.J.U.L.F.K.L.K.F.L.U.J.J.K.K.J.J.Y.P.F.L.L.J.H.P.U.J.H.H.C.z.D t } |.|.|.|.",
"|.|.|.|.|.:.r D x.c.S.I.U.Y.I.D.Z.D.I.Y.Y.Y.K.Z.Z.J.Y.Y.Y.I.D.C.D.I.Y.I.I.S.c.c.A r :.|.|.|.|.|.",
"|.|.|.|.|.;.+.m 5 5 7.S.F.L.Y.P.L.I.Y.Y.Y.Y.Y.L.L.Y.Y.Y.Y.Y.I.L.I.Y.L.S.S.7.5 5 B :.2.|.|.|.|.|.",
"|.|.|.|.|.|.|.} g g c G G 7.x.D.L.K.K.L.K.K.K.K.K.K.K.K.K.K.K.L.D.x.7.H H D J J V [ 1.|.|.|.|.|.",
"|.|.|.|.|.|.|.|.2.=.g * * * 6 9.c.c.c.c.c.c.c.c.c.c.c.c.c.c.c.c.9.6 $ & * P E.E.P 0 =.|.|.|.|.|.",
"|.|.|.|.|.|.|.|.-.a p ^ ) ) E 7 5 5 5 5 5 5 5 5 5 5 5 5 5 5 5 5 4 ^ ) ) _ W J E.I : +.|.|.|.|.|.",
"|.|.|.|.|.|.|.|.=.; B %X]./. .- = y y y y y y y y y y y y y y = =  .(.(./.U : P C ` ,.|.|.|.|.|.",
"|.|.|.|.|.|.|.|.+.; I ~.3.*._ 8 U &./.).(.(.).).).(.(./.).(.&.U 8 ) &.(./.U   + W 1.|.|.|.|.|.|.",
"|.|.|.|.|.|.|.|.+.- I ^.~.4.q ^ %.[.XXOXOXOXOX@XOXOXOXOXOX.X[.%.~ y ~ (.(.U     W |.|.|.|.|.|.|.",
"|.|.|.|.|.|.|.|.<.` C w.w.M * | -.'.@X$X$X$X$X$X$X$X$X$X$X@X'.-.| # q ! ~ e > . W |.|.|.|.|.|.|.",
"|.|.|.|.|.|.|.|.|.,.W 2 2 & 1 5.a.;.%X*X*X*X*X*X*X*X*X*X*X%X;.a.5.1 % % X , j O W 2.|.|.|.|.|.|.",
"|.|.|.|.|.|.|.|.1.1.O.[ [ } ` 7 b r.i.p.p.p.p.p.p.p.p.p.p.i.r.b 6 f R R % , k O W 2.|.|.|.|.|.|.",
"|.|.|.|.|.|.|.|.1.,.>.,.<.2.>.g c F 6.6.6.6.6.6.6.6.6.6.6.6.F c s ] { ] % , k O f |.|.|.|.|.|.|.",
",.|.,.|.,.1.1.|.,.,.>.,.,.1.,.>.g + O > @ @ + 1 1 + @ @ > @ @ s { { { / % , k O W 2.|.|.|.|.|.|.",
">.,.,.,.,.,.>.,.,.>.>.>.,.,.,.>.d o h j h . e Q Q 9 . h j h + u { X.{ / % , j O W |.|.|.|.|.|.|.",
">.>.>.>.>.>.>.>.>.>.>.>.>.>.>.:.s O k z k O s @.{ u o k z k O 0 ( { ( / % h l O f 2.|.|.|.|.|.|.",
">.>.>.>.>.>.@.@.:.:.>.>.>.>.>.@.a # j l j # d o.{ u # j l j # q ( { ( / ; , j # a ;.;.;.;.;.2.1.",
">.>.>.>.>.@.@.X.o.@.>.>.>.>.:.o./ p > > > p ] { { / a > O * d / ( { ( ( R e > R { @.O.@.@.#.,.,.",
">.>.>.>.>.@.o.( X.@.>.>.>.>.@.X.( / w 0 u / { { ..( / u 9 u ( ( ( { { ( ( Y w / { { { { X.o.>.>.",
">.>.>.>.>.@.o.( ..@.>.>.>.>.@.X...( / / / ( _ ( ( ( ( / / ( ( ( { ( { { { ( / { { { { { ..O.>.>."
};
