/* XPM */
static char *result[] = {
/* columns rows colors chars-per-pixel */
"48 48 214 2 ",
"   c #030201",
".  c #0A0503",
"X  c #0B030B",
"o  c #0E0809",
"O  c #150101",
"+  c #1A0201",
"@  c #140D07",
"#  c #181108",
"$  c #0E0315",
"%  c #140615",
"&  c #180917",
"*  c #11031B",
"=  c #18071B",
"-  c #1B0A1A",
";  c #181718",
":  c #2F0101",
">  c #350206",
",  c #3C0001",
"<  c #251D03",
"1  c #2A1B02",
"2  c #27180D",
"3  c #331F01",
"4  c #230415",
"5  c #241912",
"6  c #2C1C13",
"7  c #311C19",
"8  c #2B2202",
"9  c #342201",
"0  c #342B00",
"q  c #2E2318",
"w  c #322215",
"e  c #190626",
"r  c #1E0A25",
"t  c #1F0331",
"y  c #250C2B",
"u  c #2D0F2E",
"i  c #371A29",
"p  c #250B33",
"a  c #290B36",
"s  c #2E1137",
"d  c #351635",
"f  c #34123C",
"g  c #2D2720",
"h  c #2F2821",
"j  c #342D24",
"k  c #352F3A",
"l  c #4D0003",
"z  c #510103",
"x  c #5E0000",
"c  c #600000",
"v  c #740000",
"b  c #563A05",
"n  c #463014",
"m  c #4D3814",
"M  c #53371B",
"N  c #663B09",
"B  c #461F24",
"V  c #431D39",
"C  c #4D292A",
"Z  c #593627",
"A  c #643E26",
"S  c #793E24",
"D  c #594309",
"F  c #524011",
"G  c #624D01",
"H  c #664E0A",
"J  c #675101",
"K  c #695404",
"L  c #785E02",
"P  c #6F511A",
"I  c #7C640A",
"U  c #56422E",
"Y  c #53483B",
"T  c #664529",
"R  c #714826",
"E  c #754A28",
"W  c #765031",
"Q  c #290543",
"!  c #2A0443",
"~  c #320E46",
"^  c #3B1342",
"/  c #39124D",
"(  c #320552",
")  c #38075B",
"_  c #3A1251",
"`  c #3F125C",
"'  c #3A2E42",
"]  c #3D0864",
"[  c #45164D",
"{  c #46184B",
"}  c #451755",
"|  c #451953",
" . c #40125D",
".. c #4C1A5A",
"X. c #521B5A",
"o. c #42056E",
"O. c #461564",
"+. c #491762",
"@. c #4D1A64",
"#. c #531D63",
"$. c #591D64",
"%. c #541C69",
"&. c #5E1E69",
"*. c #460675",
"=. c #4A087B",
"-. c #4C1373",
";. c #5B1974",
":. c #621F6C",
">. c #6B1F6C",
",. c #631D75",
"<. c #5B226D",
"1. c #64206F",
"2. c #70226B",
"3. c #642374",
"4. c #6A2276",
"5. c #6C247B",
"6. c #72247E",
"7. c #735552",
"8. c #564463",
"9. c #614971",
"0. c #656565",
"q. c #7D7D7C",
"w. c #8E4E19",
"e. c #836902",
"r. c #8E7501",
"t. c #997A00",
"y. c #A66404",
"u. c #BB691F",
"i. c #885630",
"p. c #AA5835",
"a. c #8F633C",
"s. c #9C6435",
"d. c #B1703C",
"f. c #CE7A0F",
"g. c #853757",
"h. c #954350",
"j. c #AE564F",
"k. c #8B6A4A",
"l. c #A67345",
"z. c #BE7941",
"x. c #A64C65",
"c. c #BA5864",
"v. c #C27C41",
"b. c #C97F42",
"n. c #9A8101",
"m. c #A48100",
"M. c #A98A00",
"N. c #B38E00",
"B. c #B59201",
"V. c #B89700",
"C. c #D18006",
"Z. c #C69D00",
"A. c #F19401",
"S. c #FE9D01",
"D. c #E0821A",
"F. c #CCA500",
"G. c #CBA800",
"H. c #D2AA00",
"J. c #DEB600",
"K. c #E3BB00",
"L. c #E68425",
"P. c #ECC300",
"I. c #F2C900",
"U. c #BC8D62",
"Y. c #D78848",
"T. c #C68955",
"R. c #C78C59",
"E. c #D79155",
"W. c #E08E4B",
"Q. c #E5914C",
"!. c #EB954E",
"~. c #CF8F67",
"^. c #EFA566",
"/. c #F4A868",
"(. c #E8AB76",
"). c #F7B376",
"_. c #4E0683",
"`. c #530989",
"'. c #570990",
"]. c #5A0C93",
"[. c #5B1190",
"{. c #65169C",
"}. c #752582",
"|. c #702C89",
" X c #6612A4",
".X c #6814A4",
"XX c #6A14A8",
"oX c #6C14AB",
"OX c #7417B6",
"+X c #7A1ABD",
"@X c #7E1CC3",
"#X c #882C94",
"$X c #9533A0",
"%X c #872BB2",
"&X c #995089",
"*X c #A04183",
"=X c #B370B4",
"-X c #8F34C1",
";X c #848384",
":X c #9A999A",
">X c #AAA8AB",
",X c #D3AF88",
"<X c #CEB291",
"1X c #D1B593",
"2X c #D7BA97",
"3X c #DFB6AA",
"4X c #E2B4B3",
"5X c #F9C18C",
"6X c #F9C694",
"7X c #FAD3A9",
"8X c #FEDCB3",
"9X c #CDCDCD",
"0X c #E3E4E3",
"qX c #F6F7F6",
/* pixels */
"}.}.}.}.}.}.6.^ - X.f - ..s & _ `  .`  . . . ...@.<.<.<.<.<.<.<.3.3.}.5.3.<.3.5.}.}.}.}.}.}.}.}.",
"}.}.}.}.}.4.} Z A V C T d C A i ~ `  . . .` ~ p p | <.<.<.<.<.<.3.5.}.5.3.<.3.3.}.}.}.}.}.}.}.}.",
"}.}.}.}.}.&.- E z.M w.v.M i.d.w p  . . . ._ p * * f ..<.<.<.3.3.3.5.5.5.3.3.5.}.}.}.}.}.}.}.}.}.",
"}.}.}.}.}.&.- E Y.Y.Y.W.Y.Y.v.6 s +.+. ._ e Q o.o.Q y #.<.3.3.5.5.3.3.5.5.5.5.}.}.}.}.}.}.}.}.}.",
"}.}.}.}.6.$.- E !.!.!.!.!.!.v.6 s @.+.~ p Q *. X X=.! s | <.5.6.5.3.1.3.5.}.}.}.}.}.}.}.}.}.}.}.",
"}.}.}.}.}.$.- E !.!.!.!.!.!.v.6 f #._ p t =.oX@X+XoX=.p f <.5.}.5.5.3.3.6.}.}.}.}.}.}.}.}.}.}.}.",
"}.}.}.}.}.$.- E Q.!.!.!.!.!.z.6 f ..e Q =.oX+X@X@X+XoX=.! y <.6.}.5.5.5.6.}.}.}.}.}.}.}.}.}.}.|.",
"}.}.}.}.6.:.- E !.!.!.!.!.!.v.6 - f ! =.oX+X@X@X@X@X+XoX*.! ^ $.}.}.}.}.}.}.}.}.}.}.}.}.}.}.}.}.",
"}.}.}.}.6.:.- R W.Q.!.!.!.Q.z.6 X t =. X@X@X@X@X@X@X@X@XoX=.p ~ :.6.}.}.}.}.}.}.}.}.}.}.}.}.}.}.",
"}.}.}.}.6.:.- T Y.W.!.!.!.Y.s.5 t =.oX@X@X@X@X@X@X@X@X@X+XoX=.! y ,.}.}.}.}.}.}.}.}.}.}.}.}.}.}.",
"}.}.}.}.6.:.- Z v.Q.W.Y.Q.Y.s.2 B g.%X@X@X@X@X@X@X@X@X@X%X%Xg.B X s $.}.}.}.}.}.}.}.}.}.}.}.}.}.",
"}.}.}.}.6.:.- A v.Y.Y.b.Y.Y.s.2 N u.*X$X$X$X$X$X$X$X$X$X$X*Xu.N $ * ^ &.:.:.:.6.}.}.}.}.}.}.}.}.",
"}.}.}.}.}.>.- A d.Y.v.v.b.v.s.5 N f.D.D.L.L.L.L.L.L.f.b.b.f.f.h.o.o.! = = = u :.}.}.}.}.}.}.}.}.",
"}.}.}.}.}.5.[ C R d.z.z.v.i.Z } 2.j.D.A.S.S.S.S.S.S.S.S.A.f.c.g. X X*.! ! ! ! ~ :.}.}.}.}.}.}.}.",
"}.}.}.}.}.}.6.[ 7 i.s.s.s.Z ~ .X+X#Xp.f.D.D.L.f.L.D.f.f.f.p.#X%X@X@XoX'._._.o.p ^ :.6.}.}.}.}.}.",
"}.}.}.}.}.}.}.4.X.7 2 2 5 } .X+XoX'.,.:.2.2.2.2.2.2.2.>.,.,.].oX@X@X+XoX'.`._.o.! u 3.}.}.}.}.}.",
"}.}.}.}.}.}.6.$.d Z T R T { O.{.].=.( ! ! ! ! ! ! ! ! ! ! ( =.]..X.X X X'._.=.( ! [ ,.}.}.}.}.}.",
"}.}.}.}.}.}.6.[ i i.d.d.s.n * ) o.) 5 @ . 2 6 6 q 6 5 . @ 6 ) o.o.o.] *.*.] ) y [ }.}.}.}.}.}.}.",
"}.}.}.}.}.}.}.4.X.7 2 2 2 @   $ * 6 e.b 6 l.T.T.T.T.l.5 b e.7 * * * * $ * * e ..,.}.}.}.}.}.}.}.",
"}.}.}.}.}.}.}.}.:.% : : . 0 J D G G G P a.E././././.E.k.P G G G G J D b o r [ 5.}.}.}.}.}.}.}.}.",
"}.}.}.}.}.}.}.6.$.& , x + K F.F.N.e.< T R.(.).).).).(.~.T < e.B.F.F.Z.m.b V :.6.}.}.}.}.}.}.}.}.",
"}.}.}.}.}.}.}.}.$.= , x @ I I.I.r.<   # U ,X7X7X7X7X,XU @   < r.I.I.J.Z.n.D u :.}.}.}.}.}.}.}.}.",
"}.}.}.}.}.}.}.6.$.% , x + e.P.n.I A &   j 1X8X8X8X8X<Xh   @ T I n.P.I.K.Z.G & <.}.6.6.}.}.}.}.}.",
"}.}.}.}.5.4.<.1.#.% , x @ K M.D k.R.q   q 2X8X8X8X8X<Xh   7 R.k.F V.G.H.F.K & #.4.:.4.5.6.6.}.}.",
"}.}.6.5.3.<.y f | & , x O # m l.(.,Xh   h 1X8X8X8X8X1Xh   q ,X(.l.b 0 D G.I ; | ^ y <.3.5.5.}.}.",
"}.}.5.3.| i b m y X , x O   w T.5X1Xh   h 1X8X8X8X8X1Xq   h <X6XT.6 0 e.K.I o y m D i | 3.5.}.}.",
"}.}.5.3.f < t.I 8   , x O   6 R.5X2XY q Y 2X8X8X8X8X2XY g Y 2X5XT.w G F.I.n.8 8 L t.< f 3.6.}.}.",
"}.}.}.5.f < m.F.M.8 , x O   w T.5X7X2X<X1X8X8X8X8X8X7X2X<X1X7X5XT.7 J F.I.H.M.Z.F.m.< f 5.}.}.}.",
"}.}.}.6.^ < m.H.V.8 , x O 0 K W U.6X8X8X8X8X8X8X8X8X8X8X8X7X6XU.W H t.F.I.I.K.K.H.m.1 ^ 5.}.}.}.",
"}.}.}.6.{ w r.B.m.1 : z . D I 8 U ~.,X1X1X2X1X1X1X1X1X1X1X<X~.T < e.N.F.I.I.K.H.B.e.7 { 6.}.}.}.",
"}.}.}.}.,.X.7 L t.8 X O   # # . # q j j j j j j j j j j j j q # . < L Z.H.H.F.Z.L w X.4.}.}.}.}.",
"}.}.}.}.}.>.{ Z H W W T f a Q Q * ; 0.q.q.q.q.q.q.;Xq.q.q.0.; e ! a B J J J K K M { 4.}.}.}.}.}.",
"}.}.}.}.}.}.6.f w T.^.b.}.`._._.( k >X0XqXqX0X9X9X0XqXqX0X>X' ( `.'.( $ . X - - { 6.}.}.}.}.}.}.",
"}.}.}.}.}.}.6.{ 7 T./.~.|.'.'._.*.] ' :XqXqX:Xk k :XqXqX:X' ] [.OXOX].) $ s $.:.4.6.}.}.}.}.}.}.",
"}.}.}.}.}.}.}.$.V W W 7.=._._.( ] =.( <.;X;X9.` ` 9.;X;X8.Q Q [.@X@XOX_.e f 6.}.6.}.}.}.}.}.}.}.",
"}.}.}.}.}.}.}.}.>.- @ 4 ] _.] * Q _.`.] e e -.+X+X-.p r ) ] * @.-X-X-X{.e ^ 6.}.}.}.}.}.}.}.}.}.",
"}.}.}.}.}.}.}.}.&.= : l 4 ( ] * a '.oXoX X XOX@X@XOX{.{.[.] = 7.4X4X=XoXt ~ 6.}.}.}.}.}.}.}.}.}.",
"}.}.}.}.}.}.}.}.&.= , x O e ! ! o.'.OX%X@X@X@X@X@X@X@X@XXX] ; 7.8X8X:X[.e ~ }.}.}.}.}.}.}.}.}.}.",
"}.}.}.}.}.}.}.}.$.- , x O   * ..=.].OX@X@X@X@X@X@X@X@X@XXX] e 0.3X3X&X` e [ 5.}.}.}.}.}.}.}.}.}.",
"}.}.}.}.}.}.}.}.$.& , x O   2 w.g.'.OX@X@X@X%X%X@X@X@X@X X] * _ |.|.| p } 3.}.}.}.}.}.}.}.}.}.}.",
"}.}.}.}.}.}.}.6.$.% , c + r i N S g.c.c.c.c.c.c.c.c.c.x.g.S N B ! ! a ~ %.}.}.}.}.}.}.}.}.}.}.}.",
"5.5.5.5.5.5.5.5.#.% , x + f #.y b y.f.f.C.C.C.f.C.f.f.y.y.y.y.b * $ a +.;.5.5.}.6.#X}.}.}.}.}.}.",
"3.3.3.3.3.3.3.3.X.% , x O s &...i 3 3 9 n 3 3 9 9 9 3 1 6 1 8 i / / _ @.&.3.3.5.6.}.}.}.}.}.}.}.",
"<.<.<.<.<.<.<.<...% , x + s <.<.s . : , , , + X r y y X   X r ~ ` ` ` +.@.<.3.5.6.}.}.}.}.}.}.}.",
"<.<.<.<.<.<.<.@.| y > z 4 f <.@.a + x v v v , % _ ` _ = % - _ ` ` ` O.O.+.%.%.;.,.3.,.3.,.5.5.5.",
"<.<.<.<.<.%.+.+.X.| u & ^ #.<.@.y O x v v v , % /  .` _ / _ ` ` ` ` ` ` +.+.+.%.%.-.%.%.&.;.3.3.",
"<.<.<.<.<.%.+. .+.%.{ f @.<.@.+.~ y > , , , 4 a _ ` `  . . . . .O.` ` ` `  .` O.`  .`  .+.%.<.<.",
"<.<.<.<.<.%.+.` +.%.<.<.<.<.%.+.` / = % X % p `  . . .`  . . . .`  . . . .` ` `  .` ` ` +.%.<.<."
};
