/* XPM */
static char *result[] = {
/* columns rows colors chars-per-pixel */
"48 48 210 2 ",
"   c #030202",
".  c #0C0703",
"X  c #0B0504",
"o  c #0B040B",
"O  c #1A0102",
"+  c #150C08",
"@  c #1A1307",
"#  c #0D0313",
"$  c #0E0119",
"%  c #130615",
"&  c #1A0B13",
"*  c #12031C",
"=  c #18091A",
"-  c gray11",
";  c #2D0101",
":  c #370206",
">  c #3B0000",
",  c #251A07",
"<  c #2A1A0F",
"1  c #2B1717",
"2  c #2D1D12",
"3  c #351214",
"4  c #311F12",
"5  c #2C2201",
"6  c #372001",
"7  c #2F2014",
"8  c #362415",
"9  c #1A0725",
"0  c #1C062A",
"q  c #1F0234",
"w  c #250924",
"e  c #220A2C",
"r  c #2A0F2B",
"t  c #301427",
"y  c #260837",
"u  c #2A0B3B",
"i  c #330E3A",
"p  c #2E1135",
"a  c #34123B",
"s  c #3A1838",
"d  c #312F2E",
"f  c #302F2F",
"g  c #5D0000",
"h  c #6C0000",
"j  c #4D2E0E",
"k  c #493A01",
"l  c #57350E",
"z  c #492A1A",
"x  c #52341D",
"c  c #6E3E0F",
"v  c #431C3B",
"b  c #502D2C",
"n  c #593825",
"m  c #4A2538",
"M  c #522D33",
"N  c #633C29",
"B  c #72362E",
"V  c #594406",
"C  c #5C4902",
"Z  c #664A01",
"A  c #6B5405",
"S  c #715307",
"D  c #7C6200",
"F  c #5F4229",
"G  c #764B28",
"H  c #6C4833",
"J  c #7A5535",
"K  c #2B0545",
"L  c #320C43",
"P  c #330E4C",
"I  c #3B1342",
"U  c #39144B",
"Y  c #330553",
"T  c #38085B",
"R  c #3B1154",
"E  c #3B1E50",
"W  c #3E125B",
"Q  c #3C3143",
"!  c #3D0567",
"~  c #43164A",
"^  c #551E43",
"/  c #431652",
"(  c #471853",
")  c #4A1953",
"_  c #41125D",
"`  c #4B1B5A",
"'  c #521B5B",
"]  c #543452",
"[  c #43096C",
"{  c #461661",
"}  c #491762",
"|  c #4D1965",
" . c #521D65",
".. c #571C65",
"X. c #531C69",
"o. c #5C1F6C",
"O. c #450673",
"+. c #490A76",
"@. c #500F7E",
"#. c #5D1E70",
"$. c #611F6B",
"%. c #621F75",
"&. c #671A7B",
"*. c #5B226D",
"=. c #5F2270",
"-. c #692A6E",
";. c #642374",
":. c #6A2176",
">. c #672178",
",. c #6C247B",
"<. c #71247E",
"1. c #7C6954",
"2. c #6E6A6F",
"3. c #77727B",
"4. c #843D3B",
"5. c #895303",
"6. c #925607",
"7. c #A95F19",
"8. c #866A02",
"9. c #897300",
"0. c #967900",
"q. c #87552F",
"w. c #885C37",
"e. c #A4533B",
"r. c #996234",
"t. c #A8652E",
"y. c #BA763E",
"u. c #C97909",
"i. c #C57119",
"p. c #893A56",
"a. c #9B3F7E",
"s. c #845F40",
"d. c #B95B58",
"f. c #8F6D4D",
"g. c #806E59",
"h. c #B47745",
"j. c #9F456F",
"k. c #BA5867",
"l. c #8A7660",
"z. c #C37C41",
"x. c #C2605B",
"c. c #A38100",
"v. c #AA8700",
"b. c #AC8B00",
"n. c #B89300",
"m. c #C49B00",
"M. c #C99E00",
"N. c #EA8E07",
"B. c #F69607",
"V. c #FB9B05",
"C. c #C7A200",
"Z. c #CCA300",
"A. c #D3A900",
"S. c #D4B300",
"D. c #DCB300",
"F. c #E0B700",
"G. c #E4BB00",
"H. c #DE8024",
"J. c #E3802C",
"K. c #EBC100",
"L. c #F4CB00",
"P. c #FED500",
"I. c #BD8351",
"U. c #D68847",
"Y. c #C78B56",
"T. c #CA8D58",
"R. c #DA975C",
"E. c #E7934D",
"W. c #EB954E",
"Q. c #C89160",
"!. c #F1A767",
"~. c #EAAF79",
"^. c #F5B276",
"/. c #4E0782",
"(. c #520B87",
"). c #560B8C",
"_. c #5A118F",
"`. c #5A0D93",
"'. c #65159D",
"]. c #752582",
"[. c #7E2C86",
"{. c #6611A3",
"}. c #6915A5",
"|. c #6B13AA",
" X c #7018AF",
".X c #7316B4",
"XX c #771AB5",
"oX c #7618B9",
"OX c #7A1BBC",
"+X c #7E1CC3",
"@X c #892B9D",
"#X c #811FBE",
"$X c #8526A9",
"%X c #843DA1",
"&X c #9230A5",
"*X c #8220BD",
"=X c #807F80",
"-X c #A56D9D",
";X c #AC779E",
":X c #B773BB",
">X c #A6A6A6",
",X c #F4BA82",
"<X c #FAC28D",
"1X c #F7C897",
"2X c #F9D4A8",
"3X c #F5D3B3",
"4X c #FCDBB2",
"5X c #C5C5C5",
"6X c gray84",
"7X c #F3F3F3",
/* pixels */
"].].].].].].].].o.r I ` r I ( 9 p W W W W W y $ % I *.*.*.*.*.*.;.,.<.,.;.*.;.,.].].].].].].].].",
"].].].].].].]...v N b s F b s N b u W W W y y K K u I *.*.*.*.*.;.,.].,.;.*.;.,.].].].].].].].].",
"].].].].].].,.a 4 y.q.x h.q.x z.G = P R L 9 Y ).(.Y 0 R *.=.*.=.;.,.,.,.,.;.,.,.].].].].].].].].",
"].].].].].<.:.a 2 y.U.z.E.U.z.U.G % P u 9 T `..X.X`.T 0 a *.;.,.,.;.;.;.;.,.,.].].].].].].].].].",
"].].].].].,.;.p < z.W.W.W.W.W.E.G o 0 y Y `..X+X+X.X`.Y u E $.].,.;.*.;.<.<.].].].].].].].].].].",
"].].].].].,.:.a 2 z.W.W.W.W.W.W.G X # Y `.oX+X+X+X+XoX`.Y 0 ` :.<.:.;.,.,.].].].].].].].].].].].",
"].].].].].].,.a 2 z.W.W.W.W.W.W.G # Y `.oX+X+X+X+X+X+XoX`.T e ( <.,.,.<.<.].].].].].].].].].].].",
"].].].].].].<.I 2 z.W.W.W.W.U.q.m Y _..X+X+X+X+X+X+X+XOX.X_.Y L ( :.].].].].].].].].].].].].].].",
"].].].].].].].I 2 h.U.z.z.U.r.< i &.XX+X+X+X+X+X+X+X+X+X+XXX&.i = ' &.<.].].].].].].].].].].].].",
"].].].].].].<.I < t.q.4 4 4 , . l e.&X+X+X+X+X+X+X+X+X+X+X$Xe.l o * ) <.<.<.<.].].].].].].].].].",
"].].].].].].].a & z v u T T T K B u.d.k.k.k.k.k.k.k.k.k.k.x.i.c K y K I ~ I ( &.].].].].].].].].",
"].].].].].].<.I X , i +.}.XX.X`.p.i.N.B.V.V.V.V.V.V.B.V.B.N.i.p.).).Y 9 % * e ' <.].].].].].].].",
"].].].].].].<.I & G b e @.|.+XoXXXa.i.N.V.V.V.V.V.V.V.V.N.i.@X@X.X.X`.! ! ! T 0 ( <.<.].].].].[.",
"].].].].].].<...v n N b L +.|.oX#X$Xj.d.x.x.x.x.x.x.x.x.d.j.$X*X+X+X.X{.{.`.+.Y L ) :.].].].].].",
"].].].].].].[.].$.t n G & y +.{. XoXXXOX#X#X*X*X*X*X*X*X*X#X#X+X+X+X+X+X+X{.(./.K = $.].].].].].",
"].].].].].].].].<.$.v , . o 9 0 T `.`.|.+X+X+X+X+X+X+X+X+X+X+X+X+X+X+X+X+X|.(./.K = $.].].].].].",
"].].].].].].].].,.) M x x < @ n m K K T [ { ).}.|..X+X+X+X+X+X+X+X+X.X}.|.`.O.Y K ~ &.].].].].].",
"].].].].].].].].$.r n r.r.x 7 I.s.1 o + , , a O.O.).}.}.}.}.}.}.}.}.).O.O.O.! w ~ <.<.].].].].].",
"].].].].].].].].<.$.v < < @ 7 Y.R.f.< k 0.0.V $ $ 9 0 0 0 0 0 0 0 0 9 * * 9 0 ' :.].].].].].].].",
"].].].].].].].].].<.I X ; O 2 Y.^.~.f.S A A C C C C C C C C C C C C C k + = U %.<.].].].].].].].",
"].].].].].].].].<.,.a O g > 7 Y.<X2X~.J . . V c.n.m.Z.Z.C.C.C.C.n.m.m.0., I <.].].].].].].].].].",
"].].].].].].].].<.:.i O g > 7 Y.<X2X2X1.    @ k b.D.L.L.L.L.L.D.M.M.M.c., s <.].].].].].].].].].",
"].].].].].].].].,.=.p O g > 7 Y.<X4X4Xg..   8 G A D 9.9.n.G.G.S.M.M.M.c.5 I :.) $.<.<.<.].].].].",
"].].].<.,.,.,.,.;.o.u O g : 2 Y.<X4X4Xg.    J Q.n @ . , D A.A.Z.Z.M.n.9.k s ) 1 v ..:.<.<.<.].].",
"].].,.,.;.;.;.;.#.| y O g > 2 Y.1X4X4X2.. . 1.<XQ.F @ D C.L.L.L.K.C.D V c.A 7 D V r *.;.,.,.].].",
"].].,.;.=.*.*.*.X.` e O g > 2 Y.1X4X4XQ.1.2.Q.2X^.J , c.D.P.P.P.G.8.A c.G.b.D b.C & ( *.;.,.].].",
"].].<.,.;.;.;.;.%.X.y O g > 2 h.~.4X4X4X3X3X2X1X^.J , c.D.P.P.P.S.C 0.L.L.S.C.n.A % ' ;.>.,.].].",
"].].].,.,.,.,.,.>.%.p O g > . 7 r.,X2X4X4X4X1X^.!.J 5 c.Z.D.L.P.L.S.K.L.S.C.C.C.A & *.,.,.].].].",
"].].].].].].].].<.<.s X ; O o p F f.l.l.l.l.g.w.w.8 + C 0.Z.D.K.G.G.G.F.Z.m.n.D x ~ :.<.].].].].",
"].].].].].].].].<.$.^ 1 2 + % ` Q f f f f f d d + o % = V v.v.v.v.b.v.v.v.v.9.8 U ,.<.].].].].].",
"].].].].].].].].;.p H I.I.F o = 2.5X5X5X5X5X5X>Xf P _.[ p 5 5 5 5 5 5 5 5 5 8 ^ :.].].].].].].].",
"].].].].].].].].$.= J !.!.J . o =X6X>X5X7X7X5X3.E /.OX|.[ q o   X 9 e y i a ~ :.].].].].].].].].",
"].].].].].].].].;.r J T.T.H   o 2.>X] 3.6X6X3.e ! _.+X+X{.! $   # R ` X.#.,.,.].].].].].].].].].",
"].].].].].].].].<.o.v 8 8 ,     - Q T E f f E Y 0 +.+X+X{.O.$   % ` X.o.>.].].].].].].].].].].].",
"].].].].].].].].].<.I X ; O     9 Y ).@.{ W @.(.0 ] :X:X%X[ #   = ` *.;.,.].].].].].].].].].].].",
"].].].].].].].].].].I O g :   o K )..X#X+XOXOX'.0 1.3X3X-XO.$ o 9 (  .;.>.].].].].].].].].].].].",
"].].].].].].].].].].I O g > # Y O.`.oX+X+X+X+X'.0 1.4X4X;X[ * y Y 0 I =.,.].].].].].].].].].].].",
"].].].].].].].].].<.I O g > % B :.`.oX+X+X+X+X'.e ] ;X;X-.K K ^ B & p =.,.].].].].].].].].].].].",
"].].].[.].].].].<.,.a O g > , 5.4.&.@X&X&X&X&X[.d i +.+.I 4 ' 4.5.1 a o.>.].].].[.].].].].].].].",
"].].].].].].].].,.>.a O g >   , S t.H.J.J.J.J.H.m.c * * l 6.7.c 3 U W X.;.].].].].].].].].].].].",
"].].].].].].].].,.;.p O g > o r z S 5.5.5.5.5.5.5.j     6 Z Z x u _ { X.#.].].].].].].].].].].].",
",.,.,.,.,.,.,.,.>.$.p O g > % ` a & & & & . . ; O X   o % & & a ` { W | #.,.,.<.].].].].].].].].",
";.;.;.;.;.;.;.;.;.*.p O g > % ' ` ` ` ` ~ % ; g g ; o U ` / W W { { _ } X.;.;.<.].].].].].].].].",
"*.*.*.*.*.*.*.*.*.*.~ r : 3 a  .*.*.*.*.) % > h h : # / o.X.| W { W W { X.*.>.&.].].].].].].].].",
"*.*.*.*.*.*.*.|  .*.*./ w a *.X.X.X.X.X.( 9 : h h : = R X.| W { W _ _ _ | X.X.#.#.&.%.%.&.&.,.,.",
"*.*.*.*.*.| | } }  .*.*.`  .*.| { { { } ` R w O O w U _ | | W W W ! _ _ { { | | | X.X.X.X.#.;.;.",
"*.*.*.*.*.*.} { }  .*.*.*.*.| } W { W W W W L 0 0 L _ _ W W W W _ _ _ _ _ _ _ _ { [ { W } X.*.*.",
"*.*.*.*.*.| } W } | *.*.*.*.*.} W W R W W R P P P R _ _ { W W W W _ _ _ _ W _ _ W W W W } | *.*."
};
