/* XPM */
static char *result[] = {
/* columns rows colors chars-per-pixel */
"48 48 96 2 ",
"   c #030303",
".  c #060209",
"X  c #0A030B",
"o  c #0D0411",
"O  c #130616",
"+  c #17081E",
"@  c #121212",
"#  c gray11",
"$  c #1B0727",
"%  c #1D0A22",
"&  c #210B26",
"*  c #230B2B",
"=  c #240B31",
"-  c #290E33",
";  c #2B0E3A",
":  c #310F36",
">  c #2D1137",
",  c #2E1B3A",
"<  c #34123B",
"1  c #351E3D",
"2  c #232323",
"3  c #27202B",
"4  c #2B212D",
"5  c #2A2A2A",
"6  c #332935",
"7  c #323233",
"8  c #39393A",
"9  c #310E46",
"0  c #350F4D",
"q  c #3A1241",
"w  c #3C1353",
"e  c #372141",
"r  c #3C2042",
"t  c #3F3F40",
"y  c #44164C",
"u  c #421656",
"i  c #441953",
"p  c #4B1E57",
"a  c #40125D",
"s  c #4B175D",
"d  c #4D1C5C",
"f  c #521E5E",
"g  c #422047",
"h  c #42374A",
"j  c #52205C",
"k  c #4F3B54",
"l  c #461661",
"z  c #4A1762",
"x  c #4C1964",
"c  c #531C63",
"v  c #591D64",
"b  c #531C69",
"n  c #5C1F6C",
"m  c #5D1F70",
"M  c #611F6C",
"N  c #631F76",
"B  c #57206B",
"V  c #5B226D",
"C  c #642273",
"Z  c #6B2277",
"A  c #6C247B",
"S  c #71247E",
"D  c #414141",
"F  c gray30",
"G  c gray33",
"H  c #5D575E",
"J  c #5D4960",
"K  c #646465",
"L  c #69696A",
"P  c #6F6B72",
"I  c #716D73",
"U  c #737373",
"Y  c #7C7C7C",
"T  c #752582",
"R  c #808080",
"E  c #8B8B8D",
"W  c #8E8C90",
"Q  c #929293",
"!  c #A4A4A5",
"~  c #A7A7A9",
"^  c #ADADAF",
"/  c #AFAFB0",
"(  c #B4B3B5",
")  c #BDBDBE",
"_  c #C3C3C5",
"`  c #CDCDCE",
"'  c #CFCFD0",
"]  c #D3D3D4",
"[  c #D6D6D8",
"{  c #DADADB",
"}  c #DFDFE1",
"|  c #E4E4E5",
" . c #E9E9E9",
".. c #F4F4F4",
"X. c #F7F7F8",
"o. c #FFFFFF",
/* pixels */
"T T T T T T T T S C V V V V b z a a a a a a w w a c V V V V V V C A S A C V C A T T T T T T T T ",
"T T T T T T T T S C V V V V b z a a a a a w a z b V V V V V V V C A S A C V C A T T T T T T T T ",
"T T T T T T S A A C C C C C V b z l a a l l l b V N m V V V C C Z A A A A C C A T T T T T T T T ",
"T T T T T A A C C Z A A A A C V b x l a l z b V C A C C V C C A A C C C A A A T T T T T T T T T ",
"T T T T T A C m C A S T T T C q > - = $ = - > > < < < < , q C A A Z V C S T T T T T T T T T T T ",
"T T T T T S A C A S S S V v j 4 2 2 5 5 5 5 5 5 5 5 5 2 2 4 j M M Z C A S T T T T T T T T T T T ",
"T T T T T T S A S S S n & O 4 W ~ / ` ] [ ] ] ] [ [ ` ( ~ W 4 O & M S S S T T T T T T T T T T T ",
"T T T T T T T T T T f r H U W ] |  .o.o.o.o.o.o.o.o.X. .| ] Q U H g j T T T T T T T T T T T T T ",
"T T T T T T T T S M g h (  .o.o.o.o.o.o.o.o.o.o.o.o.o.o.o.o.o. .( D g C S T T T T T T T T T T T ",
"T T T T T T T T C & H (  .o.o.o.o.o.o.o.o.o.o.o.o.o.o.o.o.o.o.X. .( H * C T T T T T T T T T T T ",
"T T T T T T T v g H ~  .X.o.o.o.o.o.o.o.o.o.o.X. ...o.o.o.o.o.o.X. .! H y B S T T T T T T T T T ",
"T T T T T T T q 2 /  .o.o.o.o.o.o.o.o.o.o.o.o.X.{ | ....X.o.o.X...o. .( 2 < S T T T T T T T T T ",
"T T T T T T T q 5 ` X.o.o.o.o.o.o.o.o.o.o.o.o.o...| ] ]  .o.o. .{ X.X.` 5 q T T T T T T T T T T ",
"T T T T T A y k R | o.o.o.o.o.o.o.o.o.o.o.o.o.o.o...} ' { | | |  .X.o.| Y k y S T T T T T T T T ",
"T T T T T M O L { X.o.o.o.o.o.o.o.o.o.o.o.o.o.o.o.o.X.] ' ] ]  .o.o.o.X.{ L O M T T T T T T T T ",
"T T T T T M O Y X.o.o.o.o.o.o.o.o.o.o.o.o.o.o.o.o.o...] } ..X.X.o.o.o.o.X.Y O C T T T T T T T T ",
"T T T T T M O R o.o.o.o.o.o.o.o.o.o.o.o.o.o.o.o.o...| | ..o.o.o.o.o.o.o.o.R O M T T T T T T T T ",
"T T T T T M O R o.o.o.o.o.o.o.o.o.o.o.o.o.o.o.o.o. .[ ..X.o.o.o.o.o.o.o.o.R O M T T T T T T T T ",
"T T T T T M O R o.o.o.o.o.o.o.o.o.o.o.o.o.o.o.o.o.X...{  .o.o.o.o.o.o.o.o.R O M T T T T T T T T ",
"T T T T T M O R o.o.o.o.o.o.o.o.o.o.o.o.o.o.o.o.o.o.X. ...o.o.o.o.o.o.o.o.R O M T T T T T T T T ",
"T T T T T M O Y X.o.o.o.o.o.o.o.o.o.o.o.o.o.o.o.o.o.o.o.o.o.o.o.o.o.o.o.X.Y O M T T T T T T T T ",
"T T T T T M O L { X.o.o.o.o.o.o.o.o.o.o.o.o.o.o.o.o.o.o.o.o.o.o.o.o.o.X.{ L O M T T T T T T T T ",
"T T T T T M O K ` } ..o.o.o.o.o.o.o.o.o.o.o.o.o.o.o.o.o.o.o.o.o.o.o...} ' K O n T T T T T T T T ",
"T T T S A n & H / _ } ....X.o.o.o.o.o.o.o.o.o.o.o.o.o.o.o.o.o.X.....} _ / H % n A A A A S T T T ",
"T T S A C C c r 8 ^ ` ] ]  .o.o.o.o.o.o.o.o.o.o.o.o.o.o.o.o.o. .] ] ' ^ t , z n C C C C C T T T ",
"T T A C m V V i 1 H K K K ! | | | | | | | | | | | | | | | | | ! K K K H , 9 l b V V V V N A T T ",
"T T S A C C C C f % .   # K ~ ~ ~ ~ ! ~ ~ ~ ! ~ ~ ~ ~ ! ~ ~ ~ K #     $ w l b m C C C C A A T T ",
"T T T A A A A A Z v - # E K 2 2 2 2 2 2 2 2 2 2 2 2 2 2 2 2 2 K E # $ w l b m m A T A A A T T T ",
"T T T T T T T T Z y k Y ' ( R R Y R R U G @   @ G U R R Y R R ( ' Y t ; x B V A T T T T T T T T ",
"T T T T T T T T M O G / ` ] ] ] | X...' Q D 5 D Q ' X.o. .] ] ] ` / G o u C A A T T T T T T T T ",
"T T T T T T T T M O @ 2 5 5 5 5 Y ] ] Y D ( ] ( D Y { X.Q 5 5 5 5 2 @ o d A A T T T T T T T T T ",
"T T T T T T T T M O 7 G @ % q q k K K 7 5 ] o.] 5 7 L R J < < + @ G 7 o x T T T T T T T T T T T ",
"T T T T T T T T C O K ~ 2 q S M y 2 5 5 F ] X.] F 5 5 2 y M Z q 5 E K 4 p Z T T T T T T T T T T ",
"T T T T T T T T M O K ~ 2 q C * H ( ` ] ] ] ] ] ] ] ` / H & M M p 4 K W 4 y T T T T T T T T T T ",
"T T T T T T T T A y k K K k < y k L Y R Q ] | ] Q R Y L 7 O M S c O K ~ 2 q T T T T T T T T T T ",
"T T T T T T T T T T q 2 ! K O M <   2 5 D ( | ] D @   # 5 7 j C B % H Q 8 g M S T T T T T T T T ",
"T T T T T T T T T T < 2 ~ K O v q 2 ( ) Q h Y ` / G # E ) ( 6 q M j 6 8 W H * C T T T T T T T T ",
"T T T T T T T T T S q 2 ~ K O v < 5 ) ! K K ! | | ! K K ! ) 2 > V V > 2 ~ K X : M T T T T T T T ",
"T T T T T T T T S M r t ( R 6 f < 4 E K 8 Q ) ] ] ) Q 8 K E 4 < V b - 2 / R 4 2 y M S T T T T T ",
"T T T T T T T T M & H (  .| ( 6 < p 4 K Q 8 5 5 5 5 8 Q K 4 p B c b = 5 ' | ` / H & N T T T T T ",
"T T T T T T T T v O K ) E R L @ O r H K H g < < < > e H K H e w B z * @ L R E ) K O M S T T T T ",
"A A A A A A A A v & H Q 8 2 # X   2 / L O v A C V x i 3 U ^ 2 - z l = . # 2 8 Q H & Z T T T T T ",
"C C C C C C C C M f 6 8 Q ~ E #   5 ` Y O c C V b ; 2 W ) ~ 2 = l a $ # E ~ Q 8 g Z S T T T T T ",
"V V V V V B V V V V u 1 H K G @ D Q  .) I e i B z 9 , H K H , 9 l w 9 1 H K H q f T S S T T T S ",
"V V V V V B B c b B V d + X   2 Q o.o.o.[ 5 ; z l a w $ o + w a a a a w $ o $ s N N N N Z N A S ",
"V V V V B B x z x b V B f * 2 (  .o.o.o.] 5 = l l w w w w w w l a a a a w w u s b b b b n M C C ",
"V V B V V B z a z c V V V i e U Y R R R P , 9 a a a a a a a a a a a a a a a a a a a a a z b V V ",
"V V V V V B z a l b V V V V i o         o 0 a a a a a a a a a a a a a a a a a a a a a a l b V V "
};
