/* XPM */
static char *result[] = {
/* columns rows colors chars-per-pixel */
"48 48 105 2 ",
"   c #010101",
".  c #060208",
"X  c #0A030B",
"o  c #130000",
"O  c #0D0411",
"+  c #130615",
"@  c #14061C",
"#  c #17081B",
"$  c #121212",
"%  c gray11",
"&  c #260000",
"*  c #1A0724",
"=  c #1C0921",
"-  c #210B26",
";  c #220A2A",
":  c #271F2A",
">  c #240B31",
",  c #290E33",
"<  c #2B0E3A",
"1  c #2E1137",
"2  c #2C1938",
"3  c #33113C",
"4  c #38123F",
"5  c #341E3D",
"6  c #232323",
"7  c #2C212E",
"8  c #2A2A2A",
"9  c #332935",
"0  c #323233",
"q  c #3B3B3B",
"w  c #5E0000",
"e  c #710000",
"r  c #6F1111",
"t  c #310E46",
"y  c #351440",
"u  c #3A1241",
"i  c #3F1548",
"p  c #370F50",
"a  c #3C1251",
"s  c #3B2142",
"d  c #3F3F40",
"f  c #44164C",
"g  c #431656",
"h  c #451A52",
"j  c #4B1E57",
"k  c #41135D",
"l  c #4D1C5C",
"z  c #511D5F",
"x  c #422047",
"c  c #493B4E",
"v  c #4F3B54",
"b  c #461661",
"n  c #491762",
"m  c #4C1964",
"M  c #531D64",
"N  c #591E64",
"B  c #531C68",
"V  c #5B1E6B",
"C  c #5D1F70",
"Z  c #611F6C",
"A  c #621F75",
"S  c #572060",
"D  c #582161",
"F  c #5B226D",
"G  c #62206E",
"H  c #642274",
"J  c #6B2277",
"K  c #6C247B",
"L  c #72247E",
"P  c #444444",
"I  c gray30",
"U  c gray33",
"Y  c #5C575E",
"T  c #675454",
"R  c #646465",
"E  c #69696A",
"W  c #6F6B72",
"Q  c #726D74",
"!  c #747475",
"~  c #7C7C7C",
"^  c #BD0000",
"/  c #E30000",
"(  c #752582",
")  c #808080",
"_  c #8B8B8D",
"`  c #8E8C91",
"'  c #929293",
"]  c #A4A4A5",
"[  c #A7A7A9",
"{  c #ADADAF",
"}  c #AFAFB0",
"|  c #B4B4B5",
" . c #BCBCBD",
".. c #C3C3C5",
"X. c #CDCDCD",
"o. c #CFCFD0",
"O. c #D3D3D4",
"+. c #D6D6D8",
"@. c #DADADA",
"#. c #DFDFE1",
"$. c #E4E4E5",
"%. c #E9E9E9",
"&. c #F4F4F4",
"*. c #F7F7F8",
"=. c #FEFEFE",
/* pixels */
"( ( ( ( ( ( ( ( K H F F F F B m a k k k k k k b B C F F F F F F H K ( K H F H K ( ( ( ( ( ( ( ( ",
"( ( ( ( ( ( ( ( K H F F F F B m b k k k k a k b B F F F F F F F H K K K H F H K ( ( ( ( ( ( ( ( ",
"( ( ( ( ( ( L K K H H H H H F B b b k k b b n m C C H F F F H H H K K K K H K K ( ( ( ( ( ( ( ( ",
"( ( ( ( ( K K H H K K K K K H C B m b k b m B F C K K F F H H K K H H H K K K ( ( ( ( ( ( ( ( ( ",
"( ( ( ( ( K H H H K ( ( ( ( K H C b < > > > 1 3 4 4 4 3 2 < y u i F F H K ( ( ( ( ( ( ( ( ( ( ( ",
"( ( ( ( ( K K H K K ( K K K H N D a 6 6 6 8 8 8 8 8 8 8 8 8 6 6 7 j D F J ( ( ( ( ( ( ( ( ( ( ( ",
"( ( ( ( ( ( K K K ( ( ( K H V - @ 6 ` [ } o.O.O.O.O.O.O.O.X.} [ _ 7 + - H ( ( ( ( ( ( ( ( ( ( ( ",
"( ( ( ( ( ( ( ( ( ( ( K H h 9 Y ! ' O.$.%.*.=.=.=.=.=.=.=.*.%.$.O.' ! T f N ( ( ( ( ( ( ( ( ( ( ",
"( ( ( ( ( ( ( ( ( ( ( L N s c | %.=.=.=.=.=.=.=.=.=.=.=.=.=.=.=.=.=.%.| P x Z L ( ( ( ( ( ( ( ( ",
"( ( ( ( ( ( ( ( ( ( ( H - Y | $.*.=.=.=.=.=.=.=.=.=.=.=.=.=.=.=.=.=.*.%.| Y ; H ( ( ( ( ( ( ( ( ",
"( ( ( ( ( ( ( ( ( ( N f Y ] %.*.=.=.=.=.=.=.=.=.=.=.=.=.=.=.=.=.=.=.=.*.%.] Y x N ( ( ( ( ( ( ( ",
"( ( ( ( ( ( ( ( ( L 4 6 | %.=.=.*.&.@.O.@.&.*.=.=.=.=.=.*.&.@.O.+.&.=.=.=.%.} 6 u ( ( ( ( ( ( ( ",
"( ( ( ( ( ( ( ( ( ( 4 8 X.*.=.=.%.| I 8 P | %.=.=.=.=.=.%.| I 8 P | %.=.=.*.X.8 u ( ( ( ( ( ( ( ",
"( ( ( ( ( ( ( ( K f v ) $.=.*.%.] U $   $ U ] %.*.=.*.%.] U $   $ U ] %.*.=.$.) v f J ( ( ( ( ( ",
"( ( ( ( ( ( ( ( G + E @.*.*.%.| U           R O.*.=.&.O.R           U } %.=.*.@.E + A ( ( ( ( ( ",
"( ( ( ( ( ( ( ( G + ~ *.=.%.| P $           R O.&.=.&.O.R           $ c | %.=.*.~ + Z ( ( ( ( ( ",
"( ( ( ( ( ( ( ( G + ) =.=.| U $   o w e w o R O.&.=.&.O.R o w e w o   $ U | =.=.) + G ( ( ( ( ( ",
"( ( ( ( ( ( ( ( Z + ) =.=.~       & ^ / ^ & E @.*.=.*.@.E & ^ / ^ &       ~ =.=.) + Z ( ( ( ( ( ",
"( ( ( ( ( ( ( ( Z + ) =.=.)       & ^ / ^ & ~ *.=.=.=.*.~ & ^ / ^ &       ~ =.=.) + Z ( ( ( ( ( ",
"( ( ( ( ( ( ( ( Z + ) =.=.| U $   o w e r T | =.=.=.=.=.| T r e w o   $ U | =.=.) + Z ( ( ( ( ( ",
"( ( ( ( ( ( ( ( Z + ~ *.=.%.| P 8 8 8 8 I | %.=.=.=.=.=.%.| P 8 8 7 8 P | %.=.*.~ + Z ( ( ( ( ( ",
"( ( ( ( ( ( ( ( V + E @.*.*.&.@.O.O.O.O.+.&.*.=.=.=.=.=.*.&.@.O.O.O.O.@.&.=.&.+.E + Z ( ( ( ( ( ",
"( ( ( ( ( ( ( ( N + R X.#.&.=.=.=.=.=.=.%.' | %.*.=.=.%.| ' %.=.=.=.=.=.=.&.#.o.R # H ( ( ( ( ( ",
"( ( ( L K K K K N # Y { ..#.&.*.*.=.=.=.O.8 U | %.*.%.| U 8 O.=.=.=.=.&.&.#...} T * F J K ( ( ( ",
"( ( K K H H H H V g 5 d { o.O.o.%.=.=.=.O.8 $ P | O.| d $ 8 O.=.=.=.%.O.O.X.} d s D H H A K ( ( ",
"( ( K H C F F F B n t 1 Y R !  .+.$.$.$.X.~ R ! | X. .! R ~ o.$.$.$.O. .! R Y 9 a F F F A ( ( ( ",
"( ( L K H H H H A V B g # . % _ [ [ [  .O.O.X.X.O.O.O.o.o.O.o. .] [ [ _ % X * m H H H A K K ( ( ",
"( ( ( K K K K K K A A A M , . % 6 6 6 _ &.&.#.O.%.*.%.O.#.*.&.` 6 6 6 % X = l F K K K K K ( ( ( ",
"( ( ( ( ( ( ( ( ( L ( J f c E ~ ~ E % ~ =.=.| ~ $.=.$.~ | =.=.~ $ E ) ~ E c u H ( ( ( ( ( ( ( ( ",
"( ( ( ( ( ( ( ( ( ( ( Z + U } X.O.| 6 E O.O.~ d | O.| P ~ O.O.E 6 | O.X.{ U + V ( ( ( ( ( ( ( ( ",
"( ( ( ( ( ( ( ( ( ( L G + $ 6 8 8 6 . $ 8 8 E ' P 8 q ' E 8 8 % X 6 8 8 6 $ $ F ( ( ( ( ( ( ( ( ",
"( ( ( ( ( ( ( ( ( ( ( G + 0 U $ - 4 4 -     0 E ~ ) ~ E 0     @ > > + $ U 0 + F ( ( ( ( ( ( ( ( ",
"( ( ( ( ( ( ( ( ( ( J D 7 R ` 7 f L Z x 8 8 8 I O.&.O.I 8 8 6 s l M > 6 [ R + Z ( ( ( ( ( ( ( ( ",
"( ( ( ( ( ( ( ( ( ( f : ` R 7 N J H ; T } X.O.o.O.O.O.O.O.X.} Y = m , 6 [ R + Z ( ( ( ( ( ( ( ( ",
"( ( ( ( ( ( ( ( ( ( u 6 [ R + G ( Z + 0 E ~ ) ~ E R E ~ ) ~ E I 3 < c R R v f K ( ( ( ( ( ( ( ( ",
"( ( ( ( ( ( ( ( L H x q ' T - G J D 9 6 % . $ 6 6 $ X % 6 6 . 4 N + R [ 6 u ( ( ( ( ( ( ( ( ( ( ",
"( ( ( ( ( ( ( ( H - Y ' q i D K f 9 | .._ % U [ [ U % _  .} 6 3 z + R ] 6 u ( ( ( ( ( ( ( ( ( ( ",
"( ( ( ( ( ( ( N 1 X R [ 6 1 H K u 6  .] R R ] $.$.] R R ]  .6 1 l X R ] 6 u ( ( ( ( ( ( ( ( ( ( ",
"( ( ( ( ( ( H x 6 8 ) } 6 3 H K i 7 ` R q '  .O.O. .' P E _ 7 1 h 9 ) | d x H L ( ( ( ( ( ( ( ( ",
"( ( ( ( ( H - Y { X.$.X.8 3 K H F j 7 R ` q 8 8 8 6 P | ) 7 j 1 9 | $.%.| Y - G ( ( ( ( ( ( ( ( ",
"( ( ( ( ( G @ R O.&.=.O.8 t J H g s Y R Y f y 3 3 1 s Q ) Q s @ 8 O.=.*.O.R + V ( ( ( ( ( ( ( ( ",
"K K K K K F = Y | %.&.o.8 4 H M 9 q } R @ D K H F B l + ~ X.8   8 X.&.%.| Y ; C ( ( ( ( ( ( ( ( ",
"H H H H H H D s d | O.} 6 3 M = Y { ..R + z H F B n g O E } 6   6 } O.| d i B ( ( ( ( ( ( ( ( ( ",
"F F F F F F F a 9 Y R Y 9 h D 4 c R R v 4 S F B n t 5 Q | O.' d $ U R U 5 h C ( ( ( ( ( ( ( ( ( ",
"F F F F F F B D l * + # m F F B t O O y B B B b b > 8 O.=.=.=.' % . X @ k m C C C ( A C J J K K ",
"F F F F F F m n n j j l V F B m a a a k n m b b k ; 8 O.=.=.=.O._ % * a k b n m m B B B V C H H ",
"F F F F F m n k b B F F F F B m k k k k k k k k b t 5 W ) ) ) ! Y 2 t a k k k k k k k k m B C F ",
"F F F F F F n k b B F F F F B n k k k k k k k k k a p @ O O X X @ p k b k k k k k k b a b B F F "
};
