/* XPM */
static char *result[] = {
/* columns rows colors chars-per-pixel */
"48 48 98 2 ",
"   c #030303",
".  c #060208",
"X  c #0A030B",
"o  c #0E0511",
"O  c #130615",
"+  c #13061B",
"@  c #17081B",
"#  c #121212",
"$  c gray11",
"%  c #1A0724",
"&  c #1B0921",
"*  c #210B26",
"=  c #220A2A",
"-  c #271F2A",
";  c #240C31",
":  c #290E33",
">  c #2A0D39",
",  c #310F36",
"<  c #2E1137",
"1  c #2C1938",
"2  c #33123B",
"3  c #341E3D",
"4  c #232323",
"5  c #2C212D",
"6  c #2A2A2A",
"7  c #332935",
"8  c #323233",
"9  c #39393A",
"0  c #310E46",
"q  c #350F4D",
"w  c #3A1241",
"e  c #3F1548",
"r  c #3D1353",
"t  c #3A2041",
"y  c #3F3F40",
"u  c #44164C",
"i  c #431656",
"p  c #441A52",
"a  c #4B1E57",
"s  c #41125D",
"d  c #461959",
"f  c #4D1C5C",
"g  c #511E5D",
"h  c #422047",
"j  c #493B4E",
"k  c #4F3B54",
"l  c #461661",
"z  c #491762",
"x  c #4D1964",
"c  c #531C64",
"v  c #591E64",
"b  c #531C69",
"n  c #5B1F6C",
"m  c #5E1F71",
"M  c #611F6C",
"N  c #631F76",
"B  c #572060",
"V  c #582161",
"C  c #5B226D",
"Z  c #62206E",
"A  c #642273",
"S  c #6B2277",
"D  c #6C247B",
"F  c #72247E",
"G  c #414141",
"H  c gray30",
"J  c gray33",
"K  c #5D575E",
"L  c #5D4961",
"P  c #646465",
"I  c #69696A",
"U  c #6F6B72",
"Y  c #716C73",
"T  c #737373",
"R  c #7C7C7C",
"E  c #752582",
"W  c #808080",
"Q  c #8B8B8D",
"!  c #8E8C91",
"~  c #929293",
"^  c #A4A4A5",
"/  c #A7A7A9",
"(  c #ADADAF",
")  c #AFAFB0",
"_  c #B4B3B5",
"`  c #BDBDBE",
"'  c #C3C3C5",
"]  c #CDCDCE",
"[  c #CFCFD0",
"{  c #D3D3D4",
"}  c #D6D6D8",
"|  c #DADADB",
" . c #DFDFE1",
".. c #E4E4E5",
"X. c #E9E9E9",
"o. c #F4F4F4",
"O. c #F7F7F8",
"+. c #FFFFFF",
/* pixels */
"E E E E E E E E D A C C C C b l s s s r s s s l b C C C C C C C A D D D A C A D E E E E E E E E ",
"E E E E E E E E D A C C C C b l s s s s s r s l b m C C C C C C A D E D A C A D E E E E E E E E ",
"E E E E E E D D D A A A A A C b z l s s l l z b m m A C C C A A D D D D A A D D E E E E E E E E ",
"E E E E E D D A D A D D D D A C b x l s l x b C N D A A C C A D D A A A D D D E E E E E E E E E ",
"E E E E E D A Z A D E E E E D A C x > ; ; ; < < 2 w 2 2 1 < 0 2 u V C A D F E E E E E E E E E E ",
"E E E E E D D A D D E E D D A v c r - 4 4 6 6 6 6 6 6 6 8 6 4 4 5 g v v D E E E E E E E E E E E ",
"E E E E E E D D D E E E D A n * # 5 Q / ) [ { { { } { { { ] _ / Q 5 O * Z E E E E E E E E E E E ",
"E E E E E E E E E E E D A p 7 K T ~ { ....O.+.+.+.+.+.+.+.O.X...{ ~ T K h v E E E E E E E E E E ",
"E E E E E E E E E E E E v e G _ X.+.+.+.+.+.+.+.+.+.+.+.+.+.+.+.+.+.X._ G h A F E E E E E E E E ",
"E E E E E E E E E E E A * K _ X.O.+.+.+.+.+.+.+.+.+.+.+.+.+.+.+.+.+.O.X._ K * Z E E E E E E E E ",
"E E E E E E E E E E v h K ^ X.O.+.+.+.+.+.+.+.+.+.+.O.X.o.+.+.+.+.+.+.O.X.^ K u v E E E E E E E ",
"E E E E E E E E E E w 4 _ X.+.+.+.+.+.+.+.+.+.+.+.+.O.| ..O.O.O.+.+.O.O.+.X._ 4 w E E E E E E E ",
"E E E E E E E E E E w 6 ] O.+.+.+.+.+.+.+.+.+.+.+.+.+.O...{ { X.+.+.X.| O.O.] 5 w E E E E E E E ",
"E E E E E E E E S u k R ..+.+.+.+.+.+.+.+.+.+.+.+.+.+.+.o.| [ } ......X.+.+...R k u F E E E E E ",
"E E E E E E E E M O I | O.+.+.+.+.+.+.+.+.+.+.+.+.+.+.+.+.O.{ ] { { X.+.+.+.O.| I O M E E E E E ",
"E E E E E E E E M O R O.+.+.+.+.+.+.+.+.+.+.+.+.+.+.+.+.+.o.{  .O.O.O.+.+.+.+.O.R O M E E E E E ",
"E E E E E E E E M O W +.+.+.+.+.+.+.+.+.+.+.+.+.+.+.+.+.o.....o.+.+.+.+.+.+.+.+.W O M E E E E E ",
"E E E E E E E E M O W +.+.+.+.+.+.+.+.+.+.+.+.+.+.+.+.+.X.} o.O.+.+.+.+.+.+.+.+.W O M E E E E E ",
"E E E E E E E E M O W +.+.+.+.+.+.+.+.+.+.+.+.+.+.+.+.+.O.o.} X.+.+.+.+.+.+.+.+.W O M E E E E E ",
"E E E E E E E E M O W +.+.+.+.+.+.+.+.+.+.+.+.+.+.+.+.+.+.O...o.+.+.+.+.+.+.+.+.W O M E E E E E ",
"E E E E E E E E M O R O.+.+.+.+.+.+.+.+.+.+.+.+.+.+.+.+.+.+.+.+.+.+.+.+.+.+.+.O.R O M E E E E E ",
"E E E E E E E E n O I | O.+.+.+.+.+.+.+.+.+.+.+.+.+.+.+.+.+.+.+.+.+.+.+.+.+.O.| I O M E E E E E ",
"E E E E E E E E v O P ] ..o.+.+.+.+.+.+.+.+.+.+.+.+.+.+.+.+.+.+.+.+.+.+.+.o. .] P O M E E E E E ",
"E E E D D D D D v @ K ( ' | O.o.O.+.+.+.+.+.+.+.+.+.+.+.+.+.+.+.+.+.O.O.O.| ' ( K * n D F E E E ",
"E E D D A A A A n d 1 y ) [ { { X.+.+.+.+.+.+.+.+.+.+.+.+.+.+.+.+.+.X.{ { ] ( y t C m A A E E E ",
"E E D A Z C C C b z 0 1 K P P P ^ ..................................^ P P P K 3 r C C C A D E E ",
"E E F D A A A A m n b i + . . $ P / ^ / / / / / / / / ^ / / / / / / P $ . . & z A A A A D D E E ",
"E E E D E D D D S N N N b : $ Q P 4 4 4 4 4 4 4 4 4 4 4 4 4 4 4 4 4 P Q $ = f Z D D D A E E E E ",
"E E E E E E E E E E F S u k R ] _ W W W W W T J #   # J T R W W W W _ [ R j w A E E E E E E E E ",
"E E E E E E E E E E E Z O J ) ] { { { X.+.O.] ~ 9 6 G ~ ] O.O...{ { { ] ( J O v E E E E E E E E ",
"E E E E E E E E E E F M O # 4 6 6 6 6 ~ O.| R G _ } _ G R { { R 6 6 6 6 4 # O C E E E E E E E E ",
"E E E E E E E E E E E M O 8 J # * w w L R I 8 6 { +.{ 6 8 P P j : ; o # J 8 # C E E E E E E E E ",
"E E E E E E E E E E S V 5 P ! 5 u F M u 4 6 6 H } o.{ H 6 6 4 7 c x : - / P O M E E E E E E E E ",
"E E E E E E E E E E u 5 ! P 5 V F M = K ) ] { } { { { { { ] ) K * g : $ / P O Z E E E E E E E E ",
"E E E E E E E E E E w 4 / P O Z E M O 8 I R W ~ { ..{ ~ W R I k 2 , j P P k u S E E E E E E E E ",
"E E E E E E E E E A u 9 ~ K * Z D V 7 6 $   # G { .._ G 4 6   2 v O P / 4 w E E E E E E E E E E ",
"E E E E E E E E A = K ~ 9 7 n F u 7 _ ` Q $ J ) ] R G ~ ` ) 4 , g o P / 4 2 E E E E E E E E E E ",
"E E E E E E E V , X P / 4 < N D w 4 ` ^ P P ^ ....^ P P ^ ` 6 < f o P / 4 w E E E E E E E E E E ",
"E E E E E E Z h 4 6 R ) 4 2 S S e 5 ! P 9 ~ ` { { ` ~ 9 P Q 5 < p 7 R _ G h A F E E E E E E E E ",
"E E E E E A & K ( ] ..] 6 2 D A C f 5 P ~ 9 4 6 6 6 9 ~ P 5 a < 7 _ ..X._ K = Z E E E E E E E E ",
"E E E E E Z O P ` Q W I # w D A p e K P K h w 2 < < t K P K 7 @ # I W Q ` P O M E E E E E E E E ",
"D D D D D C & K ~ 9 4 $   2 S A < 4 ^ T 6 g A A C C d O I ) -     $ 4 9 ! K = N E E E E E E E E ",
"A A A A A A B t 9 ~ / Q $ 2 A C < 4 / ` ! - e m x x p O R ] 6   $ Q / ~ 9 w n N E E E E E E E E ",
"C C C C C C C r 3 K P K 7 p C C p 3 K P K 7 p b l 0 w Y ` X.~ G # J P K 3 p m E E E E E E E E E ",
"C C C C C C x C d & o & x C C c x s & o % l b x l ; 6 } +.+.+.~ 6     @ s b b m N N N N N N D D ",
"C C C C C C x l x a f f C C b x l l r r r l l l l % 6 } +.+.+.X.) 4 % r s l x x x b b b n N A A ",
"C C C C C b l l x b C C C C b z s s s s r l s r s 0 1 U R W W W U w 0 l s s s s s s s s z b C C ",
"C C C C C b x r l b C C C C c z s s s s s s s s s s q o         o q r s s s s s s s l r z c C C "
};
