/* XPM */
static char *result[] = {
/* columns rows colors chars-per-pixel */
"48 48 106 2 ",
"   c #020203",
".  c #0A030E",
"X  c #0D0512",
"o  c #130615",
"O  c #13061B",
"+  c #1A091F",
"@  c #121212",
"#  c gray11",
"$  c #1C0A21",
"%  c #220B26",
"&  c #21092D",
"*  c #261F2A",
"=  c #250B35",
"-  c #290E34",
";  c #2D1136",
":  c #2F113C",
">  c #2E1A39",
",  c #33113C",
"<  c #39113F",
"1  c #331D3D",
"2  c #232323",
"3  c #27202A",
"4  c #2C212E",
"5  c #2B2B2B",
"6  c #2E2732",
"7  c #2F2832",
"8  c #332935",
"9  c #323233",
"0  c #39393A",
"q  c #300E46",
"w  c #351342",
"e  c #3A1242",
"r  c #361449",
"t  c #3C174D",
"y  c #370F50",
"u  c #3C1254",
"i  c #3E125A",
"p  c #372140",
"a  c #3B2142",
"s  c #44164C",
"d  c #441557",
"f  c #451954",
"g  c #4B1E57",
"h  c #41125D",
"j  c #4D1C5C",
"k  c #521E5D",
"l  c #422047",
"z  c #46244B",
"x  c #42374B",
"c  c #493B4F",
"v  c #54205E",
"b  c #4F3B54",
"n  c #461661",
"m  c #491762",
"M  c #4C1964",
"N  c #541D64",
"B  c #581D62",
"V  c #531C69",
"C  c #5B1F6D",
"Z  c #5E1F70",
"A  c #611F6C",
"S  c #631F76",
"D  c #572060",
"F  c #582161",
"G  c #5B226D",
"H  c #61206D",
"J  c #642273",
"K  c #6B2277",
"L  c #6C247B",
"P  c #72257F",
"I  c gray28",
"U  c #4E4E4E",
"Y  c #57495B",
"T  c #58495C",
"R  c gray33",
"E  c #5D575E",
"W  c #646465",
"Q  c #69696A",
"!  c #6F6B72",
"~  c #726D74",
"^  c #727273",
"/  c #7A7A7B",
"(  c #752582",
")  c #808080",
"_  c #8B8B8D",
"`  c #8E8C90",
"'  c #919192",
"]  c #979798",
"[  c #A4A4A5",
"{  c #A7A7A9",
"}  c #ADADAF",
"|  c #AFAFB0",
" . c #B3B3B4",
".. c #BDBDBE",
"X. c #C3C3C5",
"o. c #CBCBCC",
"O. c #CFCFD0",
"+. c #D3D3D4",
"@. c #D6D6D8",
"#. c #DADADB",
"$. c #DFDFE1",
"%. c #E4E4E5",
"&. c #EAEAEA",
"*. c #F3F3F3",
"=. c #F7F7F8",
"-. c #FFFFFF",
/* pixels */
"( ( ( ( ( ( ( ( L J G G G G V m h h h h i h h n V G G G G G G G J K P L J G J L ( ( ( ( ( ( ( ( ",
"( ( ( ( ( ( ( ( L J G G G G V m q & = $ = & & = - ; ; ; ; ; ; f J L ( L J G J L ( ( ( ( ( ( ( ( ",
"( ( ( ( ( ( P L L J J J L G g d > 2 2 3 5 5 5 5 5 5 5 5 3 2 2 8 N N J L L J J L ( ( ( ( ( ( ( ( ",
"( ( ( ( ( L L J J L L L L t o X E { { ..+.+.+.+.+.+.+.+...{ { E o o w K L L P P ( ( ( ( ( ( ( ( ",
"( ( ( ( ( L J J J L ( K s b Q /  .%.%.*.-.-.-.-.-.-.-.-.*.%.%. ./ Q c e H ( ( ( ( ( ( ( ( ( ( ( ",
"( ( ( ( ( L L J K L J D 4 / #.=.-.-.-.-.-.-.-.-.-.-.-.-.-.-.-.-.=.#./ * k K ( ( ( ( ( ( ( ( ( ( ",
"( ( ( ( ( ( L L P ( s 4 _ O.=.-.-.-.-.-.-.-.-.-.-.-.-.-.-.-.-.-.-.=.O.` 4 s ( ( ( ( ( ( ( ( ( ( ",
"( ( ( ( ( ( ( ( K s b / O.*.-.-.-.-.-.-.-.-.-.-.-.*.&.=.-.-.-.-.-.-.*.O./ b s L ( ( ( ( ( ( ( ( ",
"( ( ( ( ( ( ( ( A o Q #.=.-.-.-.-.-.-.-.-.-.-.-.-.&.@.&.=.=.-.-.-.=.=.=.#.Q o A ( ( ( ( ( ( ( ( ",
"( ( ( ( ( ( ( ( A o / =.-.-.-.-.-.-.-.-.-.-.-.-.-.=.*.#.+.#.=.-.=.#.&.-.=./ o A ( ( ( ( ( ( ( ( ",
"( ( ( ( ( ( ( B l E  .-.-.-.-.-.-.-.-.-.-.-.-.-.-.-.=.&.@.o.$.%.%.%.*.-.-. .E l B ( ( ( ( ( ( ( ",
"( ( ( ( ( ( ( e 2 | &.-.-.-.-.-.-.-.-.-.-.-.-.-.-.-.-.-.%.o.+.+.#.=.-.-.-.&.} 2 e ( ( ( ( ( ( ( ",
"( ( ( ( ( ( ( e 5 o.=.-.-.-.-.-.-.-.-.-.-.-.-.-.-.-.-.-.%.+.&.=.=.-.-.-.-.=.o.5 e ( ( ( ( ( ( ( ",
"( ( ( ( ( ( ( e 5 +.-.-.-.-.-.-.-.-.-.-.-.-.-.-.-.-.=.&.%.&.=.-.-.-.-.-.-.-.+.5 e ( ( ( ( ( ( ( ",
"( ( ( ( ( ( ( e 5 +.-.-.-.-.-.-.-.-.-.-.-.-.-.-.-.-.=.#.%.=.-.-.-.-.-.-.-.-.+.5 s ( ( ( ( ( ( ( ",
"( ( ( ( ( ( ( e 5 +.-.-.-.-.-.-.-.-.-.-.-.-.-.-.-.-.-.=.%.#.=.-.-.-.-.-.-.-.+.5 < ( ( ( ( ( ( ( ",
"( ( ( ( ( ( ( e 5 +.-.-.-.-.-.-.-.-.-.-.-.-.-.-.-.-.-.-.*.&.=.-.-.-.-.-.-.-.+.5 e ( ( ( ( ( ( ( ",
"( ( ( ( ( ( ( e 5 o.=.-.-.-.-.-.-.-.-.-.-.-.-.-.-.-.-.-.-.-.-.-.-.-.-.-.-.=.o.5 e ( ( ( ( ( ( ( ",
"( ( ( ( ( ( ( e 2  .&.-.-.-.-.-.-.-.-.-.-.-.-.-.-.-.-.-.-.-.-.-.-.-.-.-.-.&.} 2 e ( ( ( ( ( ( ( ",
"( ( ( ( ( ( ( e 2 { @.&.=.-.-.-.-.-.-.-.-.-.-.-.-.-.-.-.-.-.-.-.-.-.-.-.&.@.{ 2 e ( ( ( ( ( ( ( ",
"( ( ( ( ( ( ( s 4 ` ..o.&.=.=.-.-.-.-.-.-.-.-.-.-.-.-.-.-.-.-.-.-.=.=.&.+. .` 6 s ( ( ( ( ( ( ( ",
"( ( ( ( ( ( ( K v 4 / o.O.+.#.=.-.-.-.-.-.-.-.-.-.-.-.-.-.-.-.-.=.#.+.O.o./ * N K ( ( ( ( ( ( ( ",
"( ( ( ( ( ( ( ( J e c W W ] o.$.%.%.%.%.%.%.%.%.%.%.%.%.%.%.%.%.$.o.] W W b s K ( ( P ( ( ( ( ( ",
"( ( ( P L L L K J C : X o E { [ { } X.o.o.o.o.o.o.o.o.o.o.X.} { { { E o O e J J L L L L P P ( ( ",
"( ( ( L J J J J C V h u t 1 * 2 2 0 } o.X.o.o.o.o.o.o.o.o.{ 0 2 2 2 1 d d m C Z J J J J K L ( ( ",
"( ( L J G G G G V m h u = x R @   @ R W W W W W W W W W W R @   @ R x = u h n V G G Z G J K ( ( ",
"( ( L K J J J J S C M s * /  .I 5 5 5 5 5 2 @     @ 2 5 5 5 5 5 I  ./ * r d M C J J J J L L ( ( ",
"( ( ( L ( L L L L S e 4 ` O.*.#.+.+.+.+.o.} R     R } o.+.+.+.+.@.*.O._ 4 : Z S J ( L J ( ( ( ( ",
"( ( ( ( ( ( ( ( ( ( < @ R ^ ) ) ) ] &.*.O./ ^ ) ) ^ / +.%.+.' ) ) ) ^ R @ ; J L ( ( ( ( ( ( ( ( ",
"( ( ( ( ( ( ( ( ( ( e   # @   o o 8  ..._ # ) -.-.) # _ { ` 3 X .   @ #   : J L ( ( ( ( ( ( ( ( ",
"( ( ( ( ( ( ( ( ( ( < # _ R o k H v 8 5 #   ) -.-.)   # 2 4 f f r . R _ # w ( L ( ( ( ( ( ( ( ( ",
"( ( ( ( ( ( ( ( ( P < 2 { W o H v s E ^ ) )  .%.%. .) ) ^ E a f f X W { 2 w ( ( ( ( ( ( ( ( ( ( ",
"( ( ( ( ( ( ( ( ( J s 0 ' E % H s 4 ` ..+.+.+.+.+.+.+.+...` 4 e k + E ' 0 l H P ( ( ( ( ( ( ( ( ",
"( ( ( ( ( ( ( ( J % E ' 0 l J P P k 4 3 5 5 ' =.*.' 5 5 5 4 v H J M 1 0 ' E % J ( ( ( ( ( ( ( ( ",
"( ( ( ( ( ( ( ( A o W { 2 < P ( k z ~ ^ R @ ^ %.%.^ @ R ^ ~ z N L J ; 2 { W o H ( ( ( ( ( ( ( ( ",
"( ( ( ( ( ( ( ( A o W { 2 < P P < 5 O.O.' 0 / +.+./ 0 ' o.o.5 < J J - 2 { W o H ( ( ( ( ( ( ( ( ",
"( ( ( ( ( ( ( ( H o W { 2 ; K P e 2  ./ 0 ' O.=.*.O.' 0 / | 2 , J G ; 2 { W o H ( ( ( ( ( ( ( ( ",
"( ( ( ( ( ( ( B l E [ +.' Y e H v s E W W W ^ ) ) ^ W W W E p f D w T ' +.[ E l A ( ( ( ( ( ( ( ",
"( ( ( ( ( ( ( e 2 { +.+.@.Q o F J k 4 W ` * o o o o 4 ` W 4 g D g X Q @.+.O.{ 2 < ( ( ( ( ( ( ( ",
"( ( ( ( ( ( ( w 2 { / 5 5 @ o N e 4 ` W 6 B A B B k k 4 W _ 4 < d X @ 5 5 / { 2 < ( ( ( ( ( ( ( ",
"( ( ( ( P ( ( V a E W W W 9 o k : 2 X.^ o G ( L J G N X ^ ..2 ; d X 9 W W W E s B ( ( ( ( ( ( ( ",
"L L L L L L L L B $ E { { E $ f p U #.] 8 v J J G M f 8 ] $.U p r o E { { E % S ( ( ( ( ( ( ( ( ",
"J J J J J J G J J k 1 2 2 p f + ! #.=.&. .7 e G V ; 6  .&.=.#.! o q > 2 2 1 C S ( ( ( ( ( ( ( ( ",
"G G G G G G G G G G f ; ; f g o ) -.-.-.+.5 ; N M & 5 +.-.-.-.) X y q & ; f S S P ( ( P ( ( ( ( ",
"G G G G G G M G F G G G G G g $ ! +.+.@. .7 q n n = 6  .@.+.+.! O y h h m V V Z S S S S S S P L ",
"G G G G G V M M M M G G G G V d p 5 5 5 6 t i n n u r 6 5 5 5 6 y i h n n n m V V V V V C C J S ",
"G G G G G V n n n V G G G G V m q & & & = u h i h h u = & & & q h h h h h h h h h h h h j V C G ",
"G G G G G G n h n V G G G G V m h h h h h h h h h h h h h h h i h i h h h h h h h h h h h V G G "
};
