/* XPM */
static char *result[] = {
/* columns rows colors chars-per-pixel */
"48 48 97 2 ",
"   c #010101",
".  c #0C050F",
"X  c #0D0411",
"o  c #130616",
"O  c #15071E",
"+  c #121212",
"@  c gray11",
"#  c #390000",
"$  c #1D0A22",
"%  c #210B26",
"&  c #21092D",
"*  c #261F29",
"=  c #250B34",
"-  c #290E34",
";  c #2D0E3C",
":  c #2D1136",
">  c #2C1938",
",  c #34123B",
"<  c #331D3C",
"1  c #232323",
"2  c #27202A",
"3  c #2B212D",
"4  c #2B2B2B",
"5  c #2D2731",
"6  c #352936",
"7  c #323233",
"8  c #39393A",
"9  c #710000",
"0  c #6B3233",
"q  c #310E46",
"w  c #350F4D",
"e  c #3A1241",
"r  c #361549",
"t  c #3A164A",
"y  c #370F50",
"u  c #3C1254",
"i  c #3E125A",
"p  c #3D2043",
"a  c #3F3F40",
"s  c #44164C",
"d  c #451952",
"f  c #41125D",
"g  c #4B175D",
"h  c #4D1C5B",
"j  c #521D5C",
"k  c #422047",
"l  c #42374A",
"z  c #4F3B54",
"x  c #461661",
"c  c #491762",
"v  c #4C1964",
"b  c #531D64",
"n  c #581D63",
"m  c #531C69",
"M  c #5C1F6C",
"N  c #5D1E70",
"B  c #611F6C",
"V  c #631F76",
"C  c #582161",
"Z  c #5B226D",
"A  c #642374",
"S  c #6B2277",
"D  c #6C247B",
"F  c #72257F",
"G  c #424242",
"H  c gray30",
"J  c gray33",
"K  c #5C575E",
"L  c #5D4960",
"P  c #646465",
"I  c #69696A",
"U  c #737374",
"Y  c #7C7C7D",
"T  c #E30000",
"R  c #752582",
"E  c #808080",
"W  c #8B8B8D",
"Q  c #8D8C90",
"!  c #919193",
"~  c #A4A4A5",
"^  c #A7A7A9",
"/  c #ADADAF",
"(  c #AFAFB0",
")  c #B4B4B5",
"_  c #BBBBBC",
"`  c #C3C3C5",
"'  c #CCCCCD",
"]  c #CFCFD0",
"[  c #D3D3D4",
"{  c #D6D6D8",
"}  c #DADADB",
"|  c #DFDFE1",
" . c #E4E4E5",
".. c #E9E9E9",
"X. c #F4F4F5",
"o. c #F7F7F8",
"O. c #FFFFFF",
/* pixels */
"R R R R R R R R D A Z Z Z Z m u w w w w y i f c m Z Z Z Z Z Z Z A D F D A Z A D R R R R R R R R ",
"R R R R R R R R D A Z Z Z Z C c f f f f f f f c m Z Z Z Z Z Z Z A D F D A Z A D R R R R R R R R ",
"R R R R R R D D D A A A A A Z m x x x i f x x m Z Z A Z Z Z A A A D D S A A D D R R R R R R R R ",
"R R R R R F D A A D D D D D A Z m v x f x c m Z A D A A Z A A D D A A S D D D F R R R R R R R R ",
"R R R R R D A Z A D R R R R A e : - = $ = - : , , , , , : r B R D A Z A F R R R R R R R R R R R ",
"R R R R F D D A D D F D Z C h 3 1 1 4 4 4 4 4 4 4 4 4 1 1 3 j Z B A A D F R R R R R R R R R R R ",
"R R R R R R D D F F F B % o 3 Q ^ ( ] [ { [ [ [ { [ ' / ^ W 3 o % B D F F F R R R R R R R R R R ",
"R R R R R R R R R R C e K U Q [  ...o.O.O.O.O.O.O.O.O... .[ ! U K s n F R R R R R R R R R R R R ",
"R R R R R R R R F B k l ) ..O.O.O.O.O.O.O.O.O.O.O.O.O.O.O.O.O...) 8 k S F F R R R R R R R R R R ",
"R R R R R R R R V % K ) ..O.O.O.O.O.O.O.O.O.O.O.O.O.O.O.O.O.O.o..._ K & A R R R R R R R R R R R ",
"R R R R R R R n k K ^ ..o.O.O.O.O.O.O.O.O.O.O.O.O.O.O.O.O.O.O.O.o...~ K k n R R R R R R R R R R ",
"R R R R R R R e 1 ( ..O.O.O.O.o. .[ [  .o.O.O.O.O.O.O.O.O.O.O.O.O.O...( 1 , R R R R R R R R R R ",
"R R R R R R R e 4 ' o.O.O.O.X.} Y 4 4 E } o.O.O.O.O.O.O.O.O.O.O.O.O.o.' 4 e R R R R R R R R R R ",
"R R R R R F s z E  .O.O.O.X.[ Y 7     7 Y ' X.O.O.O.O.O.O.O.O.O.O.O.O. .E z s S R R R R R R R R ",
"R R R R R B o I } X.O.O.X.' W @         1 ^  .O.O.O.O.O.O.O.O.O.O.O.O.o.} I o B R R R R R R R R ",
"R R R R R B o Y o.O.O.o.} Y @           1 ^  .O.O.O.O.O.O.O.O.O.O.O.O.O.o.Y o S R R R R R R R R ",
"R R R R R B o E O.O.O. .Y 7     # 9 9 # 1 ^  .O.O.O.O.O.O.O.O.O.O.O.O.O.O.E o B R R R R R R R R ",
"R R R R R B o E O.O.O.[ 4       9 T T 9 1 ( ..O.O.O.O.O.O.O.O.O.O.O.O.O.O.E o B R R R R R R R R ",
"R R R R R B o E O.O.O.[ 4       9 T T 9 4 ' o.O.O.O.O.O.O.O.O.O.O.O.O.O.O.E o B R R R R R R R R ",
"R R R R R B o E O.O.O. .Y 7     # 9 9 0 E  .O.O.O.O.O.O.O.O.O.O.O.O.O.O.O.E o B R R R R R R R R ",
"R R R R R B o Y X.X. .[ [ E 4 4 4 4 4 Y } o.O.O.O.O.O.O.O.O.O.O.O.O.O.O.o.Y o B R R R R R R R R ",
"R R R R R B o I [ [ E H [  .[ [ [ [ [  .o.O.O.O.O.O.O.O.O.O.O.O.O.O.O.o.} I o B R R R R R R R R ",
"R R R R R B o P _ U 7 4 [ O.O.O.O.O.O.O.O.O.O.O.O.O.O.O.O.O.O.O.O.O.X.| ' P o M R R R R R R R R ",
"R R R R D Z % K ! 8 1 G [ o.O.O.O.O.O.O.O.O.O.O.O.O.O.O.O.O.O.o.X.X.| ` ( K $ M D D D D F R R R ",
"R R D D A A n p 8 ! ^ / ' ..O.O.O.O.O.O.O.O.O.O.O.O.O.O.O.O.O...] [ ] / a > g M A A A A A R R R ",
"R R D A Z Z Z d < K ~  . . . . . . . . . . . . . . . . . . . .[ _ U P K > q v m Z Z Z Z A R R R ",
"R R F S A A A A g X E O.O. .' [ [ ' ( ^ ~ ^ ^ ^ ^ ^ ^ ^ ^ ^ ^ ^ Q * X O i x m m A V V A D D R R ",
"R R R D D D D D n o E O.O. .[ ..o.] G 1 1 1 1 1 1 1 1 1 1 1 1 1 * q w i x m Z A D D D A R R R R ",
"R R R R R R R R S s L E E U Y  .O.[ 4 7 J + 7 P P 7 + J P J + X = i f x m Z A D R R R R R R R R ",
"R R R R R R R R R R s o o o 6 ) [ ) G P ! G E [ [ U 8 ! _ ^ * = x f f c m A A D R R R R R R R R ",
"R R R R R R R R R R S B B B C 6 4 a ! P a )  .X.o.] ! 8 U ^ @ : v x f v N D D R R R R R R R R R ",
"R R R R R R R R R R R R R R S s $ + J U ! ..X.[ ! U J + 7 J + : m x x m N R R R R R R R R R R R ",
"R R R R R R R R R R R R R R R R s o   I [ [ ` ! G 4 4 4 1 @   , Z m c M A R R R R R R R R R R R ",
"R R R R R R R R R R R R R R R R S j o + 4 4 1 G ) [ [ [ ` W @ , S Z m M A R R R R R R R R R R R ",
"R R R R R R R R R R R R R R R R R S s $ + J 7 + I E E E U J + , D A Z A D R R R R R R R R R R R ",
"R R R R R R R R R R R R D R R R R R R e 1 ^ P . 1 4 4 4 4 4 1 p b A Z A D R R R R R R R R R R R ",
"R R R R R R R R R R R D D A D D R R R e 1 ^ P 1 ) [ [ [ [ ' ( K $ j Z A D R R R R R R R R R R R ",
"R R R R R R R R R R R D A Z A D R R R e + J P I Y E E E E Y I 7 X h A A D R R R R R R R R R R R ",
"R R R R R R R R R D D D A A A D D D F e     P ^ 1     @ 1 1 1 + . t v Z A R R R R R R R R R R R ",
"R R R R R R R R D D A A D D D D A S D e     P ^ 1   @ Q ^ ^ ^ J   . : m A R R R R R R R R R R R ",
"R R R R R R R R D A Z A D R D A u > , H J o P ^ 1   + J P P P P P P l ; M F R R R R R R R R R R ",
"D D D D D D D D A A Z A A D Z b r 1 1 U ^ 1 I ) H 1 1     . 1 E [ ] Y * d V D R R R R R R R R R ",
"A A A A A A Z A A Z Z Z A A C $ K ~ ^ ) ^ 1 Y X.{ _ W @   1 (  .o.o.] Q * e D R R R R R R R R R ",
"Z Z Z Z Z Z Z Z Z Z Z Z Z Z h X P ' ' ' ^ 1 E O.O. .^ 1   4 { o.o...~ K < d V V R R R R R R R R ",
"Z Z Z Z Z Z b m b Z Z Z Z Z h $ K ~ ^ ~ W @ Y o.o.' W 2 X 5 ) { ' / K O f m M N V V V V V V R D ",
"Z Z Z Z Z m v v v b Z Z Z Z b i > * * 1 @ . I [ [ Y 2 r u r 5 4 4 * > u f f c v m m m v N N A A ",
"Z Z Z Z Z m x i x m Z Z Z Z m x q & & & & & a P P l = u f i = * $ & q i f f f f f f x x x m M Z ",
"Z Z Z Z Z m v x x m Z Z Z Z m c f f f f i i = X X - i i i i i i f f f i f f f f f f i i x m Z Z "
};
