/* XPM */
static char *result[] = {
/* columns rows colors chars-per-pixel */
"48 48 106 2 ",
"   c #010101",
".  c #060209",
"X  c #0A030B",
"o  c #130000",
"O  c #0D0411",
"+  c #130616",
"@  c #15071D",
"#  c #17081D",
"$  c #121212",
"%  c gray11",
"&  c #260000",
"*  c #1B0727",
"=  c #1D0A22",
"-  c #210B26",
";  c #230B2B",
":  c #250B33",
">  c #290E33",
",  c #2A0D39",
"<  c #310F36",
"1  c #2E1137",
"2  c #2F103C",
"3  c #2E1A39",
"4  c #34123B",
"5  c #38123F",
"6  c #341D3D",
"7  c #232323",
"8  c #2B212D",
"9  c #2A2A2A",
"0  c #332935",
"q  c #323233",
"w  c #3B3B3B",
"e  c #5E0000",
"r  c #710000",
"t  c #6F1111",
"y  c #310D46",
"u  c #361440",
"i  c #3A1241",
"p  c #370F50",
"a  c #3B1253",
"s  c #3C2143",
"d  c #3F3F40",
"f  c #44164C",
"g  c #421656",
"h  c #441952",
"j  c #4B1E57",
"k  c #41125D",
"l  c #4A175B",
"z  c #461959",
"x  c #4D1C5C",
"c  c #521E5E",
"v  c #422047",
"b  c #45244B",
"n  c #483A4E",
"m  c #52205D",
"M  c #4F3B54",
"N  c #461661",
"B  c #491762",
"V  c #4C1964",
"C  c #531C63",
"Z  c #591D64",
"A  c #531C69",
"S  c #5D1F6C",
"D  c #5D1F70",
"F  c #611F6C",
"G  c #621F76",
"H  c #5B226D",
"J  c #642273",
"K  c #6B2277",
"L  c #6C247B",
"P  c #72247E",
"I  c #444444",
"U  c gray30",
"Y  c gray33",
"T  c #5C575E",
"R  c #675454",
"E  c #646465",
"W  c #69696A",
"Q  c #6F6B72",
"!  c #736D74",
"~  c #747475",
"^  c #7C7C7C",
"/  c #BD0000",
"(  c #E30000",
")  c #752582",
"_  c #808080",
"`  c #8B8B8D",
"'  c #8E8C90",
"]  c #929293",
"[  c #A4A4A5",
"{  c #A7A7A9",
"}  c #ADADAF",
"|  c #AFAFB0",
" . c #B4B4B5",
".. c #BCBCBD",
"X. c #C3C3C5",
"o. c #CDCDCD",
"O. c #CFCFD0",
"+. c #D3D3D4",
"@. c #D6D6D8",
"#. c #DADADA",
"$. c #DFDFE1",
"%. c #E4E4E5",
"&. c #E9E9E9",
"*. c #F4F4F4",
"=. c #F7F7F8",
"-. c #FEFEFE",
/* pixels */
") ) ) ) ) ) ) ) L J D H H H A B a k k k k a N N A S H H H H H H J L ) L J H J L ) ) ) ) ) ) ) ) ",
") ) ) ) ) ) ) ) L J H H H H A N N k k k k k N N A H H H H H H H J L P L J H J L ) ) ) ) ) ) ) ) ",
") ) ) ) ) ) L L L J J J J J H A B N N k k N B A D D H H H H H J J L L L J J J L ) ) ) ) ) ) ) ) ",
") ) ) ) ) L L J J L L L L L J D A N N k N B A H G L L J H J J L L J J J L L ) ) ) ) ) ) ) ) ) ) ",
") ) ) ) ) L J J K L ) ) P P J i , , : ; : : 1 4 4 5 4 4 3 i J ) L J F J L P ) ) ) ) ) ) ) ) ) ) ",
") ) ) ) ) L L J L G ) L F H x 8 7 7 9 9 9 9 9 9 9 9 9 7 7 8 c H H K J L P ) ) ) ) ) ) ) ) ) ) ) ",
") ) ) ) ) P L L P P ) F - + 8 ' { | o.+.+.+.+.+.+.+.O.| { ` 8 + - F L P P ) ) ) ) ) ) ) ) ) ) ) ",
") ) ) ) ) ) ) ) ) ) Z 0 T ~ ] +.%.&.=.-.-.-.-.-.-.-.=.&.%.+.] ~ T v C ) ) ) ) ) ) ) ) ) ) ) ) ) ",
") ) ) ) ) ) ) ) P F f I  .&.-.-.-.-.-.-.-.-.-.-.-.-.-.-.-.-.-.&. .I f J P ) ) ) ) ) ) ) ) ) ) ) ",
") ) ) ) ) ) ) ) G ; R  .&.=.-.-.-.-.-.-.-.-.-.-.-.-.-.-.-.-.-.=.&. .T - F ) ) ) ) ) ) ) ) ) ) ) ",
") ) ) ) ) ) ) c v T { &.-.-.-.-.-.-.-.-.-.-.-.-.-.-.-.-.-.-.-.-.=.&.[ T b Z ) ) ) ) ) ) ) ) ) ) ",
") ) ) ) ) ) ) i 7 | &.-.-.=.*.#.+.#.*.-.-.-.-.-.-.-.*.@.+.+.*.-.-.-.&.| 7 5 ) ) ) ) ) ) ) ) ) ) ",
") ) ) ) ) ) ) i 9 o.=.-.-.&. .I 9 I ..&.-.-.-.-.-.&. .I 9 I ..&.-.-.-.o.9 i ) ) ) ) ) ) ) ) ) ) ",
") ) ) ) ) L f M ^ %.-.-.&.{ Y $   $ Y [ &.-.-.=.&.{ Y $   $ Y [ &.=.-.%._ M f K ) ) ) ) ) ) ) ) ",
") ) ) ) ) F # W #.=.=.&. .Y           E +.=.-.*.+.E           Y  .&.=.=.#.W + F ) ) ) ) ) ) ) ) ",
") ) ) ) ) F + ^ =.-.&. .w $           E +.*.-.*.+.E           $ I  .&.=.=.^ # G ) ) ) ) ) ) ) ) ",
") ) ) ) ) F + _ -.-. .Y $   o e r e o E +.*.-.*.+.E o e r e o   $ Y  .-.-._ # F ) ) ) ) ) ) ) ) ",
") ) ) ) ) F + _ -.-._       & / ( / & W #.=.-.=.#.W & / ( / &       ^ -.-._ + F ) ) ) ) ) ) ) ) ",
") ) ) ) ) F + _ -.-.^       & / ( / & ^ =.-.-.-.=.^ & / ( / &       _ -.-._ + F ) ) ) ) ) ) ) ) ",
") ) ) ) ) F + _ -.-. .Y $   o e r t R  .-.-.-.-.-. .R t r e o   $ Y  .-.-._ + F ) ) ) ) ) ) ) ) ",
") ) ) ) ) F + ^ =.-.&. .I 9 9 9 9 I  .&.-.-.-.-.-.&. .U 9 9 9 9 I  .&.-.*.^ + F ) ) ) ) ) ) ) ) ",
") ) ) ) ) F + W #.=.=.*.#.+.+.+.+.#.*.-.-.-.-.-.-.=.*.#.+.+.+.+.#.*.-.*.#.W + F ) ) ) ) ) ) ) ) ",
") ) ) ) ) F + E O.$.*.-.-.-.-.-.-.&.]  .&.=.-.-.&. .] &.-.-.-.-.-.-.*.$.O.E # S ) ) ) P ) ) ) ) ",
") ) ) P L S - T } X.$.*.*.-.-.-.-.+.9 Y  .&.*.&. .Y 9 +.-.-.-.-.*.*.$.X.} T - A L L L L P P ) ) ",
") ) L L J J C s d } O.+.+.&.-.-.-.+.9 $ I  .+. .w $ 9 +.-.-.-.&.O.+.O.} w 3 l S J J J J G ) ) ) ",
") ) L J H H H h 6 T E ~ ..+.%.%.%.O.^ E ~  .o. .~ E ^ +.%.%.%.@...~ E T 3 y N A H H H H J ) ) ) ",
") ) P L J J J J c # . % ` [ { [ ..+.+.o.o.O.+.+.o.O.+.+...{ { { ` %   * a B A H J J D J J ) ) ) ",
") ) ) L L L L L J Z > . % 7 7 7 ` *.*.%.+.&.*.*.+.$.*.*.` 7 7 7 % . * a B A H G J ) L L L ) ) ) ",
") ) ) ) ) ) ) ) K f M W ^ _ W $ _ -.-. ._ %.-.%.^  .-.-.^ $ W _ ^ W d , N H J J ) ) ) ) ) ) ) ) ",
") ) ) ) ) ) ) ) F + Y  .o.+. .7 W +.+.^ I  .+. .d ^ +.#.W 7  .+.o.| Y O z H ) J ) ) ) ) ) ) ) ) ",
") ) ) ) ) ) ) ) F + $ 7 9 9 7 X $ 9 9 W ] d 9 d ] W 9 9 $ . 7 9 9 7 $ O V L ) ) ) ) ) ) ) ) ) ) ",
") ) ) ) ) ) ) ) F + q Y $ # i i =     q W ^ _ ^ W q     # 5 4 # $ Y q O V ) ) ) ) ) ) ) ) ) ) ) ",
") ) ) ) ) ) ) ) J + E { 7 5 P F b 7 9 9 U +.*.+.U 9 9 7 f F J u 8 ` E 8 j K ) ) ) ) ) ) ) ) ) ) ",
") ) ) ) ) ) ) ) F + E { 7 5 G ; R | o.+.+.+.+.+.+.+.o.| T - F J j 8 E ` 8 f ) ) ) ) ) ) ) ) ) ) ",
") ) ) ) ) ) ) ) L f M E E M 5 i M W ^ _ ^ W E W ^ _ ^ W q + F P H + E { 7 5 ) P ) ) ) ) ) ) ) ) ",
") ) ) ) ) ) ) ) ) ) i 7 { E + F 5 X 7 7 % . $ 7 7 $   % 9 0 m J m = T ] w f F P ) ) ) ) ) ) ) ) ",
") ) ) ) ) ) ) ) ) ) i 7 { E + F 5 7 | ..` % Y { { Y % ` .. .0 u F m 0 w ' T ; G ) ) ) ) ) ) ) ) ",
") ) ) ) ) ) ) ) ) ) i 7 { E O Z 5 9 X.[ E E [ %.%.[ E E [ X.7 1 H H 1 7 { E X < c ) ) ) ) ) ) ) ",
") ) ) ) ) ) ) ) L S s d  .^ 0 m 4 8 ' W d ] X.+.+.X.] q E ` 8 3 H H : 7 | ^ 9 7 f K P ) ) ) ) ) ",
") ) ) ) ) ) ) ) F - R  .&.%. .0 4 m 8 ^  .d 7 9 9 7 w ] E 8 j H A V : 9 O.%.o.| R - K ) ) ) ) ) ",
") ) ) ) ) ) ) ) Z + E +.=.-.+.9 # s ! _ ! b u 5 4 2 s T E T s a A N ; 9 +.-.=.+.E + F ) ) ) ) ) ",
"L L L L L L L L Z = T  .&.*.o.9   9 o.^ + H L J H A l $ E | d u g k : 9 o.=.&. .R ; F ) ) ) ) ) ",
"J J J J J J H J D H 0 w  .+.| 7   7 | W + H F H A B z O E X.} T @ a * 7 | +. .d s J L ) ) ) ) ) ",
"H H H H H H H H H H h 6 T E Y $ d ] +.| W s h V V a a y n E E d : a y 3 T E T f H ) ) ) ) ) ) ) ",
"H H H H H H A H A H H x = X . % ' -.-.-.@.9 : B N k N V u O O : k k k a * O * V G D G G J L L L ",
"H H H H H A V B V A H H x ; % ` +.-.-.-.+.9 : N N k k N a a a a k k k a a a a V A A A A S D G G ",
"H H H H H A B N B H H H H h 0 T ~ _ _ _ Q u y k k k k k k k k k k k k k k k k k k k k k N A H H ",
"H H H H H A B a N V H H H A g * O . O O @ p k k k k k k k k k a k k k k k k k k k k N a N A H H "
};
