/* XPM */
static char *result[] = {
/* columns rows colors chars-per-pixel */
"48 48 101 2 ",
"   c #020202",
".  c #0B040D",
"X  c #0E0511",
"o  c #130616",
"O  c #131313",
"+  c gray11",
"@  c #390000",
"#  c #1E0A23",
"$  c #220B26",
"%  c #21092D",
"&  c #261F29",
"*  c #240B33",
"=  c #290E33",
"-  c #2C0E3B",
";  c #2D1136",
":  c #2F103C",
">  c #2D1939",
",  c #33113B",
"<  c #331C3D",
"1  c #232323",
"2  c #27202A",
"3  c #2A212D",
"4  c #2B2B2B",
"5  c #352936",
"6  c #323233",
"7  c #39393A",
"8  c #710000",
"9  c #6B3233",
"0  c #310D46",
"q  c #350F4D",
"w  c #341344",
"e  c #3A1341",
"r  c #361549",
"t  c #3A1449",
"y  c #3C1253",
"u  c #3C2043",
"i  c #3F3F40",
"p  c #44164C",
"a  c #411B4F",
"s  c #451A52",
"d  c #41125D",
"f  c #4B175D",
"g  c #4D1C5C",
"h  c #521E5E",
"j  c #422047",
"k  c #422448",
"l  c #43374B",
"z  c #4F3B54",
"x  c #461661",
"c  c #491762",
"v  c #4C1963",
"b  c #541D64",
"n  c #591D64",
"m  c #531C69",
"M  c #5B1F6D",
"N  c #5D1E70",
"B  c #611F6C",
"V  c #631F76",
"C  c #582161",
"Z  c #57206B",
"A  c #5B226D",
"S  c #62206E",
"D  c #642374",
"F  c #6A2277",
"G  c #6C247B",
"H  c #71247E",
"J  c #434344",
"K  c gray30",
"L  c gray33",
"P  c #5C575E",
"I  c #5D4960",
"U  c #646465",
"Y  c #6A6A6A",
"T  c #726D74",
"R  c #737374",
"E  c #7C7C7D",
"W  c #E30000",
"Q  c #752582",
"!  c #808080",
"~  c #8B8B8D",
"^  c #8D8C90",
"/  c #919192",
"(  c #979798",
")  c #A4A4A5",
"_  c #A7A7A9",
"`  c #ADADAF",
"'  c #AFAFB0",
"]  c #B3B3B5",
"[  c #BCBCBD",
"{  c #C3C3C5",
"}  c #CBCBCC",
"|  c #CFCFD0",
" . c #D3D3D4",
".. c #D6D6D8",
"X. c #DADADB",
"o. c #DFDFE1",
"O. c #E4E4E5",
"+. c #E9E9E9",
"@. c #F5F5F5",
"#. c #F7F7F8",
"$. c #FFFFFF",
/* pixels */
"Q Q Q Q Q Q Q Q G D A A A A m c d d d y y x d c m Z Z g g g g g C D Q G D A D G Q Q Q Q Q Q Q Q ",
"Q Q Q Q Q Q Q Q H D A A A A m v d d d x d d d c m A A Z A A A A D G Q G D A D G Q Q Q Q Q Q Q Q ",
"Q Q Q Q Q Q H G G D D D D D A m c x x y d x x m M D D A A A A D D G G G D D G G Q Q Q Q Q Q Q Q ",
"Q Q Q Q Q H G D D G G G G G D A m c x x x c m M V G D D A D D G G D D F G G G Q Q Q Q Q Q Q Q Q ",
"Q Q Q Q Q G D D D G H H Q Q S t - = * # * * ; , , , , , > e D H G D A D H Q Q Q Q Q Q Q Q Q Q Q ",
"Q Q Q Q Q G G D F H Q H A C h 3 1 1 4 4 4 4 4 4 4 4 4 1 1 3 h S S F D F H Q Q Q Q Q Q Q Q Q Q Q ",
"Q Q Q Q Q Q G G H H H S $ o 3 ^ _ ' |  ... . . .....| ' _ ~ 3 o $ S H H H Q Q Q Q Q Q Q Q Q Q Q ",
"Q Q Q Q Q Q Q Q Q Q n < P R ^  .O.+.#.$.$.$.$.$.$.$.#.+.O. ./ R P j h Q Q Q Q Q Q Q Q Q Q Q Q Q ",
"Q Q Q Q Q Q Q Q H B p J ] +.$.$.$.$.$.$.$.$.$.$.$.$.$.$.$.$.$.+.] J a S H Q Q Q Q Q Q Q Q Q Q Q ",
"Q Q Q Q Q Q Q Q V $ P ] +.$.$.$.$.$.$.$.$.$.$.$.$.$.$.$.$.$.$.#.+.] P $ S Q Q Q Q Q Q Q Q Q Q Q ",
"Q Q Q Q Q Q Q n j P ) +.#.$.$.$.$.$.$.$.$.$.$.$.$.$.$.$.$.$.$.$.#.+.) P j C Q Q Q Q Q Q Q Q Q Q ",
"Q Q Q Q Q Q Q e 1 ' +.$.$.$.$.@.O. . .O.#.$.$.$.$.$.$.$.$.$.$.$.$.$.+.] 2 , Q Q Q Q Q Q Q Q Q Q ",
"Q Q Q Q Q Q Q e 4 } #.$.$.$.@.X.E 4 4 ! X.#.$.$.$.$.$.$.$.$.$.$.$.$.#.} 4 e Q Q Q Q Q Q Q Q Q Q ",
"Q Q Q Q Q G p z ! O.$.$.$.@. .E 6     6 E } @.$.$.$.$.$.$.$.$.$.$.$.$.O.! z p G Q Q Q Q Q Q Q Q ",
"Q Q Q Q Q B o Y X.#.$.$.@.} ~ +         1 _ O.$.$.$.$.$.$.$.$.$.$.$.$.@.X.Y o B Q Q Q Q Q Q Q Q ",
"Q Q Q Q Q B o E #.$.$.#.X.E +           1 _ O.$.$.$.$.$.$.$.$.$.$.$.$.$.@.E o F Q Q Q Q Q Q Q Q ",
"Q Q Q Q Q B o ! $.$.$.O.E 6     @ 8 8 @ 1 _ O.$.$.$.$.$.$.$.$.$.$.$.$.$.$.! o B Q Q Q Q Q Q Q Q ",
"Q Q Q Q Q B o ! $.$.$. .4       8 W W 8 1 ' +.$.$.$.$.$.$.$.$.$.$.$.$.$.$.! o B Q Q Q Q Q Q Q Q ",
"Q Q Q Q Q B o ! $.$.$. .4       8 W W 8 4 } #.$.$.$.$.$.$.$.$.$.$.$.$.$.$.! o B Q Q Q Q Q Q Q Q ",
"Q Q Q Q Q B o ! $.$.$.O.E 6     @ 8 8 9 ! O.$.$.$.$.$.$.$.$.$.$.$.$.$.$.$.! o B Q Q Q Q Q Q Q Q ",
"Q Q Q Q Q B o E @.@.O. . .! 4 4 4 4 4 E X.#.$.$.$.$.$.$.$.$.$.$.$.$.$.$.#.E o B Q Q Q Q Q Q Q Q ",
"Q Q Q Q Q B o Y  . .! K  .O. . . . . .O.#.$.$.$.$.$.$.$.$.$.$.$.$.$.$.#.X.Y o B Q Q Q Q Q Q Q Q ",
"Q Q Q Q Q B o U [ R 6 4  .$.$.$.$.$.$.$.$.$.$.$.$.$.$.$.$.$.$.$.$.$.@.o.} U o A Q Q Q Q Q Q Q Q ",
"Q Q Q H G M $ P / 7 1 J  .#.$.$.$.$.$.$.$.$.$.$.$.$.$.$.$.$.$.#.@.@.o.{ ' P # M G G G G H Q Q Q ",
"Q Q Q G D A b u 6 / _ ` } +.$.$.$.$.$.$.$.$.$.$.$.$.$.$.$.$.$.+.|  .} ` i w x A D D D D G V Q Q ",
"Q Q G D A A A s < P _ O.O.O.O.O.O.O.O.O.O.O.O.O.O.O.O.O.O.O.O. .[ R U P > 0 c m A A A Z D Q Q Q ",
"Q Q H F D D D D g o ! $.$.O.}  .| } ' _ _ _ ) _ _ _ _ _ _ _ _ _ ^ & . # y x m Z D D V V G Q Q Q ",
"Q Q Q H G G G G b o ! $.$.O.| +.@. .J 1 1 1 1 1 1 1 1 1 1 1 1 1 & 0 q y x m A D G G G G G Q Q Q ",
"Q Q Q Q Q Q Q Q F p I ! ! T ! O.[ E Y U U U U U U 6 O L U L O o * y d c m A D G Q Q Q Q Q Q Q Q ",
"Q Q Q Q Q Q Q Q Q Q p o o o 5 ] E i ]  .| ] _ ' } ! J / ] _ 1 * x d d c Z D D G Q Q Q Q Q Q Q Q ",
"Q Q Q Q Q Q Q Q Q Q G B B B C 5 Y ] +.#. .J 1 J | O.] J R _ 1 = v x d v N G G Q Q Q Q Q Q Q Q Q ",
"Q Q Q Q Q Q Q Q Q Q Q Q Q Q V p z Y E ! Y O   O Y ! Y O 6 L O = m c x v V Q Q Q Q Q Q Q Q Q Q Q ",
"Q Q Q Q Q Q Q Q Q Q Q Q Q Q Q Q e . + O   1 4 4 4 4 4 4 4 +   , S b c M V Q Q Q Q Q Q Q Q Q Q Q ",
"Q Q Q Q Q Q Q Q Q Q Q Q Q Q Q Q , + ~ L 1 ]  . . . . . .[ ~ + , D A m M G Q Q Q Q Q Q Q Q Q Q Q ",
"Q Q Q Q Q Q Q Q Q Q Q Q Q Q Q Q e 1 _ U O Y ! ! ! ! ! ! R L O , G D A D G Q Q Q Q Q Q Q Q Q Q Q ",
"Q Q Q Q Q Q Q Q Q Q Q Q G G H F u 7 / L . + 4 4 4 4 4 4 4 4 2 5 n A A D G Q Q Q Q Q Q Q Q Q Q Q ",
"Q Q Q Q Q Q Q Q Q Q Q H G D A $ P / 7 O + ~ [ .... . . . .| ' P # b A D G Q Q Q Q Q Q Q Q Q Q Q ",
"Q Q Q Q Q Q Q Q Q Q Q G D A b o U _ 1   O L R ! ! ! ! ! [ @. .U X g Z D D Q Q Q Q Q Q Q Q Q Q Q ",
"Q Q Q Q Q Q Q Q H G G G D D h o U _ 1     1 1 1 1 O   + ~ +.] L . t v N G Q Q Q Q Q Q Q Q Q Q Q ",
"Q Q Q Q Q Q Q Q G G D D G G n o U _ 1   1 ] { _ _ L + / [ ] J O   . ; M D Q Q Q Q Q Q Q Q Q Q Q ",
"Q Q Q Q Q Q Q Q G D A D G C k T ' | E 6 O Y R U U z u P U L O 6 U U l , m Q Q Q Q Q Q Q Q Q Q Q ",
"G G G G G G D G F D A D D , 4  .$.@.| U . 1 O   . : g # . . + R } } R & s V G Q Q Q Q Q Q Q Q Q ",
"D D D D D D D D D A A A D : 4  .$.@. .U 1 ' Y . r d v g * + ~ ] } } ] ^ & t V Q Q Q Q Q Q Q Q Q ",
"A A A A A A A A A A A A Z ; 4 [ O.} E R / ..R X y d x v > 1 _ } } { ( P < s N Q Q Q Q Q Q Q Q Q ",
"A A A A Z Z Z m Z Z A Z Z w 2 / _ ~ + Y } ` P # y d f v w & ~ _ _ _ L # d m N N N V V V V V Q G ",
"A A A A Z Z m x v Z Z A A C a 2 1 + . O 4 1 > y d d d x d r & 1 & 1 > q d c c c m m m m N N D V ",
"A A A Z Z Z c x x m A A A A g - % % % % # % 0 d d d d y d y * * % * 0 y d d d d d d x d x m Z A ",
"A A A A A Z c y f m Z A A A m x d d d d d d d d d d d x d d d y d d d d d d d d d d d y c Z Z A "
};
