/* XPM */
static char *result[] = {
/* columns rows colors chars-per-pixel */
"48 48 100 2 ",
"   c #020202",
".  c #050208",
"X  c #130000",
"o  c #0E0412",
"O  c #130615",
"+  c #121212",
"@  c gray11",
"#  c #260000",
"$  c #190720",
"%  c #1D0924",
"&  c #20092E",
"*  c #261F2A",
"=  c #250B34",
"-  c #290E34",
";  c #2D1136",
":  c #2F103C",
">  c #33113C",
",  c #311C3B",
"<  c #232323",
"1  c #2C212E",
"2  c #2B2B2B",
"3  c #2E2732",
"4  c #323233",
"5  c #3A3A3B",
"6  c #5E0000",
"7  c #710000",
"8  c #6F1111",
"9  c #310E46",
"0  c #361440",
"q  c #3A1242",
"w  c #361549",
"e  c #3D164A",
"r  c #3B1155",
"t  c #3B2143",
"y  c #3F3F40",
"u  c #44164C",
"i  c #441557",
"p  c #451952",
"a  c #4B1E57",
"s  c #41125D",
"d  c #4D1B5C",
"f  c #521E5D",
"g  c #422047",
"h  c #493B4F",
"j  c #55205F",
"k  c #4F3B54",
"l  c #461661",
"z  c #491763",
"x  c #4C1964",
"c  c #531C64",
"v  c #581C61",
"b  c #501768",
"n  c #531C69",
"m  c #5B1F6E",
"M  c #5D1E70",
"N  c #611F6C",
"B  c #631F75",
"V  c #572060",
"C  c #5B226D",
"Z  c #642374",
"A  c #6B2277",
"S  c #672178",
"D  c #6C247B",
"F  c #71257F",
"G  c #464646",
"H  c #4E4E4E",
"J  c gray33",
"K  c #5D575E",
"L  c #675454",
"P  c #646465",
"I  c #69696A",
"U  c #6F6C72",
"Y  c #737373",
"T  c #7B7B7B",
"R  c #BD0000",
"E  c #E30000",
"W  c #752582",
"Q  c #808080",
"!  c #8B8B8D",
"~  c #8E8C90",
"^  c #919192",
"/  c #979798",
"(  c #A4A4A5",
")  c #A7A7A9",
"_  c #ADADAF",
"`  c #AFAFB0",
"'  c #B3B3B4",
"]  c #BCBCBE",
"[  c #C3C3C5",
"{  c #CDCDCD",
"}  c #CFCFD0",
"|  c #D3D3D4",
" . c #D6D6D8",
".. c #DADADB",
"X. c #DFDFE1",
"o. c #E4E4E5",
"O. c #E9E9E9",
"+. c #F4F4F4",
"@. c #F7F7F8",
"#. c #FFFFFF",
/* pixels */
"W W W W W W W W D Z C C C C n z s s s s s s s l n C C C C C C C Z A F D Z C Z D W W W W W W W W ",
"W W W W W W W W D Z C C C C n z 0 % & & = % & = = ; ; ; ; ; ; p Z D F D Z Z Z D W W W W W W W W ",
"W W W W W W F D D Z Z Z Z C a i , < < < 2 2 2 2 2 2 2 2 < < < t c v Z D Z Z Z D W W W W W W W W ",
"W W W W W D D Z A D D D D u O o K ) ) [ | | | | | | | | [ ) ) K O O q S D D D W W W W W W W W W ",
"W W W W W D Z Z Z D W A u k I T ` o.o.+.#.#.#.#.#.#.#.#.+.o.o.` T I h q N W W W W W W W W W W W ",
"W W W W W D D Z S D A f 1 T ..@.#.#.#.#.#.#.#.#.#.#.#.#.#.#.#.#.@...T * f A W W W W W W W W W W ",
"W W W W W F D D F W u * ! } @.#.#.#.#.#.#.#.#.#.#.#.#.#.#.#.#.#.#.@.} ~ 1 u W W W W W W W W W W ",
"W W W W W W W W D u k T } +.#.#.#.#.#.#.#.#.#.#.#.#.#.#.#.#.#.#.#.#.+.} T k u D W W W W W W W W ",
"W W W W W W W W N O I ..@.#.#.#.@.+...| ..+.@.#.#.#.#.#.#.#.#.#.#.#.#.@...I O N W W W W W W W W ",
"W W W W W W W W N O Q @.#.#.#.#.O.' G 2 G ' O.#.#.#.#.#.#.#.#.#.#.#.#.#.@.T O N W W W W W W W W ",
"W W W W W W W v e L ' #.#.#.#.O.( J +   + J ( O.@.#.#.#.#.#.#.#.#.#.#.#.#.' K g v W W W W W W W ",
"W W W W W W W q < _ O.#.#.@.O.' J           P } @.#.#.#.#.#.#.#.#.#.#.#.#.O._ < u W W W W W W W ",
"W W W W W W W q 2 } @.#.#.O.' 5 +           P | @.#.#.#.#.#.#.#.#.#.#.#.#.@.{ 2 > W W W W W W W ",
"W W W W W W W > 2 | #.#.#.' J +   X 6 7 6 X P | @.#.#.#.#.#.#.#.#.#.#.#.#.#.| 2 q W W W W W W W ",
"W W W W W W W q 2 | #.#.#.Q       # R E R # I ..@.#.#.#.#.#.#.#.#.#.#.#.#.#.| 2 u W W W W W W W ",
"W W W W W W W u 2 | #.#.#.Q       # R E R # T @.#.#.#.#.#.#.#.#.#.#.#.#.#.#.| 2 > W W W W W W W ",
"W W W W W W W > 2 | #.#.#.' J +   X 6 7 8 L ' #.#.#.#.#.#.#.#.#.#.#.#.#.#.#.| 2 q W W W W W W W ",
"W W W W W W W q 2 { @.+...| ' G 2 2 2 2 G ' O.#.#.#.#.#.#.#.#.#.#.#.#.#.#.@.{ 2 q W W W W W W W ",
"W W W W W W W q < _ | ' G ^ O...| | | | ..+.@.#.#.#.#.#.#.#.#.#.#.#.#.#.#.O.` < q W W W W W W W ",
"W W W W W W W q < ) / J + Q #.#.#.#.#.#.#.#.#.#.#.#.#.#.#.#.#.#.#.#.#.@.O. .) < q W W W W W W W ",
"W W W W W W W u 1 ! P < * ! @.#.#.#.#.#.#.#.#.#.#.#.#.#.#.#.#.#.@.@.@.O.| ] ^ 1 u W W W W W W W ",
"W W W W W W W A f 1 P ) ) ] ..@.#.#.#.#.#.#.#.#.#.#.#.#.#.#.#.#.@...| | { Y 1 j A W W W W W W W ",
"W W W W W W W W Z q h T } o.o.o.o.o.o.o.o.o.o.o.o.o.o.o.o.o.o.o.X.} / P P k r A W W W W W W W W ",
"W W W W D D D D Z m - 2 | #.@.| { | | ] ) ) ) ) ) ) ) ) ) ) ) ) ) ) K o o q Z D S D D D F F W W ",
"W W D D Z Z Z Z m n = 2 | #.+.} X.+.@.! < < < < < < < < < < < < < < 0 r r x n M Z Z Z Z Z W W W ",
"W W D Z C C C C n x 9 , U Q T I ' #.#.Q + J P J + 4 P P 4 . % % & & 9 s s l z n C C C C C S W W ",
"W W F A Z Z Z Z M m b i $ o o O U | | T y ' | ` < J _ [ Y * w r s s s l l l x m Z Z Z Z S W W W ",
"W W W F D D D D S A B Z c c c d t 2 2 I ' O.@.{ 2 + 5 _ ] ~ * = s s s l x n C Z Z W S Z W W W W ",
"W W W W W W W W W W W W F W W W > + J P I T Q Q Q Q T I / ) < & s s s l n C Z S W W W W W W W W ",
"W W W W W W W W W W W W W W W W u < ( P . @ + < ' | ' < J ~ @ = l l s l n Z Z Z W W W W W W W W ",
"W W W W W W W W W W W W W W W W > < ) P @ ! J . < 2 < . + @ . = x l s z C W W W W W W W W W W W ",
"W W W W W W W W W W W W W W W W v g K 4 < ) I + I Q Q Q Y J + ; n z s x m W W W W W W W W W W W ",
"W W W W W W W W W W W W W W W W W N O + 5 ^ J < ' | | | [ ! @ > C c z n Z W W W W W W W W W W W ",
"W W W W W W W W W W W W W W W W W N O J ^ 5 + . < 2 2 2 < @ . > Z m n M S W W W W W W W W W W W ",
"W W W W W W W W W W W W W W W W W N O P ) < y Q Q Q Q Q Q T I k e C C Z D W W W W W W W W W W W ",
"W W W W W W W W W W W W D F W W W N O P ) * I | | | | | O.@.| P O f C Z S W W W W W W W W W W W ",
"W W W W W W W W W W W D D Z S D F N O P ) < + 2 2 2 2 2 / @.| P O d C Z S W W W W W W W W W W W ",
"W W W W W W W W W W W D Z Z Z D F N O Y | ^ Y J +   + J ( } T h > c C Z D W W W W W W W W W W W ",
"W W W W W W W W W D D D A Z Z D D C O Q #.#.o.) <   @ ! ) ! 1 > C n n M S W W W W W W W W W W W ",
"W W W W W W W W D D Z Z D D D Z Z c O Q #.#.o.) <   . @ < 1 a V V n z n Z W W W W W W W W W W W ",
"W W W W W W W W D Z C Z D D D Z C f O Y o.o.( I T Y J + % t C C n x s b M W W W W W W W W W W W ",
"D D D D D D Z D Z Z C Z D D Z Z C f % K ) ) I H ..O._ < 0 Z C n x l s b m S D W W W W W W W W W ",
"Z Z Z Z Z Z Z Z Z C C C Z Z Z C C C c t < < Q ..@.@.{ 2 : C n l l l s x n Z S W W W W W W W W W ",
"C C C C C C C C C C C C C C C C C C C ; + I ] #.#.#. .2 - n x s s s r l n m B S W W W W W W W W ",
"C C C C C C n n n C C C C C C V n n n 0 3 ' | | | | ' 3 0 x l s s s s s z b n M B B B B B S D D ",
"C C C C C n x x x c C C C C n n z x l r w 3 2 2 2 2 3 w r l l r s s s l z z b b b n b b n M Z Z ",
"C C C C C n x s l n C C C C n x s s s s r = & & & & = r s s l r s s s s s s s s l s l r z x M C ",
"C C C C C n l s l c C C C C n l s s s s s s s s s s s s s s s l s s s s s s s s s s l r z n C C "
};
