/* XPM */
static char *result[] = {
/* columns rows colors chars-per-pixel */
"48 48 105 2 ",
"   c #010101",
".  c #0A030E",
"X  c #0D0511",
"o  c #130615",
"O  c #14061B",
"+  c #1A091F",
"@  c #111111",
"#  c gray11",
"$  c #390000",
"%  c #1C0A21",
"&  c #220B26",
"*  c #21092D",
"=  c #281F2B",
"-  c #250B35",
";  c #290E34",
":  c #2B0E3A",
">  c #2D1136",
",  c #2F113C",
"<  c #2E1A39",
"1  c #33113C",
"2  c #38113F",
"3  c #331D3D",
"4  c #232323",
"5  c #2C212E",
"6  c #2B2B2B",
"7  c #2E2732",
"8  c #2F2833",
"9  c #332935",
"0  c #323233",
"q  c #383839",
"w  c #710000",
"e  c #6B3233",
"r  c #310E46",
"t  c #351342",
"y  c #3A1242",
"u  c #3A1F41",
"i  c #361449",
"p  c #3D174D",
"a  c #370F50",
"s  c #3C1254",
"d  c #3E125A",
"f  c #3B2142",
"g  c #44164C",
"h  c #441557",
"j  c #451953",
"k  c #41125D",
"l  c #4D1C5B",
"z  c #521E5D",
"x  c #422047",
"c  c #46244B",
"v  c #43374B",
"b  c #4A3B4F",
"n  c #54205E",
"m  c #4F3B54",
"M  c #461661",
"N  c #491762",
"B  c #4C1964",
"V  c #541D64",
"C  c #581D62",
"Z  c #531C69",
"A  c #5B1E6D",
"S  c #5D1F70",
"D  c #611F6C",
"F  c #621F76",
"G  c #572060",
"H  c #5B226D",
"J  c #62206E",
"K  c #642273",
"L  c #6B2277",
"P  c #6C247B",
"I  c #71257F",
"U  c #434343",
"Y  c #57495B",
"T  c #58495C",
"R  c gray33",
"E  c #5D575E",
"W  c #646465",
"Q  c #69696A",
"!  c #6F6B72",
"~  c #726D74",
"^  c #727273",
"/  c #7C7C7D",
"(  c #E30000",
")  c #752582",
"_  c #808080",
"`  c #8B8B8D",
"'  c #8E8C90",
"]  c #919192",
"[  c #979798",
"{  c #A4A4A5",
"}  c #A7A7A9",
"|  c #AFAFB0",
" . c #B4B3B4",
".. c #BDBDBE",
"X. c #CCCCCD",
"o. c #CFCFD0",
"O. c #D3D3D4",
"+. c #D6D6D8",
"@. c #DADADB",
"#. c #DFDFE1",
"$. c #E4E4E5",
"%. c #EBEBEB",
"&. c #F3F3F4",
"*. c #F7F7F8",
"=. c #FFFFFF",
/* pixels */
") ) ) ) ) ) ) ) P K H H H H Z B d k k d d k k M V H H H H H H H K P ) P K H H P ) ) ) ) ) ) ) ) ",
") ) ) ) ) ) ) ) P K H H H H Z B r * % - - * * - ; > > > > > > j K P P P P H K P ) ) ) ) ) ) ) ) ",
") ) ) ) ) ) I P P K K K K H l j < 4 4 5 6 6 6 6 6 6 6 6 4 4 4 f C G J P K K P P ) ) ) ) ) ) ) ) ",
") ) ) ) ) P P K K P P P I p o . E } } ..O.O.O.O.O.O.O.O...} } E o o t K P P P ) ) ) ) ) ) ) ) ) ",
") ) ) ) ) P K K K P ) L g m Q / | $.$.&.=.=.=.=.=.=.=.=.&.$.$. ./ Q b y K I I ) ) ) ) ) ) ) ) ) ",
") ) ) ) ) P P K P P L z = / +.*.=.=.=.=.=.=.=.=.=.=.=.=.=.=.=.=.*.@./ = n L ) ) ) ) ) ) ) ) ) ) ",
") ) ) ) ) ) P P P ) g 5 ' o.*.=.=.=.=.=.=.=.=.=.=.=.=.=.=.=.=.=.=.*.o.` 5 g ) ) ) ) ) ) ) ) ) ) ",
") ) ) ) ) ) ) ) L g m / X.&.=.=.=.=.=.=.=.=.=.=.=.=.=.=.=.=.=.=.=.=.&.o./ m g L ) ) ) ) ) ) ) ) ",
") ) ) ) ) ) ) ) D O Q @.*.=.=.*.$.O.O.$.*.=.=.=.=.=.=.*.$.O.O.$.*.=.=.*.@.Q o J ) ) ) ) ) ) ) ) ",
") ) ) ) ) ) ) ) D o / *.=.=.*.@._ 6 6 / @.*.=.=.=.=.*.@./ 6 6 _ @.*.=.=.*./ o J ) ) ) ) ) ) ) ) ",
") ) ) ) ) ) ) C g E  .=.=.&.O./ 0     0 / X.&.=.=.&.X./ 0     0 / X.&.=.=. .E g C ) ) ) ) ) ) ) ",
") ) ) ) ) ) ) y 4 | %.=.*.X.` #         4 } $.=.=.$.} 4         # ` o.*.=.$.| 4 y ) ) ) ) ) ) ) ",
") ) ) ) ) ) ) y 6 X.*.*.@./ #           4 } $.=.=.$.{ 4           # / @.*.*.X.6 y ) ) ) ) ) ) ) ",
") ) ) ) ) ) ) y 6 O.=.$._ 0     $ w w $ 4 { $.=.=.$.} 4 $ w w $     0 _ %.=.O.6 y ) ) ) ) ) ) ) ",
") ) ) ) ) ) ) y 6 O.=.O.6       w ( ( w 4  .%.=.=.%.| 4 w ( ( w       6 O.=.+.6 y ) ) ) ) ) ) ) ",
") ) ) ) ) ) ) y 6 O.=.O.6       w ( ( w 6 X.*.=.=.*.X.6 w ( ( w       6 O.=.O.7 y ) ) ) ) ) ) ) ",
") ) ) ) ) ) ) y 6 O.=.$._ 0     $ w w e _ $.=.=.=.=.$./ e w w $     0 _ $.=.O.6 2 ) ) ) ) ) ) ) ",
") ) ) ) ) ) ) y 6 X.*.*.@./ 6 6 6 6 6 / +.*.=.=.=.=.*.@._ 6 6 6 6 6 / @.*.*.X.6 y ) ) ) ) ) ) ) ",
") ) ) ) ) ) ) 2 4 | %.=.*.$.O.O.O.O.O.$.*.=.=.=.=.=.=.*.$.O.O.O.O.O.$.*.=.%.| 4 y ) ) ) ) ) ) ) ",
") ) ) ) ) ) ) y 4 } +.$.=.=.=.=.=.=.*.X.' O.&.=.=.&.O.' ..=.=.=.=.=.=.=.%.+.} 4 y ) ) ) ) ) ) ) ",
") ) ) ) ) ) ) g 5 ' ..o.&.&.*.=.=.=.=._ # ` o.*.*.o.' # _ =.=.=.=.*.*.%.O...' 5 g ) ) ) ) ) ) ) ",
") ) ) ) ) ) ) L z 5 ^ X.o.o.@.*.=.=.=./   # / o.O./ #   _ =.=.=.*.@.O.O.X.^ 5 C L ) ) ) ) ) ) ) ",
") ) ) ) ) ) ) ) K t m W W [ o.#.$.$.$.{ Q W [ X.X.[ W W { $.$.$.#.X.[ W W m p L ) ) ) ) ) ) ) ) ",
") ) I I P P P P K A , X o E } } } | X.O.O.X.X.O.o.X.X.o.O.X.| } } { E o o r K P P L L P P ) ) ) ",
") ) I P K K K K S Z k s p < 4 4 4 U O.&.%.o.@.*.*.#.O.%.*.O.U 4 4 4 u h h B Z S K K K K K P ) ) ",
") ) P K H H H H Z B k h - v R @   6 O.=.$._  .=.=. ._ $.=.O.6   @ R f : s M M Z H H H H K P ) ) ",
") ) I P K K K K F A l j = /  .U 4 U  .O. .U / O.O./ f  .O. .U 4 U  ./ 4 i h Z H K K F F P ) ) ) ",
") ) ) P P P P P F F y 5 ' o.&.+...] U 6 U [ Q 6 6 Q [ U 6 U ] ..@.&.o.' 4 r H F P P P K ) P ) ) ",
") ) ) ) ) ) ) ) ) ) 2 @ R ^ _ _ ^ W W ^ ] O. ._ _ | O.] ^ W W ^ _ _ ^ R @ : K K ) ) ) ) ) ) ) ) ",
") ) ) ) ) ) ) ) ) ) y   # @   o o 5 ' ..O.O.%.=.=.%.O.O...] 5 . .   @ #   < P P ) ) ) ) ) ) ) ) ",
") ) ) ) ) ) ) ) ) ) 2 # ` R o z D n 5 6 6 6 [ =.=.[ 6 6 4 5 c h i . R ` # 1 P ) ) ) ) ) ) ) ) ) ",
") ) ) ) ) ) ) ) ) ) 2 4 } W o D C x E ^ _ _ | $.$.| _ _ ^ E f j h X W } 4 t ) ) ) ) ) ) ) ) ) ) ",
") ) ) ) ) ) ) ) ) K g q ] E & J g 5 ] ..O.O...} } ..O.O...] = y z % E ' q g J I ) ) ) ) ) ) ) ) ",
") ) ) ) ) ) ) ) K & E ] q c J I L C 5 6 6 6 4 4 4 4 6 6 4 5 z L K l 3 q ] E & K ) ) ) ) ) ) ) ) ",
") ) ) ) ) ) ) ) D o W } 4 2 ) ) z c ~ ^ R @ 0 W W 0 @ R ^ ~ c z P K > 4 } W o D ) ) ) ) ) ) ) ) ",
") ) ) ) ) ) ) ) D o W } 4 2 I I 2 6 X.o.] q / O.O./ q ] o.X.6 1 K K : 4 } W o D ) ) ) ) ) ) ) ) ",
") ) ) ) ) ) ) ) D o W } 4 1 L I 2 4  ./ q ] o.*.*.o.] q / | 4 1 K H > 4 } W O D ) ) ) ) ) ) ) ) ",
") ) ) ) ) ) ) C x E { O.] T t J z g E W W W ^ _ _ ^ W W W E f j G t Y ] O.{ E u D ) ) ) ) ) ) ) ",
") ) ) ) ) ) ) y 4 } $.=.=._ o G D z 9 Q ' = o o o o 5 ' Q 9 l C l X _ =.=.$.} 4 2 I ) ) ) ) ) ) ",
") ) ) ) ) ) ) y 4 } $.=.=._ o C g 9  ._ 5 z D A C z z 5 /  .9 2 j X _ =.=.$.} 4 g ) ) ) ) ) ) ) ",
") ) ) ) ) ) ) G u E { $.$.^ o V < 6 ..^ o H ) P K H G X ^ ..4 : h X ^ $.$.{ E g z I ) ) ) ) ) ) ",
"P P P P P P P P C & E } } E % g f U  ._ 9 z K K H B j 8 / ..U f i o E { } E & F ) I ) ) ) ) ) ) ",
"K K K K K K K K S G 9 4 4 f j + ! +.&.$. .9 y H Z , 7  .$.&.@.! o r < 4 4 9 Z P ) ) ) ) ) ) ) ) ",
"H H H H H H H H H H h : > j l X _ =.=.=.O.6 > Z M * 6 O.=.=.=._ X a r - ; h S ) I ) ) ) ) ) ) ) ",
"H H H H H H Z Z Z H H H H H l + ! O.O.O. .8 r M M - 7  .+.O.O.! O a d M N Z A S F F F F F L P P ",
"H H H H H Z B B B Z H H H H V h f 6 6 6 7 p d M M s i 7 6 6 6 8 a d k k M N N B B Z Z Z A D K K ",
"H H H H H Z B k k H H H H H Z B r * * * - s k k k k s - * * * r k k k k k k k k k k M d M Z A S ",
"H H H H H G B k M B H H H H Z M k k k k k d k k k k k k k k k d k k k k k k k k k k k k M V H H "
};
