/* XPM */
static char *result[] = {
/* columns rows colors chars-per-pixel */
"48 48 100 2 ",
"   c #020202",
".  c #050108",
"X  c #130000",
"o  c #0C0411",
"O  c #130615",
"+  c #14061D",
"@  c #121212",
"#  c gray11",
"$  c #260000",
"%  c #1B0727",
"&  c #20092E",
"*  c #281F2B",
"=  c #250B34",
"-  c #290D34",
";  c #2D1136",
":  c #2F103C",
">  c #2F1B3A",
",  c #32113C",
"<  c #301C3B",
"1  c #232323",
"2  c #2C212E",
"3  c #2B2B2B",
"4  c #2E2732",
"5  c #2F2833",
"6  c #323233",
"7  c #3A3A3B",
"8  c #5E0000",
"9  c #710000",
"0  c #6F1111",
"q  c #310E47",
"w  c #350F4D",
"e  c #3A1242",
"r  c #3A1F41",
"t  c #37164A",
"y  c #3D164B",
"u  c #3C1253",
"i  c #3A2041",
"p  c #3F3F40",
"a  c #44164C",
"s  c #451952",
"d  c #41125D",
"f  c #4E1C5D",
"g  c #531F5D",
"h  c #422047",
"j  c #4A3B4F",
"k  c #4F3B54",
"l  c #461661",
"z  c #491762",
"x  c #4C1964",
"c  c #531D65",
"v  c #581C61",
"b  c #501768",
"n  c #531C69",
"m  c #5B1E6D",
"M  c #5D1E70",
"N  c #611F6C",
"B  c #631F76",
"V  c #572060",
"C  c #5B226D",
"Z  c #642374",
"A  c #6B2277",
"S  c #672278",
"D  c #6C247B",
"F  c #71257F",
"G  c #464646",
"H  c #4E4E4E",
"J  c gray33",
"K  c #5D575E",
"L  c #675454",
"P  c #646465",
"I  c #69696A",
"U  c #6F6B72",
"Y  c #737374",
"T  c #7B7B7B",
"R  c #BD0000",
"E  c #E30000",
"W  c #752582",
"Q  c #808080",
"!  c #8B8B8D",
"~  c #8E8C90",
"^  c #919192",
"/  c #979798",
"(  c #A4A4A5",
")  c #A7A7A9",
"_  c #ADADAF",
"`  c #AFAFB0",
"'  c #B3B3B4",
"]  c #BCBCBD",
"[  c #C3C3C5",
"{  c #CDCDCE",
"}  c #CFCFD0",
"|  c #D3D3D4",
" . c #D6D6D8",
".. c #DADADB",
"X. c #DFDFE1",
"o. c #E4E4E5",
"O. c #E9E9EA",
"+. c #F4F4F4",
"@. c #F7F7F8",
"#. c #FFFFFF",
/* pixels */
"W W W W W W W W D Z C C C C n z d d d d d d d z c C C C C C C C Z S W D Z C Z D W W W W W W W W ",
"W W W W W W W W D Z C C C C n x q & & & & & & = - ; ; ; ; ; ; s Z D W D Z C Z D W W W W W W W W ",
"W W W W W W F D D S Z Z Z C f s < 1 1 1 3 3 3 3 3 3 3 3 3 1 1 i v V Z D S Z S D W W W W W W W W ",
"W W W W W D D Z Z D D D D a o o K ) ) ] | | | | | | | | ] ) ) K O o e S D D F F W W W W W W W W ",
"W W W W W D S N Z D W S a k I T ' o.o.+.#.#.#.#.#.#.#.#.+.o.o.` T I k e Z F W W W W W W W W W W ",
"W W W W W D D Z D D S g * T ..@.#.#.#.#.#.#.#.#.#.#.#.#.#.#.#.#.@...T * g A W W W W W W W W W W ",
"W W W W W W D D D W a * ~ } @.#.#.#.#.#.#.#.#.#.#.#.#.#.#.#.#.#.#.+.{ ^ * a W W W W W W W W W W ",
"W W W W W W W W D a k Y ]  .O.@.#.@.O.+.#.#.#.#.#.#.#.#.#.#.#.#.#.#.+.{ T k a D W W W W W W W W ",
"W W W W W W W W Z O I | | { } +.@.O. .O.#.#.#.#.#.@.+...| ..+.@.#.#.#.@...I O N W W W W W W W W ",
"W W W W W W W W N O T @.@.X.{ } |  .+.#.#.#.#.#.#.O.' G 3 G ' O.#.#.#.#.@.T O N W W W W W W W W ",
"W W W W W W W v a L ' #.#.o.{ X.o.O.@.#.#.#.#.@.O.( J @   @ J ( o.@.#.#.#.' K h v W W W W W W W ",
"W W W W W W W , 1 _ O.#.@.o...@.#.#.#.#.#.#.#.@.| P           J ] O.@.#.#.O.` 1 a W W W W W W W ",
"W W W W W W W e 3 { #.@...o.@.#.#.#.#.#.#.#.#.@.| P           @ 7 ' O.#.#.@.{ 3 , W W W W W W W ",
"W W W W W W W e 3 | #.@.O.o.o.#.#.#.#.#.#.#.#.@.| P X 8 9 8 X   @ J ' #.#.#.| 3 e W W W W W W W ",
"W W W W W W W e 3 | #.#.#.O...@.#.#.#.#.#.#.#.+...I $ R E R $       Q #.#.#.| 3 a W W W W W W W ",
"W W W W W W W y 3 | #.#.#.@.@.#.#.#.#.#.#.#.#.#.@.T $ R E R $       Q #.#.#.| 3 , W W W W W W W ",
"W W W W W W W e 3 | #.#.#.#.#.#.#.#.#.#.#.#.#.#.#.' L 0 9 8 X   @ J ' #.#.#.| 3 e W W W W W W W ",
"W W W W W W W e 3 { @.#.#.#.#.#.#.#.#.#.#.#.#.#.#.O.' G 3 3 3 3 G ' | ..+.@.{ 3 e W W W W W W W ",
"W W W W W W W e 1 ' O.#.#.#.#.#.#.#.#.#.#.#.#.#.#.@.+...| | | | ..+.^ G ' } ` 1 e W W W W W W W ",
"W W W W W W W e 1 ) ..O.@.#.#.#.#.#.#.#.#.#.#.#.#.#.#.#.#.#.#.#.#.#.Q @ J / ) 1 e W W W W W W W ",
"W W W W W W W a 2 ! ] } O.@.@.#.#.#.#.#.#.#.#.#.#.#.#.#.#.#.#.#.#.+.! 1 1 P ~ 4 a W W W W W W W ",
"W W W W W W W Z g 2 Y { | } ..@.#.#.#.#.#.#.#.#.#.#.#.#.#.#.#.#.@...] ) ( I * V A W W W W W W W ",
"W W W W W W W W Z e k P P / { X.o.o.o.o.o.o.o.o.o.o.o.o.o.o.o.o.o.o.o.} T k a S W W F W W W W W ",
"W W W F D D D D Z m : o O K ) ) ) ) ) ) ) ) ) ) ) ) ) ) ] | | { | @.#.| 3 : S S D D D D F F W W ",
"W W F D Z Z Z Z m b d s u < 1 1 1 1 1 1 1 1 1 1 1 1 1 1 ! @.@.X.| +.#.| 3 = n C Z Z Z Z B W W W ",
"W W D Z C C C C n x d d d q & = = % . 6 P P 6 @ J P J @ T #.#.' I T Q U r q l n C C C C Z S W W ",
"W W F D Z Z Z Z M n b b b n b b z y 1 Y [ _ J 1 ` | ' p T | | U o o o + w l n M Z Z Z Z S W W W ",
"W W F D D D D D D S Z B B B B B e 2 ! ] _ 7 @ 3 { @.O.' I 3 3 < w w w u l n M M Z W D S S W W W ",
"W W W W W W W W W W W W W W W W e 1 ) / I Q Q Q Q Q T I P J @ & d d d l n C Z S W W W W W W W W ",
"W W W W W W W W W W W W W W W W e # ! J 1 ' | ` 1 @ # . P ) 1 = l d d x n Z Z D W W W W W W W W ",
"W W W W W W W W W W W W W W W W e . # @   1 3 1 . J ! # I ) 1 - x l d x C D S W W W W W W W W W ",
"W W W W W W W W W W W W W W W W , @ J U Q Q Q I # P ) 1 6 L < s n x l x M W W W W W W W W W W W ",
"W W W W W W W W W W W W W W W W a # ! ] | |  .' 1 J ^ 7 @ O v Z N n z n Z W W W W W W W W W W W ",
"W W W W W W W W W W W W W W W W , . # 1 3 3 3 1 X @ 7 ^ J O m D Z C n m Z W W W W W W W W W W W ",
"W W W W W W W W W W W W W W F a k I T Q Q Q Q Q Q p 1 ( P O N F D Z C Z S W W W W W W W W W W W ",
"W W W W W W W W W W W W F D N O P | +.O. .| | | | I 1 ) P O C D S Z C Z D W W W W W W W W W W W ",
"W W W W W W W W W W F F D Z v O P | @./ 3 3 3 3 3 @ 1 ( P O n Z Z C C Z D W W W W W W W W W W W ",
"W W W W W W W W W W W D Z C m a j T { ( J @   @ J Y ^ | Y O v C C C C Z S W W W W W W W W W W W ",
"W W W W W W W W F F D D Z Z Z D y 2 ~ ) ! #   1 ) o.#.#.Q O g C C n c M Z W W W W W W W W W W W ",
"W W W W W W W W F A Z Z D D D Z C g 2 1 #     1 ) o.#.#.Q O c C n c x n S W W W W W W W W W W W ",
"W W W W W W W W D Z C Z D F D Z C C e & @ J Y T I ( o.o.Y @ c C n z l x M W W W W W W W W W W W ",
"D D D D D D D D Z Z C Z Z D Z Z C Z Z , 1 ` O...H I ) ) K % f n x l d x M S S W W W W W W W W W ",
"Z Z Z Z Z Z Z Z Z C C C Z Z Z C C C Z ; 3 { @.@...Q 1 1 i x x x l d d x n Z S W W W W W W W W W ",
"C C C C C C C C C C C C C C C C C C C ; 3 | #.#.#.] I @ > x x d d d d l x C M W W W W W W W W W ",
"C C C C C n n n c C C C C C C V n n n q 5 ' | | | | ' 5 q x l l d d d l z n n M B B M B B S D D ",
"C C C C C n n l x C C C C C C x z z l d t 5 3 3 3 3 5 t u l l u d d d d l z x b b b n b M M Z Z ",
"C C C C C n x l l n C C C C x x d d d d u = & & & & = u d d u l d d d d d d d d l d d l l n M C ",
"C C C C C n x u l n C C C C x z d d d d d d d d d d l u d d l u d d d d d d d d d d l u l b C C "
};
