/* XPM */
static char *result[] = {
/* columns rows colors chars-per-pixel */
"48 48 100 2 ",
"   c #010101",
".  c #0D0411",
"X  c #130615",
"o  c #15071D",
"O  c #17081B",
"+  c #121212",
"@  c gray11",
"#  c #390000",
"$  c #190720",
"%  c #1D0921",
"&  c #210B26",
"*  c #21092D",
"=  c #271F2A",
"-  c #281F2B",
";  c #250B34",
":  c #290F34",
">  c #2B0E3A",
",  c #2D1137",
"<  c #2C1938",
"1  c #33113B",
"2  c #38123F",
"3  c #341D3D",
"4  c #232323",
"5  c #27202B",
"6  c #2A212D",
"7  c #2B2B2B",
"8  c #2E2732",
"9  c #2F2833",
"0  c #323233",
"q  c #39393A",
"w  c #710000",
"e  c #6B3233",
"r  c #310E47",
"t  c #360F4E",
"y  c #351440",
"u  c #3A1242",
"i  c #3B1649",
"p  c #370F50",
"a  c #3C1253",
"s  c #3E125A",
"d  c #3A2041",
"f  c #3F3F40",
"g  c #44164C",
"h  c #451952",
"j  c #4B1C56",
"k  c #41125D",
"l  c #4D1C5C",
"z  c #422047",
"x  c #4F3B54",
"c  c #461661",
"v  c #491762",
"b  c #4C1964",
"n  c #531C64",
"m  c #591E64",
"M  c #531C69",
"N  c #5B1E6C",
"B  c #5D1F70",
"V  c #611F6C",
"C  c #621F75",
"Z  c #57206B",
"A  c #5B226D",
"S  c #62206E",
"D  c #642374",
"F  c #6A2277",
"G  c #6C247B",
"H  c #71247E",
"J  c #424242",
"K  c gray30",
"L  c #57485B",
"P  c gray33",
"I  c #5C575E",
"U  c #646465",
"Y  c #69696A",
"T  c #737374",
"R  c #7C7C7D",
"E  c #E30000",
"W  c #752582",
"Q  c #808080",
"!  c #8B8B8D",
"~  c #8D8C90",
"^  c #919193",
"/  c #979798",
"(  c #A4A4A5",
")  c #A7A7A9",
"_  c #ADADAF",
"`  c #AFAFB0",
"'  c #B4B4B5",
"]  c #BBBBBC",
"[  c #C3C3C5",
"{  c #CCCCCD",
"}  c #CFCFD0",
"|  c #D3D3D4",
" . c #D6D6D8",
".. c #DADADB",
"X. c #DFDFE1",
"o. c #E4E4E5",
"O. c #EAEAEA",
"+. c #F4F4F4",
"@. c #F7F7F8",
"#. c #FFFFFF",
/* pixels */
"W W W W W W W W H D A A A A M v s k k k k s c v M N A A A A A A D D H G D A D G W W W W W W W W ",
"W W W W W W W W H D A A A A M v k k k k k s s v M Z A A A A A A D G W G D A D G W W W W W W W W ",
"W W W W W W H G G D D D D D A M v c k k k c c M N C A A A A D D F G F F G D D H W W W W W W W W ",
"W W W W W G G D D D G G G G D A M b c k c b M Z D G D D A D D G F F D F G G H H W W W W W W W W ",
"W W W W W G F A D G W W W H G D A v > % ; ; , 1 2 2 1 1 < > 2 y g A S D H H W W W W W W W W W W ",
"W W W W W G G D G G W H H G D m Z i 5 4 4 7 7 7 7 7 7 7 7 7 4 4 8 j l Z H W W W W W W W W W W W ",
"W W W W W W G G G W W H F D m & + 6 ~ ) ` { | | | | | |  .{ ' ( ! 6 X & V W W W W W W W W W W W ",
"W W W W W W W W W W W G D h z I T ~ | o.O.#.#.#.#.#.#.#.#.@.O.o.| ^ T I g m W W W W W W W W W W ",
"W W W W W W W W W W W W A 3 J ' O.#.#.#.#.#.#.#.#.#.#.#.#.#.#.#.#.#.O.' J z C H W W W W W W W W ",
"W W W W W W W W W W W D & I ' O.@.#.#.#.#.#.#.#.#.#.#.#.#.#.#.#.#.#.@.O.' I & D W W W W W W W W ",
"W W W W W W W W W W m g I / } X.+.#.#.+.O.@.#.#.#.#.#.#.#.#.#.#.#.#.#.@.O.( I z m W W W W W W W ",
"W W W W W W W W W W 2 4 ` | } { X.@.@.o...@.#.#.#.#.#.@.o.|  .o.@.#.#.#.#.O.` 4 g W W W W W W W ",
"W W W W W W W W W W 2 7 { +.O.| { | | o.@.#.#.#.#.#.@...R 7 7 R ..@.#.#.#.@.{ 7 2 W W W W W W W ",
"W W W W W W W W G g x Q o.#.@.}  .o.o.+.#.#.#.#.#.+.{ R 0     0 R } +.#.#.#.o.Q x g F W W W W W ",
"W W W W W W W W S X Y ..@.@.+. .O.#.#.#.#.#.#.#.#.o.) 4         @ ! } @.#.#.@...Y X V W W W W W ",
"W W W W W W W W S X R @.#.O. .+.@.#.#.#.#.#.#.#.#.o.( 4           @ R ..@.#.#.+.R X V W W W W W ",
"W W W W W W W W V X Q #.#.+.o.o.+.#.#.#.#.#.#.#.#.o.) 4 # w w #     0 R o.#.#.#.Q X V W W W W W ",
"W W W W W W W W V X Q #.#.#.@...O.#.#.#.#.#.#.#.#.O.' 4 w E E w       7  .#.#.#.Q X V W W W W W ",
"W W W W W W W W V X Q #.#.#.#.+.@.#.#.#.#.#.#.#.#.@.{ 7 w E E w       7 | #.#.#.Q X V W W W W W ",
"W W W W W W W W V X Q #.#.#.#.#.#.#.#.#.#.#.#.#.#.#.o.Q e w w #     0 R o.#.#.#.Q X V W W W W W ",
"W W W W W W W W V X R +.#.#.#.#.#.#.#.#.#.#.#.#.#.#.@...R 7 7 7 7 7 R | | o.@.+.R X V W W W W W ",
"W W W W W W W W N X Y ..@.#.#.#.#.#.#.#.#.#.#.#.#.#.#.@.o.|  . .|  .o. .K R | | Y X V W W W W W ",
"W W W W W W H W m X U } X.+.#.#.#.#.#.#.#.#.#.#.#.#.#.#.#.#.#.#.#.#.#. .7 0 T ] U X V W W W W W ",
"W W W H G G G G m % I _ [ X.+.+.@.#.#.#.#.#.#.#.#.#.#.#.#.#.#.#.#.#.@.| J 4 q ~ I & V G G W W W ",
"W W G G D D D D N j 1 q ' { | | O.#.#.#.#.#.#.#.#.#.#.#.#.#.#.#.#.#.O.{ ` ) ~ q d Z A D C W W W ",
"W W G D A A A A M b r < I U T ]  .o.o.o.o.o.o.o.o.o.o.o.o.o.o.o.o.o.o.o.o.( I 3 h A A A B W W W ",
"W W H G D D D D C N M k o X = ~ ) ) ( ) ) ) ( ) ) ) ) ) ) ` { | | { o.#.#.Q . l D D C C D W W W ",
"W W W H G G G G C C C B n n j - 4 4 4 4 4 4 4 4 4 4 4 4 4 J } @.O.} o.#.#.Q . n G G G D W W W W ",
"W W W W W W W W W W W W W W F g % + P U P + 0 U U 0 + P 0 7 | #.o.R T Q Q L i A W W W W W W W W ",
"W W W W W W W W W W W W W W W W u 4 ) ' ^ 0 R | | R f ^ U J '  .' 9 . . . y G G W W W W W W W W ",
"W W W W W W W W W W W W W W W W u 4 ) T q ^ } +.@.o.' f U ^ f 7 9 i t a l D G W W W W W W W W W ",
"W W W W W W W W W W W W W W W W u + P 0 + P T ^ | +.O./ T P + O 1 k k M D H W W W W W W W W W W ",
"W W W W W W W W W W W W W W W W u   @ 4 7 7 7 J ^ [ | | Y   X u A M c N D W W W W W W W W W W W ",
"W W W W W W W W W W W W W W W W 2 @ ~ [ | | | ] J 4 7 7 + X j S D B M B F W W W W W W W W W W W ",
"W W W W W W W W W W W W W W W W 2 + P T Q Q Q Y + 0 P + % g F H G D Z D G W W W W W W W W W W W ",
"W W W W W W W W W W W W W G G F z 4 7 7 7 7 7 4   U ) 4 y W H G D D A D G W W W W W W W W W W W ",
"W W W W W W W W W W H H G D N & I ` { | | | | _ 7 U ) 4 2 H G D D A A D G W W W W W W W W W W W ",
"W W W W W W W W W W W G D A n X 0 Y R Q Q Q Q R Y U P + u G D A A A Z D G W W W W W W W W W W W ",
"W W W W W W W W H H H F D A h . + 4 4 4 @     4 ) U     2 G D S A Z n Z G W W W W W W W W W W W ",
"W W W W W W W W H G D D F g .   P ) ( ) ! 4   4 ) U     2 G D A M b b N D W W W W W W W W W W W ",
"H W W W W H W W G D A A u x U U U U U Y P +   4 ) U + P x y 1 h M v k M B W W W W W W W W W W W ",
"G G G G G G G G D D Z j 6 R | | R 4       @ 7 J ' Y 4 ) T 4 4 < s c k b M W B W W W W W W W W W ",
"D D D D D D D D D A 3 6 ! } @.+.o.' 4   @ ! [ ..+.R 4 ) ] ) ( I $ p k b M B W W W W W W W W W W ",
"A A A A A A A Z A A h 3 I ( O.@.#. .7   4 ) o.#.#.R 4 ) [ { { U . p k c M B B W W W W W W W W W ",
"A A A A A Z Z Z Z Z A l % I ` } | ' 8 . = ~ } +.+.R @ ! _ ) ) I o p s c b M B B C B C B C G G G ",
"A A A A Z Z b v v Z A Z l d 4 7 7 8 p a t : R  .| Y   @ 4 4 4 < p s k k c v v b M M M M B B D D ",
"A A A A A Z v c c n A A A h , * ; ; a k s ; f U U f * * ; % * r k k s k k k k k k k k c v M Z B ",
"A A A A Z Z v s c M Z A A A n v s s k k k k ; . . ; k k s k s s k k k k k k k k k k k s c Z Z B "
};
