/* XPM */
static char *result[] = {
/* columns rows colors chars-per-pixel */
"48 48 100 2 ",
"   c #020202",
".  c #0B040D",
"X  c #0E0511",
"o  c #130616",
"O  c #15071E",
"+  c #131313",
"@  c gray11",
"#  c #390000",
"$  c #190720",
"%  c #1D0A22",
"&  c #210B26",
"*  c #20092E",
"=  c #261F2A",
"-  c #281F2B",
";  c #250B34",
":  c #290E32",
">  c #2A0D39",
",  c #2D1136",
"<  c #2D1939",
"1  c #33113C",
"2  c #38123F",
"3  c #361F3E",
"4  c #232323",
"5  c #27202B",
"6  c #2A212D",
"7  c #2B2B2B",
"8  c #2D2731",
"9  c #2F2832",
"0  c #323233",
"q  c #39393A",
"w  c #710000",
"e  c #6B3233",
"r  c #310E46",
"t  c #341344",
"y  c #3A1242",
"u  c #36104E",
"i  c #3D1649",
"p  c #3B1154",
"a  c #3C2042",
"s  c #3F3F40",
"d  c #44164C",
"f  c #411555",
"g  c #451953",
"h  c #491E55",
"j  c #41125D",
"k  c #4D1C5C",
"l  c #511D5F",
"z  c #422047",
"x  c #493A4E",
"c  c #4F3B54",
"v  c #461661",
"b  c #491762",
"n  c #4C1965",
"m  c #531C64",
"M  c #581D64",
"N  c #531C69",
"B  c #5B1F6C",
"V  c #5D1E70",
"C  c #611F6C",
"Z  c #621F75",
"A  c #5B226D",
"S  c #62206E",
"D  c #642374",
"F  c #6A2277",
"G  c #6C247B",
"H  c #72257F",
"J  c #434344",
"K  c gray30",
"L  c gray33",
"P  c #5C575E",
"I  c #646465",
"U  c #6A6A6A",
"Y  c #716C73",
"T  c #737374",
"R  c #7C7C7D",
"E  c #E30000",
"W  c #752582",
"Q  c #808080",
"!  c #8B8B8D",
"~  c #8D8C90",
"^  c #919192",
"/  c #979798",
"(  c #A4A4A5",
")  c #A7A7A9",
"_  c #ADADAF",
"`  c #AFAFB0",
"'  c #B3B3B5",
"]  c #BCBCBD",
"[  c #C3C3C5",
"{  c #CCCCCD",
"}  c #CFCFD0",
"|  c #D3D3D4",
" . c #D6D6D8",
".. c #DADADB",
"X. c #DFDFE1",
"o. c #E4E4E5",
"O. c #EAEAEA",
"+. c #F4F4F4",
"@. c #F7F7F8",
"#. c #FFFFFF",
/* pixels */
"W W W W W W W W G D A A A A N b p j j j j j p p f A A A A A A A D G H G D A D G H W W W W W W W ",
"W W W W W W W W H D A A A A N v v j j j v p j v n A A A A A A A D G H G D A D G H W W W W W W W ",
"W W W W W W G G G D D D D D A N v v j j v v b n A D S A A D D D D G G G G D G G W W W W W W W W ",
"W W W W W H G D D D G G G G D A N n v j v b N A D G D D A D D D G F S D G G G H W W W W W W W W ",
"W W W W W G D S D G W W H H G S A b > % ; > , 1 2 y 1 1 < , 1 y d S A S G W W W W W W W W W W W ",
"W W W W H G G D F H W H H G D A A g 5 4 4 7 7 7 7 7 7 7 7 7 4 4 6 l l A G W W W W W W W W W W W ",
"W W W W W W G G H H H H G S M & X 5 ! ) ` } | | |  .| | | } ` ) ~ 6 o & S W W W W W W W W W W W ",
"W W W W W W W W W W W G D h a P T ! | o.O.@.#.#.#.#.#.#.#.@.O.o.| ^ T P z l W W W W W W W W W W ",
"W W W W W W W W W W W W A 3 s ' O.#.#.#.#.#.#.#.#.#.#.#.#.#.#.#.#.#.O.' J d D H W W W W W W W W ",
"W W W W W W W W W W W D & P ' O.@.#.#.#.#.#.#.#.#.#.#.#.#.#.#.#.#.#.@.O.' P & S W W W W W W W W ",
"W W W W W W W W W W M d P / } X.+.#.#.+.O.@.#.#.#.#.#.#.#.#.#.#.#.#.#.@.O.( P z C W W W W W W W ",
"W W W W W W W W W W 2 4 `  .} { X.@.@.o...@.#.#.#.#.#.@.o.| | o.@.#.#.#.#.O.` 4 y W W W W W W W ",
"W W W W W W W W W W 2 7 { @.O.| { | | o.@.#.#.#.#.#.@. .R 7 7 Q ..@.#.#.#.@.{ 7 2 W W W W W W W ",
"W W W W W W W W G d c R o.#.@.}  .o.o.+.#.#.#.#.#.+.} R 0     0 R | O.#.#.#.o.R c d F W W W W W ",
"W W W W W W W W S o U ..@.@.+. .O.#.#.#.#.#.#.#.#.o.) 4         @ ! | @.#.#.@...U o C W W W W W ",
"W W W W W W W W S o R @.#.O. .+.@.#.#.#.#.#.#.#.#.o.( 4           @ R  .@.#.#.@.R o C W W W W W ",
"W W W W W W W W C o Q #.#.+.o.o.+.#.#.#.#.#.#.#.#.o.) 4 # w w #     0 R o.#.#.#.Q o C W W W W W ",
"W W W W W W W W C o Q #.#.#.@...O.#.#.#.#.#.#.#.#.O.` 4 w E E w       7 | #.#.#.Q o C W W W W W ",
"W W W W W W W W C o Q #.#.#.#.@.@.#.#.#.#.#.#.#.#.@.{ 7 w E E w       7 | #.#.#.Q o C W W W W W ",
"W W W W W W W W C o Q #.#.#.#.#.#.#.#.#.#.#.#.#.#.#.O.R e w w #     0 Q o.#.#.#.Q o C W W W W W ",
"W W W W W W W W C o R +.#.#.#.#.#.#.#.#.#.#.#.#.#.#.@. .R 7 7 7 7 7 Q | | o.@.+.R o C W W W W W ",
"W W W W W W W W B o U  .+.#.#.#.#.#.#.#.#.#.#.#.#.#.#.@.o.| | | | | o.| K R | | U o C W W W W W ",
"W W W W W W W H M o I } X.+.#.#.#.#.#.#.#.#.#.#.#.#.#.#.#.#.#.#.#.#.#.| 7 0 T ] I o C W W W W W ",
"W W W H G G G G m % P _ [ X.@.+.@.#.#.#.#.#.#.#.#.#.#.#.#.#.#.#.#.#.@.| J 4 q ^ P & B G H H W W ",
"W W H G D D D D B f 1 q ' { | | O.#.#.#.#.#.#.#.#.#.#.#.#.#.#.#.#.#.O.{ ` ) ^ q a A A D Z W W W ",
"W W G D A A A A N n r < P I T ]  .o.o.o.o.o.o.o.o.o.o.o.o.o.o.o.o.o.o.o.o.( L 3 p A A A Z W W W ",
"W W H G D D D D Z B N j O X - ! ) ) ( ) ) ) ) ) ) ) ) ( ) ` { | | { o.#.#.Q X k D D A D D W W W ",
"W W H G G G G G Z Z Z V M m k - 4 4 4 4 4 4 4 4 4 4 4 4 4 J | @.O.} o.#.#.Q X m G G G G G W W W ",
"W W W W W W H W W W W W W W F d $ + L I L + 0 I I I I I I U R ] o.R T R Q L t A W W W W W W W W ",
"W W W W W W W W W W W W W W W W y 4 ) ' ^ J Q { ` ) ` { | ' s R ' 8 X X o t G W W W W W W W W W ",
"W W W W W W W W W W W W W W W W y 4 ) T J ' o.| J 4 J | @.o.' U 9 i u p k D G W W W W W W W W W ",
"W W W W W W W W W W W W W W W W y + L 0 + U Q U +   + U Q R U x 1 j v N V W W W W W W W W W W W ",
"W W W W W W W W W W W W W W W W y   @ 4 7 7 7 7 7 7 4   + @   1 A N v N Z W W W W W W W W W W W ",
"W W W W W W W W W W W W W W W W 2 @ ! [ | |  . . .| ` 7 L ! @ 2 D B N V D W W W W W W W W W W W ",
"W W W W W W W W W W W W W W W W 2 + L T Q Q Q Q Q Q U + I ) 4 y G D A D G W W W W W W W W W W W ",
"W W W W W W W W W W W W H G G F z 4 7 7 7 7 7 7 7 7 4   L ^ q a A D A D G W W W W W W W W W W W ",
"W W W W W W W W W W H H G D A & P ` {  .| | | | | ] ! @ + q ^ P O l A D G W W W W W W W W W W W ",
"W W W W W W W W W W H G D A m o I | @.] Q Q Q Q Q T L +   4 ) I o h A D G W W W W W W W W W W W ",
"W W W W W W W W H H H F D A g X L ' O.^ @   + 4 4 7 4 .   4 ( I X g N B D W W W W W W W W W W W ",
"W W W W W W W W G G D D F d X   + s ' ] ! @ L ) ( ] ` 4   4 ) I X f n B D W W W W W W W W W W W ",
"W W W W W W W W G D A A y c I I 0 + L I P a c U I T U @ 0 R } ` Y t r N V W W W W W W W W W W W ",
"G G G G G G G G D D A h 6 T { { T @   . & D i X   + 4   I | +.#.| 8 ; n N W V W W W W W W W W W ",
"D D D D D D D D D A 2 6 ! ' [ { ' ! @ : A A A i X U ` 4 I | @.#.| 7 * v N V W W W W W W W W W W ",
"A A A A A A A A A A g 3 P / { { { ) 4 , A A A i . T | ~ Y R } o.] 4 ; v N V V W W W W W W W W W ",
"A A A A A A m m N A A k % P ) ) ) ~ 5 t N N N p $ P ` { U @ ! ) ^ 4 ; v n N N V Z Z Z Z G Z W G ",
"A A A A A N n n n N A A l 3 4 4 4 5 u j b v v j u 8 4 7 + . @ 4 5 t p j v v n n N N N n B V D D ",
"A A A A A N n j b N A A A i : ; * ; p j j j j j j r * * * * * = ; p j j j j j j j j j v b N A A ",
"A A A A A N v j v N A A A A N k j j j j j j j j j j j j j j j p j j j j j j j j j j v p b n A A "
};
